%TF.GenerationSoftware,KiCad,Pcbnew,10.0.6*%
%TF.CreationDate,2026-09-08T11:52:52+03:00*%
%TF.ProjectId,yoklama-dip-v1,796f6b6c-616d-4612-9d64-69702d76312e,rev?*%
%TF.SameCoordinates,Original*%
%TF.FileFunction,Copper,L2,Bot*%
%TF.FilePolarity,Positive*%
%FSLAX46Y46*%
G04 Gerber Fmt 4.6, Leading zero omitted, Abs format (unit mm)*
G04 Created by KiCad (PCBNEW 10.0.6) date 2026-09-08 11:52:52*
%MOMM*%
%LPD*%
G01*
G04 APERTURE LIST*
%TA.AperFunction,ComponentPad*%
%ADD10R,1.800000X1.800000*%
%TD*%
%TA.AperFunction,ComponentPad*%
%ADD11C,1.800000*%
%TD*%
%TA.AperFunction,ViaPad*%
%ADD12C,0.800000*%
%TD*%
%TA.AperFunction,ViaPad*%
%ADD13C,1.000000*%
%TD*%
%TA.AperFunction,Conductor*%
%ADD14C,0.300000*%
%TD*%
%TA.AperFunction,Conductor*%
%ADD15C,0.800000*%
%TD*%
G04 APERTURE END LIST*
D10*
%TO.P,R4,1*%
%TO.N,/LED_NET_GPIO13*%
X88900000Y-76200000D03*
D11*
%TO.P,R4,2*%
%TO.N,/LED_NET_A*%
X96520000Y-76200000D03*
%TD*%
D10*
%TO.P,R10,1*%
%TO.N,/BUZZER_BASE*%
X12700000Y-91440000D03*
D11*
%TO.P,R10,2*%
%TO.N,/GND*%
X20320000Y-91440000D03*
%TD*%
D10*
%TO.P,C2,1*%
%TO.N,/+5V_USB*%
X96520000Y-102870000D03*
D11*
%TO.P,C2,2*%
%TO.N,/GND*%
X99060000Y-102870000D03*
%TD*%
D10*
%TO.P,J1,1*%
%TO.N,/RFID_CS_GPIO5*%
X102870000Y-59690000D03*
D11*
%TO.P,J1,2*%
%TO.N,/RFID_SCK_GPIO18*%
X105410000Y-59690000D03*
%TO.P,J1,3*%
%TO.N,/RFID_MOSI_GPIO23*%
X107950000Y-59690000D03*
%TO.P,J1,4*%
%TO.N,/RFID_MISO_GPIO19*%
X110490000Y-59690000D03*
%TO.P,J1,5*%
%TO.N,unconnected-(J1-IRQ-Pad5)*%
X113030000Y-59690000D03*
%TO.P,J1,6*%
%TO.N,/GND*%
X115570000Y-59690000D03*
%TO.P,J1,7*%
%TO.N,/RFID_RST_GPIO27*%
X118110000Y-59690000D03*
%TO.P,J1,8*%
%TO.N,/+3V3*%
X120650000Y-59690000D03*
%TD*%
D10*
%TO.P,D2,1*%
%TO.N,/GND*%
X66040000Y-87630000D03*
D11*
%TO.P,D2,2*%
%TO.N,/LED_OK_A*%
X68580000Y-87630000D03*
%TD*%
D10*
%TO.P,R2,1*%
%TO.N,/LED_OK_GPIO16*%
X63500000Y-76200000D03*
D11*
%TO.P,R2,2*%
%TO.N,/LED_OK_A*%
X71120000Y-76200000D03*
%TD*%
D10*
%TO.P,D5,1*%
%TO.N,/+5V_USB*%
X25400000Y-106680000D03*
D11*
%TO.P,D5,2*%
%TO.N,/BUZZER_LOW*%
X33020000Y-106680000D03*
%TD*%
D10*
%TO.P,D1,1*%
%TO.N,/GND*%
X53340000Y-87630000D03*
D11*
%TO.P,D1,2*%
%TO.N,/LED_READY_A*%
X55880000Y-87630000D03*
%TD*%
D10*
%TO.P,D4,1*%
%TO.N,/GND*%
X91440000Y-87630000D03*
D11*
%TO.P,D4,2*%
%TO.N,/LED_NET_A*%
X93980000Y-87630000D03*
%TD*%
D10*
%TO.P,C3,1*%
%TO.N,/+3V3*%
X123190000Y-71120000D03*
D11*
%TO.P,C3,2*%
%TO.N,/GND*%
X125730000Y-71120000D03*
%TD*%
D10*
%TO.P,R8,1*%
%TO.N,/+5V_USB*%
X73660000Y-111760000D03*
D11*
%TO.P,R8,2*%
%TO.N,/SCL_5V*%
X81280000Y-111760000D03*
%TD*%
D10*
%TO.P,C1,1*%
%TO.N,/+5V_USB*%
X97790000Y-81280000D03*
D11*
%TO.P,C1,2*%
%TO.N,/GND*%
X100330000Y-81280000D03*
%TD*%
D10*
%TO.P,Q2,1*%
%TO.N,/SCL_3V3_GPIO22*%
X73660000Y-104140000D03*
D11*
%TO.P,Q2,2*%
%TO.N,/+3V3*%
X76200000Y-104140000D03*
%TO.P,Q2,3*%
%TO.N,/SCL_5V*%
X78740000Y-104140000D03*
%TD*%
D10*
%TO.P,D3,1*%
%TO.N,/GND*%
X78740000Y-87630000D03*
D11*
%TO.P,D3,2*%
%TO.N,/LED_ERROR_A*%
X81280000Y-87630000D03*
%TD*%
D10*
%TO.P,R13,1*%
%TO.N,/+3V3*%
X87630000Y-69850000D03*
D11*
%TO.P,R13,2*%
%TO.N,/SD_CS_GPIO33*%
X95250000Y-69850000D03*
%TD*%
D10*
%TO.P,R6,1*%
%TO.N,/+5V_USB*%
X50800000Y-111760000D03*
D11*
%TO.P,R6,2*%
%TO.N,/SDA_5V*%
X58420000Y-111760000D03*
%TD*%
D10*
%TO.P,R3,1*%
%TO.N,/LED_ERROR_GPIO17*%
X76200000Y-76200000D03*
D11*
%TO.P,R3,2*%
%TO.N,/LED_ERROR_A*%
X83820000Y-76200000D03*
%TD*%
D10*
%TO.P,R1,1*%
%TO.N,/LED_READY_GPIO4*%
X50800000Y-76200000D03*
D11*
%TO.P,R1,2*%
%TO.N,/LED_READY_A*%
X58420000Y-76200000D03*
%TD*%
D10*
%TO.P,C5,1*%
%TO.N,/+5V_USB*%
X88900000Y-116840000D03*
D11*
%TO.P,C5,2*%
%TO.N,/GND*%
X91440000Y-116840000D03*
%TD*%
D10*
%TO.P,R9,1*%
%TO.N,/BUZZER_GPIO32*%
X12700000Y-81280000D03*
D11*
%TO.P,R9,2*%
%TO.N,/BUZZER_BASE*%
X20320000Y-81280000D03*
%TD*%
D10*
%TO.P,R5,1*%
%TO.N,/+3V3*%
X50800000Y-97790000D03*
D11*
%TO.P,R5,2*%
%TO.N,/SDA_3V3_GPIO21*%
X58420000Y-97790000D03*
%TD*%
D10*
%TO.P,U1,1*%
%TO.N,/+3V3*%
X12700000Y-12700000D03*
D11*
%TO.P,U1,2*%
%TO.N,unconnected-(U1-EN-Pad2)*%
X12700000Y-15240000D03*
%TO.P,U1,3*%
%TO.N,unconnected-(U1-VP-Pad3)*%
X12700000Y-17780000D03*
%TO.P,U1,4*%
%TO.N,unconnected-(U1-VN-Pad4)*%
X12700000Y-20320000D03*
%TO.P,U1,5*%
%TO.N,unconnected-(U1-IO34-Pad5)*%
X12700000Y-22860000D03*
%TO.P,U1,6*%
%TO.N,unconnected-(U1-IO35-Pad6)*%
X12700000Y-25400000D03*
%TO.P,U1,7*%
%TO.N,/BUZZER_GPIO32*%
X12700000Y-27940000D03*
%TO.P,U1,8*%
%TO.N,/SD_CS_GPIO33*%
X12700000Y-30480000D03*
%TO.P,U1,9*%
%TO.N,/SD_MISO_GPIO25*%
X12700000Y-33020000D03*
%TO.P,U1,10*%
%TO.N,/SD_MOSI_GPIO26*%
X12700000Y-35560000D03*
%TO.P,U1,11*%
%TO.N,/RFID_RST_GPIO27*%
X12700000Y-38100000D03*
%TO.P,U1,12*%
%TO.N,/SD_SCK_GPIO14*%
X12700000Y-40640000D03*
%TO.P,U1,13*%
%TO.N,unconnected-(U1-IO12-Pad13)*%
X12700000Y-43180000D03*
%TO.P,U1,14*%
%TO.N,/GND*%
X12700000Y-45720000D03*
%TO.P,U1,15*%
%TO.N,/LED_NET_GPIO13*%
X12700000Y-48260000D03*
%TO.P,U1,16*%
%TO.N,unconnected-(U1-SD2-Pad16)*%
X12700000Y-50800000D03*
%TO.P,U1,17*%
%TO.N,unconnected-(U1-SD3-Pad17)*%
X12700000Y-53340000D03*
%TO.P,U1,18*%
%TO.N,unconnected-(U1-CMD-Pad18)*%
X12700000Y-55880000D03*
%TO.P,U1,19*%
%TO.N,/+5V_USB*%
X12700000Y-58420000D03*
%TO.P,U1,20*%
%TO.N,/GND*%
X38100000Y-12700000D03*
%TO.P,U1,21*%
%TO.N,/RFID_MOSI_GPIO23*%
X38100000Y-15240000D03*
%TO.P,U1,22*%
%TO.N,/SCL_3V3_GPIO22*%
X38100000Y-17780000D03*
%TO.P,U1,23*%
%TO.N,unconnected-(U1-TX0-Pad23)*%
X38100000Y-20320000D03*
%TO.P,U1,24*%
%TO.N,unconnected-(U1-RX0-Pad24)*%
X38100000Y-22860000D03*
%TO.P,U1,25*%
%TO.N,/SDA_3V3_GPIO21*%
X38100000Y-25400000D03*
%TO.P,U1,26*%
%TO.N,/GND*%
X38100000Y-27940000D03*
%TO.P,U1,27*%
%TO.N,/RFID_MISO_GPIO19*%
X38100000Y-30480000D03*
%TO.P,U1,28*%
%TO.N,/RFID_SCK_GPIO18*%
X38100000Y-33020000D03*
%TO.P,U1,29*%
%TO.N,/RFID_CS_GPIO5*%
X38100000Y-35560000D03*
%TO.P,U1,30*%
%TO.N,/LED_ERROR_GPIO17*%
X38100000Y-38100000D03*
%TO.P,U1,31*%
%TO.N,/LED_OK_GPIO16*%
X38100000Y-40640000D03*
%TO.P,U1,32*%
%TO.N,/LED_READY_GPIO4*%
X38100000Y-43180000D03*
%TO.P,U1,33*%
%TO.N,unconnected-(U1-IO0-Pad33)*%
X38100000Y-45720000D03*
%TO.P,U1,34*%
%TO.N,unconnected-(U1-IO2-Pad34)*%
X38100000Y-48260000D03*
%TO.P,U1,35*%
%TO.N,unconnected-(U1-IO15-Pad35)*%
X38100000Y-50800000D03*
%TO.P,U1,36*%
%TO.N,unconnected-(U1-SD1-Pad36)*%
X38100000Y-53340000D03*
%TO.P,U1,37*%
%TO.N,unconnected-(U1-SD0-Pad37)*%
X38100000Y-55880000D03*
%TO.P,U1,38*%
%TO.N,unconnected-(U1-CLK-Pad38)*%
X38100000Y-58420000D03*
%TD*%
D10*
%TO.P,BZ1,1*%
%TO.N,/+5V_USB*%
X26670000Y-116840000D03*
D11*
%TO.P,BZ1,2*%
%TO.N,/BUZZER_LOW*%
X34290000Y-116840000D03*
%TD*%
D10*
%TO.P,C4,1*%
%TO.N,/+3V3*%
X132080000Y-71120000D03*
D11*
%TO.P,C4,2*%
%TO.N,/GND*%
X134620000Y-71120000D03*
%TD*%
D10*
%TO.P,J3,1*%
%TO.N,/GND*%
X55880000Y-119380000D03*
D11*
%TO.P,J3,2*%
%TO.N,/+5V_USB*%
X58420000Y-119380000D03*
%TO.P,J3,3*%
%TO.N,/SDA_5V*%
X60960000Y-119380000D03*
%TO.P,J3,4*%
%TO.N,/SCL_5V*%
X63500000Y-119380000D03*
%TD*%
D10*
%TO.P,Q3,1*%
%TO.N,/BUZZER_LOW*%
X12700000Y-104140000D03*
D11*
%TO.P,Q3,2*%
%TO.N,/BUZZER_BASE*%
X15240000Y-104140000D03*
%TO.P,Q3,3*%
%TO.N,/GND*%
X17780000Y-104140000D03*
%TD*%
D10*
%TO.P,J2,1*%
%TO.N,/GND*%
X107950000Y-85090000D03*
D11*
%TO.P,J2,2*%
%TO.N,/+5V_USB*%
X107950000Y-87630000D03*
%TO.P,J2,3*%
%TO.N,/SD_MISO_GPIO25*%
X107950000Y-90170000D03*
%TO.P,J2,4*%
%TO.N,/SD_MOSI_GPIO26*%
X107950000Y-92710000D03*
%TO.P,J2,5*%
%TO.N,/SD_SCK_GPIO14*%
X107950000Y-95250000D03*
%TO.P,J2,6*%
%TO.N,/SD_CS_GPIO33*%
X107950000Y-97790000D03*
%TD*%
D10*
%TO.P,R12,1*%
%TO.N,/+3V3*%
X81280000Y-58420000D03*
D11*
%TO.P,R12,2*%
%TO.N,/RFID_CS_GPIO5*%
X88900000Y-58420000D03*
%TD*%
D10*
%TO.P,Q1,1*%
%TO.N,/SDA_3V3_GPIO21*%
X50800000Y-104140000D03*
D11*
%TO.P,Q1,2*%
%TO.N,/+3V3*%
X53340000Y-104140000D03*
%TO.P,Q1,3*%
%TO.N,/SDA_5V*%
X55880000Y-104140000D03*
%TD*%
D10*
%TO.P,R7,1*%
%TO.N,/+3V3*%
X73660000Y-97790000D03*
D11*
%TO.P,R7,2*%
%TO.N,/SCL_3V3_GPIO22*%
X81280000Y-97790000D03*
%TD*%
D10*
%TO.P,R11,1*%
%TO.N,/+5V_USB*%
X25400000Y-101600000D03*
D11*
%TO.P,R11,2*%
%TO.N,/BUZZER_LOW*%
X33020000Y-101600000D03*
%TD*%
D12*
%TO.N,/LED_NET_GPIO13*%
X25908000Y-61468000D03*
%TO.N,/RFID_MOSI_GPIO23*%
X104648000Y-56388000D03*
%TO.N,/RFID_RST_GPIO27*%
X115316000Y-61468000D03*
X36068000Y-61468000D03*
D13*
%TO.N,/+3V3*%
X117094000Y-63500000D03*
X9652000Y-58166000D03*
D12*
%TO.N,/SCL_3V3_GPIO22*%
X41148000Y-20828000D03*
X75692000Y-92202000D03*
%TO.N,/LED_ERROR_A*%
X81280000Y-83312000D03*
%TO.N,/SD_CS_GPIO33*%
X47244000Y-71374000D03*
%TO.N,/BUZZER_GPIO32*%
X8382000Y-32258000D03*
%TO.N,/SDA_3V3_GPIO21*%
X52070000Y-91440000D03*
%TO.N,/SD_MISO_GPIO25*%
X74676000Y-87122000D03*
X14986000Y-44450000D03*
X72136000Y-84582000D03*
X46990000Y-76962000D03*
X101346000Y-90170000D03*
%TO.N,/SD_MOSI_GPIO26*%
X73406000Y-87376000D03*
X104140000Y-93218000D03*
X102362000Y-91440000D03*
X70612000Y-84582000D03*
X45720000Y-77216000D03*
X27940000Y-51816000D03*
X27940000Y-58928000D03*
%TO.N,/SD_SCK_GPIO14*%
X89662000Y-88900000D03*
X85344000Y-84582000D03*
X48260000Y-76708000D03*
X103124000Y-90424000D03*
%TD*%
%TO.N,/LED_NET_GPIO13*%
D14*
X25908000Y-61468000D02*
X12700000Y-48260000D01*
%TO.N,/LED_NET_A*%
X96520000Y-79502000D02*
X96266000Y-79756000D01*
X96266000Y-85344000D02*
X93980000Y-87630000D01*
X96266000Y-79756000D02*
X96266000Y-85344000D01*
X96520000Y-76200000D02*
X96520000Y-79502000D01*
%TO.N,/BUZZER_BASE*%
X14224000Y-103124000D02*
X15240000Y-104140000D01*
X12700000Y-101092000D02*
X14224000Y-102616000D01*
X14224000Y-102616000D02*
X14224000Y-103124000D01*
X12700000Y-91440000D02*
X12700000Y-101092000D01*
%TO.N,/GND*%
D15*
X57404000Y-103124000D02*
X57658000Y-103378000D01*
X111760000Y-85090000D02*
X123952000Y-72898000D01*
X39878000Y-14478000D02*
X39624000Y-14224000D01*
X11176000Y-46990000D02*
X11430000Y-46736000D01*
X39116000Y-13716000D02*
X38100000Y-12700000D01*
X54610000Y-99568000D02*
X54610000Y-100076000D01*
X124968000Y-72898000D02*
X124968000Y-71882000D01*
X57404000Y-102870000D02*
X57404000Y-103124000D01*
X11430000Y-46736000D02*
X11684000Y-46736000D01*
X56896000Y-110490000D02*
X56896000Y-110744000D01*
X38100000Y-27940000D02*
X39116000Y-26924000D01*
X18542000Y-82042000D02*
X18542000Y-67056000D01*
X20320000Y-91440000D02*
X20320000Y-101600000D01*
X57658000Y-109728000D02*
X56896000Y-110490000D01*
X20320000Y-101600000D02*
X17780000Y-104140000D01*
X18796000Y-82296000D02*
X18542000Y-82042000D01*
X99060000Y-102870000D02*
X99060000Y-109220000D01*
X18542000Y-67056000D02*
X11176000Y-59690000D01*
X39624000Y-14224000D02*
X39624000Y-13970000D01*
X11176000Y-59690000D02*
X11176000Y-59436000D01*
X11176000Y-47244000D02*
X11176000Y-46990000D01*
X10922000Y-59182000D02*
X10922000Y-47498000D01*
X56642000Y-118618000D02*
X55880000Y-119380000D01*
X10922000Y-47498000D02*
X11176000Y-47244000D01*
X91440000Y-87630000D02*
X91440000Y-94234000D01*
X18796000Y-82550000D02*
X18796000Y-82296000D01*
X123952000Y-72898000D02*
X124968000Y-72898000D01*
X39624000Y-13970000D02*
X39370000Y-13716000D01*
X39624000Y-26416000D02*
X39878000Y-26162000D01*
X56896000Y-110744000D02*
X56642000Y-110998000D01*
X53340000Y-98298000D02*
X54610000Y-99568000D01*
X39116000Y-26924000D02*
X39370000Y-26924000D01*
X57658000Y-103378000D02*
X57658000Y-109728000D01*
X39370000Y-13716000D02*
X39116000Y-13716000D01*
X91440000Y-94234000D02*
X98298000Y-101092000D01*
X11176000Y-59436000D02*
X10922000Y-59182000D01*
X39624000Y-26670000D02*
X39624000Y-26416000D01*
X39878000Y-26162000D02*
X39878000Y-14478000D01*
X11684000Y-46736000D02*
X12700000Y-45720000D01*
X98298000Y-102108000D02*
X99060000Y-102870000D01*
X54610000Y-100076000D02*
X57404000Y-102870000D01*
X56642000Y-110998000D02*
X56642000Y-118618000D01*
X99060000Y-109220000D02*
X91440000Y-116840000D01*
X20320000Y-84074000D02*
X18796000Y-82550000D01*
X39370000Y-26924000D02*
X39624000Y-26670000D01*
X107950000Y-85090000D02*
X111760000Y-85090000D01*
X20320000Y-91440000D02*
X20320000Y-84074000D01*
X98298000Y-101092000D02*
X98298000Y-102108000D01*
X124968000Y-71882000D02*
X125730000Y-71120000D01*
X53340000Y-87630000D02*
X53340000Y-98298000D01*
%TO.N,/+5V_USB*%
X98806000Y-82296000D02*
X97790000Y-81280000D01*
X25400000Y-71120000D02*
X12700000Y-58420000D01*
X98806000Y-82550000D02*
X98806000Y-82296000D01*
X96520000Y-108966000D02*
X89916000Y-115570000D01*
X89916000Y-115570000D02*
X89916000Y-115824000D01*
X99060000Y-82804000D02*
X98806000Y-82550000D01*
X107950000Y-87630000D02*
X104140000Y-87630000D01*
X25400000Y-106680000D02*
X25400000Y-101600000D01*
X104140000Y-87630000D02*
X99314000Y-82804000D01*
X89916000Y-115824000D02*
X88900000Y-116840000D01*
X25400000Y-101600000D02*
X25400000Y-71120000D01*
X96520000Y-102870000D02*
X96520000Y-108966000D01*
X26670000Y-107950000D02*
X25400000Y-106680000D01*
X99314000Y-82804000D02*
X99060000Y-82804000D01*
X26670000Y-116840000D02*
X26670000Y-107950000D01*
%TO.N,/RFID_MOSI_GPIO23*%
D14*
X107950000Y-59690000D02*
X104648000Y-56388000D01*
%TO.N,/RFID_RST_GPIO27*%
X117856000Y-59690000D02*
X116332000Y-61214000D01*
X118110000Y-59690000D02*
X117856000Y-59690000D01*
X115570000Y-61214000D02*
X115316000Y-61468000D01*
X36068000Y-61468000D02*
X12700000Y-38100000D01*
X116332000Y-61214000D02*
X115570000Y-61214000D01*
%TO.N,/+3V3*%
D15*
X119634000Y-60706000D02*
X119634000Y-60960000D01*
X76962000Y-94488000D02*
X73660000Y-97790000D01*
X11176000Y-13970000D02*
X11430000Y-13716000D01*
X75438000Y-102362000D02*
X75438000Y-103378000D01*
X87122000Y-75692000D02*
X76962000Y-85852000D01*
X73660000Y-97790000D02*
X73660000Y-100584000D01*
X11430000Y-13716000D02*
X11684000Y-13716000D01*
X53340000Y-104140000D02*
X53340000Y-100330000D01*
X120650000Y-68580000D02*
X123190000Y-71120000D01*
X87630000Y-64769999D02*
X81280000Y-58420000D01*
X9652000Y-58166000D02*
X9652000Y-15748000D01*
X11684000Y-13716000D02*
X12700000Y-12700000D01*
X73660000Y-100584000D02*
X75438000Y-102362000D01*
X87630000Y-73914000D02*
X87122000Y-74422000D01*
X11176000Y-14224000D02*
X11176000Y-13970000D01*
X87630000Y-69850000D02*
X87630000Y-73914000D01*
X87122000Y-74422000D02*
X87122000Y-75692000D01*
X87630000Y-69850000D02*
X87630000Y-64769999D01*
X53340000Y-100330000D02*
X50800000Y-97790000D01*
X75438000Y-103378000D02*
X76200000Y-104140000D01*
X119634000Y-60960000D02*
X117094000Y-63500000D01*
X120650000Y-59690000D02*
X120650000Y-68580000D01*
X76962000Y-85852000D02*
X76962000Y-94488000D01*
X120650000Y-59690000D02*
X119634000Y-60706000D01*
X9652000Y-15748000D02*
X11176000Y-14224000D01*
%TO.N,/LED_OK_A*%
D14*
X68580000Y-78740000D02*
X71120000Y-76200000D01*
X68580000Y-87630000D02*
X68580000Y-78740000D01*
%TO.N,/LED_OK_GPIO16*%
X63500000Y-76200000D02*
X63500000Y-66040000D01*
X63500000Y-66040000D02*
X38100000Y-40640000D01*
%TO.N,/BUZZER_LOW*%
X33020000Y-106680000D02*
X33020000Y-101600000D01*
X33020000Y-115570000D02*
X34290000Y-116840000D01*
X33020000Y-106680000D02*
X33020000Y-115570000D01*
%TO.N,/LED_READY_A*%
X55880000Y-87630000D02*
X55880000Y-78740000D01*
X55880000Y-78740000D02*
X58420000Y-76200000D01*
%TO.N,/SCL_5V*%
X69596000Y-113284000D02*
X63500000Y-119380000D01*
X76708000Y-111760000D02*
X75184000Y-113284000D01*
X81280000Y-111760000D02*
X76708000Y-111760000D01*
X75184000Y-113284000D02*
X69596000Y-113284000D01*
X81280000Y-111760000D02*
X81280000Y-106680000D01*
X81280000Y-106680000D02*
X78740000Y-104140000D01*
%TO.N,/SCL_3V3_GPIO22*%
X75692000Y-79756000D02*
X77724000Y-77724000D01*
X77724000Y-77724000D02*
X77724000Y-57404000D01*
X77724000Y-57404000D02*
X41148000Y-20828000D01*
X75692000Y-92202000D02*
X75692000Y-79756000D01*
%TO.N,/LED_ERROR_A*%
X81280000Y-87630000D02*
X81280000Y-83312000D01*
%TO.N,/SD_CS_GPIO33*%
X47244000Y-71374000D02*
X47244000Y-71120000D01*
X47244000Y-71120000D02*
X35814000Y-59690000D01*
X35814000Y-59690000D02*
X35814000Y-53594000D01*
X35814000Y-53594000D02*
X12700000Y-30480000D01*
%TO.N,/SDA_5V*%
X58420000Y-116840000D02*
X60960000Y-119380000D01*
X58420000Y-111760000D02*
X58420000Y-116840000D01*
%TO.N,/LED_ERROR_GPIO17*%
X76200000Y-76200000D02*
X38100000Y-38100000D01*
%TO.N,/LED_READY_GPIO4*%
X50800000Y-55880000D02*
X38100000Y-43180000D01*
X50800000Y-76200000D02*
X50800000Y-55880000D01*
%TO.N,/BUZZER_GPIO32*%
X8636000Y-32512000D02*
X8382000Y-32258000D01*
X8636000Y-58928000D02*
X8636000Y-32512000D01*
X12700000Y-81280000D02*
X12700000Y-62992000D01*
X12700000Y-62992000D02*
X8636000Y-58928000D01*
%TO.N,/SDA_3V3_GPIO21*%
X36576000Y-26924000D02*
X38100000Y-25400000D01*
X51816000Y-89154000D02*
X51816000Y-80264000D01*
X36576000Y-59182000D02*
X36576000Y-26924000D01*
X49276000Y-71882000D02*
X36576000Y-59182000D01*
X51816000Y-80264000D02*
X49276000Y-77724000D01*
X49276000Y-77724000D02*
X49276000Y-71882000D01*
X52070000Y-89408000D02*
X51816000Y-89154000D01*
X52070000Y-91440000D02*
X52070000Y-89408000D01*
%TO.N,/SD_MISO_GPIO25*%
X14986000Y-44450000D02*
X46990000Y-76454000D01*
X72136000Y-84582000D02*
X74676000Y-87122000D01*
X107188000Y-89408000D02*
X107950000Y-90170000D01*
X102616000Y-89408000D02*
X107188000Y-89408000D01*
X101854000Y-90170000D02*
X102616000Y-89408000D01*
X46990000Y-76454000D02*
X46990000Y-76962000D01*
X101346000Y-90170000D02*
X101854000Y-90170000D01*
%TO.N,/SD_MOSI_GPIO26*%
X12700000Y-35560000D02*
X27940000Y-50800000D01*
X45720000Y-76708000D02*
X45720000Y-77216000D01*
X27940000Y-58928000D02*
X45720000Y-76708000D01*
X102362000Y-91440000D02*
X104140000Y-93218000D01*
X70612000Y-84582000D02*
X73406000Y-87376000D01*
X27940000Y-50800000D02*
X27940000Y-51816000D01*
%TO.N,/SD_SCK_GPIO14*%
X85344000Y-84582000D02*
X89662000Y-88900000D01*
X48260000Y-76200000D02*
X48260000Y-76708000D01*
X12700000Y-40640000D02*
X48260000Y-76200000D01*
X103124000Y-90424000D02*
X107950000Y-95250000D01*
%TD*%
%TA.AperFunction,Conductor*%
%TO.N,/GND*%
G36*
X13943039Y-1019685D02*
G01*
X13988794Y-1072489D01*
X14000000Y-1124000D01*
X14000000Y-11475667D01*
X13980315Y-11542706D01*
X13927511Y-11588461D01*
X13858353Y-11598405D01*
X13794797Y-11569380D01*
X13788319Y-11563348D01*
X13772765Y-11547794D01*
X13669992Y-11502415D01*
X13644865Y-11499500D01*
X11755143Y-11499500D01*
X11755117Y-11499502D01*
X11730012Y-11502413D01*
X11730008Y-11502415D01*
X11627235Y-11547793D01*
X11547794Y-11627234D01*
X11502415Y-11730006D01*
X11502415Y-11730008D01*
X11499500Y-11755131D01*
X11499500Y-12858479D01*
X11479815Y-12925518D01*
X11463180Y-12946162D01*
X11428591Y-12980750D01*
X11367267Y-13014234D01*
X11365103Y-13014684D01*
X11252591Y-13037065D01*
X11225671Y-13042420D01*
X11098190Y-13095224D01*
X10983454Y-13171887D01*
X10631887Y-13523454D01*
X10555222Y-13638192D01*
X10502421Y-13765667D01*
X10502418Y-13765679D01*
X10476183Y-13897574D01*
X10476177Y-13897605D01*
X10474677Y-13905136D01*
X10442276Y-13967039D01*
X10440747Y-13968595D01*
X9107888Y-15301453D01*
X9107887Y-15301454D01*
X9031222Y-15416192D01*
X8978421Y-15543667D01*
X8978418Y-15543677D01*
X8951500Y-15679004D01*
X8951500Y-31564055D01*
X8931815Y-31631094D01*
X8879011Y-31676849D01*
X8809853Y-31686793D01*
X8758610Y-31667158D01*
X8713815Y-31637227D01*
X8713804Y-31637221D01*
X8586332Y-31584421D01*
X8586322Y-31584418D01*
X8450995Y-31557500D01*
X8450993Y-31557500D01*
X8313007Y-31557500D01*
X8313005Y-31557500D01*
X8177677Y-31584418D01*
X8177667Y-31584421D01*
X8050195Y-31637221D01*
X8050182Y-31637228D01*
X7935458Y-31713885D01*
X7935454Y-31713888D01*
X7837888Y-31811454D01*
X7837885Y-31811458D01*
X7761228Y-31926182D01*
X7761221Y-31926195D01*
X7708421Y-32053667D01*
X7708418Y-32053677D01*
X7681500Y-32189004D01*
X7681500Y-32189007D01*
X7681500Y-32326993D01*
X7681500Y-32326995D01*
X7681499Y-32326995D01*
X7708418Y-32462322D01*
X7708421Y-32462332D01*
X7761221Y-32589804D01*
X7761228Y-32589817D01*
X7837885Y-32704541D01*
X7837888Y-32704545D01*
X7935454Y-32802111D01*
X7935458Y-32802114D01*
X8050182Y-32878771D01*
X8050189Y-32878775D01*
X8108953Y-32903115D01*
X8163355Y-32946955D01*
X8185421Y-33013248D01*
X8185500Y-33017676D01*
X8185500Y-58987309D01*
X8191987Y-59011521D01*
X8209712Y-59077672D01*
X8216200Y-59101885D01*
X8216200Y-59101886D01*
X8241267Y-59145303D01*
X8275511Y-59204614D01*
X8275513Y-59204616D01*
X12213181Y-63142284D01*
X12246666Y-63203607D01*
X12249500Y-63229965D01*
X12249500Y-79955500D01*
X12229815Y-80022539D01*
X12177011Y-80068294D01*
X12125500Y-80079500D01*
X11755143Y-80079500D01*
X11755117Y-80079502D01*
X11730012Y-80082413D01*
X11730008Y-80082415D01*
X11627235Y-80127793D01*
X11547794Y-80207234D01*
X11502415Y-80310006D01*
X11502415Y-80310008D01*
X11499500Y-80335131D01*
X11499500Y-82224856D01*
X11499502Y-82224882D01*
X11502413Y-82249987D01*
X11502415Y-82249991D01*
X11547793Y-82352764D01*
X11547794Y-82352765D01*
X11627235Y-82432206D01*
X11730009Y-82477585D01*
X11755135Y-82480500D01*
X13644864Y-82480499D01*
X13644879Y-82480497D01*
X13644882Y-82480497D01*
X13669987Y-82477586D01*
X13669988Y-82477585D01*
X13669991Y-82477585D01*
X13772765Y-82432206D01*
X13852206Y-82352765D01*
X13897585Y-82249991D01*
X13900500Y-82224865D01*
X13900499Y-81185513D01*
X19119500Y-81185513D01*
X19119500Y-81374486D01*
X19149059Y-81561118D01*
X19207454Y-81740836D01*
X19262800Y-81849457D01*
X19293240Y-81909199D01*
X19404310Y-82062073D01*
X19537927Y-82195690D01*
X19690801Y-82306760D01*
X19770347Y-82347290D01*
X19859163Y-82392545D01*
X19859165Y-82392545D01*
X19859168Y-82392547D01*
X19948599Y-82421605D01*
X20038881Y-82450940D01*
X20225514Y-82480500D01*
X20225519Y-82480500D01*
X20414486Y-82480500D01*
X20601118Y-82450940D01*
X20602623Y-82450451D01*
X20780832Y-82392547D01*
X20949199Y-82306760D01*
X21102073Y-82195690D01*
X21235690Y-82062073D01*
X21346760Y-81909199D01*
X21432547Y-81740832D01*
X21490940Y-81561118D01*
X21502229Y-81489842D01*
X21520500Y-81374486D01*
X21520500Y-81185513D01*
X21490940Y-80998881D01*
X21432545Y-80819163D01*
X21346894Y-80651064D01*
X21346760Y-80650801D01*
X21235690Y-80497927D01*
X21102073Y-80364310D01*
X20949199Y-80253240D01*
X20780836Y-80167454D01*
X20601118Y-80109059D01*
X20414486Y-80079500D01*
X20414481Y-80079500D01*
X20225519Y-80079500D01*
X20225514Y-80079500D01*
X20038881Y-80109059D01*
X19859163Y-80167454D01*
X19690800Y-80253240D01*
X19612661Y-80310012D01*
X19537927Y-80364310D01*
X19537925Y-80364312D01*
X19537924Y-80364312D01*
X19404312Y-80497924D01*
X19404312Y-80497925D01*
X19404310Y-80497927D01*
X19356610Y-80563579D01*
X19293240Y-80650800D01*
X19207454Y-80819163D01*
X19149059Y-80998881D01*
X19119500Y-81185513D01*
X13900499Y-81185513D01*
X13900499Y-80335136D01*
X13900497Y-80335117D01*
X13897586Y-80310012D01*
X13897585Y-80310010D01*
X13897585Y-80310009D01*
X13852206Y-80207235D01*
X13772765Y-80127794D01*
X13731442Y-80109548D01*
X13669992Y-80082415D01*
X13644868Y-80079500D01*
X13644865Y-80079500D01*
X13274500Y-80079500D01*
X13207461Y-80059815D01*
X13161706Y-80007011D01*
X13150500Y-79955500D01*
X13150500Y-62932693D01*
X13150500Y-62932691D01*
X13119799Y-62818114D01*
X13119799Y-62818113D01*
X13060489Y-62715386D01*
X9523284Y-59178181D01*
X9489799Y-59116858D01*
X9494783Y-59047166D01*
X9536655Y-58991233D01*
X9602119Y-58966816D01*
X9610965Y-58966500D01*
X9730844Y-58966500D01*
X9730845Y-58966499D01*
X9885497Y-58935737D01*
X10018041Y-58880836D01*
X10031172Y-58875397D01*
X10031172Y-58875396D01*
X10031179Y-58875394D01*
X10162289Y-58787789D01*
X10273789Y-58676289D01*
X10361394Y-58545179D01*
X10421737Y-58399497D01*
X10452500Y-58244842D01*
X10452500Y-58087158D01*
X10452500Y-58087155D01*
X10452499Y-58087153D01*
X10451556Y-58082410D01*
X10421737Y-57932503D01*
X10361939Y-57788136D01*
X10352500Y-57740684D01*
X10352500Y-16089517D01*
X10372185Y-16022478D01*
X10388814Y-16001840D01*
X11287819Y-15102835D01*
X11349142Y-15069351D01*
X11418834Y-15074335D01*
X11474767Y-15116207D01*
X11499184Y-15181671D01*
X11499500Y-15190517D01*
X11499500Y-15334486D01*
X11529059Y-15521118D01*
X11587454Y-15700836D01*
X11673240Y-15869199D01*
X11784310Y-16022073D01*
X11917927Y-16155690D01*
X12070801Y-16266760D01*
X12150347Y-16307290D01*
X12239163Y-16352545D01*
X12239165Y-16352545D01*
X12239168Y-16352547D01*
X12328734Y-16381649D01*
X12360803Y-16392069D01*
X12418478Y-16431507D01*
X12445676Y-16495866D01*
X12433761Y-16564712D01*
X12386516Y-16616188D01*
X12360803Y-16627931D01*
X12239163Y-16667454D01*
X12070800Y-16753240D01*
X11983579Y-16816610D01*
X11917927Y-16864310D01*
X11917925Y-16864312D01*
X11917924Y-16864312D01*
X11784312Y-16997924D01*
X11784312Y-16997925D01*
X11784310Y-16997927D01*
X11736610Y-17063579D01*
X11673240Y-17150800D01*
X11587454Y-17319163D01*
X11529059Y-17498881D01*
X11499500Y-17685513D01*
X11499500Y-17874486D01*
X11529059Y-18061118D01*
X11587454Y-18240836D01*
X11673240Y-18409199D01*
X11784310Y-18562073D01*
X11917927Y-18695690D01*
X12070801Y-18806760D01*
X12150347Y-18847290D01*
X12239163Y-18892545D01*
X12239165Y-18892545D01*
X12239168Y-18892547D01*
X12328734Y-18921649D01*
X12360803Y-18932069D01*
X12418478Y-18971507D01*
X12445676Y-19035866D01*
X12433761Y-19104712D01*
X12386516Y-19156188D01*
X12360803Y-19167931D01*
X12239163Y-19207454D01*
X12070800Y-19293240D01*
X11983579Y-19356610D01*
X11917927Y-19404310D01*
X11917925Y-19404312D01*
X11917924Y-19404312D01*
X11784312Y-19537924D01*
X11784312Y-19537925D01*
X11784310Y-19537927D01*
X11736610Y-19603579D01*
X11673240Y-19690800D01*
X11587454Y-19859163D01*
X11529059Y-20038881D01*
X11499500Y-20225513D01*
X11499500Y-20414486D01*
X11529059Y-20601118D01*
X11587454Y-20780836D01*
X11662294Y-20927716D01*
X11673240Y-20949199D01*
X11784310Y-21102073D01*
X11917927Y-21235690D01*
X12070801Y-21346760D01*
X12150347Y-21387290D01*
X12239163Y-21432545D01*
X12239165Y-21432545D01*
X12239168Y-21432547D01*
X12289122Y-21448778D01*
X12360803Y-21472069D01*
X12418478Y-21511507D01*
X12445676Y-21575866D01*
X12433761Y-21644712D01*
X12386516Y-21696188D01*
X12360803Y-21707931D01*
X12239163Y-21747454D01*
X12070800Y-21833240D01*
X11983579Y-21896610D01*
X11917927Y-21944310D01*
X11917925Y-21944312D01*
X11917924Y-21944312D01*
X11784312Y-22077924D01*
X11784312Y-22077925D01*
X11784310Y-22077927D01*
X11736610Y-22143579D01*
X11673240Y-22230800D01*
X11587454Y-22399163D01*
X11529059Y-22578881D01*
X11499500Y-22765513D01*
X11499500Y-22954486D01*
X11529059Y-23141118D01*
X11587454Y-23320836D01*
X11673240Y-23489199D01*
X11784310Y-23642073D01*
X11917927Y-23775690D01*
X12070801Y-23886760D01*
X12150347Y-23927290D01*
X12239163Y-23972545D01*
X12239165Y-23972545D01*
X12239168Y-23972547D01*
X12328734Y-24001649D01*
X12360803Y-24012069D01*
X12418478Y-24051507D01*
X12445676Y-24115866D01*
X12433761Y-24184712D01*
X12386516Y-24236188D01*
X12360803Y-24247931D01*
X12239163Y-24287454D01*
X12070800Y-24373240D01*
X11983579Y-24436610D01*
X11917927Y-24484310D01*
X11917925Y-24484312D01*
X11917924Y-24484312D01*
X11784312Y-24617924D01*
X11784312Y-24617925D01*
X11784310Y-24617927D01*
X11736610Y-24683579D01*
X11673240Y-24770800D01*
X11587454Y-24939163D01*
X11529059Y-25118881D01*
X11499500Y-25305513D01*
X11499500Y-25494486D01*
X11529059Y-25681118D01*
X11587454Y-25860836D01*
X11620449Y-25925591D01*
X11673240Y-26029199D01*
X11784310Y-26182073D01*
X11917927Y-26315690D01*
X12070801Y-26426760D01*
X12150347Y-26467290D01*
X12239163Y-26512545D01*
X12239165Y-26512545D01*
X12239168Y-26512547D01*
X12328734Y-26541649D01*
X12360803Y-26552069D01*
X12418478Y-26591507D01*
X12445676Y-26655866D01*
X12433761Y-26724712D01*
X12386516Y-26776188D01*
X12360803Y-26787931D01*
X12239163Y-26827454D01*
X12070800Y-26913240D01*
X12003865Y-26961872D01*
X11917927Y-27024310D01*
X11917925Y-27024312D01*
X11917924Y-27024312D01*
X11784312Y-27157924D01*
X11784312Y-27157925D01*
X11784310Y-27157927D01*
X11736610Y-27223579D01*
X11673240Y-27310800D01*
X11587454Y-27479163D01*
X11529059Y-27658881D01*
X11499500Y-27845513D01*
X11499500Y-28034486D01*
X11529059Y-28221118D01*
X11587454Y-28400836D01*
X11673107Y-28568937D01*
X11673240Y-28569199D01*
X11784310Y-28722073D01*
X11917927Y-28855690D01*
X12070801Y-28966760D01*
X12150347Y-29007290D01*
X12239163Y-29052545D01*
X12239165Y-29052545D01*
X12239168Y-29052547D01*
X12328734Y-29081649D01*
X12360803Y-29092069D01*
X12418478Y-29131507D01*
X12445676Y-29195866D01*
X12433761Y-29264712D01*
X12386516Y-29316188D01*
X12360803Y-29327931D01*
X12239163Y-29367454D01*
X12070800Y-29453240D01*
X11983579Y-29516610D01*
X11917927Y-29564310D01*
X11917925Y-29564312D01*
X11917924Y-29564312D01*
X11784312Y-29697924D01*
X11784312Y-29697925D01*
X11784310Y-29697927D01*
X11736610Y-29763579D01*
X11673240Y-29850800D01*
X11587454Y-30019163D01*
X11529059Y-30198881D01*
X11499500Y-30385513D01*
X11499500Y-30574486D01*
X11529059Y-30761118D01*
X11587454Y-30940836D01*
X11673240Y-31109199D01*
X11784310Y-31262073D01*
X11917927Y-31395690D01*
X12070801Y-31506760D01*
X12150347Y-31547290D01*
X12239163Y-31592545D01*
X12239165Y-31592545D01*
X12239168Y-31592547D01*
X12328734Y-31621649D01*
X12360803Y-31632069D01*
X12418478Y-31671507D01*
X12445676Y-31735866D01*
X12433761Y-31804712D01*
X12386516Y-31856188D01*
X12360803Y-31867931D01*
X12239163Y-31907454D01*
X12070800Y-31993240D01*
X11987631Y-32053667D01*
X11917927Y-32104310D01*
X11917925Y-32104312D01*
X11917924Y-32104312D01*
X11784312Y-32237924D01*
X11784312Y-32237925D01*
X11784310Y-32237927D01*
X11736610Y-32303579D01*
X11673240Y-32390800D01*
X11587454Y-32559163D01*
X11529059Y-32738881D01*
X11499500Y-32925513D01*
X11499500Y-33114486D01*
X11529059Y-33301118D01*
X11587454Y-33480836D01*
X11673240Y-33649199D01*
X11784310Y-33802073D01*
X11917927Y-33935690D01*
X12070801Y-34046760D01*
X12150347Y-34087290D01*
X12239163Y-34132545D01*
X12239165Y-34132545D01*
X12239168Y-34132547D01*
X12328734Y-34161649D01*
X12360803Y-34172069D01*
X12418478Y-34211507D01*
X12445676Y-34275866D01*
X12433761Y-34344712D01*
X12386516Y-34396188D01*
X12360803Y-34407931D01*
X12239163Y-34447454D01*
X12070800Y-34533240D01*
X11983579Y-34596610D01*
X11917927Y-34644310D01*
X11917925Y-34644312D01*
X11917924Y-34644312D01*
X11784312Y-34777924D01*
X11784312Y-34777925D01*
X11784310Y-34777927D01*
X11736610Y-34843579D01*
X11673240Y-34930800D01*
X11587454Y-35099163D01*
X11529059Y-35278881D01*
X11499500Y-35465513D01*
X11499500Y-35654486D01*
X11529059Y-35841118D01*
X11587454Y-36020836D01*
X11673240Y-36189199D01*
X11784310Y-36342073D01*
X11917927Y-36475690D01*
X12070801Y-36586760D01*
X12150347Y-36627290D01*
X12239163Y-36672545D01*
X12239165Y-36672545D01*
X12239168Y-36672547D01*
X12328734Y-36701649D01*
X12360803Y-36712069D01*
X12418478Y-36751507D01*
X12445676Y-36815866D01*
X12433761Y-36884712D01*
X12386516Y-36936188D01*
X12360803Y-36947931D01*
X12239163Y-36987454D01*
X12070800Y-37073240D01*
X11983579Y-37136610D01*
X11917927Y-37184310D01*
X11917925Y-37184312D01*
X11917924Y-37184312D01*
X11784312Y-37317924D01*
X11784312Y-37317925D01*
X11784310Y-37317927D01*
X11736610Y-37383579D01*
X11673240Y-37470800D01*
X11587454Y-37639163D01*
X11529059Y-37818881D01*
X11499500Y-38005513D01*
X11499500Y-38194486D01*
X11529059Y-38381118D01*
X11587454Y-38560836D01*
X11673240Y-38729199D01*
X11784310Y-38882073D01*
X11917927Y-39015690D01*
X12070801Y-39126760D01*
X12150347Y-39167290D01*
X12239163Y-39212545D01*
X12239165Y-39212545D01*
X12239168Y-39212547D01*
X12328734Y-39241649D01*
X12360803Y-39252069D01*
X12418478Y-39291507D01*
X12445676Y-39355866D01*
X12433761Y-39424712D01*
X12386516Y-39476188D01*
X12360803Y-39487931D01*
X12239163Y-39527454D01*
X12070800Y-39613240D01*
X11983579Y-39676610D01*
X11917927Y-39724310D01*
X11917925Y-39724312D01*
X11917924Y-39724312D01*
X11784312Y-39857924D01*
X11784312Y-39857925D01*
X11784310Y-39857927D01*
X11736610Y-39923579D01*
X11673240Y-40010800D01*
X11587454Y-40179163D01*
X11529059Y-40358881D01*
X11499500Y-40545513D01*
X11499500Y-40734486D01*
X11529059Y-40921118D01*
X11587454Y-41100836D01*
X11673240Y-41269199D01*
X11784310Y-41422073D01*
X11917927Y-41555690D01*
X12070801Y-41666760D01*
X12150347Y-41707290D01*
X12239163Y-41752545D01*
X12239165Y-41752545D01*
X12239168Y-41752547D01*
X12328734Y-41781649D01*
X12360803Y-41792069D01*
X12418478Y-41831507D01*
X12445676Y-41895866D01*
X12433761Y-41964712D01*
X12386516Y-42016188D01*
X12360803Y-42027931D01*
X12239163Y-42067454D01*
X12070800Y-42153240D01*
X11983579Y-42216610D01*
X11917927Y-42264310D01*
X11917925Y-42264312D01*
X11917924Y-42264312D01*
X11784312Y-42397924D01*
X11784312Y-42397925D01*
X11784310Y-42397927D01*
X11736610Y-42463579D01*
X11673240Y-42550800D01*
X11587454Y-42719163D01*
X11529059Y-42898881D01*
X11499500Y-43085513D01*
X11499500Y-43274486D01*
X11529059Y-43461118D01*
X11587454Y-43640836D01*
X11632904Y-43730035D01*
X11673240Y-43809199D01*
X11784310Y-43962073D01*
X11917927Y-44095690D01*
X12070801Y-44206760D01*
X12239168Y-44292547D01*
X12361612Y-44332331D01*
X12419287Y-44371769D01*
X12446485Y-44436127D01*
X12434570Y-44504974D01*
X12387326Y-44556449D01*
X12361612Y-44568193D01*
X12239361Y-44607915D01*
X12071064Y-44693667D01*
X12071062Y-44693668D01*
X12004714Y-44741871D01*
X12004714Y-44741872D01*
X12514822Y-45251980D01*
X12507007Y-45254075D01*
X12392993Y-45319901D01*
X12299901Y-45412993D01*
X12234075Y-45527007D01*
X12231980Y-45534822D01*
X11721872Y-45024714D01*
X11721871Y-45024714D01*
X11673668Y-45091062D01*
X11673667Y-45091064D01*
X11587914Y-45259362D01*
X11529548Y-45438997D01*
X11500000Y-45625552D01*
X11500000Y-45814447D01*
X11529548Y-46001002D01*
X11587914Y-46180637D01*
X11673666Y-46348933D01*
X11721872Y-46415284D01*
X12231980Y-45905176D01*
X12234075Y-45912993D01*
X12299901Y-46027007D01*
X12392993Y-46120099D01*
X12507007Y-46185925D01*
X12514822Y-46188019D01*
X12004713Y-46698126D01*
X12004714Y-46698127D01*
X12071059Y-46746329D01*
X12239362Y-46832085D01*
X12361611Y-46871806D01*
X12419286Y-46911243D01*
X12446485Y-46975602D01*
X12434571Y-47044448D01*
X12387327Y-47095924D01*
X12361612Y-47107668D01*
X12239163Y-47147454D01*
X12070800Y-47233240D01*
X11983579Y-47296610D01*
X11917927Y-47344310D01*
X11917925Y-47344312D01*
X11917924Y-47344312D01*
X11784312Y-47477924D01*
X11784312Y-47477925D01*
X11784310Y-47477927D01*
X11736610Y-47543579D01*
X11673240Y-47630800D01*
X11587454Y-47799163D01*
X11529059Y-47978881D01*
X11499500Y-48165513D01*
X11499500Y-48354486D01*
X11529059Y-48541118D01*
X11587454Y-48720836D01*
X11673240Y-48889199D01*
X11784310Y-49042073D01*
X11917927Y-49175690D01*
X12070801Y-49286760D01*
X12150347Y-49327290D01*
X12239163Y-49372545D01*
X12239165Y-49372545D01*
X12239168Y-49372547D01*
X12328734Y-49401649D01*
X12360803Y-49412069D01*
X12418478Y-49451507D01*
X12445676Y-49515866D01*
X12433761Y-49584712D01*
X12386516Y-49636188D01*
X12360803Y-49647931D01*
X12239163Y-49687454D01*
X12070800Y-49773240D01*
X11983579Y-49836610D01*
X11917927Y-49884310D01*
X11917925Y-49884312D01*
X11917924Y-49884312D01*
X11784312Y-50017924D01*
X11784312Y-50017925D01*
X11784310Y-50017927D01*
X11736610Y-50083579D01*
X11673240Y-50170800D01*
X11587454Y-50339163D01*
X11529059Y-50518881D01*
X11499500Y-50705513D01*
X11499500Y-50894486D01*
X11529059Y-51081118D01*
X11587454Y-51260836D01*
X11673240Y-51429199D01*
X11784310Y-51582073D01*
X11917927Y-51715690D01*
X12070801Y-51826760D01*
X12150347Y-51867290D01*
X12239163Y-51912545D01*
X12239165Y-51912545D01*
X12239168Y-51912547D01*
X12328734Y-51941649D01*
X12360803Y-51952069D01*
X12418478Y-51991507D01*
X12445676Y-52055866D01*
X12433761Y-52124712D01*
X12386516Y-52176188D01*
X12360803Y-52187931D01*
X12239163Y-52227454D01*
X12070800Y-52313240D01*
X12006289Y-52360111D01*
X11917927Y-52424310D01*
X11917925Y-52424312D01*
X11917924Y-52424312D01*
X11784312Y-52557924D01*
X11784312Y-52557925D01*
X11784310Y-52557927D01*
X11759629Y-52591897D01*
X11673240Y-52710800D01*
X11587454Y-52879163D01*
X11529059Y-53058881D01*
X11499500Y-53245513D01*
X11499500Y-53434486D01*
X11529059Y-53621118D01*
X11587454Y-53800836D01*
X11673240Y-53969199D01*
X11784310Y-54122073D01*
X11917927Y-54255690D01*
X12070801Y-54366760D01*
X12150347Y-54407290D01*
X12239163Y-54452545D01*
X12239165Y-54452545D01*
X12239168Y-54452547D01*
X12328734Y-54481649D01*
X12360803Y-54492069D01*
X12418478Y-54531507D01*
X12445676Y-54595866D01*
X12433761Y-54664712D01*
X12386516Y-54716188D01*
X12360803Y-54727931D01*
X12239163Y-54767454D01*
X12070800Y-54853240D01*
X11983579Y-54916610D01*
X11917927Y-54964310D01*
X11917925Y-54964312D01*
X11917924Y-54964312D01*
X11784312Y-55097924D01*
X11784312Y-55097925D01*
X11784310Y-55097927D01*
X11736610Y-55163579D01*
X11673240Y-55250800D01*
X11587454Y-55419163D01*
X11529059Y-55598881D01*
X11499500Y-55785513D01*
X11499500Y-55974486D01*
X11529059Y-56161118D01*
X11587454Y-56340836D01*
X11662294Y-56487716D01*
X11673240Y-56509199D01*
X11784310Y-56662073D01*
X11917927Y-56795690D01*
X12070801Y-56906760D01*
X12150347Y-56947290D01*
X12239163Y-56992545D01*
X12239165Y-56992545D01*
X12239168Y-56992547D01*
X12289122Y-57008778D01*
X12360803Y-57032069D01*
X12418478Y-57071507D01*
X12445676Y-57135866D01*
X12433761Y-57204712D01*
X12386516Y-57256188D01*
X12360803Y-57267931D01*
X12239163Y-57307454D01*
X12070800Y-57393240D01*
X11992661Y-57450012D01*
X11917927Y-57504310D01*
X11917925Y-57504312D01*
X11917924Y-57504312D01*
X11784312Y-57637924D01*
X11784312Y-57637925D01*
X11784310Y-57637927D01*
X11736610Y-57703579D01*
X11673240Y-57790800D01*
X11587454Y-57959163D01*
X11529059Y-58138881D01*
X11499500Y-58325513D01*
X11499500Y-58514486D01*
X11529059Y-58701118D01*
X11587454Y-58880836D01*
X11665903Y-59034800D01*
X11673240Y-59049199D01*
X11784310Y-59202073D01*
X11917927Y-59335690D01*
X12070801Y-59446760D01*
X12150347Y-59487290D01*
X12239163Y-59532545D01*
X12239165Y-59532545D01*
X12239168Y-59532547D01*
X12289122Y-59548778D01*
X12418881Y-59590940D01*
X12605514Y-59620500D01*
X12605519Y-59620500D01*
X12794480Y-59620500D01*
X12794481Y-59620500D01*
X12831666Y-59614610D01*
X12900958Y-59623564D01*
X12938745Y-59649402D01*
X24663181Y-71373838D01*
X24696666Y-71435161D01*
X24699500Y-71461519D01*
X24699500Y-100275500D01*
X24679815Y-100342539D01*
X24627011Y-100388294D01*
X24575501Y-100399500D01*
X24455142Y-100399500D01*
X24455119Y-100399502D01*
X24430011Y-100402414D01*
X24430008Y-100402415D01*
X24327235Y-100447793D01*
X24247794Y-100527234D01*
X24202415Y-100630006D01*
X24202415Y-100630008D01*
X24199500Y-100655131D01*
X24199500Y-102544856D01*
X24199502Y-102544882D01*
X24202413Y-102569987D01*
X24202415Y-102569991D01*
X24247793Y-102672764D01*
X24247794Y-102672765D01*
X24327235Y-102752206D01*
X24430009Y-102797585D01*
X24455135Y-102800500D01*
X24575500Y-102800499D01*
X24642539Y-102820183D01*
X24688294Y-102872987D01*
X24699500Y-102924499D01*
X24699500Y-105355500D01*
X24679815Y-105422539D01*
X24627011Y-105468294D01*
X24575501Y-105479500D01*
X24455142Y-105479500D01*
X24455119Y-105479502D01*
X24430011Y-105482414D01*
X24430008Y-105482415D01*
X24327235Y-105527793D01*
X24247794Y-105607234D01*
X24202415Y-105710006D01*
X24202415Y-105710008D01*
X24199500Y-105735131D01*
X24199500Y-107624856D01*
X24199502Y-107624882D01*
X24202413Y-107649987D01*
X24202415Y-107649991D01*
X24247793Y-107752764D01*
X24247794Y-107752765D01*
X24327235Y-107832206D01*
X24430009Y-107877585D01*
X24455135Y-107880500D01*
X25558480Y-107880499D01*
X25625519Y-107900184D01*
X25646161Y-107916818D01*
X25933181Y-108203838D01*
X25966666Y-108265161D01*
X25969500Y-108291519D01*
X25969500Y-115515500D01*
X25949815Y-115582539D01*
X25897011Y-115628294D01*
X25845501Y-115639500D01*
X25725142Y-115639500D01*
X25725119Y-115639502D01*
X25700011Y-115642414D01*
X25700008Y-115642415D01*
X25597235Y-115687793D01*
X25517794Y-115767234D01*
X25472415Y-115870006D01*
X25472415Y-115870008D01*
X25469500Y-115895131D01*
X25469500Y-117784856D01*
X25469502Y-117784882D01*
X25472413Y-117809987D01*
X25472415Y-117809991D01*
X25517793Y-117912764D01*
X25517794Y-117912765D01*
X25597235Y-117992206D01*
X25700009Y-118037585D01*
X25725135Y-118040500D01*
X27614864Y-118040499D01*
X27614879Y-118040497D01*
X27614882Y-118040497D01*
X27639987Y-118037586D01*
X27639988Y-118037585D01*
X27639991Y-118037585D01*
X27742765Y-117992206D01*
X27822206Y-117912765D01*
X27867585Y-117809991D01*
X27870500Y-117784865D01*
X27870499Y-115895136D01*
X27870251Y-115892994D01*
X27867586Y-115870012D01*
X27867585Y-115870010D01*
X27867585Y-115870009D01*
X27822206Y-115767235D01*
X27742765Y-115687794D01*
X27723548Y-115679309D01*
X27639992Y-115642415D01*
X27614868Y-115639500D01*
X27614865Y-115639500D01*
X27494500Y-115639500D01*
X27427461Y-115619815D01*
X27381706Y-115567011D01*
X27370500Y-115515500D01*
X27370500Y-107881004D01*
X27343581Y-107745677D01*
X27343580Y-107745676D01*
X27343580Y-107745672D01*
X27290775Y-107618189D01*
X27275742Y-107595690D01*
X27275740Y-107595687D01*
X27214114Y-107503456D01*
X26636818Y-106926160D01*
X26603333Y-106864837D01*
X26600499Y-106838479D01*
X26600499Y-105735143D01*
X26600499Y-105735136D01*
X26600497Y-105735117D01*
X26597586Y-105710012D01*
X26597585Y-105710010D01*
X26597585Y-105710009D01*
X26552206Y-105607235D01*
X26472765Y-105527794D01*
X26472763Y-105527793D01*
X26369992Y-105482415D01*
X26344868Y-105479500D01*
X26344865Y-105479500D01*
X26224500Y-105479500D01*
X26157461Y-105459815D01*
X26111706Y-105407011D01*
X26100500Y-105355500D01*
X26100500Y-102924499D01*
X26120185Y-102857460D01*
X26172989Y-102811705D01*
X26224500Y-102800499D01*
X26344856Y-102800499D01*
X26344864Y-102800499D01*
X26344879Y-102800497D01*
X26344882Y-102800497D01*
X26369987Y-102797586D01*
X26369988Y-102797585D01*
X26369991Y-102797585D01*
X26472765Y-102752206D01*
X26552206Y-102672765D01*
X26597585Y-102569991D01*
X26600500Y-102544865D01*
X26600499Y-101505513D01*
X31819500Y-101505513D01*
X31819500Y-101694486D01*
X31849059Y-101881118D01*
X31907454Y-102060836D01*
X31993240Y-102229199D01*
X32104310Y-102382073D01*
X32237927Y-102515690D01*
X32390801Y-102626760D01*
X32489417Y-102677007D01*
X32501795Y-102683314D01*
X32552591Y-102731288D01*
X32569500Y-102793799D01*
X32569500Y-105486200D01*
X32549815Y-105553239D01*
X32501795Y-105596684D01*
X32390805Y-105653236D01*
X32312661Y-105710012D01*
X32237927Y-105764310D01*
X32237925Y-105764312D01*
X32237924Y-105764312D01*
X32104312Y-105897924D01*
X32104312Y-105897925D01*
X32104310Y-105897927D01*
X32056610Y-105963579D01*
X31993240Y-106050800D01*
X31907454Y-106219163D01*
X31849059Y-106398881D01*
X31819500Y-106585513D01*
X31819500Y-106774486D01*
X31849059Y-106961118D01*
X31907454Y-107140836D01*
X31993240Y-107309199D01*
X32104310Y-107462073D01*
X32237927Y-107595690D01*
X32390801Y-107706760D01*
X32501795Y-107763314D01*
X32552591Y-107811288D01*
X32569500Y-107873799D01*
X32569500Y-115629310D01*
X32585170Y-115687794D01*
X32585171Y-115687794D01*
X32600201Y-115743888D01*
X32613681Y-115767235D01*
X32659511Y-115846614D01*
X32659513Y-115846616D01*
X33127304Y-116314407D01*
X33160789Y-116375730D01*
X33157554Y-116440406D01*
X33119060Y-116558877D01*
X33119060Y-116558880D01*
X33089500Y-116745513D01*
X33089500Y-116934486D01*
X33119059Y-117121118D01*
X33177454Y-117300836D01*
X33213107Y-117370808D01*
X33263240Y-117469199D01*
X33374310Y-117622073D01*
X33507927Y-117755690D01*
X33660801Y-117866760D01*
X33740347Y-117907290D01*
X33829163Y-117952545D01*
X33829165Y-117952545D01*
X33829168Y-117952547D01*
X33925497Y-117983846D01*
X34008881Y-118010940D01*
X34195514Y-118040500D01*
X34195519Y-118040500D01*
X34384486Y-118040500D01*
X34571118Y-118010940D01*
X34572623Y-118010451D01*
X34750832Y-117952547D01*
X34919199Y-117866760D01*
X35072073Y-117755690D01*
X35205690Y-117622073D01*
X35316760Y-117469199D01*
X35402547Y-117300832D01*
X35460940Y-117121118D01*
X35461654Y-117116613D01*
X35490500Y-116934486D01*
X35490500Y-116745513D01*
X35460940Y-116558881D01*
X35433846Y-116475497D01*
X35402547Y-116379168D01*
X35402545Y-116379165D01*
X35402545Y-116379163D01*
X35316759Y-116210800D01*
X35276807Y-116155811D01*
X35205690Y-116057927D01*
X35072073Y-115924310D01*
X34919199Y-115813240D01*
X34900815Y-115803873D01*
X34750836Y-115727454D01*
X34571118Y-115669059D01*
X34384486Y-115639500D01*
X34384481Y-115639500D01*
X34195519Y-115639500D01*
X34195514Y-115639500D01*
X34008880Y-115669060D01*
X34008877Y-115669060D01*
X33890406Y-115707554D01*
X33820564Y-115709549D01*
X33764407Y-115677304D01*
X33506819Y-115419716D01*
X33473334Y-115358393D01*
X33470500Y-115332035D01*
X33470500Y-110815131D01*
X49599500Y-110815131D01*
X49599500Y-112704856D01*
X49599502Y-112704882D01*
X49602413Y-112729987D01*
X49602415Y-112729991D01*
X49647793Y-112832764D01*
X49647794Y-112832765D01*
X49727235Y-112912206D01*
X49830009Y-112957585D01*
X49855135Y-112960500D01*
X51744864Y-112960499D01*
X51744879Y-112960497D01*
X51744882Y-112960497D01*
X51769987Y-112957586D01*
X51769988Y-112957585D01*
X51769991Y-112957585D01*
X51872765Y-112912206D01*
X51952206Y-112832765D01*
X51997585Y-112729991D01*
X52000500Y-112704865D01*
X52000499Y-110815136D01*
X52000497Y-110815117D01*
X51997586Y-110790012D01*
X51997585Y-110790010D01*
X51997585Y-110790009D01*
X51952206Y-110687235D01*
X51872765Y-110607794D01*
X51872763Y-110607793D01*
X51769992Y-110562415D01*
X51744865Y-110559500D01*
X49855143Y-110559500D01*
X49855117Y-110559502D01*
X49830012Y-110562413D01*
X49830008Y-110562415D01*
X49727235Y-110607793D01*
X49647794Y-110687234D01*
X49602415Y-110790006D01*
X49602415Y-110790008D01*
X49599500Y-110815131D01*
X33470500Y-110815131D01*
X33470500Y-107873799D01*
X33490185Y-107806760D01*
X33538205Y-107763314D01*
X33649199Y-107706760D01*
X33802073Y-107595690D01*
X33935690Y-107462073D01*
X34046760Y-107309199D01*
X34132547Y-107140832D01*
X34190940Y-106961118D01*
X34197775Y-106917965D01*
X34220500Y-106774486D01*
X34220500Y-106585513D01*
X34190940Y-106398881D01*
X34132545Y-106219163D01*
X34046759Y-106050800D01*
X33935690Y-105897927D01*
X33802073Y-105764310D01*
X33710613Y-105697860D01*
X33649194Y-105653236D01*
X33538205Y-105596684D01*
X33487409Y-105548710D01*
X33470500Y-105486200D01*
X33470500Y-102793799D01*
X33490185Y-102726760D01*
X33538205Y-102683314D01*
X33550583Y-102677007D01*
X33649199Y-102626760D01*
X33802073Y-102515690D01*
X33935690Y-102382073D01*
X34046760Y-102229199D01*
X34132547Y-102060832D01*
X34190940Y-101881118D01*
X34220500Y-101694486D01*
X34220500Y-101505513D01*
X34190940Y-101318881D01*
X34136492Y-101151309D01*
X34132547Y-101139168D01*
X34132545Y-101139165D01*
X34132545Y-101139163D01*
X34087290Y-101050347D01*
X34046760Y-100970801D01*
X33935690Y-100817927D01*
X33802073Y-100684310D01*
X33649199Y-100573240D01*
X33480836Y-100487454D01*
X33301118Y-100429059D01*
X33114486Y-100399500D01*
X33114481Y-100399500D01*
X32925519Y-100399500D01*
X32925514Y-100399500D01*
X32738881Y-100429059D01*
X32559163Y-100487454D01*
X32390800Y-100573240D01*
X32312661Y-100630012D01*
X32237927Y-100684310D01*
X32237925Y-100684312D01*
X32237924Y-100684312D01*
X32104312Y-100817924D01*
X32104312Y-100817925D01*
X32104310Y-100817927D01*
X32078076Y-100854035D01*
X31993240Y-100970800D01*
X31907454Y-101139163D01*
X31849059Y-101318881D01*
X31819500Y-101505513D01*
X26600499Y-101505513D01*
X26600499Y-100655136D01*
X26599342Y-100645160D01*
X26597586Y-100630012D01*
X26597585Y-100630010D01*
X26597585Y-100630009D01*
X26552206Y-100527235D01*
X26472765Y-100447794D01*
X26472763Y-100447793D01*
X26369992Y-100402415D01*
X26344868Y-100399500D01*
X26344865Y-100399500D01*
X26224500Y-100399500D01*
X26157461Y-100379815D01*
X26111706Y-100327011D01*
X26100500Y-100275500D01*
X26100500Y-96845131D01*
X49599500Y-96845131D01*
X49599500Y-98734856D01*
X49599502Y-98734882D01*
X49602413Y-98759987D01*
X49602415Y-98759991D01*
X49647793Y-98862764D01*
X49647794Y-98862765D01*
X49727235Y-98942206D01*
X49830009Y-98987585D01*
X49855135Y-98990500D01*
X50958480Y-98990499D01*
X51025519Y-99010184D01*
X51046161Y-99026818D01*
X52603181Y-100583837D01*
X52636666Y-100645160D01*
X52639500Y-100671518D01*
X52639500Y-103101862D01*
X52619815Y-103168901D01*
X52588387Y-103202179D01*
X52557927Y-103224309D01*
X52424312Y-103357924D01*
X52424312Y-103357925D01*
X52424310Y-103357927D01*
X52393155Y-103400808D01*
X52313240Y-103510800D01*
X52234984Y-103664386D01*
X52187009Y-103715182D01*
X52119188Y-103731977D01*
X52053053Y-103709439D01*
X52009602Y-103654724D01*
X52000499Y-103608091D01*
X52000499Y-103195143D01*
X52000499Y-103195136D01*
X51998397Y-103177007D01*
X51997586Y-103170012D01*
X51997585Y-103170010D01*
X51997585Y-103170009D01*
X51952206Y-103067235D01*
X51872765Y-102987794D01*
X51872763Y-102987793D01*
X51769992Y-102942415D01*
X51744865Y-102939500D01*
X49855143Y-102939500D01*
X49855117Y-102939502D01*
X49830012Y-102942413D01*
X49830008Y-102942415D01*
X49727235Y-102987793D01*
X49647794Y-103067234D01*
X49602415Y-103170006D01*
X49602415Y-103170008D01*
X49599500Y-103195131D01*
X49599500Y-105084856D01*
X49599502Y-105084882D01*
X49602413Y-105109987D01*
X49602415Y-105109991D01*
X49647793Y-105212764D01*
X49647794Y-105212765D01*
X49727235Y-105292206D01*
X49830009Y-105337585D01*
X49855135Y-105340500D01*
X51744864Y-105340499D01*
X51744879Y-105340497D01*
X51744882Y-105340497D01*
X51769987Y-105337586D01*
X51769988Y-105337585D01*
X51769991Y-105337585D01*
X51872765Y-105292206D01*
X51952206Y-105212765D01*
X51997585Y-105109991D01*
X52000500Y-105084865D01*
X52000499Y-104671906D01*
X52020183Y-104604870D01*
X52072987Y-104559115D01*
X52142146Y-104549171D01*
X52205702Y-104578196D01*
X52234984Y-104615614D01*
X52260449Y-104665591D01*
X52313240Y-104769199D01*
X52424310Y-104922073D01*
X52557927Y-105055690D01*
X52710801Y-105166760D01*
X52790347Y-105207290D01*
X52879163Y-105252545D01*
X52879165Y-105252545D01*
X52879168Y-105252547D01*
X52975497Y-105283846D01*
X53058881Y-105310940D01*
X53245514Y-105340500D01*
X53245519Y-105340500D01*
X53434486Y-105340500D01*
X53621118Y-105310940D01*
X53646496Y-105302694D01*
X53800832Y-105252547D01*
X53969199Y-105166760D01*
X54122073Y-105055690D01*
X54255690Y-104922073D01*
X54366760Y-104769199D01*
X54452547Y-104600832D01*
X54492069Y-104479195D01*
X54531507Y-104421521D01*
X54595866Y-104394323D01*
X54664712Y-104406238D01*
X54716188Y-104453482D01*
X54727931Y-104479196D01*
X54767454Y-104600836D01*
X54800449Y-104665591D01*
X54853240Y-104769199D01*
X54964310Y-104922073D01*
X55097927Y-105055690D01*
X55250801Y-105166760D01*
X55330347Y-105207290D01*
X55419163Y-105252545D01*
X55419165Y-105252545D01*
X55419168Y-105252547D01*
X55515497Y-105283846D01*
X55598881Y-105310940D01*
X55785514Y-105340500D01*
X55785519Y-105340500D01*
X55974486Y-105340500D01*
X56161118Y-105310940D01*
X56186496Y-105302694D01*
X56340832Y-105252547D01*
X56509199Y-105166760D01*
X56662073Y-105055690D01*
X56795690Y-104922073D01*
X56906760Y-104769199D01*
X56992547Y-104600832D01*
X57050940Y-104421118D01*
X57055312Y-104393514D01*
X57080500Y-104234486D01*
X57080500Y-104045513D01*
X57050940Y-103858881D01*
X57009706Y-103731977D01*
X56992547Y-103679168D01*
X56992545Y-103679165D01*
X56992545Y-103679163D01*
X56906894Y-103511064D01*
X56906760Y-103510801D01*
X56795690Y-103357927D01*
X56662073Y-103224310D01*
X56509199Y-103113240D01*
X56340836Y-103027454D01*
X56161118Y-102969059D01*
X55974486Y-102939500D01*
X55974481Y-102939500D01*
X55785519Y-102939500D01*
X55785514Y-102939500D01*
X55598881Y-102969059D01*
X55419163Y-103027454D01*
X55250800Y-103113240D01*
X55172661Y-103170012D01*
X55097927Y-103224310D01*
X55097925Y-103224312D01*
X55097924Y-103224312D01*
X54964312Y-103357924D01*
X54964312Y-103357925D01*
X54964310Y-103357927D01*
X54933155Y-103400808D01*
X54853240Y-103510800D01*
X54767454Y-103679163D01*
X54727931Y-103800803D01*
X54688493Y-103858478D01*
X54624134Y-103885676D01*
X54555288Y-103873761D01*
X54503812Y-103826516D01*
X54492069Y-103800803D01*
X54464249Y-103715182D01*
X54452547Y-103679168D01*
X54452545Y-103679165D01*
X54452545Y-103679163D01*
X54366894Y-103511064D01*
X54366760Y-103510801D01*
X54255690Y-103357927D01*
X54122073Y-103224310D01*
X54091613Y-103202179D01*
X54048948Y-103146848D01*
X54040500Y-103101862D01*
X54040500Y-100261004D01*
X54013581Y-100125677D01*
X54013580Y-100125676D01*
X54013580Y-100125672D01*
X54013578Y-100125667D01*
X53960778Y-99998195D01*
X53960771Y-99998182D01*
X53884115Y-99883459D01*
X53884114Y-99883458D01*
X53786542Y-99785886D01*
X52942861Y-98942205D01*
X52036818Y-98036161D01*
X52003333Y-97974838D01*
X52000499Y-97948480D01*
X52000499Y-97695513D01*
X57219500Y-97695513D01*
X57219500Y-97884486D01*
X57249059Y-98071118D01*
X57307454Y-98250836D01*
X57393240Y-98419199D01*
X57504310Y-98572073D01*
X57637927Y-98705690D01*
X57790801Y-98816760D01*
X57870347Y-98857290D01*
X57959163Y-98902545D01*
X57959165Y-98902545D01*
X57959168Y-98902547D01*
X58055497Y-98933846D01*
X58138881Y-98960940D01*
X58325514Y-98990500D01*
X58325519Y-98990500D01*
X58514486Y-98990500D01*
X58701118Y-98960940D01*
X58880832Y-98902547D01*
X59049199Y-98816760D01*
X59202073Y-98705690D01*
X59335690Y-98572073D01*
X59446760Y-98419199D01*
X59532547Y-98250832D01*
X59590940Y-98071118D01*
X59610364Y-97948480D01*
X59620500Y-97884486D01*
X59620500Y-97695513D01*
X59590940Y-97508881D01*
X59532545Y-97329163D01*
X59446759Y-97160800D01*
X59335690Y-97007927D01*
X59202073Y-96874310D01*
X59049199Y-96763240D01*
X58880836Y-96677454D01*
X58701118Y-96619059D01*
X58514486Y-96589500D01*
X58514481Y-96589500D01*
X58325519Y-96589500D01*
X58325514Y-96589500D01*
X58138881Y-96619059D01*
X57959163Y-96677454D01*
X57790800Y-96763240D01*
X57712661Y-96820012D01*
X57637927Y-96874310D01*
X57637925Y-96874312D01*
X57637924Y-96874312D01*
X57504312Y-97007924D01*
X57504312Y-97007925D01*
X57504310Y-97007927D01*
X57456610Y-97073579D01*
X57393240Y-97160800D01*
X57307454Y-97329163D01*
X57249059Y-97508881D01*
X57219500Y-97695513D01*
X52000499Y-97695513D01*
X52000499Y-96845143D01*
X52000499Y-96845136D01*
X52000497Y-96845117D01*
X51997586Y-96820012D01*
X51997585Y-96820010D01*
X51997585Y-96820009D01*
X51952206Y-96717235D01*
X51872765Y-96637794D01*
X51846480Y-96626188D01*
X51769992Y-96592415D01*
X51744865Y-96589500D01*
X49855143Y-96589500D01*
X49855117Y-96589502D01*
X49830012Y-96592413D01*
X49830008Y-96592415D01*
X49727235Y-96637793D01*
X49647794Y-96717234D01*
X49602415Y-96820006D01*
X49602415Y-96820008D01*
X49599500Y-96845131D01*
X26100500Y-96845131D01*
X26100500Y-71051004D01*
X26078934Y-70942591D01*
X26073580Y-70915671D01*
X26061617Y-70886790D01*
X26020776Y-70788190D01*
X25944112Y-70673454D01*
X25944111Y-70673453D01*
X13929402Y-58658745D01*
X13895917Y-58597422D01*
X13894610Y-58551665D01*
X13895637Y-58545185D01*
X13900500Y-58514481D01*
X13900500Y-58325519D01*
X13900500Y-58325513D01*
X13870940Y-58138881D01*
X13812545Y-57959163D01*
X13726759Y-57790800D01*
X13615690Y-57637927D01*
X13482073Y-57504310D01*
X13329199Y-57393240D01*
X13160836Y-57307454D01*
X13086472Y-57283291D01*
X13039195Y-57267930D01*
X12981521Y-57228493D01*
X12954323Y-57164134D01*
X12966238Y-57095288D01*
X13013482Y-57043812D01*
X13039194Y-57032069D01*
X13160832Y-56992547D01*
X13329199Y-56906760D01*
X13482073Y-56795690D01*
X13615690Y-56662073D01*
X13726760Y-56509199D01*
X13812547Y-56340832D01*
X13870940Y-56161118D01*
X13877775Y-56117965D01*
X13900500Y-55974486D01*
X13900500Y-55785513D01*
X13870940Y-55598881D01*
X13812545Y-55419163D01*
X13726759Y-55250800D01*
X13615690Y-55097927D01*
X13482073Y-54964310D01*
X13329199Y-54853240D01*
X13160836Y-54767454D01*
X13086472Y-54743291D01*
X13039195Y-54727930D01*
X12981521Y-54688493D01*
X12954323Y-54624134D01*
X12966238Y-54555288D01*
X13013482Y-54503812D01*
X13039194Y-54492069D01*
X13160832Y-54452547D01*
X13329199Y-54366760D01*
X13482073Y-54255690D01*
X13615690Y-54122073D01*
X13726760Y-53969199D01*
X13812547Y-53800832D01*
X13870940Y-53621118D01*
X13900500Y-53434486D01*
X13900500Y-53245513D01*
X13870940Y-53058881D01*
X13812545Y-52879163D01*
X13767290Y-52790347D01*
X13726760Y-52710801D01*
X13615690Y-52557927D01*
X13482073Y-52424310D01*
X13329199Y-52313240D01*
X13160836Y-52227454D01*
X13086472Y-52203291D01*
X13039195Y-52187930D01*
X12981521Y-52148493D01*
X12954323Y-52084134D01*
X12966238Y-52015288D01*
X13013482Y-51963812D01*
X13039194Y-51952069D01*
X13160832Y-51912547D01*
X13329199Y-51826760D01*
X13482073Y-51715690D01*
X13615690Y-51582073D01*
X13726760Y-51429199D01*
X13812547Y-51260832D01*
X13870940Y-51081118D01*
X13877775Y-51037965D01*
X13900500Y-50894486D01*
X13900500Y-50705513D01*
X13870940Y-50518881D01*
X13859157Y-50482619D01*
X13813552Y-50342263D01*
X13811557Y-50272427D01*
X13847637Y-50212594D01*
X13910338Y-50181765D01*
X13979752Y-50189729D01*
X14019165Y-50216268D01*
X25171181Y-61368284D01*
X25204666Y-61429607D01*
X25207500Y-61455965D01*
X25207500Y-61536993D01*
X25207500Y-61536995D01*
X25207499Y-61536995D01*
X25234418Y-61672322D01*
X25234421Y-61672332D01*
X25287221Y-61799804D01*
X25287228Y-61799817D01*
X25363885Y-61914541D01*
X25363888Y-61914545D01*
X25461454Y-62012111D01*
X25461458Y-62012114D01*
X25576182Y-62088771D01*
X25576195Y-62088778D01*
X25703667Y-62141578D01*
X25703672Y-62141580D01*
X25703676Y-62141580D01*
X25703677Y-62141581D01*
X25839004Y-62168500D01*
X25839007Y-62168500D01*
X25976995Y-62168500D01*
X26068041Y-62150389D01*
X26112328Y-62141580D01*
X26239811Y-62088775D01*
X26354542Y-62012114D01*
X26452114Y-61914542D01*
X26528775Y-61799811D01*
X26581580Y-61672328D01*
X26590389Y-61628041D01*
X26608500Y-61536995D01*
X26608500Y-61399004D01*
X26581581Y-61263677D01*
X26581580Y-61263676D01*
X26581580Y-61263672D01*
X26575224Y-61248326D01*
X26528778Y-61136195D01*
X26528771Y-61136182D01*
X26452114Y-61021458D01*
X26452111Y-61021454D01*
X26354545Y-60923888D01*
X26354541Y-60923885D01*
X26239817Y-60847228D01*
X26239804Y-60847221D01*
X26112332Y-60794421D01*
X26112322Y-60794418D01*
X25976995Y-60767500D01*
X25976993Y-60767500D01*
X25895966Y-60767500D01*
X25828927Y-60747815D01*
X25808285Y-60731181D01*
X13862694Y-48785591D01*
X13829209Y-48724268D01*
X13832444Y-48659593D01*
X13870940Y-48541118D01*
X13886169Y-48444963D01*
X13900500Y-48354486D01*
X13900500Y-48165513D01*
X13870940Y-47978881D01*
X13812545Y-47799163D01*
X13726759Y-47630800D01*
X13615690Y-47477927D01*
X13482073Y-47344310D01*
X13329199Y-47233240D01*
X13160836Y-47147454D01*
X13056574Y-47113577D01*
X13038386Y-47107667D01*
X12980712Y-47068230D01*
X12953514Y-47003871D01*
X12965429Y-46935025D01*
X13012673Y-46883549D01*
X13038389Y-46871806D01*
X13160635Y-46832086D01*
X13328937Y-46746331D01*
X13395284Y-46698126D01*
X13395285Y-46698126D01*
X12885178Y-46188019D01*
X12892993Y-46185925D01*
X13007007Y-46120099D01*
X13100099Y-46027007D01*
X13165925Y-45912993D01*
X13168019Y-45905178D01*
X13678126Y-46415285D01*
X13678126Y-46415284D01*
X13726331Y-46348937D01*
X13812085Y-46180637D01*
X13870451Y-46001002D01*
X13900000Y-45814447D01*
X13900000Y-45625552D01*
X13870451Y-45438997D01*
X13812085Y-45259362D01*
X13726329Y-45091059D01*
X13678127Y-45024714D01*
X13678126Y-45024713D01*
X13168018Y-45534821D01*
X13165925Y-45527007D01*
X13100099Y-45412993D01*
X13007007Y-45319901D01*
X12892993Y-45254075D01*
X12885177Y-45251980D01*
X13395284Y-44741872D01*
X13328933Y-44693666D01*
X13160637Y-44607914D01*
X13038388Y-44568193D01*
X12980712Y-44528755D01*
X12953514Y-44464397D01*
X12965429Y-44395550D01*
X13012673Y-44344075D01*
X13038382Y-44332333D01*
X13160832Y-44292547D01*
X13329199Y-44206760D01*
X13482073Y-44095690D01*
X13615690Y-43962073D01*
X13726760Y-43809199D01*
X13812547Y-43640832D01*
X13870940Y-43461118D01*
X13900500Y-43274486D01*
X13900500Y-43085513D01*
X13870940Y-42898881D01*
X13859157Y-42862619D01*
X13813552Y-42722263D01*
X13811557Y-42652427D01*
X13847637Y-42592594D01*
X13910338Y-42561765D01*
X13979752Y-42569729D01*
X14019165Y-42596268D01*
X14965984Y-43543087D01*
X14999469Y-43604410D01*
X14994485Y-43674102D01*
X14952613Y-43730035D01*
X14902496Y-43752385D01*
X14781676Y-43776419D01*
X14781667Y-43776421D01*
X14654195Y-43829221D01*
X14654182Y-43829228D01*
X14539458Y-43905885D01*
X14539454Y-43905888D01*
X14441888Y-44003454D01*
X14441885Y-44003458D01*
X14365228Y-44118182D01*
X14365221Y-44118195D01*
X14312421Y-44245667D01*
X14312418Y-44245677D01*
X14285500Y-44381004D01*
X14285500Y-44381007D01*
X14285500Y-44518993D01*
X14285500Y-44518995D01*
X14285499Y-44518995D01*
X14312418Y-44654322D01*
X14312421Y-44654332D01*
X14365221Y-44781804D01*
X14365228Y-44781817D01*
X14441885Y-44896541D01*
X14441888Y-44896545D01*
X14539454Y-44994111D01*
X14539458Y-44994114D01*
X14654182Y-45070771D01*
X14654195Y-45070778D01*
X14781667Y-45123578D01*
X14781672Y-45123580D01*
X14781676Y-45123580D01*
X14781677Y-45123581D01*
X14917004Y-45150500D01*
X14917007Y-45150500D01*
X14998035Y-45150500D01*
X15065074Y-45170185D01*
X15085716Y-45186819D01*
X27919984Y-58021087D01*
X27953469Y-58082410D01*
X27948485Y-58152102D01*
X27906613Y-58208035D01*
X27856496Y-58230385D01*
X27735676Y-58254419D01*
X27735667Y-58254421D01*
X27608195Y-58307221D01*
X27608182Y-58307228D01*
X27493458Y-58383885D01*
X27493454Y-58383888D01*
X27395888Y-58481454D01*
X27395885Y-58481458D01*
X27319228Y-58596182D01*
X27319221Y-58596195D01*
X27266421Y-58723667D01*
X27266418Y-58723677D01*
X27239500Y-58859004D01*
X27239500Y-58859007D01*
X27239500Y-58996993D01*
X27239500Y-58996995D01*
X27239499Y-58996995D01*
X27266418Y-59132322D01*
X27266421Y-59132332D01*
X27319221Y-59259804D01*
X27319228Y-59259817D01*
X27395885Y-59374541D01*
X27395888Y-59374545D01*
X27493454Y-59472111D01*
X27493458Y-59472114D01*
X27608182Y-59548771D01*
X27608195Y-59548778D01*
X27721025Y-59595513D01*
X27735672Y-59601580D01*
X27735676Y-59601580D01*
X27735677Y-59601581D01*
X27871004Y-59628500D01*
X27871007Y-59628500D01*
X27952035Y-59628500D01*
X28019074Y-59648185D01*
X28039716Y-59664819D01*
X45091298Y-76716401D01*
X45124783Y-76777724D01*
X45119799Y-76847416D01*
X45106720Y-76872971D01*
X45099224Y-76884188D01*
X45099223Y-76884190D01*
X45046421Y-77011667D01*
X45046418Y-77011677D01*
X45019500Y-77147004D01*
X45019500Y-77147007D01*
X45019500Y-77284993D01*
X45019500Y-77284995D01*
X45019499Y-77284995D01*
X45046418Y-77420322D01*
X45046421Y-77420332D01*
X45099221Y-77547804D01*
X45099228Y-77547817D01*
X45175885Y-77662541D01*
X45175888Y-77662545D01*
X45273454Y-77760111D01*
X45273458Y-77760114D01*
X45388182Y-77836771D01*
X45388195Y-77836778D01*
X45515667Y-77889578D01*
X45515672Y-77889580D01*
X45515676Y-77889580D01*
X45515677Y-77889581D01*
X45651004Y-77916500D01*
X45651007Y-77916500D01*
X45788995Y-77916500D01*
X45882576Y-77897885D01*
X45924328Y-77889580D01*
X46051811Y-77836775D01*
X46166542Y-77760114D01*
X46264114Y-77662542D01*
X46340775Y-77547811D01*
X46341332Y-77546467D01*
X46341810Y-77545872D01*
X46343645Y-77542441D01*
X46344295Y-77542788D01*
X46385170Y-77492061D01*
X46451463Y-77469993D01*
X46519163Y-77487269D01*
X46538630Y-77502391D01*
X46538748Y-77502249D01*
X46543458Y-77506114D01*
X46658182Y-77582771D01*
X46658195Y-77582778D01*
X46729179Y-77612180D01*
X46785672Y-77635580D01*
X46785676Y-77635580D01*
X46785677Y-77635581D01*
X46921004Y-77662500D01*
X46921007Y-77662500D01*
X47058995Y-77662500D01*
X47150041Y-77644389D01*
X47194328Y-77635580D01*
X47321811Y-77582775D01*
X47436542Y-77506114D01*
X47534114Y-77408542D01*
X47610775Y-77293811D01*
X47611332Y-77292467D01*
X47611810Y-77291872D01*
X47613645Y-77288441D01*
X47614295Y-77288788D01*
X47655170Y-77238061D01*
X47721463Y-77215993D01*
X47789163Y-77233269D01*
X47808630Y-77248391D01*
X47808748Y-77248249D01*
X47813458Y-77252114D01*
X47928182Y-77328771D01*
X47928195Y-77328778D01*
X48055667Y-77381578D01*
X48055672Y-77381580D01*
X48055676Y-77381580D01*
X48055677Y-77381581D01*
X48191004Y-77408500D01*
X48191007Y-77408500D01*
X48328995Y-77408500D01*
X48420041Y-77390389D01*
X48464328Y-77381580D01*
X48591811Y-77328775D01*
X48623481Y-77307614D01*
X48632609Y-77301515D01*
X48699286Y-77280637D01*
X48766666Y-77299121D01*
X48813357Y-77351100D01*
X48825500Y-77404617D01*
X48825500Y-77783308D01*
X48849712Y-77873672D01*
X48856200Y-77897885D01*
X48856200Y-77897886D01*
X48856201Y-77897887D01*
X48915511Y-78000614D01*
X48915513Y-78000616D01*
X51329181Y-80414284D01*
X51362666Y-80475607D01*
X51365500Y-80501965D01*
X51365500Y-89213309D01*
X51378142Y-89260489D01*
X51396201Y-89327887D01*
X51455511Y-89430614D01*
X51455513Y-89430616D01*
X51583181Y-89558284D01*
X51616666Y-89619607D01*
X51619500Y-89645965D01*
X51619500Y-90848481D01*
X51599815Y-90915520D01*
X51583181Y-90936162D01*
X51525888Y-90993454D01*
X51525885Y-90993458D01*
X51449228Y-91108182D01*
X51449221Y-91108195D01*
X51396421Y-91235667D01*
X51396418Y-91235677D01*
X51369500Y-91371004D01*
X51369500Y-91371007D01*
X51369500Y-91508993D01*
X51369500Y-91508995D01*
X51369499Y-91508995D01*
X51396418Y-91644322D01*
X51396421Y-91644332D01*
X51449221Y-91771804D01*
X51449228Y-91771817D01*
X51525885Y-91886541D01*
X51525888Y-91886545D01*
X51623454Y-91984111D01*
X51623458Y-91984114D01*
X51738182Y-92060771D01*
X51738195Y-92060778D01*
X51865667Y-92113578D01*
X51865672Y-92113580D01*
X51865676Y-92113580D01*
X51865677Y-92113581D01*
X52001004Y-92140500D01*
X52001007Y-92140500D01*
X52138995Y-92140500D01*
X52230041Y-92122389D01*
X52274328Y-92113580D01*
X52401811Y-92060775D01*
X52516542Y-91984114D01*
X52614114Y-91886542D01*
X52690775Y-91771811D01*
X52743580Y-91644328D01*
X52760766Y-91557931D01*
X52770500Y-91508995D01*
X52770500Y-91371004D01*
X52743581Y-91235677D01*
X52743580Y-91235676D01*
X52743580Y-91235672D01*
X52712355Y-91160287D01*
X52690778Y-91108195D01*
X52690771Y-91108182D01*
X52614114Y-90993458D01*
X52614111Y-90993454D01*
X52556819Y-90936162D01*
X52523334Y-90874839D01*
X52520500Y-90848481D01*
X52520500Y-89348693D01*
X52520500Y-89348691D01*
X52489799Y-89234114D01*
X52489799Y-89234113D01*
X52430489Y-89131386D01*
X52340783Y-89041680D01*
X52307298Y-88980357D01*
X52312282Y-88910665D01*
X52354154Y-88854732D01*
X52419618Y-88830315D01*
X52428464Y-88829999D01*
X54257156Y-88829999D01*
X54257156Y-88829998D01*
X53525177Y-88098019D01*
X53532993Y-88095925D01*
X53647007Y-88030099D01*
X53740099Y-87937007D01*
X53805925Y-87822993D01*
X53808019Y-87815177D01*
X54539998Y-88547156D01*
X54539999Y-88547155D01*
X54539999Y-88160926D01*
X54559684Y-88093887D01*
X54612488Y-88048132D01*
X54681646Y-88038188D01*
X54745202Y-88067213D01*
X54774483Y-88104630D01*
X54853240Y-88259199D01*
X54964310Y-88412073D01*
X55097927Y-88545690D01*
X55250801Y-88656760D01*
X55316861Y-88690419D01*
X55419163Y-88742545D01*
X55419165Y-88742545D01*
X55419168Y-88742547D01*
X55515497Y-88773846D01*
X55598881Y-88800940D01*
X55785514Y-88830500D01*
X55785519Y-88830500D01*
X55974486Y-88830500D01*
X56161118Y-88800940D01*
X56163137Y-88800284D01*
X56340832Y-88742547D01*
X56509199Y-88656760D01*
X56662073Y-88545690D01*
X56795690Y-88412073D01*
X56906760Y-88259199D01*
X56992547Y-88090832D01*
X57050940Y-87911118D01*
X57080500Y-87724486D01*
X57080500Y-87535513D01*
X57050940Y-87348881D01*
X56992545Y-87169163D01*
X56906759Y-87000800D01*
X56795690Y-86847927D01*
X56662073Y-86714310D01*
X56660052Y-86712842D01*
X64840000Y-86712842D01*
X64840000Y-88547156D01*
X65571980Y-87815176D01*
X65574075Y-87822993D01*
X65639901Y-87937007D01*
X65732993Y-88030099D01*
X65847007Y-88095925D01*
X65854823Y-88098019D01*
X65122842Y-88829998D01*
X65122843Y-88829999D01*
X66957156Y-88829999D01*
X66957156Y-88829998D01*
X66225176Y-88098019D01*
X66232993Y-88095925D01*
X66347007Y-88030099D01*
X66440099Y-87937007D01*
X66505925Y-87822993D01*
X66508019Y-87815176D01*
X67239998Y-88547156D01*
X67239999Y-88547155D01*
X67239999Y-88160926D01*
X67259684Y-88093887D01*
X67312488Y-88048132D01*
X67381646Y-88038188D01*
X67445202Y-88067213D01*
X67474483Y-88104630D01*
X67553240Y-88259199D01*
X67664310Y-88412073D01*
X67797927Y-88545690D01*
X67950801Y-88656760D01*
X68016861Y-88690419D01*
X68119163Y-88742545D01*
X68119165Y-88742545D01*
X68119168Y-88742547D01*
X68215497Y-88773846D01*
X68298881Y-88800940D01*
X68485514Y-88830500D01*
X68485519Y-88830500D01*
X68674486Y-88830500D01*
X68861118Y-88800940D01*
X68863137Y-88800284D01*
X69040832Y-88742547D01*
X69209199Y-88656760D01*
X69362073Y-88545690D01*
X69495690Y-88412073D01*
X69606760Y-88259199D01*
X69692547Y-88090832D01*
X69750940Y-87911118D01*
X69780500Y-87724486D01*
X69780500Y-87535513D01*
X69750940Y-87348881D01*
X69692545Y-87169163D01*
X69606759Y-87000800D01*
X69495690Y-86847927D01*
X69362073Y-86714310D01*
X69270613Y-86647860D01*
X69209194Y-86603236D01*
X69098205Y-86546684D01*
X69047409Y-86498710D01*
X69030500Y-86436200D01*
X69030500Y-78977964D01*
X69050185Y-78910925D01*
X69066814Y-78890288D01*
X70594407Y-77362694D01*
X70655730Y-77329210D01*
X70720407Y-77332445D01*
X70838881Y-77370940D01*
X71025514Y-77400500D01*
X71025519Y-77400500D01*
X71214486Y-77400500D01*
X71401118Y-77370940D01*
X71436403Y-77359475D01*
X71580832Y-77312547D01*
X71749199Y-77226760D01*
X71902073Y-77115690D01*
X72035690Y-76982073D01*
X72146760Y-76829199D01*
X72232547Y-76660832D01*
X72290940Y-76481118D01*
X72307559Y-76376189D01*
X72320500Y-76294486D01*
X72320500Y-76105513D01*
X72290940Y-75918881D01*
X72232545Y-75739163D01*
X72180288Y-75636604D01*
X72146760Y-75570801D01*
X72035690Y-75417927D01*
X71902073Y-75284310D01*
X71749199Y-75173240D01*
X71580836Y-75087454D01*
X71401118Y-75029059D01*
X71214486Y-74999500D01*
X71214481Y-74999500D01*
X71025519Y-74999500D01*
X71025514Y-74999500D01*
X70838881Y-75029059D01*
X70659163Y-75087454D01*
X70490800Y-75173240D01*
X70412661Y-75230012D01*
X70337927Y-75284310D01*
X70337925Y-75284312D01*
X70337924Y-75284312D01*
X70204312Y-75417924D01*
X70204312Y-75417925D01*
X70204310Y-75417927D01*
X70189609Y-75438161D01*
X70093240Y-75570800D01*
X70007454Y-75739163D01*
X69949059Y-75918881D01*
X69919500Y-76105513D01*
X69919500Y-76294486D01*
X69949060Y-76481119D01*
X69949060Y-76481122D01*
X69987554Y-76599592D01*
X69989549Y-76669433D01*
X69957304Y-76725591D01*
X68219513Y-78463383D01*
X68219509Y-78463389D01*
X68160201Y-78566112D01*
X68160200Y-78566117D01*
X68129500Y-78680691D01*
X68129500Y-86436200D01*
X68109815Y-86503239D01*
X68061795Y-86546684D01*
X67950805Y-86603236D01*
X67851402Y-86675458D01*
X67797927Y-86714310D01*
X67797925Y-86714312D01*
X67797924Y-86714312D01*
X67664312Y-86847924D01*
X67664312Y-86847925D01*
X67664310Y-86847927D01*
X67631431Y-86893181D01*
X67553240Y-87000800D01*
X67474484Y-87155368D01*
X67426509Y-87206164D01*
X67358688Y-87222959D01*
X67292553Y-87200422D01*
X67249102Y-87145706D01*
X67239999Y-87099073D01*
X67239999Y-86712843D01*
X67239998Y-86712842D01*
X66508019Y-87444822D01*
X66505925Y-87437007D01*
X66440099Y-87322993D01*
X66347007Y-87229901D01*
X66232993Y-87164075D01*
X66225176Y-87161980D01*
X66957156Y-86430000D01*
X65122842Y-86430000D01*
X65854823Y-87161980D01*
X65847007Y-87164075D01*
X65732993Y-87229901D01*
X65639901Y-87322993D01*
X65574075Y-87437007D01*
X65571980Y-87444822D01*
X64840000Y-86712842D01*
X56660052Y-86712842D01*
X56509199Y-86603240D01*
X56459439Y-86577886D01*
X56443138Y-86569580D01*
X56443137Y-86569579D01*
X56398204Y-86546684D01*
X56347409Y-86498710D01*
X56330500Y-86436200D01*
X56330500Y-78977964D01*
X56350185Y-78910925D01*
X56366814Y-78890288D01*
X57894407Y-77362694D01*
X57955730Y-77329210D01*
X58020407Y-77332445D01*
X58138881Y-77370940D01*
X58325514Y-77400500D01*
X58325519Y-77400500D01*
X58514486Y-77400500D01*
X58701118Y-77370940D01*
X58736403Y-77359475D01*
X58880832Y-77312547D01*
X59049199Y-77226760D01*
X59202073Y-77115690D01*
X59335690Y-76982073D01*
X59446760Y-76829199D01*
X59532547Y-76660832D01*
X59590940Y-76481118D01*
X59607559Y-76376189D01*
X59620500Y-76294486D01*
X59620500Y-76105513D01*
X59590940Y-75918881D01*
X59532545Y-75739163D01*
X59480288Y-75636604D01*
X59446760Y-75570801D01*
X59335690Y-75417927D01*
X59202073Y-75284310D01*
X59049199Y-75173240D01*
X58880836Y-75087454D01*
X58701118Y-75029059D01*
X58514486Y-74999500D01*
X58514481Y-74999500D01*
X58325519Y-74999500D01*
X58325514Y-74999500D01*
X58138881Y-75029059D01*
X57959163Y-75087454D01*
X57790800Y-75173240D01*
X57712661Y-75230012D01*
X57637927Y-75284310D01*
X57637925Y-75284312D01*
X57637924Y-75284312D01*
X57504312Y-75417924D01*
X57504312Y-75417925D01*
X57504310Y-75417927D01*
X57489609Y-75438161D01*
X57393240Y-75570800D01*
X57307454Y-75739163D01*
X57249059Y-75918881D01*
X57219500Y-76105513D01*
X57219500Y-76294486D01*
X57249060Y-76481119D01*
X57249060Y-76481122D01*
X57287554Y-76599592D01*
X57289549Y-76669433D01*
X57257304Y-76725591D01*
X55519513Y-78463383D01*
X55519509Y-78463389D01*
X55460201Y-78566112D01*
X55460200Y-78566117D01*
X55429500Y-78680691D01*
X55429500Y-86436200D01*
X55409815Y-86503239D01*
X55361795Y-86546684D01*
X55250805Y-86603236D01*
X55151402Y-86675458D01*
X55097927Y-86714310D01*
X55097925Y-86714312D01*
X55097924Y-86714312D01*
X54964312Y-86847924D01*
X54964312Y-86847925D01*
X54964310Y-86847927D01*
X54931431Y-86893181D01*
X54853240Y-87000800D01*
X54774484Y-87155368D01*
X54726509Y-87206164D01*
X54658688Y-87222959D01*
X54592553Y-87200422D01*
X54549102Y-87145706D01*
X54539999Y-87099073D01*
X54539999Y-86712843D01*
X54539998Y-86712842D01*
X53808019Y-87444822D01*
X53805925Y-87437007D01*
X53740099Y-87322993D01*
X53647007Y-87229901D01*
X53532993Y-87164075D01*
X53525175Y-87161980D01*
X54257155Y-86430000D01*
X52391628Y-86430001D01*
X52391628Y-86428467D01*
X52329573Y-86414065D01*
X52280856Y-86363981D01*
X52266500Y-86306066D01*
X52266500Y-80204693D01*
X52266500Y-80204691D01*
X52235799Y-80090114D01*
X52218306Y-80059815D01*
X52202601Y-80032613D01*
X52176491Y-79987389D01*
X52176487Y-79987384D01*
X49801283Y-77612180D01*
X49767798Y-77550857D01*
X49772782Y-77481165D01*
X49814654Y-77425232D01*
X49880118Y-77400815D01*
X49888936Y-77400499D01*
X51744864Y-77400499D01*
X51744879Y-77400497D01*
X51744882Y-77400497D01*
X51769987Y-77397586D01*
X51769988Y-77397585D01*
X51769991Y-77397585D01*
X51872765Y-77352206D01*
X51952206Y-77272765D01*
X51997585Y-77169991D01*
X52000500Y-77144865D01*
X52000499Y-75255136D01*
X52000497Y-75255117D01*
X51997586Y-75230012D01*
X51997585Y-75230010D01*
X51997585Y-75230009D01*
X51952206Y-75127235D01*
X51872765Y-75047794D01*
X51872763Y-75047793D01*
X51769992Y-75002415D01*
X51744868Y-74999500D01*
X51744865Y-74999500D01*
X51374500Y-74999500D01*
X51307461Y-74979815D01*
X51261706Y-74927011D01*
X51250500Y-74875500D01*
X51250500Y-55820693D01*
X51250500Y-55820691D01*
X51219799Y-55706114D01*
X51219799Y-55706113D01*
X51160489Y-55603386D01*
X39262694Y-43705591D01*
X39229209Y-43644268D01*
X39232444Y-43579593D01*
X39270940Y-43461118D01*
X39286169Y-43364963D01*
X39300500Y-43274486D01*
X39300500Y-43085513D01*
X39270940Y-42898881D01*
X39259157Y-42862619D01*
X39213552Y-42722263D01*
X39211557Y-42652427D01*
X39247637Y-42592594D01*
X39310338Y-42561765D01*
X39379752Y-42569729D01*
X39419165Y-42596268D01*
X63013181Y-66190284D01*
X63046666Y-66251607D01*
X63049500Y-66277965D01*
X63049500Y-74875500D01*
X63029815Y-74942539D01*
X62977011Y-74988294D01*
X62925500Y-74999500D01*
X62555143Y-74999500D01*
X62555117Y-74999502D01*
X62530012Y-75002413D01*
X62530008Y-75002415D01*
X62427235Y-75047793D01*
X62347794Y-75127234D01*
X62302415Y-75230006D01*
X62302415Y-75230008D01*
X62299500Y-75255131D01*
X62299500Y-77144856D01*
X62299502Y-77144882D01*
X62302413Y-77169987D01*
X62302415Y-77169991D01*
X62347793Y-77272764D01*
X62347794Y-77272765D01*
X62427235Y-77352206D01*
X62530009Y-77397585D01*
X62555135Y-77400500D01*
X64444864Y-77400499D01*
X64444879Y-77400497D01*
X64444882Y-77400497D01*
X64469987Y-77397586D01*
X64469988Y-77397585D01*
X64469991Y-77397585D01*
X64572765Y-77352206D01*
X64652206Y-77272765D01*
X64697585Y-77169991D01*
X64700500Y-77144865D01*
X64700499Y-75255136D01*
X64700497Y-75255117D01*
X64697586Y-75230012D01*
X64697585Y-75230010D01*
X64697585Y-75230009D01*
X64652206Y-75127235D01*
X64572765Y-75047794D01*
X64572763Y-75047793D01*
X64469992Y-75002415D01*
X64444868Y-74999500D01*
X64444865Y-74999500D01*
X64074500Y-74999500D01*
X64007461Y-74979815D01*
X63961706Y-74927011D01*
X63950500Y-74875500D01*
X63950500Y-65980693D01*
X63950500Y-65980691D01*
X63919799Y-65866114D01*
X63919797Y-65866110D01*
X63894731Y-65822694D01*
X63860493Y-65763392D01*
X63860487Y-65763384D01*
X39262694Y-41165591D01*
X39229209Y-41104268D01*
X39232444Y-41039593D01*
X39270940Y-40921118D01*
X39286169Y-40824963D01*
X39300500Y-40734486D01*
X39300500Y-40545513D01*
X39270940Y-40358881D01*
X39261164Y-40328796D01*
X39213552Y-40182263D01*
X39211557Y-40112428D01*
X39247637Y-40052595D01*
X39310338Y-40021766D01*
X39379752Y-40029730D01*
X39419165Y-40056269D01*
X74963181Y-75600285D01*
X74996666Y-75661608D01*
X74999500Y-75687966D01*
X74999500Y-77144856D01*
X74999502Y-77144882D01*
X75002413Y-77169987D01*
X75002415Y-77169991D01*
X75047793Y-77272764D01*
X75047794Y-77272765D01*
X75127235Y-77352206D01*
X75230009Y-77397585D01*
X75255135Y-77400500D01*
X77111035Y-77400499D01*
X77178074Y-77420184D01*
X77223829Y-77472987D01*
X77233773Y-77542146D01*
X77204748Y-77605702D01*
X77198716Y-77612180D01*
X75331513Y-79479383D01*
X75331509Y-79479389D01*
X75272201Y-79582112D01*
X75272200Y-79582117D01*
X75241500Y-79696691D01*
X75241500Y-86425382D01*
X75221815Y-86492421D01*
X75169011Y-86538176D01*
X75099853Y-86548120D01*
X75048610Y-86528485D01*
X75007815Y-86501227D01*
X75007804Y-86501221D01*
X74880332Y-86448421D01*
X74880322Y-86448418D01*
X74744995Y-86421500D01*
X74744993Y-86421500D01*
X74663965Y-86421500D01*
X74596926Y-86401815D01*
X74576284Y-86385181D01*
X72872819Y-84681716D01*
X72839334Y-84620393D01*
X72836500Y-84594035D01*
X72836500Y-84513004D01*
X72809581Y-84377677D01*
X72809580Y-84377676D01*
X72809580Y-84377672D01*
X72809578Y-84377667D01*
X72756778Y-84250195D01*
X72756771Y-84250182D01*
X72680114Y-84135458D01*
X72680111Y-84135454D01*
X72582545Y-84037888D01*
X72582541Y-84037885D01*
X72467817Y-83961228D01*
X72467804Y-83961221D01*
X72340332Y-83908421D01*
X72340322Y-83908418D01*
X72204995Y-83881500D01*
X72204993Y-83881500D01*
X72067007Y-83881500D01*
X72067005Y-83881500D01*
X71931677Y-83908418D01*
X71931667Y-83908421D01*
X71804195Y-83961221D01*
X71804182Y-83961228D01*
X71689458Y-84037885D01*
X71689454Y-84037888D01*
X71591888Y-84135454D01*
X71591885Y-84135458D01*
X71515228Y-84250182D01*
X71515223Y-84250192D01*
X71488561Y-84314561D01*
X71444720Y-84368964D01*
X71378426Y-84391029D01*
X71310726Y-84373750D01*
X71263116Y-84322612D01*
X71259439Y-84314561D01*
X71232776Y-84250192D01*
X71232775Y-84250189D01*
X71232773Y-84250186D01*
X71232771Y-84250182D01*
X71156114Y-84135458D01*
X71156111Y-84135454D01*
X71058545Y-84037888D01*
X71058541Y-84037885D01*
X70943817Y-83961228D01*
X70943804Y-83961221D01*
X70816332Y-83908421D01*
X70816322Y-83908418D01*
X70680995Y-83881500D01*
X70680993Y-83881500D01*
X70543007Y-83881500D01*
X70543005Y-83881500D01*
X70407677Y-83908418D01*
X70407667Y-83908421D01*
X70280195Y-83961221D01*
X70280182Y-83961228D01*
X70165458Y-84037885D01*
X70165454Y-84037888D01*
X70067888Y-84135454D01*
X70067885Y-84135458D01*
X69991228Y-84250182D01*
X69991221Y-84250195D01*
X69938421Y-84377667D01*
X69938418Y-84377677D01*
X69911500Y-84513004D01*
X69911500Y-84513007D01*
X69911500Y-84650993D01*
X69911500Y-84650995D01*
X69911499Y-84650995D01*
X69938418Y-84786322D01*
X69938421Y-84786332D01*
X69991221Y-84913804D01*
X69991228Y-84913817D01*
X70067885Y-85028541D01*
X70067888Y-85028545D01*
X70165454Y-85126111D01*
X70165458Y-85126114D01*
X70280182Y-85202771D01*
X70280195Y-85202778D01*
X70392327Y-85249224D01*
X70407672Y-85255580D01*
X70407676Y-85255580D01*
X70407677Y-85255581D01*
X70543004Y-85282500D01*
X70543007Y-85282500D01*
X70624035Y-85282500D01*
X70691074Y-85302185D01*
X70711716Y-85318819D01*
X72669181Y-87276284D01*
X72702666Y-87337607D01*
X72705500Y-87363965D01*
X72705500Y-87444993D01*
X72705500Y-87444995D01*
X72705499Y-87444995D01*
X72732418Y-87580322D01*
X72732421Y-87580332D01*
X72785221Y-87707804D01*
X72785228Y-87707817D01*
X72861885Y-87822541D01*
X72861888Y-87822545D01*
X72959454Y-87920111D01*
X72959458Y-87920114D01*
X73074182Y-87996771D01*
X73074195Y-87996778D01*
X73174169Y-88038188D01*
X73201672Y-88049580D01*
X73201676Y-88049580D01*
X73201677Y-88049581D01*
X73337004Y-88076500D01*
X73337007Y-88076500D01*
X73474995Y-88076500D01*
X73566041Y-88058389D01*
X73610328Y-88049580D01*
X73737811Y-87996775D01*
X73852542Y-87920114D01*
X73950114Y-87822542D01*
X74026775Y-87707811D01*
X74027332Y-87706467D01*
X74027810Y-87705872D01*
X74029645Y-87702441D01*
X74030295Y-87702788D01*
X74071170Y-87652061D01*
X74137463Y-87629993D01*
X74205163Y-87647269D01*
X74224630Y-87662391D01*
X74224748Y-87662249D01*
X74229458Y-87666114D01*
X74344182Y-87742771D01*
X74344195Y-87742778D01*
X74471667Y-87795578D01*
X74471672Y-87795580D01*
X74471676Y-87795580D01*
X74471677Y-87795581D01*
X74607004Y-87822500D01*
X74607007Y-87822500D01*
X74744995Y-87822500D01*
X74836041Y-87804389D01*
X74880328Y-87795580D01*
X75007811Y-87742775D01*
X75007817Y-87742771D01*
X75048609Y-87715515D01*
X75115286Y-87694637D01*
X75182666Y-87713121D01*
X75229357Y-87765100D01*
X75241500Y-87818617D01*
X75241500Y-91610481D01*
X75221815Y-91677520D01*
X75205181Y-91698162D01*
X75147888Y-91755454D01*
X75147885Y-91755458D01*
X75071228Y-91870182D01*
X75071221Y-91870195D01*
X75018421Y-91997667D01*
X75018418Y-91997677D01*
X74991500Y-92133004D01*
X74991500Y-92133007D01*
X74991500Y-92270993D01*
X74991500Y-92270995D01*
X74991499Y-92270995D01*
X75018418Y-92406322D01*
X75018421Y-92406332D01*
X75071221Y-92533804D01*
X75071228Y-92533817D01*
X75147885Y-92648541D01*
X75147888Y-92648545D01*
X75245454Y-92746111D01*
X75245458Y-92746114D01*
X75360182Y-92822771D01*
X75360195Y-92822778D01*
X75487667Y-92875578D01*
X75487672Y-92875580D01*
X75487676Y-92875580D01*
X75487677Y-92875581D01*
X75623004Y-92902500D01*
X75623007Y-92902500D01*
X75760995Y-92902500D01*
X75852041Y-92884389D01*
X75896328Y-92875580D01*
X76023811Y-92822775D01*
X76068609Y-92792841D01*
X76135286Y-92771964D01*
X76202666Y-92790448D01*
X76249357Y-92842427D01*
X76261500Y-92895944D01*
X76261500Y-94146480D01*
X76241815Y-94213519D01*
X76225181Y-94234161D01*
X73906160Y-96553181D01*
X73844837Y-96586666D01*
X73818479Y-96589500D01*
X72715143Y-96589500D01*
X72715117Y-96589502D01*
X72690012Y-96592413D01*
X72690008Y-96592415D01*
X72587235Y-96637793D01*
X72507794Y-96717234D01*
X72462415Y-96820006D01*
X72462415Y-96820008D01*
X72459500Y-96845131D01*
X72459500Y-98734856D01*
X72459502Y-98734882D01*
X72462413Y-98759987D01*
X72462415Y-98759991D01*
X72507793Y-98862764D01*
X72507794Y-98862765D01*
X72587235Y-98942206D01*
X72690009Y-98987585D01*
X72715135Y-98990500D01*
X72835500Y-98990499D01*
X72902539Y-99010183D01*
X72948294Y-99062987D01*
X72959500Y-99114499D01*
X72959500Y-100515006D01*
X72959500Y-100652994D01*
X72959500Y-100652996D01*
X72959499Y-100652996D01*
X72986418Y-100788322D01*
X72986421Y-100788332D01*
X73039222Y-100915807D01*
X73115887Y-101030545D01*
X73115888Y-101030546D01*
X74701181Y-102615838D01*
X74734666Y-102677161D01*
X74737500Y-102703519D01*
X74737500Y-102815791D01*
X74717815Y-102882830D01*
X74665011Y-102928585D01*
X74608446Y-102939196D01*
X74608446Y-102939500D01*
X74606830Y-102939500D01*
X74606372Y-102939586D01*
X74604878Y-102939500D01*
X72715143Y-102939500D01*
X72715117Y-102939502D01*
X72690012Y-102942413D01*
X72690008Y-102942415D01*
X72587235Y-102987793D01*
X72507794Y-103067234D01*
X72462415Y-103170006D01*
X72462415Y-103170008D01*
X72459500Y-103195131D01*
X72459500Y-105084856D01*
X72459502Y-105084882D01*
X72462413Y-105109987D01*
X72462415Y-105109991D01*
X72507793Y-105212764D01*
X72507794Y-105212765D01*
X72587235Y-105292206D01*
X72690009Y-105337585D01*
X72715135Y-105340500D01*
X74604864Y-105340499D01*
X74604879Y-105340497D01*
X74604882Y-105340497D01*
X74629987Y-105337586D01*
X74629988Y-105337585D01*
X74629991Y-105337585D01*
X74732765Y-105292206D01*
X74812206Y-105212765D01*
X74857585Y-105109991D01*
X74860500Y-105084865D01*
X74860499Y-104671906D01*
X74880183Y-104604870D01*
X74932987Y-104559115D01*
X75002146Y-104549171D01*
X75065702Y-104578196D01*
X75094984Y-104615614D01*
X75120449Y-104665591D01*
X75173240Y-104769199D01*
X75284310Y-104922073D01*
X75417927Y-105055690D01*
X75570801Y-105166760D01*
X75650347Y-105207290D01*
X75739163Y-105252545D01*
X75739165Y-105252545D01*
X75739168Y-105252547D01*
X75835497Y-105283846D01*
X75918881Y-105310940D01*
X76105514Y-105340500D01*
X76105519Y-105340500D01*
X76294486Y-105340500D01*
X76481118Y-105310940D01*
X76506496Y-105302694D01*
X76660832Y-105252547D01*
X76829199Y-105166760D01*
X76982073Y-105055690D01*
X77115690Y-104922073D01*
X77226760Y-104769199D01*
X77312547Y-104600832D01*
X77352069Y-104479195D01*
X77391507Y-104421521D01*
X77455866Y-104394323D01*
X77524712Y-104406238D01*
X77576188Y-104453482D01*
X77587931Y-104479196D01*
X77627454Y-104600836D01*
X77660449Y-104665591D01*
X77713240Y-104769199D01*
X77824310Y-104922073D01*
X77957927Y-105055690D01*
X78110801Y-105166760D01*
X78190347Y-105207290D01*
X78279163Y-105252545D01*
X78279165Y-105252545D01*
X78279168Y-105252547D01*
X78375497Y-105283846D01*
X78458881Y-105310940D01*
X78645514Y-105340500D01*
X78645519Y-105340500D01*
X78834486Y-105340500D01*
X78924963Y-105326169D01*
X79021118Y-105310940D01*
X79021123Y-105310938D01*
X79021125Y-105310938D01*
X79049731Y-105301642D01*
X79139592Y-105272444D01*
X79209431Y-105270448D01*
X79265591Y-105302694D01*
X80793181Y-106830284D01*
X80826666Y-106891607D01*
X80829500Y-106917965D01*
X80829500Y-110566200D01*
X80809815Y-110633239D01*
X80761795Y-110676684D01*
X80650805Y-110733236D01*
X80572661Y-110790012D01*
X80497927Y-110844310D01*
X80497925Y-110844312D01*
X80497924Y-110844312D01*
X80364312Y-110977924D01*
X80364312Y-110977925D01*
X80364310Y-110977927D01*
X80316610Y-111043579D01*
X80253240Y-111130800D01*
X80196686Y-111241795D01*
X80148712Y-111292591D01*
X80086201Y-111309500D01*
X76648691Y-111309500D01*
X76579944Y-111327920D01*
X76534112Y-111340201D01*
X76534107Y-111340204D01*
X76490695Y-111365267D01*
X76490696Y-111365268D01*
X76431389Y-111399508D01*
X76431383Y-111399513D01*
X75072180Y-112758716D01*
X75010857Y-112792201D01*
X74941165Y-112787217D01*
X74885232Y-112745345D01*
X74860815Y-112679881D01*
X74860499Y-112671062D01*
X74860499Y-110815136D01*
X74860497Y-110815117D01*
X74857586Y-110790012D01*
X74857585Y-110790010D01*
X74857585Y-110790009D01*
X74812206Y-110687235D01*
X74732765Y-110607794D01*
X74732763Y-110607793D01*
X74629992Y-110562415D01*
X74604865Y-110559500D01*
X72715143Y-110559500D01*
X72715117Y-110559502D01*
X72690012Y-110562413D01*
X72690008Y-110562415D01*
X72587235Y-110607793D01*
X72507794Y-110687234D01*
X72462415Y-110790006D01*
X72462415Y-110790008D01*
X72459500Y-110815131D01*
X72459500Y-110815137D01*
X72459501Y-112708444D01*
X72457942Y-112708444D01*
X72443570Y-112770412D01*
X72393492Y-112819136D01*
X72335562Y-112833500D01*
X69536691Y-112833500D01*
X69446325Y-112857713D01*
X69446324Y-112857712D01*
X69422116Y-112864199D01*
X69422113Y-112864200D01*
X69319386Y-112923511D01*
X69319383Y-112923513D01*
X64025591Y-118217304D01*
X63964268Y-118250789D01*
X63899592Y-118247554D01*
X63781120Y-118209060D01*
X63594486Y-118179500D01*
X63594481Y-118179500D01*
X63405519Y-118179500D01*
X63405514Y-118179500D01*
X63218881Y-118209059D01*
X63039163Y-118267454D01*
X62870800Y-118353240D01*
X62783579Y-118416610D01*
X62717927Y-118464310D01*
X62717925Y-118464312D01*
X62717924Y-118464312D01*
X62584312Y-118597924D01*
X62584312Y-118597925D01*
X62584310Y-118597927D01*
X62536610Y-118663579D01*
X62473240Y-118750800D01*
X62387454Y-118919163D01*
X62347931Y-119040803D01*
X62308493Y-119098478D01*
X62244134Y-119125676D01*
X62175288Y-119113761D01*
X62123812Y-119066516D01*
X62112069Y-119040803D01*
X62072545Y-118919163D01*
X61986759Y-118750800D01*
X61875690Y-118597927D01*
X61742073Y-118464310D01*
X61589199Y-118353240D01*
X61420836Y-118267454D01*
X61241118Y-118209059D01*
X61054486Y-118179500D01*
X61054481Y-118179500D01*
X60865519Y-118179500D01*
X60865514Y-118179500D01*
X60678880Y-118209060D01*
X60678877Y-118209060D01*
X60560406Y-118247554D01*
X60490564Y-118249549D01*
X60434407Y-118217304D01*
X58906819Y-116689716D01*
X58873334Y-116628393D01*
X58870500Y-116602035D01*
X58870500Y-112953799D01*
X58890185Y-112886760D01*
X58938205Y-112843314D01*
X58957466Y-112833500D01*
X59049199Y-112786760D01*
X59202073Y-112675690D01*
X59335690Y-112542073D01*
X59446760Y-112389199D01*
X59532547Y-112220832D01*
X59590940Y-112041118D01*
X59620500Y-111854486D01*
X59620500Y-111665513D01*
X59590940Y-111478881D01*
X59545880Y-111340204D01*
X59532547Y-111299168D01*
X59532545Y-111299165D01*
X59532545Y-111299163D01*
X59446759Y-111130800D01*
X59335690Y-110977927D01*
X59202073Y-110844310D01*
X59049199Y-110733240D01*
X59049191Y-110733236D01*
X58880836Y-110647454D01*
X58701118Y-110589059D01*
X58514486Y-110559500D01*
X58514481Y-110559500D01*
X58325519Y-110559500D01*
X58325514Y-110559500D01*
X58138881Y-110589059D01*
X57959163Y-110647454D01*
X57790800Y-110733240D01*
X57712661Y-110790012D01*
X57637927Y-110844310D01*
X57637925Y-110844312D01*
X57637924Y-110844312D01*
X57504312Y-110977924D01*
X57504312Y-110977925D01*
X57504310Y-110977927D01*
X57456610Y-111043579D01*
X57393240Y-111130800D01*
X57307454Y-111299163D01*
X57249059Y-111478881D01*
X57219500Y-111665513D01*
X57219500Y-111854486D01*
X57249059Y-112041118D01*
X57307454Y-112220836D01*
X57393240Y-112389199D01*
X57504310Y-112542073D01*
X57637927Y-112675690D01*
X57790801Y-112786760D01*
X57882534Y-112833500D01*
X57901795Y-112843314D01*
X57952591Y-112891288D01*
X57969500Y-112953799D01*
X57969500Y-116899308D01*
X57993712Y-116989672D01*
X58000200Y-117013885D01*
X58000200Y-117013886D01*
X58000201Y-117013887D01*
X58059511Y-117116614D01*
X58059513Y-117116616D01*
X59003731Y-118060834D01*
X59037216Y-118122157D01*
X59032232Y-118191849D01*
X58990360Y-118247782D01*
X58924896Y-118272199D01*
X58877733Y-118266446D01*
X58812717Y-118245321D01*
X58701118Y-118209059D01*
X58514486Y-118179500D01*
X58514481Y-118179500D01*
X58325519Y-118179500D01*
X58325514Y-118179500D01*
X58138881Y-118209059D01*
X57959163Y-118267454D01*
X57790800Y-118353240D01*
X57703579Y-118416610D01*
X57637927Y-118464310D01*
X57637925Y-118464312D01*
X57637924Y-118464312D01*
X57504312Y-118597924D01*
X57504312Y-118597925D01*
X57504310Y-118597927D01*
X57456610Y-118663579D01*
X57393240Y-118750800D01*
X57314484Y-118905368D01*
X57266509Y-118956164D01*
X57198688Y-118972959D01*
X57132553Y-118950422D01*
X57089102Y-118895706D01*
X57079999Y-118849073D01*
X57079999Y-118462843D01*
X57079998Y-118462842D01*
X56348019Y-119194822D01*
X56345925Y-119187007D01*
X56280099Y-119072993D01*
X56187007Y-118979901D01*
X56072993Y-118914075D01*
X56065176Y-118911980D01*
X56797156Y-118180000D01*
X54962842Y-118180000D01*
X55694823Y-118911980D01*
X55687007Y-118914075D01*
X55572993Y-118979901D01*
X55479901Y-119072993D01*
X55414075Y-119187007D01*
X55411980Y-119194822D01*
X54680000Y-118462842D01*
X54680000Y-120297156D01*
X55411980Y-119565176D01*
X55414075Y-119572993D01*
X55479901Y-119687007D01*
X55572993Y-119780099D01*
X55687007Y-119845925D01*
X55694823Y-119848019D01*
X54962842Y-120579998D01*
X54962843Y-120579999D01*
X56797156Y-120579999D01*
X56797156Y-120579998D01*
X56065176Y-119848019D01*
X56072993Y-119845925D01*
X56187007Y-119780099D01*
X56280099Y-119687007D01*
X56345925Y-119572993D01*
X56348019Y-119565176D01*
X57079998Y-120297156D01*
X57079999Y-120297155D01*
X57079999Y-119910926D01*
X57099684Y-119843887D01*
X57152488Y-119798132D01*
X57221646Y-119788188D01*
X57285202Y-119817213D01*
X57314483Y-119854630D01*
X57393240Y-120009199D01*
X57504310Y-120162073D01*
X57637927Y-120295690D01*
X57790801Y-120406760D01*
X57870347Y-120447290D01*
X57959163Y-120492545D01*
X57959165Y-120492545D01*
X57959168Y-120492547D01*
X58055497Y-120523846D01*
X58138881Y-120550940D01*
X58325514Y-120580500D01*
X58325519Y-120580500D01*
X58514486Y-120580500D01*
X58701118Y-120550940D01*
X58880832Y-120492547D01*
X59049199Y-120406760D01*
X59202073Y-120295690D01*
X59335690Y-120162073D01*
X59446760Y-120009199D01*
X59532547Y-119840832D01*
X59572069Y-119719195D01*
X59611507Y-119661521D01*
X59675866Y-119634323D01*
X59744712Y-119646238D01*
X59796188Y-119693482D01*
X59807931Y-119719196D01*
X59847454Y-119840836D01*
X59933240Y-120009199D01*
X60044310Y-120162073D01*
X60177927Y-120295690D01*
X60330801Y-120406760D01*
X60410347Y-120447290D01*
X60499163Y-120492545D01*
X60499165Y-120492545D01*
X60499168Y-120492547D01*
X60595497Y-120523846D01*
X60678881Y-120550940D01*
X60865514Y-120580500D01*
X60865519Y-120580500D01*
X61054486Y-120580500D01*
X61241118Y-120550940D01*
X61420832Y-120492547D01*
X61589199Y-120406760D01*
X61742073Y-120295690D01*
X61875690Y-120162073D01*
X61986760Y-120009199D01*
X62072547Y-119840832D01*
X62112069Y-119719195D01*
X62151507Y-119661521D01*
X62215866Y-119634323D01*
X62284712Y-119646238D01*
X62336188Y-119693482D01*
X62347931Y-119719196D01*
X62387454Y-119840836D01*
X62473240Y-120009199D01*
X62584310Y-120162073D01*
X62717927Y-120295690D01*
X62870801Y-120406760D01*
X62950347Y-120447290D01*
X63039163Y-120492545D01*
X63039165Y-120492545D01*
X63039168Y-120492547D01*
X63135497Y-120523846D01*
X63218881Y-120550940D01*
X63405514Y-120580500D01*
X63405519Y-120580500D01*
X63594486Y-120580500D01*
X63781118Y-120550940D01*
X63960832Y-120492547D01*
X64129199Y-120406760D01*
X64282073Y-120295690D01*
X64415690Y-120162073D01*
X64526760Y-120009199D01*
X64612547Y-119840832D01*
X64670940Y-119661118D01*
X64675184Y-119634323D01*
X64700500Y-119474486D01*
X64700500Y-119285513D01*
X64670940Y-119098881D01*
X64632445Y-118980407D01*
X64630450Y-118910565D01*
X64662695Y-118854407D01*
X67621972Y-115895131D01*
X87699500Y-115895131D01*
X87699500Y-117784856D01*
X87699502Y-117784882D01*
X87702413Y-117809987D01*
X87702415Y-117809991D01*
X87747793Y-117912764D01*
X87747794Y-117912765D01*
X87827235Y-117992206D01*
X87930009Y-118037585D01*
X87955135Y-118040500D01*
X89844864Y-118040499D01*
X89844879Y-118040497D01*
X89844882Y-118040497D01*
X89869987Y-118037586D01*
X89869988Y-118037585D01*
X89869991Y-118037585D01*
X89972765Y-117992206D01*
X90052206Y-117912765D01*
X90097585Y-117809991D01*
X90100500Y-117784865D01*
X90100499Y-117370805D01*
X90120183Y-117303769D01*
X90172987Y-117258014D01*
X90242146Y-117248070D01*
X90305701Y-117277095D01*
X90334983Y-117314513D01*
X90413661Y-117468925D01*
X90413664Y-117468930D01*
X90461872Y-117535284D01*
X90971980Y-117025176D01*
X90974075Y-117032993D01*
X91039901Y-117147007D01*
X91132993Y-117240099D01*
X91247007Y-117305925D01*
X91254822Y-117308019D01*
X90744713Y-117818126D01*
X90744714Y-117818127D01*
X90811059Y-117866329D01*
X90979362Y-117952085D01*
X91158997Y-118010451D01*
X91345553Y-118040000D01*
X91534447Y-118040000D01*
X91721002Y-118010451D01*
X91900637Y-117952085D01*
X92068937Y-117866331D01*
X92135284Y-117818126D01*
X92135285Y-117818126D01*
X91625178Y-117308019D01*
X91632993Y-117305925D01*
X91747007Y-117240099D01*
X91840099Y-117147007D01*
X91905925Y-117032993D01*
X91908019Y-117025177D01*
X92418126Y-117535285D01*
X92418126Y-117535284D01*
X92466331Y-117468937D01*
X92552085Y-117300637D01*
X92610451Y-117121002D01*
X92640000Y-116934447D01*
X92640000Y-116745552D01*
X92610451Y-116558997D01*
X92552085Y-116379362D01*
X92466329Y-116211059D01*
X92418127Y-116144714D01*
X92418126Y-116144713D01*
X91908018Y-116654821D01*
X91905925Y-116647007D01*
X91840099Y-116532993D01*
X91747007Y-116439901D01*
X91632993Y-116374075D01*
X91625176Y-116371980D01*
X92135284Y-115861872D01*
X92068933Y-115813666D01*
X91900637Y-115727914D01*
X91721002Y-115669548D01*
X91534447Y-115640000D01*
X91345553Y-115640000D01*
X91158999Y-115669547D01*
X91128956Y-115679309D01*
X91059115Y-115681303D01*
X90999283Y-115645221D01*
X90968456Y-115582520D01*
X90976421Y-115513106D01*
X91002956Y-115473699D01*
X97064113Y-109412543D01*
X97140774Y-109297812D01*
X97140775Y-109297811D01*
X97193580Y-109170328D01*
X97220500Y-109034993D01*
X97220500Y-104194499D01*
X97240185Y-104127460D01*
X97292989Y-104081705D01*
X97344500Y-104070499D01*
X97464856Y-104070499D01*
X97464864Y-104070499D01*
X97464879Y-104070497D01*
X97464882Y-104070497D01*
X97489987Y-104067586D01*
X97489988Y-104067585D01*
X97489991Y-104067585D01*
X97592765Y-104022206D01*
X97672206Y-103942765D01*
X97717585Y-103839991D01*
X97720500Y-103814865D01*
X97720499Y-103400805D01*
X97740183Y-103333769D01*
X97792987Y-103288014D01*
X97862146Y-103278070D01*
X97925701Y-103307095D01*
X97954983Y-103344513D01*
X98033661Y-103498925D01*
X98033664Y-103498930D01*
X98081872Y-103565284D01*
X98591980Y-103055176D01*
X98594075Y-103062993D01*
X98659901Y-103177007D01*
X98752993Y-103270099D01*
X98867007Y-103335925D01*
X98874822Y-103338019D01*
X98364713Y-103848126D01*
X98364714Y-103848127D01*
X98431059Y-103896329D01*
X98599362Y-103982085D01*
X98778997Y-104040451D01*
X98965553Y-104070000D01*
X99154447Y-104070000D01*
X99341002Y-104040451D01*
X99520637Y-103982085D01*
X99688937Y-103896331D01*
X99755284Y-103848126D01*
X99755285Y-103848126D01*
X99245178Y-103338019D01*
X99252993Y-103335925D01*
X99367007Y-103270099D01*
X99460099Y-103177007D01*
X99525925Y-103062993D01*
X99528019Y-103055177D01*
X100038126Y-103565285D01*
X100038126Y-103565284D01*
X100086331Y-103498937D01*
X100172085Y-103330637D01*
X100230451Y-103151002D01*
X100260000Y-102964447D01*
X100260000Y-102775552D01*
X100230451Y-102588997D01*
X100172085Y-102409362D01*
X100086329Y-102241059D01*
X100038127Y-102174714D01*
X100038126Y-102174713D01*
X99528018Y-102684821D01*
X99525925Y-102677007D01*
X99460099Y-102562993D01*
X99367007Y-102469901D01*
X99252993Y-102404075D01*
X99245177Y-102401980D01*
X99755284Y-101891872D01*
X99688933Y-101843666D01*
X99520637Y-101757914D01*
X99341002Y-101699548D01*
X99154447Y-101670000D01*
X98965553Y-101670000D01*
X98778997Y-101699548D01*
X98599362Y-101757914D01*
X98431064Y-101843667D01*
X98431062Y-101843668D01*
X98364714Y-101891871D01*
X98364714Y-101891872D01*
X98874822Y-102401980D01*
X98867007Y-102404075D01*
X98752993Y-102469901D01*
X98659901Y-102562993D01*
X98594075Y-102677007D01*
X98591980Y-102684822D01*
X98081872Y-102174714D01*
X98081871Y-102174714D01*
X98033668Y-102241062D01*
X98033661Y-102241074D01*
X97954983Y-102395487D01*
X97907009Y-102446283D01*
X97839188Y-102463078D01*
X97773053Y-102440540D01*
X97729602Y-102385825D01*
X97720499Y-102339192D01*
X97720499Y-101925143D01*
X97720499Y-101925136D01*
X97719377Y-101915457D01*
X97717586Y-101900012D01*
X97717585Y-101900010D01*
X97717585Y-101900009D01*
X97672206Y-101797235D01*
X97592765Y-101717794D01*
X97551442Y-101699548D01*
X97489992Y-101672415D01*
X97464865Y-101669500D01*
X95575143Y-101669500D01*
X95575117Y-101669502D01*
X95550012Y-101672413D01*
X95550008Y-101672415D01*
X95447235Y-101717793D01*
X95367794Y-101797234D01*
X95322415Y-101900006D01*
X95322415Y-101900008D01*
X95319500Y-101925131D01*
X95319500Y-103814856D01*
X95319502Y-103814882D01*
X95322413Y-103839987D01*
X95322415Y-103839991D01*
X95367793Y-103942764D01*
X95367794Y-103942765D01*
X95447235Y-104022206D01*
X95550009Y-104067585D01*
X95575135Y-104070500D01*
X95695500Y-104070499D01*
X95762539Y-104090183D01*
X95808294Y-104142987D01*
X95819500Y-104194499D01*
X95819500Y-108624480D01*
X95799815Y-108691519D01*
X95783181Y-108712161D01*
X89371888Y-115123453D01*
X89371887Y-115123454D01*
X89345177Y-115163429D01*
X89318587Y-115203225D01*
X89295225Y-115238189D01*
X89295222Y-115238194D01*
X89242421Y-115365667D01*
X89242418Y-115365677D01*
X89214684Y-115505104D01*
X89182299Y-115567015D01*
X89180748Y-115568593D01*
X89146160Y-115603181D01*
X89084837Y-115636666D01*
X89058479Y-115639500D01*
X87955143Y-115639500D01*
X87955117Y-115639502D01*
X87930012Y-115642413D01*
X87930008Y-115642415D01*
X87827235Y-115687793D01*
X87747794Y-115767234D01*
X87702415Y-115870006D01*
X87702415Y-115870008D01*
X87699500Y-115895131D01*
X67621972Y-115895131D01*
X67713230Y-115803873D01*
X69746284Y-113770819D01*
X69807607Y-113737334D01*
X69833965Y-113734500D01*
X75243308Y-113734500D01*
X75243309Y-113734500D01*
X75333673Y-113710286D01*
X75357887Y-113703799D01*
X75460614Y-113644489D01*
X76858284Y-112246819D01*
X76919607Y-112213334D01*
X76945965Y-112210500D01*
X80086201Y-112210500D01*
X80153240Y-112230185D01*
X80196685Y-112278204D01*
X80253240Y-112389199D01*
X80364310Y-112542073D01*
X80497927Y-112675690D01*
X80650801Y-112786760D01*
X80661480Y-112792201D01*
X80819163Y-112872545D01*
X80819165Y-112872545D01*
X80819168Y-112872547D01*
X80915497Y-112903846D01*
X80998881Y-112930940D01*
X81185514Y-112960500D01*
X81185519Y-112960500D01*
X81374486Y-112960500D01*
X81561118Y-112930940D01*
X81583982Y-112923511D01*
X81740832Y-112872547D01*
X81909199Y-112786760D01*
X82062073Y-112675690D01*
X82195690Y-112542073D01*
X82306760Y-112389199D01*
X82392547Y-112220832D01*
X82450940Y-112041118D01*
X82480500Y-111854486D01*
X82480500Y-111665513D01*
X82450940Y-111478881D01*
X82405880Y-111340204D01*
X82392547Y-111299168D01*
X82392545Y-111299165D01*
X82392545Y-111299163D01*
X82306759Y-111130800D01*
X82195690Y-110977927D01*
X82062073Y-110844310D01*
X81970613Y-110777860D01*
X81909194Y-110733236D01*
X81798205Y-110676684D01*
X81747409Y-110628710D01*
X81730500Y-110566200D01*
X81730500Y-106620693D01*
X81730500Y-106620691D01*
X81699799Y-106506114D01*
X81665382Y-106446503D01*
X81640489Y-106403386D01*
X79902694Y-104665591D01*
X79869209Y-104604268D01*
X79872444Y-104539593D01*
X79910940Y-104421118D01*
X79926169Y-104324963D01*
X79940500Y-104234486D01*
X79940500Y-104045513D01*
X79910940Y-103858881D01*
X79869706Y-103731977D01*
X79852547Y-103679168D01*
X79852545Y-103679165D01*
X79852545Y-103679163D01*
X79766894Y-103511064D01*
X79766760Y-103510801D01*
X79655690Y-103357927D01*
X79522073Y-103224310D01*
X79369199Y-103113240D01*
X79200836Y-103027454D01*
X79021118Y-102969059D01*
X78834486Y-102939500D01*
X78834481Y-102939500D01*
X78645519Y-102939500D01*
X78645514Y-102939500D01*
X78458881Y-102969059D01*
X78279163Y-103027454D01*
X78110800Y-103113240D01*
X78032661Y-103170012D01*
X77957927Y-103224310D01*
X77957925Y-103224312D01*
X77957924Y-103224312D01*
X77824312Y-103357924D01*
X77824312Y-103357925D01*
X77824310Y-103357927D01*
X77793155Y-103400808D01*
X77713240Y-103510800D01*
X77627454Y-103679163D01*
X77587931Y-103800803D01*
X77548493Y-103858478D01*
X77484134Y-103885676D01*
X77415288Y-103873761D01*
X77363812Y-103826516D01*
X77352069Y-103800803D01*
X77324249Y-103715182D01*
X77312547Y-103679168D01*
X77312545Y-103679165D01*
X77312545Y-103679163D01*
X77226894Y-103511064D01*
X77226760Y-103510801D01*
X77115690Y-103357927D01*
X76982073Y-103224310D01*
X76829199Y-103113240D01*
X76660836Y-103027454D01*
X76481118Y-102969059D01*
X76294486Y-102939500D01*
X76294481Y-102939500D01*
X76262500Y-102939500D01*
X76195461Y-102919815D01*
X76149706Y-102867011D01*
X76138500Y-102815500D01*
X76138500Y-102293006D01*
X76129589Y-102248212D01*
X76129589Y-102248209D01*
X76114970Y-102174714D01*
X76111580Y-102157672D01*
X76111578Y-102157667D01*
X76058777Y-102030192D01*
X75982112Y-101915454D01*
X74396819Y-100330161D01*
X74363334Y-100268838D01*
X74360500Y-100242480D01*
X74360500Y-99114499D01*
X74380185Y-99047460D01*
X74432989Y-99001705D01*
X74484500Y-98990499D01*
X74604856Y-98990499D01*
X74604864Y-98990499D01*
X74604879Y-98990497D01*
X74604882Y-98990497D01*
X74629987Y-98987586D01*
X74629988Y-98987585D01*
X74629991Y-98987585D01*
X74732765Y-98942206D01*
X74812206Y-98862765D01*
X74857585Y-98759991D01*
X74860500Y-98734865D01*
X74860499Y-97695513D01*
X80079500Y-97695513D01*
X80079500Y-97884486D01*
X80109059Y-98071118D01*
X80167454Y-98250836D01*
X80253240Y-98419199D01*
X80364310Y-98572073D01*
X80497927Y-98705690D01*
X80650801Y-98816760D01*
X80730347Y-98857290D01*
X80819163Y-98902545D01*
X80819165Y-98902545D01*
X80819168Y-98902547D01*
X80915497Y-98933846D01*
X80998881Y-98960940D01*
X81185514Y-98990500D01*
X81185519Y-98990500D01*
X81374486Y-98990500D01*
X81561118Y-98960940D01*
X81740832Y-98902547D01*
X81909199Y-98816760D01*
X82062073Y-98705690D01*
X82195690Y-98572073D01*
X82306760Y-98419199D01*
X82392547Y-98250832D01*
X82450940Y-98071118D01*
X82470364Y-97948480D01*
X82480500Y-97884486D01*
X82480500Y-97695513D01*
X82450940Y-97508881D01*
X82392545Y-97329163D01*
X82306759Y-97160800D01*
X82195690Y-97007927D01*
X82062073Y-96874310D01*
X81909199Y-96763240D01*
X81740836Y-96677454D01*
X81561118Y-96619059D01*
X81374486Y-96589500D01*
X81374481Y-96589500D01*
X81185519Y-96589500D01*
X81185514Y-96589500D01*
X80998881Y-96619059D01*
X80819163Y-96677454D01*
X80650800Y-96763240D01*
X80572661Y-96820012D01*
X80497927Y-96874310D01*
X80497925Y-96874312D01*
X80497924Y-96874312D01*
X80364312Y-97007924D01*
X80364312Y-97007925D01*
X80364310Y-97007927D01*
X80316610Y-97073579D01*
X80253240Y-97160800D01*
X80167454Y-97329163D01*
X80109059Y-97508881D01*
X80079500Y-97695513D01*
X74860499Y-97695513D01*
X74860499Y-97631517D01*
X74880184Y-97564479D01*
X74896813Y-97543842D01*
X77506114Y-94934543D01*
X77582775Y-94819811D01*
X77635580Y-94692329D01*
X77635580Y-94692325D01*
X77635582Y-94692322D01*
X77640934Y-94665411D01*
X77640934Y-94665409D01*
X77662500Y-94556993D01*
X77662500Y-88953704D01*
X77682185Y-88886665D01*
X77734989Y-88840910D01*
X77791625Y-88830289D01*
X77791625Y-88830000D01*
X77793170Y-88829999D01*
X77793650Y-88829910D01*
X77795208Y-88829999D01*
X79657155Y-88829999D01*
X79657156Y-88829998D01*
X78925177Y-88098019D01*
X78932993Y-88095925D01*
X79047007Y-88030099D01*
X79140099Y-87937007D01*
X79205925Y-87822993D01*
X79208019Y-87815177D01*
X79939998Y-88547156D01*
X79939999Y-88547155D01*
X79939999Y-88160926D01*
X79959684Y-88093887D01*
X80012488Y-88048132D01*
X80081646Y-88038188D01*
X80145202Y-88067213D01*
X80174483Y-88104630D01*
X80253240Y-88259199D01*
X80364310Y-88412073D01*
X80497927Y-88545690D01*
X80650801Y-88656760D01*
X80716861Y-88690419D01*
X80819163Y-88742545D01*
X80819165Y-88742545D01*
X80819168Y-88742547D01*
X80915497Y-88773846D01*
X80998881Y-88800940D01*
X81185514Y-88830500D01*
X81185519Y-88830500D01*
X81374486Y-88830500D01*
X81561118Y-88800940D01*
X81563137Y-88800284D01*
X81740832Y-88742547D01*
X81909199Y-88656760D01*
X82062073Y-88545690D01*
X82195690Y-88412073D01*
X82306760Y-88259199D01*
X82392547Y-88090832D01*
X82450940Y-87911118D01*
X82480500Y-87724486D01*
X82480500Y-87535513D01*
X82450940Y-87348881D01*
X82392545Y-87169163D01*
X82306759Y-87000800D01*
X82195690Y-86847927D01*
X82062073Y-86714310D01*
X81970613Y-86647860D01*
X81909194Y-86603236D01*
X81798205Y-86546684D01*
X81747409Y-86498710D01*
X81730500Y-86436200D01*
X81730500Y-84650995D01*
X84643499Y-84650995D01*
X84670418Y-84786322D01*
X84670421Y-84786332D01*
X84723221Y-84913804D01*
X84723228Y-84913817D01*
X84799885Y-85028541D01*
X84799888Y-85028545D01*
X84897454Y-85126111D01*
X84897458Y-85126114D01*
X85012182Y-85202771D01*
X85012195Y-85202778D01*
X85124327Y-85249224D01*
X85139672Y-85255580D01*
X85139676Y-85255580D01*
X85139677Y-85255581D01*
X85275004Y-85282500D01*
X85275007Y-85282500D01*
X85356035Y-85282500D01*
X85423074Y-85302185D01*
X85443716Y-85318819D01*
X88925181Y-88800284D01*
X88958666Y-88861607D01*
X88961500Y-88887965D01*
X88961500Y-88968993D01*
X88961500Y-88968995D01*
X88961499Y-88968995D01*
X88988418Y-89104322D01*
X88988421Y-89104332D01*
X89041221Y-89231804D01*
X89041228Y-89231817D01*
X89117885Y-89346541D01*
X89117888Y-89346545D01*
X89215454Y-89444111D01*
X89215458Y-89444114D01*
X89330182Y-89520771D01*
X89330195Y-89520778D01*
X89416963Y-89556718D01*
X89457672Y-89573580D01*
X89457676Y-89573580D01*
X89457677Y-89573581D01*
X89593004Y-89600500D01*
X89593007Y-89600500D01*
X89730995Y-89600500D01*
X89822041Y-89582389D01*
X89866328Y-89573580D01*
X89993811Y-89520775D01*
X90108542Y-89444114D01*
X90206114Y-89346542D01*
X90282775Y-89231811D01*
X90335580Y-89104328D01*
X90355102Y-89006186D01*
X90362500Y-88968995D01*
X90362500Y-88953704D01*
X90382185Y-88886665D01*
X90434989Y-88840910D01*
X90491625Y-88830289D01*
X90491625Y-88830000D01*
X90493170Y-88829999D01*
X90493650Y-88829910D01*
X90495208Y-88829999D01*
X92357155Y-88829999D01*
X92357156Y-88829998D01*
X91625176Y-88098019D01*
X91632993Y-88095925D01*
X91747007Y-88030099D01*
X91840099Y-87937007D01*
X91905925Y-87822993D01*
X91908019Y-87815177D01*
X92639998Y-88547156D01*
X92639999Y-88547155D01*
X92639999Y-88160926D01*
X92659684Y-88093887D01*
X92712488Y-88048132D01*
X92781646Y-88038188D01*
X92845202Y-88067213D01*
X92874483Y-88104630D01*
X92953240Y-88259199D01*
X93064310Y-88412073D01*
X93197927Y-88545690D01*
X93350801Y-88656760D01*
X93416861Y-88690419D01*
X93519163Y-88742545D01*
X93519165Y-88742545D01*
X93519168Y-88742547D01*
X93615497Y-88773846D01*
X93698881Y-88800940D01*
X93885514Y-88830500D01*
X93885519Y-88830500D01*
X94074486Y-88830500D01*
X94261118Y-88800940D01*
X94263137Y-88800284D01*
X94440832Y-88742547D01*
X94609199Y-88656760D01*
X94762073Y-88545690D01*
X94895690Y-88412073D01*
X95006760Y-88259199D01*
X95092547Y-88090832D01*
X95150940Y-87911118D01*
X95180500Y-87724486D01*
X95180500Y-87535513D01*
X95150940Y-87348881D01*
X95112445Y-87230407D01*
X95110450Y-87160565D01*
X95142695Y-87104407D01*
X95845287Y-86401815D01*
X96626489Y-85620614D01*
X96685799Y-85517887D01*
X96692285Y-85493675D01*
X96692286Y-85493675D01*
X96692286Y-85493671D01*
X96716500Y-85403309D01*
X96716500Y-82604439D01*
X96736185Y-82537400D01*
X96788989Y-82491645D01*
X96841554Y-82481791D01*
X96841554Y-82480500D01*
X96845134Y-82480499D01*
X96845135Y-82480500D01*
X97948480Y-82480499D01*
X98015519Y-82500184D01*
X98036161Y-82516818D01*
X98070747Y-82551404D01*
X98104232Y-82612727D01*
X98104683Y-82614893D01*
X98132418Y-82754322D01*
X98132421Y-82754332D01*
X98185222Y-82881807D01*
X98261887Y-82996545D01*
X98613454Y-83348112D01*
X98728190Y-83424776D01*
X98826790Y-83465617D01*
X98855671Y-83477580D01*
X98855672Y-83477580D01*
X98855677Y-83477582D01*
X98882545Y-83482925D01*
X98882551Y-83482926D01*
X98882591Y-83482934D01*
X98991007Y-83504500D01*
X98991009Y-83504500D01*
X98995106Y-83505315D01*
X99057016Y-83537701D01*
X99058594Y-83539251D01*
X103693453Y-88174111D01*
X103693454Y-88174112D01*
X103808192Y-88250777D01*
X103935667Y-88303578D01*
X103935672Y-88303580D01*
X103935676Y-88303580D01*
X103935677Y-88303581D01*
X104071003Y-88330500D01*
X104071006Y-88330500D01*
X104071007Y-88330500D01*
X106911862Y-88330500D01*
X106978901Y-88350185D01*
X107012179Y-88381613D01*
X107034310Y-88412073D01*
X107167927Y-88545690D01*
X107320801Y-88656760D01*
X107489168Y-88742547D01*
X107610803Y-88782069D01*
X107668478Y-88821505D01*
X107695676Y-88885864D01*
X107683761Y-88954710D01*
X107636517Y-89006186D01*
X107610803Y-89017930D01*
X107536981Y-89041917D01*
X107467140Y-89043913D01*
X107436661Y-89031372D01*
X107361887Y-88988200D01*
X107331703Y-88980113D01*
X107331702Y-88980112D01*
X107331702Y-88980113D01*
X107284245Y-88967397D01*
X107247309Y-88957500D01*
X102556691Y-88957500D01*
X102472298Y-88980113D01*
X102472297Y-88980113D01*
X102442115Y-88988199D01*
X102442110Y-88988201D01*
X102339392Y-89047505D01*
X102339384Y-89047511D01*
X101845598Y-89541297D01*
X101784275Y-89574782D01*
X101714583Y-89569798D01*
X101689026Y-89556718D01*
X101677817Y-89549228D01*
X101677804Y-89549221D01*
X101550332Y-89496421D01*
X101550322Y-89496418D01*
X101414995Y-89469500D01*
X101414993Y-89469500D01*
X101277007Y-89469500D01*
X101277005Y-89469500D01*
X101141677Y-89496418D01*
X101141667Y-89496421D01*
X101014195Y-89549221D01*
X101014182Y-89549228D01*
X100899458Y-89625885D01*
X100899454Y-89625888D01*
X100801888Y-89723454D01*
X100801885Y-89723458D01*
X100725228Y-89838182D01*
X100725221Y-89838195D01*
X100672421Y-89965667D01*
X100672418Y-89965677D01*
X100645500Y-90101004D01*
X100645500Y-90101007D01*
X100645500Y-90238993D01*
X100645500Y-90238995D01*
X100645499Y-90238995D01*
X100672418Y-90374322D01*
X100672421Y-90374332D01*
X100725221Y-90501804D01*
X100725228Y-90501817D01*
X100801885Y-90616541D01*
X100801888Y-90616545D01*
X100899454Y-90714111D01*
X100899458Y-90714114D01*
X101014182Y-90790771D01*
X101014195Y-90790778D01*
X101141667Y-90843578D01*
X101141672Y-90843580D01*
X101141676Y-90843580D01*
X101141677Y-90843581D01*
X101277004Y-90870500D01*
X101277007Y-90870500D01*
X101414995Y-90870500D01*
X101525689Y-90848481D01*
X101550328Y-90843580D01*
X101598768Y-90823515D01*
X101683440Y-90788444D01*
X101683994Y-90789782D01*
X101745306Y-90777011D01*
X101810552Y-90802005D01*
X101851928Y-90858306D01*
X101856297Y-90928039D01*
X101823054Y-90988289D01*
X101817885Y-90993458D01*
X101741228Y-91108182D01*
X101741221Y-91108195D01*
X101688421Y-91235667D01*
X101688418Y-91235677D01*
X101661500Y-91371004D01*
X101661500Y-91371007D01*
X101661500Y-91508993D01*
X101661500Y-91508995D01*
X101661499Y-91508995D01*
X101688418Y-91644322D01*
X101688421Y-91644332D01*
X101741221Y-91771804D01*
X101741228Y-91771817D01*
X101817885Y-91886541D01*
X101817888Y-91886545D01*
X101915454Y-91984111D01*
X101915458Y-91984114D01*
X102030182Y-92060771D01*
X102030195Y-92060778D01*
X102157667Y-92113578D01*
X102157672Y-92113580D01*
X102157676Y-92113580D01*
X102157677Y-92113581D01*
X102293004Y-92140500D01*
X102293007Y-92140500D01*
X102374035Y-92140500D01*
X102441074Y-92160185D01*
X102461716Y-92176819D01*
X103403181Y-93118284D01*
X103436666Y-93179607D01*
X103439500Y-93205965D01*
X103439500Y-93286993D01*
X103439500Y-93286995D01*
X103439499Y-93286995D01*
X103466418Y-93422322D01*
X103466421Y-93422332D01*
X103519221Y-93549804D01*
X103519228Y-93549817D01*
X103595885Y-93664541D01*
X103595888Y-93664545D01*
X103693454Y-93762111D01*
X103693458Y-93762114D01*
X103808182Y-93838771D01*
X103808195Y-93838778D01*
X103935667Y-93891578D01*
X103935672Y-93891580D01*
X103935676Y-93891580D01*
X103935677Y-93891581D01*
X104071004Y-93918500D01*
X104071007Y-93918500D01*
X104208995Y-93918500D01*
X104300041Y-93900389D01*
X104344328Y-93891580D01*
X104471811Y-93838775D01*
X104586542Y-93762114D01*
X104684114Y-93664542D01*
X104760775Y-93549811D01*
X104813580Y-93422328D01*
X104840500Y-93286993D01*
X104840500Y-93149007D01*
X104840500Y-93149004D01*
X104828027Y-93086302D01*
X104834254Y-93016711D01*
X104877116Y-92961533D01*
X104943006Y-92938288D01*
X105011003Y-92954355D01*
X105037325Y-92974429D01*
X106787304Y-94724408D01*
X106820789Y-94785731D01*
X106817554Y-94850407D01*
X106779060Y-94968877D01*
X106779060Y-94968880D01*
X106749500Y-95155513D01*
X106749500Y-95344486D01*
X106779059Y-95531118D01*
X106837454Y-95710836D01*
X106923240Y-95879199D01*
X107034310Y-96032073D01*
X107167927Y-96165690D01*
X107320801Y-96276760D01*
X107400347Y-96317290D01*
X107489163Y-96362545D01*
X107489165Y-96362545D01*
X107489168Y-96362547D01*
X107578734Y-96391649D01*
X107610803Y-96402069D01*
X107668478Y-96441507D01*
X107695676Y-96505866D01*
X107683761Y-96574712D01*
X107636516Y-96626188D01*
X107610803Y-96637931D01*
X107489163Y-96677454D01*
X107320800Y-96763240D01*
X107242661Y-96820012D01*
X107167927Y-96874310D01*
X107167925Y-96874312D01*
X107167924Y-96874312D01*
X107034312Y-97007924D01*
X107034312Y-97007925D01*
X107034310Y-97007927D01*
X106986610Y-97073579D01*
X106923240Y-97160800D01*
X106837454Y-97329163D01*
X106779059Y-97508881D01*
X106749500Y-97695513D01*
X106749500Y-97884486D01*
X106779059Y-98071118D01*
X106837454Y-98250836D01*
X106923240Y-98419199D01*
X107034310Y-98572073D01*
X107167927Y-98705690D01*
X107320801Y-98816760D01*
X107400347Y-98857290D01*
X107489163Y-98902545D01*
X107489165Y-98902545D01*
X107489168Y-98902547D01*
X107585497Y-98933846D01*
X107668881Y-98960940D01*
X107855514Y-98990500D01*
X107855519Y-98990500D01*
X108044486Y-98990500D01*
X108231118Y-98960940D01*
X108410832Y-98902547D01*
X108579199Y-98816760D01*
X108732073Y-98705690D01*
X108865690Y-98572073D01*
X108976760Y-98419199D01*
X109062547Y-98250832D01*
X109120940Y-98071118D01*
X109140364Y-97948480D01*
X109150500Y-97884486D01*
X109150500Y-97695513D01*
X109120940Y-97508881D01*
X109062545Y-97329163D01*
X108976759Y-97160800D01*
X108865690Y-97007927D01*
X108732073Y-96874310D01*
X108579199Y-96763240D01*
X108410836Y-96677454D01*
X108336472Y-96653291D01*
X108289195Y-96637930D01*
X108231521Y-96598493D01*
X108204323Y-96534134D01*
X108216238Y-96465288D01*
X108263482Y-96413812D01*
X108289194Y-96402069D01*
X108410832Y-96362547D01*
X108579199Y-96276760D01*
X108732073Y-96165690D01*
X108865690Y-96032073D01*
X108976760Y-95879199D01*
X109062547Y-95710832D01*
X109120940Y-95531118D01*
X109150500Y-95344486D01*
X109150500Y-95155513D01*
X109120940Y-94968881D01*
X109082445Y-94850407D01*
X109062547Y-94789168D01*
X109062545Y-94789165D01*
X109062545Y-94789163D01*
X108976759Y-94620800D01*
X108865690Y-94467927D01*
X108732073Y-94334310D01*
X108579199Y-94223240D01*
X108410836Y-94137454D01*
X108336472Y-94113291D01*
X108289195Y-94097930D01*
X108231521Y-94058493D01*
X108204323Y-93994134D01*
X108216238Y-93925288D01*
X108263482Y-93873812D01*
X108289194Y-93862069D01*
X108410832Y-93822547D01*
X108579199Y-93736760D01*
X108732073Y-93625690D01*
X108865690Y-93492073D01*
X108976760Y-93339199D01*
X109062547Y-93170832D01*
X109120940Y-92991118D01*
X109126763Y-92954355D01*
X109150500Y-92804486D01*
X109150500Y-92615513D01*
X109120940Y-92428881D01*
X109062545Y-92249163D01*
X108993462Y-92113581D01*
X108976760Y-92080801D01*
X108865690Y-91927927D01*
X108732073Y-91794310D01*
X108579199Y-91683240D01*
X108502838Y-91644332D01*
X108410836Y-91597454D01*
X108336472Y-91573291D01*
X108289195Y-91557930D01*
X108231521Y-91518493D01*
X108204323Y-91454134D01*
X108216238Y-91385288D01*
X108263482Y-91333812D01*
X108289194Y-91322069D01*
X108410832Y-91282547D01*
X108579199Y-91196760D01*
X108732073Y-91085690D01*
X108865690Y-90952073D01*
X108976760Y-90799199D01*
X109062547Y-90630832D01*
X109120940Y-90451118D01*
X109123329Y-90436034D01*
X109150500Y-90264486D01*
X109150500Y-90075513D01*
X109120940Y-89888881D01*
X109062545Y-89709163D01*
X108993462Y-89573581D01*
X108976760Y-89540801D01*
X108865690Y-89387927D01*
X108732073Y-89254310D01*
X108579199Y-89143240D01*
X108555934Y-89131386D01*
X108410836Y-89057454D01*
X108330563Y-89031372D01*
X108289195Y-89017930D01*
X108231521Y-88978493D01*
X108204323Y-88914134D01*
X108216238Y-88845288D01*
X108263482Y-88793812D01*
X108289194Y-88782069D01*
X108410832Y-88742547D01*
X108579199Y-88656760D01*
X108732073Y-88545690D01*
X108865690Y-88412073D01*
X108976760Y-88259199D01*
X109062547Y-88090832D01*
X109120940Y-87911118D01*
X109150500Y-87724486D01*
X109150500Y-87535513D01*
X109120940Y-87348881D01*
X109062545Y-87169163D01*
X108976759Y-87000800D01*
X108865690Y-86847927D01*
X108732073Y-86714310D01*
X108579199Y-86603240D01*
X108424630Y-86524483D01*
X108373835Y-86476510D01*
X108357040Y-86408689D01*
X108379577Y-86342554D01*
X108434292Y-86299102D01*
X108480926Y-86289999D01*
X108867156Y-86289999D01*
X108867156Y-86289998D01*
X108135176Y-85558019D01*
X108142993Y-85555925D01*
X108257007Y-85490099D01*
X108350099Y-85397007D01*
X108415925Y-85282993D01*
X108418019Y-85275176D01*
X109149998Y-86007156D01*
X109149999Y-86007155D01*
X109149999Y-84172843D01*
X109149998Y-84172842D01*
X108418019Y-84904822D01*
X108415925Y-84897007D01*
X108350099Y-84782993D01*
X108257007Y-84689901D01*
X108142993Y-84624075D01*
X108135176Y-84621980D01*
X108867156Y-83890000D01*
X107032842Y-83890000D01*
X107764823Y-84621980D01*
X107757007Y-84624075D01*
X107642993Y-84689901D01*
X107549901Y-84782993D01*
X107484075Y-84897007D01*
X107481980Y-84904822D01*
X106750000Y-84172842D01*
X106750000Y-86007156D01*
X107481980Y-85275176D01*
X107484075Y-85282993D01*
X107549901Y-85397007D01*
X107642993Y-85490099D01*
X107757007Y-85555925D01*
X107764823Y-85558019D01*
X107032842Y-86289998D01*
X107032843Y-86289999D01*
X107419074Y-86289999D01*
X107486113Y-86309684D01*
X107531868Y-86362488D01*
X107541812Y-86431646D01*
X107512787Y-86495202D01*
X107475369Y-86524483D01*
X107454266Y-86535236D01*
X107320800Y-86603240D01*
X107233579Y-86666610D01*
X107167927Y-86714310D01*
X107167925Y-86714312D01*
X107167924Y-86714312D01*
X107034309Y-86847927D01*
X107012179Y-86878387D01*
X106956848Y-86921052D01*
X106911862Y-86929500D01*
X104481519Y-86929500D01*
X104414480Y-86909815D01*
X104393838Y-86893181D01*
X100192338Y-82691681D01*
X100158853Y-82630358D01*
X100163837Y-82560666D01*
X100205709Y-82504733D01*
X100271173Y-82480316D01*
X100280019Y-82480000D01*
X100424447Y-82480000D01*
X100611002Y-82450451D01*
X100790637Y-82392085D01*
X100958937Y-82306331D01*
X101025284Y-82258126D01*
X101025285Y-82258126D01*
X100515177Y-81748019D01*
X100522993Y-81745925D01*
X100637007Y-81680099D01*
X100730099Y-81587007D01*
X100795925Y-81472993D01*
X100798019Y-81465178D01*
X101308126Y-81975285D01*
X101308126Y-81975284D01*
X101356331Y-81908937D01*
X101442085Y-81740637D01*
X101500451Y-81561002D01*
X101530000Y-81374447D01*
X101530000Y-81185552D01*
X101500451Y-80998997D01*
X101442085Y-80819362D01*
X101356329Y-80651059D01*
X101308127Y-80584714D01*
X101308126Y-80584713D01*
X100798018Y-81094821D01*
X100795925Y-81087007D01*
X100730099Y-80972993D01*
X100637007Y-80879901D01*
X100522993Y-80814075D01*
X100515177Y-80811980D01*
X101025284Y-80301872D01*
X100958933Y-80253666D01*
X100790637Y-80167914D01*
X100611002Y-80109548D01*
X100424447Y-80080000D01*
X100235553Y-80080000D01*
X100048997Y-80109548D01*
X99869362Y-80167914D01*
X99701064Y-80253667D01*
X99701062Y-80253668D01*
X99634714Y-80301871D01*
X99634714Y-80301872D01*
X100144822Y-80811980D01*
X100137007Y-80814075D01*
X100022993Y-80879901D01*
X99929901Y-80972993D01*
X99864075Y-81087007D01*
X99861980Y-81094822D01*
X99351872Y-80584714D01*
X99351871Y-80584714D01*
X99303668Y-80651062D01*
X99303667Y-80651064D01*
X99224984Y-80805488D01*
X99177009Y-80856284D01*
X99109188Y-80873079D01*
X99043053Y-80850541D01*
X98999602Y-80795826D01*
X98990499Y-80749193D01*
X98990499Y-80335143D01*
X98990499Y-80335136D01*
X98990497Y-80335117D01*
X98987586Y-80310012D01*
X98987585Y-80310010D01*
X98987585Y-80310009D01*
X98942206Y-80207235D01*
X98862765Y-80127794D01*
X98821442Y-80109548D01*
X98759992Y-80082415D01*
X98734868Y-80079500D01*
X96878964Y-80079500D01*
X96811925Y-80059815D01*
X96766170Y-80007011D01*
X96756226Y-79937853D01*
X96785251Y-79874297D01*
X96791256Y-79867846D01*
X96880489Y-79778614D01*
X96939799Y-79675887D01*
X96964925Y-79582114D01*
X96970500Y-79561309D01*
X96970500Y-77393799D01*
X96990185Y-77326760D01*
X97038205Y-77283314D01*
X97043459Y-77280637D01*
X97149199Y-77226760D01*
X97302073Y-77115690D01*
X97435690Y-76982073D01*
X97546760Y-76829199D01*
X97632547Y-76660832D01*
X97690940Y-76481118D01*
X97707559Y-76376189D01*
X97720500Y-76294486D01*
X97720500Y-76105513D01*
X97690940Y-75918881D01*
X97632545Y-75739163D01*
X97580288Y-75636604D01*
X97546760Y-75570801D01*
X97435690Y-75417927D01*
X97302073Y-75284310D01*
X97149199Y-75173240D01*
X96980836Y-75087454D01*
X96801118Y-75029059D01*
X96614486Y-74999500D01*
X96614481Y-74999500D01*
X96425519Y-74999500D01*
X96425514Y-74999500D01*
X96238881Y-75029059D01*
X96059163Y-75087454D01*
X95890800Y-75173240D01*
X95812661Y-75230012D01*
X95737927Y-75284310D01*
X95737925Y-75284312D01*
X95737924Y-75284312D01*
X95604312Y-75417924D01*
X95604312Y-75417925D01*
X95604310Y-75417927D01*
X95589609Y-75438161D01*
X95493240Y-75570800D01*
X95407454Y-75739163D01*
X95349059Y-75918881D01*
X95319500Y-76105513D01*
X95319500Y-76294486D01*
X95349059Y-76481118D01*
X95407454Y-76660836D01*
X95467012Y-76777724D01*
X95493240Y-76829199D01*
X95604310Y-76982073D01*
X95737927Y-77115690D01*
X95890801Y-77226760D01*
X95996541Y-77280637D01*
X96001795Y-77283314D01*
X96052591Y-77331288D01*
X96069500Y-77393799D01*
X96069500Y-79264035D01*
X96049815Y-79331074D01*
X96033181Y-79351716D01*
X95905513Y-79479383D01*
X95905509Y-79479389D01*
X95846201Y-79582112D01*
X95846200Y-79582117D01*
X95815500Y-79696691D01*
X95815500Y-85106034D01*
X95795815Y-85173073D01*
X95779181Y-85193715D01*
X94505591Y-86467304D01*
X94444268Y-86500789D01*
X94379592Y-86497554D01*
X94261120Y-86459060D01*
X94074486Y-86429500D01*
X94074481Y-86429500D01*
X93885519Y-86429500D01*
X93885514Y-86429500D01*
X93698881Y-86459059D01*
X93519163Y-86517454D01*
X93350800Y-86603240D01*
X93263579Y-86666610D01*
X93197927Y-86714310D01*
X93197925Y-86714312D01*
X93197924Y-86714312D01*
X93064312Y-86847924D01*
X93064312Y-86847925D01*
X93064310Y-86847927D01*
X93031431Y-86893181D01*
X92953240Y-87000800D01*
X92874484Y-87155368D01*
X92826509Y-87206164D01*
X92758688Y-87222959D01*
X92692553Y-87200422D01*
X92649102Y-87145706D01*
X92639999Y-87099073D01*
X92639999Y-86712843D01*
X92639998Y-86712842D01*
X91908019Y-87444822D01*
X91905925Y-87437007D01*
X91840099Y-87322993D01*
X91747007Y-87229901D01*
X91632993Y-87164075D01*
X91625176Y-87161980D01*
X92357156Y-86430000D01*
X90522842Y-86430000D01*
X91254823Y-87161980D01*
X91247007Y-87164075D01*
X91132993Y-87229901D01*
X91039901Y-87322993D01*
X90974075Y-87437007D01*
X90971980Y-87444823D01*
X90240000Y-86712842D01*
X90240000Y-88211735D01*
X90220315Y-88278774D01*
X90167511Y-88324529D01*
X90098353Y-88334473D01*
X90047109Y-88314837D01*
X89993817Y-88279228D01*
X89993804Y-88279221D01*
X89866332Y-88226421D01*
X89866322Y-88226418D01*
X89730995Y-88199500D01*
X89730993Y-88199500D01*
X89649965Y-88199500D01*
X89582926Y-88179815D01*
X89562284Y-88163181D01*
X86080819Y-84681716D01*
X86047334Y-84620393D01*
X86044500Y-84594035D01*
X86044500Y-84513004D01*
X86017581Y-84377677D01*
X86017580Y-84377676D01*
X86017580Y-84377672D01*
X86017578Y-84377667D01*
X85964778Y-84250195D01*
X85964771Y-84250182D01*
X85888114Y-84135458D01*
X85888111Y-84135454D01*
X85790545Y-84037888D01*
X85790541Y-84037885D01*
X85675817Y-83961228D01*
X85675804Y-83961221D01*
X85548332Y-83908421D01*
X85548322Y-83908418D01*
X85412995Y-83881500D01*
X85412993Y-83881500D01*
X85275007Y-83881500D01*
X85275005Y-83881500D01*
X85139677Y-83908418D01*
X85139667Y-83908421D01*
X85012195Y-83961221D01*
X85012182Y-83961228D01*
X84897458Y-84037885D01*
X84897454Y-84037888D01*
X84799888Y-84135454D01*
X84799885Y-84135458D01*
X84723228Y-84250182D01*
X84723221Y-84250195D01*
X84670421Y-84377667D01*
X84670418Y-84377677D01*
X84643500Y-84513004D01*
X84643500Y-84513007D01*
X84643500Y-84650993D01*
X84643500Y-84650995D01*
X84643499Y-84650995D01*
X81730500Y-84650995D01*
X81730500Y-83903518D01*
X81750185Y-83836479D01*
X81766814Y-83815841D01*
X81824114Y-83758542D01*
X81900775Y-83643811D01*
X81953580Y-83516328D01*
X81979395Y-83386549D01*
X81980500Y-83380995D01*
X81980500Y-83243004D01*
X81953581Y-83107677D01*
X81953580Y-83107676D01*
X81953580Y-83107672D01*
X81907549Y-82996543D01*
X81900778Y-82980195D01*
X81900771Y-82980182D01*
X81824114Y-82865458D01*
X81824111Y-82865454D01*
X81726545Y-82767888D01*
X81726541Y-82767885D01*
X81611817Y-82691228D01*
X81611804Y-82691221D01*
X81484332Y-82638421D01*
X81484320Y-82638418D01*
X81446540Y-82630903D01*
X81384629Y-82598518D01*
X81350055Y-82537803D01*
X81353794Y-82468033D01*
X81383048Y-82421607D01*
X87487821Y-76316835D01*
X87549142Y-76283352D01*
X87618834Y-76288336D01*
X87674767Y-76330208D01*
X87699184Y-76395672D01*
X87699500Y-76404518D01*
X87699500Y-77144856D01*
X87699502Y-77144882D01*
X87702413Y-77169987D01*
X87702415Y-77169991D01*
X87747793Y-77272764D01*
X87747794Y-77272765D01*
X87827235Y-77352206D01*
X87930009Y-77397585D01*
X87955135Y-77400500D01*
X89844864Y-77400499D01*
X89844879Y-77400497D01*
X89844882Y-77400497D01*
X89869987Y-77397586D01*
X89869988Y-77397585D01*
X89869991Y-77397585D01*
X89972765Y-77352206D01*
X90052206Y-77272765D01*
X90097585Y-77169991D01*
X90100500Y-77144865D01*
X90100499Y-75255136D01*
X90100497Y-75255117D01*
X90097586Y-75230012D01*
X90097585Y-75230010D01*
X90097585Y-75230009D01*
X90052206Y-75127235D01*
X89972765Y-75047794D01*
X89972763Y-75047793D01*
X89869992Y-75002415D01*
X89844865Y-74999500D01*
X87955138Y-74999500D01*
X87953649Y-74999587D01*
X87953278Y-74999500D01*
X87951556Y-74999501D01*
X87951556Y-74999101D01*
X87885587Y-74983800D01*
X87836863Y-74933722D01*
X87822500Y-74875793D01*
X87822500Y-74763518D01*
X87842185Y-74696479D01*
X87858819Y-74675837D01*
X88174107Y-74360549D01*
X88174113Y-74360543D01*
X88179149Y-74353007D01*
X88250775Y-74245811D01*
X88303580Y-74118328D01*
X88330500Y-73982993D01*
X88330500Y-71174499D01*
X88350185Y-71107460D01*
X88402989Y-71061705D01*
X88454500Y-71050499D01*
X88574856Y-71050499D01*
X88574864Y-71050499D01*
X88574879Y-71050497D01*
X88574882Y-71050497D01*
X88599987Y-71047586D01*
X88599988Y-71047585D01*
X88599991Y-71047585D01*
X88702765Y-71002206D01*
X88782206Y-70922765D01*
X88827585Y-70819991D01*
X88830500Y-70794865D01*
X88830499Y-69755513D01*
X94049500Y-69755513D01*
X94049500Y-69944486D01*
X94079059Y-70131118D01*
X94137454Y-70310836D01*
X94223240Y-70479199D01*
X94334310Y-70632073D01*
X94467927Y-70765690D01*
X94620801Y-70876760D01*
X94686345Y-70910156D01*
X94789163Y-70962545D01*
X94789165Y-70962545D01*
X94789168Y-70962547D01*
X94885497Y-70993846D01*
X94968881Y-71020940D01*
X95155514Y-71050500D01*
X95155519Y-71050500D01*
X95344486Y-71050500D01*
X95531118Y-71020940D01*
X95710832Y-70962547D01*
X95879199Y-70876760D01*
X96032073Y-70765690D01*
X96165690Y-70632073D01*
X96276760Y-70479199D01*
X96362547Y-70310832D01*
X96420940Y-70131118D01*
X96450500Y-69944486D01*
X96450500Y-69755513D01*
X96420940Y-69568881D01*
X96362545Y-69389163D01*
X96276759Y-69220800D01*
X96165690Y-69067927D01*
X96032073Y-68934310D01*
X95879199Y-68823240D01*
X95802838Y-68784332D01*
X95710836Y-68737454D01*
X95531118Y-68679059D01*
X95344486Y-68649500D01*
X95344481Y-68649500D01*
X95155519Y-68649500D01*
X95155514Y-68649500D01*
X94968881Y-68679059D01*
X94789163Y-68737454D01*
X94620800Y-68823240D01*
X94542661Y-68880012D01*
X94467927Y-68934310D01*
X94467925Y-68934312D01*
X94467924Y-68934312D01*
X94334312Y-69067924D01*
X94334312Y-69067925D01*
X94334310Y-69067927D01*
X94286610Y-69133579D01*
X94223240Y-69220800D01*
X94137454Y-69389163D01*
X94079059Y-69568881D01*
X94049500Y-69755513D01*
X88830499Y-69755513D01*
X88830499Y-68905136D01*
X88830497Y-68905117D01*
X88827586Y-68880012D01*
X88827585Y-68880010D01*
X88827585Y-68880009D01*
X88782206Y-68777235D01*
X88702765Y-68697794D01*
X88702763Y-68697793D01*
X88599992Y-68652415D01*
X88574868Y-68649500D01*
X88574865Y-68649500D01*
X88454500Y-68649500D01*
X88387461Y-68629815D01*
X88341706Y-68577011D01*
X88330500Y-68525500D01*
X88330500Y-64701003D01*
X88303581Y-64565676D01*
X88303580Y-64565675D01*
X88303580Y-64565671D01*
X88303578Y-64565666D01*
X88250778Y-64438194D01*
X88250771Y-64438181D01*
X88174115Y-64323458D01*
X88151156Y-64300499D01*
X88076542Y-64225885D01*
X82516818Y-58666161D01*
X82483333Y-58604838D01*
X82480499Y-58578480D01*
X82480499Y-58325513D01*
X87699500Y-58325513D01*
X87699500Y-58514486D01*
X87729059Y-58701118D01*
X87787454Y-58880836D01*
X87865903Y-59034800D01*
X87873240Y-59049199D01*
X87984310Y-59202073D01*
X88117927Y-59335690D01*
X88270801Y-59446760D01*
X88350347Y-59487290D01*
X88439163Y-59532545D01*
X88439165Y-59532545D01*
X88439168Y-59532547D01*
X88489122Y-59548778D01*
X88618881Y-59590940D01*
X88805514Y-59620500D01*
X88805519Y-59620500D01*
X88994486Y-59620500D01*
X89181118Y-59590940D01*
X89360832Y-59532547D01*
X89529199Y-59446760D01*
X89682073Y-59335690D01*
X89815690Y-59202073D01*
X89926760Y-59049199D01*
X90012547Y-58880832D01*
X90056639Y-58745131D01*
X101669500Y-58745131D01*
X101669500Y-60634856D01*
X101669502Y-60634882D01*
X101672413Y-60659987D01*
X101672415Y-60659991D01*
X101717793Y-60762764D01*
X101717794Y-60762765D01*
X101797235Y-60842206D01*
X101900009Y-60887585D01*
X101925135Y-60890500D01*
X103814864Y-60890499D01*
X103814879Y-60890497D01*
X103814882Y-60890497D01*
X103839987Y-60887586D01*
X103839988Y-60887585D01*
X103839991Y-60887585D01*
X103942765Y-60842206D01*
X104022206Y-60762765D01*
X104067585Y-60659991D01*
X104070500Y-60634865D01*
X104070499Y-60221906D01*
X104090183Y-60154870D01*
X104142987Y-60109115D01*
X104212146Y-60099171D01*
X104275702Y-60128196D01*
X104304984Y-60165614D01*
X104333668Y-60221909D01*
X104383240Y-60319199D01*
X104494310Y-60472073D01*
X104627927Y-60605690D01*
X104780801Y-60716760D01*
X104860347Y-60757290D01*
X104949163Y-60802545D01*
X104949165Y-60802545D01*
X104949168Y-60802547D01*
X105045497Y-60833846D01*
X105128881Y-60860940D01*
X105315514Y-60890500D01*
X105315519Y-60890500D01*
X105504486Y-60890500D01*
X105691118Y-60860940D01*
X105726403Y-60849475D01*
X105870832Y-60802547D01*
X106039199Y-60716760D01*
X106192073Y-60605690D01*
X106325690Y-60472073D01*
X106436760Y-60319199D01*
X106522547Y-60150832D01*
X106562069Y-60029195D01*
X106601507Y-59971521D01*
X106665866Y-59944323D01*
X106734712Y-59956238D01*
X106786188Y-60003482D01*
X106797931Y-60029196D01*
X106837454Y-60150836D01*
X106873668Y-60221909D01*
X106923240Y-60319199D01*
X107034310Y-60472073D01*
X107167927Y-60605690D01*
X107320801Y-60716760D01*
X107400347Y-60757290D01*
X107489163Y-60802545D01*
X107489165Y-60802545D01*
X107489168Y-60802547D01*
X107585497Y-60833846D01*
X107668881Y-60860940D01*
X107855514Y-60890500D01*
X107855519Y-60890500D01*
X108044486Y-60890500D01*
X108231118Y-60860940D01*
X108266403Y-60849475D01*
X108410832Y-60802547D01*
X108579199Y-60716760D01*
X108732073Y-60605690D01*
X108865690Y-60472073D01*
X108976760Y-60319199D01*
X109062547Y-60150832D01*
X109102069Y-60029195D01*
X109141507Y-59971521D01*
X109205866Y-59944323D01*
X109274712Y-59956238D01*
X109326188Y-60003482D01*
X109337931Y-60029196D01*
X109377454Y-60150836D01*
X109413668Y-60221909D01*
X109463240Y-60319199D01*
X109574310Y-60472073D01*
X109707927Y-60605690D01*
X109860801Y-60716760D01*
X109940347Y-60757290D01*
X110029163Y-60802545D01*
X110029165Y-60802545D01*
X110029168Y-60802547D01*
X110125497Y-60833846D01*
X110208881Y-60860940D01*
X110395514Y-60890500D01*
X110395519Y-60890500D01*
X110584486Y-60890500D01*
X110771118Y-60860940D01*
X110806403Y-60849475D01*
X110950832Y-60802547D01*
X111119199Y-60716760D01*
X111272073Y-60605690D01*
X111405690Y-60472073D01*
X111516760Y-60319199D01*
X111602547Y-60150832D01*
X111642069Y-60029195D01*
X111681507Y-59971521D01*
X111745866Y-59944323D01*
X111814712Y-59956238D01*
X111866188Y-60003482D01*
X111877931Y-60029196D01*
X111917454Y-60150836D01*
X111953668Y-60221909D01*
X112003240Y-60319199D01*
X112114310Y-60472073D01*
X112247927Y-60605690D01*
X112400801Y-60716760D01*
X112480347Y-60757290D01*
X112569163Y-60802545D01*
X112569165Y-60802545D01*
X112569168Y-60802547D01*
X112665497Y-60833846D01*
X112748881Y-60860940D01*
X112935514Y-60890500D01*
X112935519Y-60890500D01*
X113124486Y-60890500D01*
X113311118Y-60860940D01*
X113346403Y-60849475D01*
X113490832Y-60802547D01*
X113659199Y-60716760D01*
X113812073Y-60605690D01*
X113945690Y-60472073D01*
X114056760Y-60319199D01*
X114142547Y-60150832D01*
X114182332Y-60028385D01*
X114221768Y-59970713D01*
X114286127Y-59943514D01*
X114354973Y-59955429D01*
X114406449Y-60002673D01*
X114418193Y-60028388D01*
X114457914Y-60150637D01*
X114543666Y-60318933D01*
X114591872Y-60385284D01*
X115101980Y-59875176D01*
X115104075Y-59882993D01*
X115169901Y-59997007D01*
X115262993Y-60090099D01*
X115377007Y-60155925D01*
X115384821Y-60158019D01*
X114874713Y-60668126D01*
X114911635Y-60694951D01*
X114954301Y-60750281D01*
X114960280Y-60819894D01*
X114927675Y-60881690D01*
X114907642Y-60898372D01*
X114869454Y-60923888D01*
X114771888Y-61021454D01*
X114771885Y-61021458D01*
X114695228Y-61136182D01*
X114695221Y-61136195D01*
X114642421Y-61263667D01*
X114642418Y-61263677D01*
X114615500Y-61399004D01*
X114615500Y-61399007D01*
X114615500Y-61536993D01*
X114615500Y-61536995D01*
X114615499Y-61536995D01*
X114642418Y-61672322D01*
X114642421Y-61672332D01*
X114695221Y-61799804D01*
X114695228Y-61799817D01*
X114771885Y-61914541D01*
X114771888Y-61914545D01*
X114869454Y-62012111D01*
X114869458Y-62012114D01*
X114984182Y-62088771D01*
X114984195Y-62088778D01*
X115111667Y-62141578D01*
X115111672Y-62141580D01*
X115111676Y-62141580D01*
X115111677Y-62141581D01*
X115247004Y-62168500D01*
X115247007Y-62168500D01*
X115384995Y-62168500D01*
X115476041Y-62150389D01*
X115520328Y-62141580D01*
X115647811Y-62088775D01*
X115762542Y-62012114D01*
X115860114Y-61914542D01*
X115936775Y-61799811D01*
X115961116Y-61741047D01*
X116004957Y-61686644D01*
X116071251Y-61664579D01*
X116075677Y-61664500D01*
X116391308Y-61664500D01*
X116391309Y-61664500D01*
X116481673Y-61640286D01*
X116505887Y-61633799D01*
X116608614Y-61574489D01*
X117407520Y-60775581D01*
X117468841Y-60742098D01*
X117538532Y-60747082D01*
X117551494Y-60752780D01*
X117649159Y-60802543D01*
X117649157Y-60802543D01*
X117649165Y-60802545D01*
X117649168Y-60802547D01*
X117751100Y-60835667D01*
X117828881Y-60860940D01*
X118015514Y-60890500D01*
X118015519Y-60890500D01*
X118204486Y-60890500D01*
X118294963Y-60876169D01*
X118391118Y-60860940D01*
X118420257Y-60851471D01*
X118490098Y-60849475D01*
X118549932Y-60885554D01*
X118580761Y-60948255D01*
X118572798Y-61017669D01*
X118546259Y-61057083D01*
X116899414Y-62703928D01*
X116859186Y-62730808D01*
X116714823Y-62790604D01*
X116714814Y-62790609D01*
X116583711Y-62878210D01*
X116583707Y-62878213D01*
X116472213Y-62989707D01*
X116472210Y-62989711D01*
X116384609Y-63120814D01*
X116384602Y-63120827D01*
X116324264Y-63266498D01*
X116324261Y-63266510D01*
X116293500Y-63421153D01*
X116293500Y-63578846D01*
X116324261Y-63733489D01*
X116324264Y-63733501D01*
X116384602Y-63879172D01*
X116384609Y-63879185D01*
X116472210Y-64010288D01*
X116472213Y-64010292D01*
X116583707Y-64121786D01*
X116583711Y-64121789D01*
X116714814Y-64209390D01*
X116714827Y-64209397D01*
X116860498Y-64269735D01*
X116860503Y-64269737D01*
X117015153Y-64300499D01*
X117015156Y-64300500D01*
X117015158Y-64300500D01*
X117172844Y-64300500D01*
X117172845Y-64300499D01*
X117327497Y-64269737D01*
X117473179Y-64209394D01*
X117604289Y-64121789D01*
X117715789Y-64010289D01*
X117803394Y-63879179D01*
X117863193Y-63734809D01*
X117890070Y-63694584D01*
X119737820Y-61846834D01*
X119799142Y-61813351D01*
X119868834Y-61818335D01*
X119924767Y-61860207D01*
X119949184Y-61925671D01*
X119949500Y-61934517D01*
X119949500Y-68511006D01*
X119949500Y-68648994D01*
X119949500Y-68648996D01*
X119949499Y-68648996D01*
X119976418Y-68784322D01*
X119976421Y-68784332D01*
X120029222Y-68911807D01*
X120105887Y-69026545D01*
X120105888Y-69026546D01*
X121953181Y-70873837D01*
X121986666Y-70935160D01*
X121989500Y-70961518D01*
X121989500Y-72064856D01*
X121989502Y-72064882D01*
X121992413Y-72089987D01*
X121992415Y-72089991D01*
X122037793Y-72192764D01*
X122037794Y-72192765D01*
X122117235Y-72272206D01*
X122220009Y-72317585D01*
X122245135Y-72320500D01*
X124134864Y-72320499D01*
X124134879Y-72320497D01*
X124134882Y-72320497D01*
X124159987Y-72317586D01*
X124159988Y-72317585D01*
X124159991Y-72317585D01*
X124262765Y-72272206D01*
X124342206Y-72192765D01*
X124387585Y-72089991D01*
X124390500Y-72064865D01*
X124390499Y-71650805D01*
X124410183Y-71583769D01*
X124462987Y-71538014D01*
X124532146Y-71528070D01*
X124595701Y-71557095D01*
X124624983Y-71594513D01*
X124703661Y-71748925D01*
X124703664Y-71748930D01*
X124751872Y-71815284D01*
X125261980Y-71305176D01*
X125264075Y-71312993D01*
X125329901Y-71427007D01*
X125422993Y-71520099D01*
X125537007Y-71585925D01*
X125544822Y-71588019D01*
X125034713Y-72098126D01*
X125034714Y-72098127D01*
X125101059Y-72146329D01*
X125269362Y-72232085D01*
X125448997Y-72290451D01*
X125635553Y-72320000D01*
X125824447Y-72320000D01*
X126011002Y-72290451D01*
X126190637Y-72232085D01*
X126358937Y-72146331D01*
X126425284Y-72098126D01*
X126425285Y-72098126D01*
X125915178Y-71588019D01*
X125922993Y-71585925D01*
X126037007Y-71520099D01*
X126130099Y-71427007D01*
X126195925Y-71312993D01*
X126198019Y-71305178D01*
X126708126Y-71815285D01*
X126708126Y-71815284D01*
X126756331Y-71748937D01*
X126842085Y-71580637D01*
X126900451Y-71401002D01*
X126930000Y-71214447D01*
X126930000Y-71025552D01*
X126900451Y-70838997D01*
X126842085Y-70659362D01*
X126756329Y-70491059D01*
X126708127Y-70424714D01*
X126708126Y-70424713D01*
X126198018Y-70934821D01*
X126195925Y-70927007D01*
X126130099Y-70812993D01*
X126037007Y-70719901D01*
X125922993Y-70654075D01*
X125915177Y-70651980D01*
X126392025Y-70175131D01*
X130879500Y-70175131D01*
X130879500Y-72064856D01*
X130879502Y-72064882D01*
X130882413Y-72089987D01*
X130882415Y-72089991D01*
X130927793Y-72192764D01*
X130927794Y-72192765D01*
X131007235Y-72272206D01*
X131110009Y-72317585D01*
X131135135Y-72320500D01*
X133024864Y-72320499D01*
X133024879Y-72320497D01*
X133024882Y-72320497D01*
X133049987Y-72317586D01*
X133049988Y-72317585D01*
X133049991Y-72317585D01*
X133152765Y-72272206D01*
X133232206Y-72192765D01*
X133277585Y-72089991D01*
X133280500Y-72064865D01*
X133280499Y-71650805D01*
X133300183Y-71583769D01*
X133352987Y-71538014D01*
X133422146Y-71528070D01*
X133485701Y-71557095D01*
X133514983Y-71594513D01*
X133593661Y-71748925D01*
X133593664Y-71748930D01*
X133641872Y-71815284D01*
X134151980Y-71305176D01*
X134154075Y-71312993D01*
X134219901Y-71427007D01*
X134312993Y-71520099D01*
X134427007Y-71585925D01*
X134434822Y-71588019D01*
X133924713Y-72098126D01*
X133924714Y-72098127D01*
X133991059Y-72146329D01*
X134159362Y-72232085D01*
X134338997Y-72290451D01*
X134525553Y-72320000D01*
X134714447Y-72320000D01*
X134901002Y-72290451D01*
X135080637Y-72232085D01*
X135248937Y-72146331D01*
X135315284Y-72098126D01*
X135315285Y-72098126D01*
X134805178Y-71588019D01*
X134812993Y-71585925D01*
X134927007Y-71520099D01*
X135020099Y-71427007D01*
X135085925Y-71312993D01*
X135088019Y-71305177D01*
X135598126Y-71815285D01*
X135598126Y-71815284D01*
X135646331Y-71748937D01*
X135732085Y-71580637D01*
X135790451Y-71401002D01*
X135820000Y-71214447D01*
X135820000Y-71025552D01*
X135790451Y-70838997D01*
X135732085Y-70659362D01*
X135646329Y-70491059D01*
X135598127Y-70424714D01*
X135598126Y-70424713D01*
X135088018Y-70934821D01*
X135085925Y-70927007D01*
X135020099Y-70812993D01*
X134927007Y-70719901D01*
X134812993Y-70654075D01*
X134805177Y-70651980D01*
X135315284Y-70141872D01*
X135248933Y-70093666D01*
X135080637Y-70007914D01*
X134901002Y-69949548D01*
X134714447Y-69920000D01*
X134525553Y-69920000D01*
X134338997Y-69949548D01*
X134159362Y-70007914D01*
X133991064Y-70093667D01*
X133991062Y-70093668D01*
X133924714Y-70141871D01*
X133924714Y-70141872D01*
X134434822Y-70651980D01*
X134427007Y-70654075D01*
X134312993Y-70719901D01*
X134219901Y-70812993D01*
X134154075Y-70927007D01*
X134151980Y-70934822D01*
X133641872Y-70424714D01*
X133641871Y-70424714D01*
X133593668Y-70491062D01*
X133593661Y-70491074D01*
X133514983Y-70645487D01*
X133467009Y-70696283D01*
X133399188Y-70713078D01*
X133333053Y-70690540D01*
X133289602Y-70635825D01*
X133280499Y-70589192D01*
X133280499Y-70175143D01*
X133280499Y-70175136D01*
X133280497Y-70175117D01*
X133277586Y-70150012D01*
X133277585Y-70150010D01*
X133277585Y-70150009D01*
X133232206Y-70047235D01*
X133152765Y-69967794D01*
X133111442Y-69949548D01*
X133049992Y-69922415D01*
X133024865Y-69919500D01*
X131135143Y-69919500D01*
X131135117Y-69919502D01*
X131110012Y-69922413D01*
X131110008Y-69922415D01*
X131007235Y-69967793D01*
X130927794Y-70047234D01*
X130882415Y-70150006D01*
X130882415Y-70150008D01*
X130879500Y-70175131D01*
X126392025Y-70175131D01*
X126425284Y-70141872D01*
X126358933Y-70093666D01*
X126190637Y-70007914D01*
X126011002Y-69949548D01*
X125824447Y-69920000D01*
X125635553Y-69920000D01*
X125448997Y-69949548D01*
X125269362Y-70007914D01*
X125101064Y-70093667D01*
X125101062Y-70093668D01*
X125034714Y-70141871D01*
X125034714Y-70141872D01*
X125544822Y-70651980D01*
X125537007Y-70654075D01*
X125422993Y-70719901D01*
X125329901Y-70812993D01*
X125264075Y-70927007D01*
X125261980Y-70934822D01*
X124751872Y-70424714D01*
X124751871Y-70424714D01*
X124703668Y-70491062D01*
X124703661Y-70491074D01*
X124624983Y-70645487D01*
X124577009Y-70696283D01*
X124509188Y-70713078D01*
X124443053Y-70690540D01*
X124399602Y-70635825D01*
X124390499Y-70589192D01*
X124390499Y-70175143D01*
X124390499Y-70175136D01*
X124390497Y-70175117D01*
X124387586Y-70150012D01*
X124387585Y-70150010D01*
X124387585Y-70150009D01*
X124342206Y-70047235D01*
X124262765Y-69967794D01*
X124221442Y-69949548D01*
X124159992Y-69922415D01*
X124134868Y-69919500D01*
X124134865Y-69919500D01*
X123031518Y-69919500D01*
X122964479Y-69899815D01*
X122943837Y-69883181D01*
X121386819Y-68326162D01*
X121353334Y-68264839D01*
X121350500Y-68238481D01*
X121350500Y-60728137D01*
X121370185Y-60661098D01*
X121401615Y-60627818D01*
X121432073Y-60605690D01*
X121565690Y-60472073D01*
X121676760Y-60319199D01*
X121762547Y-60150832D01*
X121820940Y-59971118D01*
X121834727Y-59884069D01*
X121850500Y-59784486D01*
X121850500Y-59595513D01*
X121820940Y-59408881D01*
X121779706Y-59281977D01*
X121762547Y-59229168D01*
X121762545Y-59229165D01*
X121762545Y-59229163D01*
X121697693Y-59101885D01*
X121676760Y-59060801D01*
X121565690Y-58907927D01*
X121432073Y-58774310D01*
X121279199Y-58663240D01*
X121213652Y-58629842D01*
X121110836Y-58577454D01*
X120931118Y-58519059D01*
X120744486Y-58489500D01*
X120744481Y-58489500D01*
X120555519Y-58489500D01*
X120555514Y-58489500D01*
X120368881Y-58519059D01*
X120189163Y-58577454D01*
X120020800Y-58663240D01*
X119942661Y-58720012D01*
X119867927Y-58774310D01*
X119867925Y-58774312D01*
X119867924Y-58774312D01*
X119734312Y-58907924D01*
X119734312Y-58907925D01*
X119734310Y-58907927D01*
X119714105Y-58935737D01*
X119623240Y-59060800D01*
X119537454Y-59229163D01*
X119497931Y-59350803D01*
X119458493Y-59408478D01*
X119394134Y-59435676D01*
X119325288Y-59423761D01*
X119273812Y-59376516D01*
X119262069Y-59350803D01*
X119234249Y-59265182D01*
X119222547Y-59229168D01*
X119222545Y-59229165D01*
X119222545Y-59229163D01*
X119157693Y-59101885D01*
X119136760Y-59060801D01*
X119025690Y-58907927D01*
X118892073Y-58774310D01*
X118739199Y-58663240D01*
X118673652Y-58629842D01*
X118570836Y-58577454D01*
X118391118Y-58519059D01*
X118204486Y-58489500D01*
X118204481Y-58489500D01*
X118015519Y-58489500D01*
X118015514Y-58489500D01*
X117828881Y-58519059D01*
X117649163Y-58577454D01*
X117480800Y-58663240D01*
X117402661Y-58720012D01*
X117327927Y-58774310D01*
X117327925Y-58774312D01*
X117327924Y-58774312D01*
X117194312Y-58907924D01*
X117194312Y-58907925D01*
X117194310Y-58907927D01*
X117174105Y-58935737D01*
X117083240Y-59060800D01*
X116997454Y-59229163D01*
X116957668Y-59351612D01*
X116918230Y-59409287D01*
X116853871Y-59436485D01*
X116785025Y-59424570D01*
X116733549Y-59377325D01*
X116721806Y-59351611D01*
X116682085Y-59229362D01*
X116596329Y-59061059D01*
X116548127Y-58994714D01*
X116548126Y-58994713D01*
X116038019Y-59504821D01*
X116035925Y-59497007D01*
X115970099Y-59382993D01*
X115877007Y-59289901D01*
X115762993Y-59224075D01*
X115755177Y-59221980D01*
X116265284Y-58711872D01*
X116198933Y-58663666D01*
X116030637Y-58577914D01*
X115851002Y-58519548D01*
X115664447Y-58490000D01*
X115475553Y-58490000D01*
X115288997Y-58519548D01*
X115109362Y-58577914D01*
X114941064Y-58663667D01*
X114941062Y-58663668D01*
X114874714Y-58711871D01*
X114874714Y-58711872D01*
X115384822Y-59221980D01*
X115377007Y-59224075D01*
X115262993Y-59289901D01*
X115169901Y-59382993D01*
X115104075Y-59497007D01*
X115101980Y-59504822D01*
X114591872Y-58994714D01*
X114591871Y-58994714D01*
X114543668Y-59061062D01*
X114543667Y-59061064D01*
X114457915Y-59229361D01*
X114418193Y-59351612D01*
X114378755Y-59409287D01*
X114314396Y-59436485D01*
X114245550Y-59424570D01*
X114194074Y-59377326D01*
X114182332Y-59351614D01*
X114142547Y-59229168D01*
X114056760Y-59060801D01*
X113945690Y-58907927D01*
X113812073Y-58774310D01*
X113659199Y-58663240D01*
X113593652Y-58629842D01*
X113490836Y-58577454D01*
X113311118Y-58519059D01*
X113124486Y-58489500D01*
X113124481Y-58489500D01*
X112935519Y-58489500D01*
X112935514Y-58489500D01*
X112748881Y-58519059D01*
X112569163Y-58577454D01*
X112400800Y-58663240D01*
X112322661Y-58720012D01*
X112247927Y-58774310D01*
X112247925Y-58774312D01*
X112247924Y-58774312D01*
X112114312Y-58907924D01*
X112114312Y-58907925D01*
X112114310Y-58907927D01*
X112094105Y-58935737D01*
X112003240Y-59060800D01*
X111917454Y-59229163D01*
X111877931Y-59350803D01*
X111838493Y-59408478D01*
X111774134Y-59435676D01*
X111705288Y-59423761D01*
X111653812Y-59376516D01*
X111642069Y-59350803D01*
X111614249Y-59265182D01*
X111602547Y-59229168D01*
X111602545Y-59229165D01*
X111602545Y-59229163D01*
X111537693Y-59101885D01*
X111516760Y-59060801D01*
X111405690Y-58907927D01*
X111272073Y-58774310D01*
X111119199Y-58663240D01*
X111053652Y-58629842D01*
X110950836Y-58577454D01*
X110771118Y-58519059D01*
X110584486Y-58489500D01*
X110584481Y-58489500D01*
X110395519Y-58489500D01*
X110395514Y-58489500D01*
X110208881Y-58519059D01*
X110029163Y-58577454D01*
X109860800Y-58663240D01*
X109782661Y-58720012D01*
X109707927Y-58774310D01*
X109707925Y-58774312D01*
X109707924Y-58774312D01*
X109574312Y-58907924D01*
X109574312Y-58907925D01*
X109574310Y-58907927D01*
X109554105Y-58935737D01*
X109463240Y-59060800D01*
X109377454Y-59229163D01*
X109337931Y-59350803D01*
X109298493Y-59408478D01*
X109234134Y-59435676D01*
X109165288Y-59423761D01*
X109113812Y-59376516D01*
X109102069Y-59350803D01*
X109074249Y-59265182D01*
X109062547Y-59229168D01*
X109062545Y-59229165D01*
X109062545Y-59229163D01*
X108997693Y-59101885D01*
X108976760Y-59060801D01*
X108865690Y-58907927D01*
X108732073Y-58774310D01*
X108579199Y-58663240D01*
X108513652Y-58629842D01*
X108410836Y-58577454D01*
X108231118Y-58519059D01*
X108044486Y-58489500D01*
X108044481Y-58489500D01*
X107855519Y-58489500D01*
X107855514Y-58489500D01*
X107668880Y-58519060D01*
X107668877Y-58519060D01*
X107550406Y-58557554D01*
X107480564Y-58559549D01*
X107424407Y-58527304D01*
X105384819Y-56487716D01*
X105351334Y-56426393D01*
X105348500Y-56400035D01*
X105348500Y-56319004D01*
X105321581Y-56183677D01*
X105321580Y-56183676D01*
X105321580Y-56183672D01*
X105312238Y-56161118D01*
X105268778Y-56056195D01*
X105268771Y-56056182D01*
X105192114Y-55941458D01*
X105192111Y-55941454D01*
X105094545Y-55843888D01*
X105094541Y-55843885D01*
X104979817Y-55767228D01*
X104979804Y-55767221D01*
X104852332Y-55714421D01*
X104852322Y-55714418D01*
X104716995Y-55687500D01*
X104716993Y-55687500D01*
X104579007Y-55687500D01*
X104579005Y-55687500D01*
X104443677Y-55714418D01*
X104443667Y-55714421D01*
X104316195Y-55767221D01*
X104316182Y-55767228D01*
X104201458Y-55843885D01*
X104201454Y-55843888D01*
X104103888Y-55941454D01*
X104103885Y-55941458D01*
X104027228Y-56056182D01*
X104027221Y-56056195D01*
X103974421Y-56183667D01*
X103974418Y-56183677D01*
X103947500Y-56319004D01*
X103947500Y-56319007D01*
X103947500Y-56456993D01*
X103947500Y-56456995D01*
X103947499Y-56456995D01*
X103974418Y-56592322D01*
X103974421Y-56592332D01*
X104027221Y-56719804D01*
X104027228Y-56719817D01*
X104103885Y-56834541D01*
X104103888Y-56834545D01*
X104201454Y-56932111D01*
X104201458Y-56932114D01*
X104316182Y-57008771D01*
X104316195Y-57008778D01*
X104443667Y-57061578D01*
X104443672Y-57061580D01*
X104443676Y-57061580D01*
X104443677Y-57061581D01*
X104579004Y-57088500D01*
X104579007Y-57088500D01*
X104660035Y-57088500D01*
X104727074Y-57108185D01*
X104747716Y-57124819D01*
X105993731Y-58370834D01*
X106027216Y-58432157D01*
X106022232Y-58501849D01*
X105980360Y-58557782D01*
X105914896Y-58582199D01*
X105867733Y-58576446D01*
X105802717Y-58555321D01*
X105691118Y-58519059D01*
X105504486Y-58489500D01*
X105504481Y-58489500D01*
X105315519Y-58489500D01*
X105315514Y-58489500D01*
X105128881Y-58519059D01*
X104949163Y-58577454D01*
X104780800Y-58663240D01*
X104702661Y-58720012D01*
X104627927Y-58774310D01*
X104627925Y-58774312D01*
X104627924Y-58774312D01*
X104494312Y-58907924D01*
X104494312Y-58907925D01*
X104494310Y-58907927D01*
X104474105Y-58935737D01*
X104383240Y-59060800D01*
X104304984Y-59214386D01*
X104257009Y-59265182D01*
X104189188Y-59281977D01*
X104123053Y-59259439D01*
X104079602Y-59204724D01*
X104070499Y-59158091D01*
X104070499Y-58745143D01*
X104070499Y-58745136D01*
X104070497Y-58745117D01*
X104067586Y-58720012D01*
X104067585Y-58720010D01*
X104067585Y-58720009D01*
X104022206Y-58617235D01*
X103942765Y-58537794D01*
X103942763Y-58537793D01*
X103839992Y-58492415D01*
X103814865Y-58489500D01*
X101925143Y-58489500D01*
X101925117Y-58489502D01*
X101900012Y-58492413D01*
X101900008Y-58492415D01*
X101797235Y-58537793D01*
X101717794Y-58617234D01*
X101672415Y-58720006D01*
X101672415Y-58720008D01*
X101669500Y-58745131D01*
X90056639Y-58745131D01*
X90070940Y-58701118D01*
X90087560Y-58596182D01*
X90100500Y-58514486D01*
X90100500Y-58325513D01*
X90070940Y-58138881D01*
X90012545Y-57959163D01*
X89926759Y-57790800D01*
X89815690Y-57637927D01*
X89682073Y-57504310D01*
X89529199Y-57393240D01*
X89360836Y-57307454D01*
X89181118Y-57249059D01*
X88994486Y-57219500D01*
X88994481Y-57219500D01*
X88805519Y-57219500D01*
X88805514Y-57219500D01*
X88618881Y-57249059D01*
X88439163Y-57307454D01*
X88270800Y-57393240D01*
X88192661Y-57450012D01*
X88117927Y-57504310D01*
X88117925Y-57504312D01*
X88117924Y-57504312D01*
X87984312Y-57637924D01*
X87984312Y-57637925D01*
X87984310Y-57637927D01*
X87936610Y-57703579D01*
X87873240Y-57790800D01*
X87787454Y-57959163D01*
X87729059Y-58138881D01*
X87699500Y-58325513D01*
X82480499Y-58325513D01*
X82480499Y-57475143D01*
X82480499Y-57475136D01*
X82480497Y-57475117D01*
X82477586Y-57450012D01*
X82477585Y-57450010D01*
X82477585Y-57450009D01*
X82432206Y-57347235D01*
X82352765Y-57267794D01*
X82326480Y-57256188D01*
X82249992Y-57222415D01*
X82224865Y-57219500D01*
X80335143Y-57219500D01*
X80335117Y-57219502D01*
X80310012Y-57222413D01*
X80310008Y-57222415D01*
X80207235Y-57267793D01*
X80127794Y-57347234D01*
X80082415Y-57450006D01*
X80082415Y-57450008D01*
X80079500Y-57475131D01*
X80079500Y-59364856D01*
X80079502Y-59364882D01*
X80082413Y-59389987D01*
X80082415Y-59389991D01*
X80127793Y-59492764D01*
X80127794Y-59492765D01*
X80207235Y-59572206D01*
X80310009Y-59617585D01*
X80335135Y-59620500D01*
X81438480Y-59620499D01*
X81505519Y-59640184D01*
X81526161Y-59656818D01*
X85563925Y-63694581D01*
X86893181Y-65023836D01*
X86926666Y-65085159D01*
X86929500Y-65111517D01*
X86929500Y-68525500D01*
X86909815Y-68592539D01*
X86857011Y-68638294D01*
X86805501Y-68649500D01*
X86685142Y-68649500D01*
X86685119Y-68649502D01*
X86660011Y-68652414D01*
X86660008Y-68652415D01*
X86557235Y-68697793D01*
X86477794Y-68777234D01*
X86432415Y-68880006D01*
X86432415Y-68880008D01*
X86429500Y-68905131D01*
X86429500Y-70794856D01*
X86429502Y-70794882D01*
X86432413Y-70819987D01*
X86432415Y-70819991D01*
X86477793Y-70922764D01*
X86477794Y-70922765D01*
X86557235Y-71002206D01*
X86660009Y-71047585D01*
X86685135Y-71050500D01*
X86805500Y-71050499D01*
X86872539Y-71070183D01*
X86918294Y-71122987D01*
X86929500Y-71174499D01*
X86929500Y-73572480D01*
X86909815Y-73639519D01*
X86893181Y-73660161D01*
X86577888Y-73975453D01*
X86577887Y-73975454D01*
X86501222Y-74090192D01*
X86448421Y-74217667D01*
X86448418Y-74217677D01*
X86421500Y-74353004D01*
X86421500Y-75350480D01*
X86401815Y-75417519D01*
X86385181Y-75438161D01*
X85187083Y-76636259D01*
X85125760Y-76669744D01*
X85056068Y-76664760D01*
X85000135Y-76622888D01*
X84975718Y-76557424D01*
X84981472Y-76510257D01*
X84990939Y-76481121D01*
X84990940Y-76481118D01*
X85007559Y-76376189D01*
X85020500Y-76294486D01*
X85020500Y-76105513D01*
X84990940Y-75918881D01*
X84932545Y-75739163D01*
X84880288Y-75636604D01*
X84846760Y-75570801D01*
X84735690Y-75417927D01*
X84602073Y-75284310D01*
X84449199Y-75173240D01*
X84280836Y-75087454D01*
X84101118Y-75029059D01*
X83914486Y-74999500D01*
X83914481Y-74999500D01*
X83725519Y-74999500D01*
X83725514Y-74999500D01*
X83538881Y-75029059D01*
X83359163Y-75087454D01*
X83190800Y-75173240D01*
X83112661Y-75230012D01*
X83037927Y-75284310D01*
X83037925Y-75284312D01*
X83037924Y-75284312D01*
X82904312Y-75417924D01*
X82904312Y-75417925D01*
X82904310Y-75417927D01*
X82889609Y-75438161D01*
X82793240Y-75570800D01*
X82707454Y-75739163D01*
X82649059Y-75918881D01*
X82619500Y-76105513D01*
X82619500Y-76294486D01*
X82649059Y-76481118D01*
X82707454Y-76660836D01*
X82767012Y-76777724D01*
X82793240Y-76829199D01*
X82904310Y-76982073D01*
X83037927Y-77115690D01*
X83190801Y-77226760D01*
X83270347Y-77267290D01*
X83359163Y-77312545D01*
X83359165Y-77312545D01*
X83359168Y-77312547D01*
X83455497Y-77343846D01*
X83538881Y-77370940D01*
X83725514Y-77400500D01*
X83725519Y-77400500D01*
X83914486Y-77400500D01*
X84004963Y-77386169D01*
X84101118Y-77370940D01*
X84130257Y-77361471D01*
X84200098Y-77359475D01*
X84259932Y-77395554D01*
X84290761Y-77458255D01*
X84282798Y-77527669D01*
X84256259Y-77567083D01*
X76417890Y-85405451D01*
X76417887Y-85405454D01*
X76369602Y-85477719D01*
X76315990Y-85522524D01*
X76246665Y-85531231D01*
X76183637Y-85501076D01*
X76146918Y-85441633D01*
X76142500Y-85408828D01*
X76142500Y-79993965D01*
X76162185Y-79926926D01*
X76178819Y-79906284D01*
X77107139Y-78977964D01*
X78084489Y-78000614D01*
X78143799Y-77897887D01*
X78150285Y-77873675D01*
X78150286Y-77873675D01*
X78150286Y-77873671D01*
X78174500Y-77783309D01*
X78174500Y-57344691D01*
X78143799Y-57230114D01*
X78143799Y-57230113D01*
X78084489Y-57127386D01*
X41884819Y-20927716D01*
X41851334Y-20866393D01*
X41848500Y-20840035D01*
X41848500Y-20759004D01*
X41821581Y-20623677D01*
X41821580Y-20623676D01*
X41821580Y-20623672D01*
X41812238Y-20601118D01*
X41768778Y-20496195D01*
X41768771Y-20496182D01*
X41692114Y-20381458D01*
X41692111Y-20381454D01*
X41594545Y-20283888D01*
X41594541Y-20283885D01*
X41479817Y-20207228D01*
X41479804Y-20207221D01*
X41352332Y-20154421D01*
X41352322Y-20154418D01*
X41216995Y-20127500D01*
X41216993Y-20127500D01*
X41079007Y-20127500D01*
X41079005Y-20127500D01*
X40943677Y-20154418D01*
X40943667Y-20154421D01*
X40816195Y-20207221D01*
X40816182Y-20207228D01*
X40701458Y-20283885D01*
X40701454Y-20283888D01*
X40603888Y-20381454D01*
X40603885Y-20381458D01*
X40527228Y-20496182D01*
X40527221Y-20496195D01*
X40474421Y-20623667D01*
X40474418Y-20623677D01*
X40447500Y-20759004D01*
X40447500Y-20759007D01*
X40447500Y-20896993D01*
X40447500Y-20896995D01*
X40447499Y-20896995D01*
X40474418Y-21032322D01*
X40474421Y-21032332D01*
X40527221Y-21159804D01*
X40527228Y-21159817D01*
X40603885Y-21274541D01*
X40603888Y-21274545D01*
X40701454Y-21372111D01*
X40701458Y-21372114D01*
X40816182Y-21448771D01*
X40816195Y-21448778D01*
X40943667Y-21501578D01*
X40943672Y-21501580D01*
X40943676Y-21501580D01*
X40943677Y-21501581D01*
X41079004Y-21528500D01*
X41079007Y-21528500D01*
X41160035Y-21528500D01*
X41227074Y-21548185D01*
X41247716Y-21564819D01*
X77237181Y-57554284D01*
X77270666Y-57615607D01*
X77273500Y-57641965D01*
X77273500Y-74875560D01*
X77253815Y-74942599D01*
X77201011Y-74988354D01*
X77148446Y-74998233D01*
X77148446Y-74999500D01*
X75687966Y-74999500D01*
X75620927Y-74979815D01*
X75600285Y-74963181D01*
X39262694Y-38625591D01*
X39229209Y-38564268D01*
X39232444Y-38499593D01*
X39270940Y-38381118D01*
X39286169Y-38284963D01*
X39300500Y-38194486D01*
X39300500Y-38005513D01*
X39270940Y-37818881D01*
X39212545Y-37639163D01*
X39167290Y-37550347D01*
X39126760Y-37470801D01*
X39015690Y-37317927D01*
X38882073Y-37184310D01*
X38729199Y-37073240D01*
X38560836Y-36987454D01*
X38486472Y-36963291D01*
X38439195Y-36947930D01*
X38381521Y-36908493D01*
X38354323Y-36844134D01*
X38366238Y-36775288D01*
X38413482Y-36723812D01*
X38439194Y-36712069D01*
X38560832Y-36672547D01*
X38729199Y-36586760D01*
X38882073Y-36475690D01*
X39015690Y-36342073D01*
X39126760Y-36189199D01*
X39212547Y-36020832D01*
X39270940Y-35841118D01*
X39300500Y-35654486D01*
X39300500Y-35465513D01*
X39270940Y-35278881D01*
X39212545Y-35099163D01*
X39126759Y-34930800D01*
X39015690Y-34777927D01*
X38882073Y-34644310D01*
X38729199Y-34533240D01*
X38560836Y-34447454D01*
X38486472Y-34423291D01*
X38439195Y-34407930D01*
X38381521Y-34368493D01*
X38354323Y-34304134D01*
X38366238Y-34235288D01*
X38413482Y-34183812D01*
X38439194Y-34172069D01*
X38560832Y-34132547D01*
X38729199Y-34046760D01*
X38882073Y-33935690D01*
X39015690Y-33802073D01*
X39126760Y-33649199D01*
X39212547Y-33480832D01*
X39270940Y-33301118D01*
X39300500Y-33114486D01*
X39300500Y-32925513D01*
X39270940Y-32738881D01*
X39243846Y-32655497D01*
X39212547Y-32559168D01*
X39212545Y-32559165D01*
X39212545Y-32559163D01*
X39163202Y-32462322D01*
X39126760Y-32390801D01*
X39015690Y-32237927D01*
X38882073Y-32104310D01*
X38729199Y-31993240D01*
X38560836Y-31907454D01*
X38486472Y-31883291D01*
X38439195Y-31867930D01*
X38381521Y-31828493D01*
X38354323Y-31764134D01*
X38366238Y-31695288D01*
X38413482Y-31643812D01*
X38439194Y-31632069D01*
X38560832Y-31592547D01*
X38729199Y-31506760D01*
X38882073Y-31395690D01*
X39015690Y-31262073D01*
X39126760Y-31109199D01*
X39212547Y-30940832D01*
X39270940Y-30761118D01*
X39300500Y-30574486D01*
X39300500Y-30385513D01*
X39270940Y-30198881D01*
X39212545Y-30019163D01*
X39126759Y-29850800D01*
X39015690Y-29697927D01*
X38882073Y-29564310D01*
X38729199Y-29453240D01*
X38560836Y-29367454D01*
X38456574Y-29333577D01*
X38438386Y-29327667D01*
X38380712Y-29288230D01*
X38353514Y-29223871D01*
X38365429Y-29155025D01*
X38412673Y-29103549D01*
X38438389Y-29091806D01*
X38560635Y-29052086D01*
X38728937Y-28966331D01*
X38795284Y-28918126D01*
X38795285Y-28918126D01*
X38285178Y-28408019D01*
X38292993Y-28405925D01*
X38407007Y-28340099D01*
X38500099Y-28247007D01*
X38565925Y-28132993D01*
X38568019Y-28125178D01*
X39078126Y-28635285D01*
X39078126Y-28635284D01*
X39126331Y-28568937D01*
X39212085Y-28400637D01*
X39270451Y-28221002D01*
X39300000Y-28034447D01*
X39300000Y-27845552D01*
X39270451Y-27658997D01*
X39212085Y-27479362D01*
X39126329Y-27311059D01*
X39078127Y-27244714D01*
X39078126Y-27244713D01*
X38568018Y-27754821D01*
X38565925Y-27747007D01*
X38500099Y-27632993D01*
X38407007Y-27539901D01*
X38292993Y-27474075D01*
X38285176Y-27471980D01*
X38795284Y-26961872D01*
X38728933Y-26913666D01*
X38560637Y-26827914D01*
X38438388Y-26788193D01*
X38380712Y-26748755D01*
X38353514Y-26684397D01*
X38365429Y-26615550D01*
X38412673Y-26564075D01*
X38438382Y-26552333D01*
X38560832Y-26512547D01*
X38729199Y-26426760D01*
X38882073Y-26315690D01*
X39015690Y-26182073D01*
X39126760Y-26029199D01*
X39212547Y-25860832D01*
X39270940Y-25681118D01*
X39300500Y-25494486D01*
X39300500Y-25305513D01*
X39270940Y-25118881D01*
X39212545Y-24939163D01*
X39126759Y-24770800D01*
X39015690Y-24617927D01*
X38882073Y-24484310D01*
X38729199Y-24373240D01*
X38560836Y-24287454D01*
X38486472Y-24263291D01*
X38439195Y-24247930D01*
X38381521Y-24208493D01*
X38354323Y-24144134D01*
X38366238Y-24075288D01*
X38413482Y-24023812D01*
X38439194Y-24012069D01*
X38560832Y-23972547D01*
X38729199Y-23886760D01*
X38882073Y-23775690D01*
X39015690Y-23642073D01*
X39126760Y-23489199D01*
X39212547Y-23320832D01*
X39270940Y-23141118D01*
X39300500Y-22954486D01*
X39300500Y-22765513D01*
X39270940Y-22578881D01*
X39212545Y-22399163D01*
X39126759Y-22230800D01*
X39015690Y-22077927D01*
X38882073Y-21944310D01*
X38729199Y-21833240D01*
X38560836Y-21747454D01*
X38486472Y-21723291D01*
X38439195Y-21707930D01*
X38381521Y-21668493D01*
X38354323Y-21604134D01*
X38366238Y-21535288D01*
X38413482Y-21483812D01*
X38439194Y-21472069D01*
X38560832Y-21432547D01*
X38729199Y-21346760D01*
X38882073Y-21235690D01*
X39015690Y-21102073D01*
X39126760Y-20949199D01*
X39212547Y-20780832D01*
X39270940Y-20601118D01*
X39287560Y-20496182D01*
X39300500Y-20414486D01*
X39300500Y-20225513D01*
X39270940Y-20038881D01*
X39212545Y-19859163D01*
X39126759Y-19690800D01*
X39015690Y-19537927D01*
X38882073Y-19404310D01*
X38729199Y-19293240D01*
X38560836Y-19207454D01*
X38486472Y-19183291D01*
X38439195Y-19167930D01*
X38381521Y-19128493D01*
X38354323Y-19064134D01*
X38366238Y-18995288D01*
X38413482Y-18943812D01*
X38439194Y-18932069D01*
X38560832Y-18892547D01*
X38729199Y-18806760D01*
X38882073Y-18695690D01*
X39015690Y-18562073D01*
X39126760Y-18409199D01*
X39212547Y-18240832D01*
X39270940Y-18061118D01*
X39300500Y-17874486D01*
X39300500Y-17685513D01*
X39270940Y-17498881D01*
X39212545Y-17319163D01*
X39126759Y-17150800D01*
X39015690Y-16997927D01*
X38882073Y-16864310D01*
X38729199Y-16753240D01*
X38560836Y-16667454D01*
X38486472Y-16643291D01*
X38439195Y-16627930D01*
X38381521Y-16588493D01*
X38354323Y-16524134D01*
X38366238Y-16455288D01*
X38413482Y-16403812D01*
X38439194Y-16392069D01*
X38560832Y-16352547D01*
X38729199Y-16266760D01*
X38882073Y-16155690D01*
X39015690Y-16022073D01*
X39126760Y-15869199D01*
X39212547Y-15700832D01*
X39270940Y-15521118D01*
X39300500Y-15334486D01*
X39300500Y-15145513D01*
X39270940Y-14958881D01*
X39212545Y-14779163D01*
X39126759Y-14610800D01*
X39015690Y-14457927D01*
X38882073Y-14324310D01*
X38729199Y-14213240D01*
X38560836Y-14127454D01*
X38438387Y-14087668D01*
X38380712Y-14048230D01*
X38353514Y-13983871D01*
X38365429Y-13915025D01*
X38412673Y-13863549D01*
X38438389Y-13851806D01*
X38560635Y-13812086D01*
X38728937Y-13726331D01*
X38795284Y-13678126D01*
X38795285Y-13678126D01*
X38285178Y-13168019D01*
X38292993Y-13165925D01*
X38407007Y-13100099D01*
X38500099Y-13007007D01*
X38565925Y-12892993D01*
X38568019Y-12885178D01*
X39078126Y-13395285D01*
X39078126Y-13395284D01*
X39126331Y-13328937D01*
X39212085Y-13160637D01*
X39270451Y-12981002D01*
X39300000Y-12794447D01*
X39300000Y-12605552D01*
X39270451Y-12418997D01*
X39212085Y-12239362D01*
X39126329Y-12071059D01*
X39078127Y-12004714D01*
X39078126Y-12004713D01*
X38568018Y-12514821D01*
X38565925Y-12507007D01*
X38500099Y-12392993D01*
X38407007Y-12299901D01*
X38292993Y-12234075D01*
X38285177Y-12231980D01*
X38795284Y-11721872D01*
X38728933Y-11673666D01*
X38560637Y-11587914D01*
X38381002Y-11529548D01*
X38194447Y-11500000D01*
X38005553Y-11500000D01*
X37818997Y-11529548D01*
X37639362Y-11587914D01*
X37471064Y-11673667D01*
X37471062Y-11673668D01*
X37404714Y-11721871D01*
X37404714Y-11721872D01*
X37914822Y-12231980D01*
X37907007Y-12234075D01*
X37792993Y-12299901D01*
X37699901Y-12392993D01*
X37634075Y-12507007D01*
X37631980Y-12514822D01*
X37121872Y-12004714D01*
X37121871Y-12004714D01*
X37073668Y-12071062D01*
X37073664Y-12071069D01*
X37034484Y-12147964D01*
X36986510Y-12198759D01*
X36918689Y-12215554D01*
X36852554Y-12193016D01*
X36809103Y-12138301D01*
X36800000Y-12091668D01*
X36800000Y-1124000D01*
X36819685Y-1056961D01*
X36872489Y-1011206D01*
X36924000Y-1000000D01*
X89876000Y-1000000D01*
X89943039Y-1019685D01*
X89988794Y-1072489D01*
X90000000Y-1124000D01*
X90000000Y-51000000D01*
X135000000Y-51000000D01*
X135000000Y-4958711D01*
X145469500Y-4958711D01*
X145469500Y-5201288D01*
X145501161Y-5441785D01*
X145563947Y-5676104D01*
X145656773Y-5900205D01*
X145656776Y-5900212D01*
X145778064Y-6110289D01*
X145778066Y-6110292D01*
X145778067Y-6110293D01*
X145925733Y-6302736D01*
X145925739Y-6302743D01*
X146097256Y-6474260D01*
X146097262Y-6474265D01*
X146289711Y-6621936D01*
X146499788Y-6743224D01*
X146723900Y-6836054D01*
X146958211Y-6898838D01*
X147138586Y-6922584D01*
X147198711Y-6930500D01*
X147198712Y-6930500D01*
X147441289Y-6930500D01*
X147489388Y-6924167D01*
X147681789Y-6898838D01*
X147916100Y-6836054D01*
X148140212Y-6743224D01*
X148350289Y-6621936D01*
X148542738Y-6474265D01*
X148714265Y-6302738D01*
X148861936Y-6110289D01*
X148983224Y-5900212D01*
X149076054Y-5676100D01*
X149138838Y-5441789D01*
X149170500Y-5201288D01*
X149170500Y-4958712D01*
X149138838Y-4718211D01*
X149076054Y-4483900D01*
X148983224Y-4259788D01*
X148861936Y-4049711D01*
X148714265Y-3857262D01*
X148714260Y-3857256D01*
X148542743Y-3685739D01*
X148542736Y-3685733D01*
X148350293Y-3538067D01*
X148350292Y-3538066D01*
X148350289Y-3538064D01*
X148140212Y-3416776D01*
X148140205Y-3416773D01*
X147916104Y-3323947D01*
X147681785Y-3261161D01*
X147441289Y-3229500D01*
X147441288Y-3229500D01*
X147198712Y-3229500D01*
X147198711Y-3229500D01*
X146958214Y-3261161D01*
X146723895Y-3323947D01*
X146499794Y-3416773D01*
X146499785Y-3416777D01*
X146289706Y-3538067D01*
X146097263Y-3685733D01*
X146097256Y-3685739D01*
X145925739Y-3857256D01*
X145925733Y-3857263D01*
X145778067Y-4049706D01*
X145656777Y-4259785D01*
X145656773Y-4259794D01*
X145563947Y-4483895D01*
X145501161Y-4718214D01*
X145469500Y-4958711D01*
X135000000Y-4958711D01*
X135000000Y-1124000D01*
X135019685Y-1056961D01*
X135072489Y-1011206D01*
X135124000Y-1000000D01*
X151276000Y-1000000D01*
X151343039Y-1019685D01*
X151388794Y-1072489D01*
X151400000Y-1124000D01*
X151400000Y-125876000D01*
X151380315Y-125943039D01*
X151327511Y-125988794D01*
X151276000Y-126000000D01*
X1124000Y-126000000D01*
X1056961Y-125980315D01*
X1011206Y-125927511D01*
X1000000Y-125876000D01*
X1000000Y-121798711D01*
X3229500Y-121798711D01*
X3229500Y-122041288D01*
X3261161Y-122281785D01*
X3323947Y-122516104D01*
X3416773Y-122740205D01*
X3416776Y-122740212D01*
X3538064Y-122950289D01*
X3538066Y-122950292D01*
X3538067Y-122950293D01*
X3685733Y-123142736D01*
X3685739Y-123142743D01*
X3857256Y-123314260D01*
X3857262Y-123314265D01*
X4049711Y-123461936D01*
X4259788Y-123583224D01*
X4483900Y-123676054D01*
X4718211Y-123738838D01*
X4898586Y-123762584D01*
X4958711Y-123770500D01*
X4958712Y-123770500D01*
X5201289Y-123770500D01*
X5249388Y-123764167D01*
X5441789Y-123738838D01*
X5676100Y-123676054D01*
X5900212Y-123583224D01*
X6110289Y-123461936D01*
X6302738Y-123314265D01*
X6474265Y-123142738D01*
X6621936Y-122950289D01*
X6743224Y-122740212D01*
X6836054Y-122516100D01*
X6898838Y-122281789D01*
X6930500Y-122041288D01*
X6930500Y-121798712D01*
X6930500Y-121798711D01*
X145469500Y-121798711D01*
X145469500Y-122041288D01*
X145501161Y-122281785D01*
X145563947Y-122516104D01*
X145656773Y-122740205D01*
X145656776Y-122740212D01*
X145778064Y-122950289D01*
X145778066Y-122950292D01*
X145778067Y-122950293D01*
X145925733Y-123142736D01*
X145925739Y-123142743D01*
X146097256Y-123314260D01*
X146097262Y-123314265D01*
X146289711Y-123461936D01*
X146499788Y-123583224D01*
X146723900Y-123676054D01*
X146958211Y-123738838D01*
X147138586Y-123762584D01*
X147198711Y-123770500D01*
X147198712Y-123770500D01*
X147441289Y-123770500D01*
X147489388Y-123764167D01*
X147681789Y-123738838D01*
X147916100Y-123676054D01*
X148140212Y-123583224D01*
X148350289Y-123461936D01*
X148542738Y-123314265D01*
X148714265Y-123142738D01*
X148861936Y-122950289D01*
X148983224Y-122740212D01*
X149076054Y-122516100D01*
X149138838Y-122281789D01*
X149170500Y-122041288D01*
X149170500Y-121798712D01*
X149138838Y-121558211D01*
X149076054Y-121323900D01*
X148983224Y-121099788D01*
X148861936Y-120889711D01*
X148714265Y-120697262D01*
X148714260Y-120697256D01*
X148542743Y-120525739D01*
X148542736Y-120525733D01*
X148350293Y-120378067D01*
X148350292Y-120378066D01*
X148350289Y-120378064D01*
X148140212Y-120256776D01*
X148140205Y-120256773D01*
X147916104Y-120163947D01*
X147681785Y-120101161D01*
X147441289Y-120069500D01*
X147441288Y-120069500D01*
X147198712Y-120069500D01*
X147198711Y-120069500D01*
X146958214Y-120101161D01*
X146723895Y-120163947D01*
X146499794Y-120256773D01*
X146499785Y-120256777D01*
X146289706Y-120378067D01*
X146097263Y-120525733D01*
X146097256Y-120525739D01*
X145925739Y-120697256D01*
X145925733Y-120697263D01*
X145778067Y-120889706D01*
X145656777Y-121099785D01*
X145656773Y-121099794D01*
X145563947Y-121323895D01*
X145501161Y-121558214D01*
X145469500Y-121798711D01*
X6930500Y-121798711D01*
X6898838Y-121558211D01*
X6836054Y-121323900D01*
X6743224Y-121099788D01*
X6621936Y-120889711D01*
X6474265Y-120697262D01*
X6474260Y-120697256D01*
X6302743Y-120525739D01*
X6302736Y-120525733D01*
X6110293Y-120378067D01*
X6110292Y-120378066D01*
X6110289Y-120378064D01*
X5900212Y-120256776D01*
X5900205Y-120256773D01*
X5676104Y-120163947D01*
X5441785Y-120101161D01*
X5201289Y-120069500D01*
X5201288Y-120069500D01*
X4958712Y-120069500D01*
X4958711Y-120069500D01*
X4718214Y-120101161D01*
X4483895Y-120163947D01*
X4259794Y-120256773D01*
X4259785Y-120256777D01*
X4049706Y-120378067D01*
X3857263Y-120525733D01*
X3857256Y-120525739D01*
X3685739Y-120697256D01*
X3685733Y-120697263D01*
X3538067Y-120889706D01*
X3416777Y-121099785D01*
X3416773Y-121099794D01*
X3323947Y-121323895D01*
X3261161Y-121558214D01*
X3229500Y-121798711D01*
X1000000Y-121798711D01*
X1000000Y-90495131D01*
X11499500Y-90495131D01*
X11499500Y-92384856D01*
X11499502Y-92384882D01*
X11502413Y-92409987D01*
X11502415Y-92409991D01*
X11547793Y-92512764D01*
X11547794Y-92512765D01*
X11627235Y-92592206D01*
X11730009Y-92637585D01*
X11755135Y-92640500D01*
X12125500Y-92640499D01*
X12192539Y-92660183D01*
X12238294Y-92712987D01*
X12249500Y-92764499D01*
X12249500Y-101151308D01*
X12268126Y-101220822D01*
X12268126Y-101220823D01*
X12280199Y-101265884D01*
X12280201Y-101265887D01*
X12339511Y-101368614D01*
X12339513Y-101368616D01*
X13698716Y-102727819D01*
X13732201Y-102789142D01*
X13727217Y-102858834D01*
X13685345Y-102914767D01*
X13619881Y-102939184D01*
X13611035Y-102939500D01*
X11755143Y-102939500D01*
X11755117Y-102939502D01*
X11730012Y-102942413D01*
X11730008Y-102942415D01*
X11627235Y-102987793D01*
X11547794Y-103067234D01*
X11502415Y-103170006D01*
X11502415Y-103170008D01*
X11499500Y-103195131D01*
X11499500Y-105084856D01*
X11499502Y-105084882D01*
X11502413Y-105109987D01*
X11502415Y-105109991D01*
X11547793Y-105212764D01*
X11547794Y-105212765D01*
X11627235Y-105292206D01*
X11730009Y-105337585D01*
X11755135Y-105340500D01*
X13644864Y-105340499D01*
X13644879Y-105340497D01*
X13644882Y-105340497D01*
X13669987Y-105337586D01*
X13669988Y-105337585D01*
X13669991Y-105337585D01*
X13772765Y-105292206D01*
X13852206Y-105212765D01*
X13897585Y-105109991D01*
X13900500Y-105084865D01*
X13900499Y-104671906D01*
X13920183Y-104604870D01*
X13972987Y-104559115D01*
X14042146Y-104549171D01*
X14105702Y-104578196D01*
X14134984Y-104615614D01*
X14160449Y-104665591D01*
X14213240Y-104769199D01*
X14324310Y-104922073D01*
X14457927Y-105055690D01*
X14610801Y-105166760D01*
X14690347Y-105207290D01*
X14779163Y-105252545D01*
X14779165Y-105252545D01*
X14779168Y-105252547D01*
X14875497Y-105283846D01*
X14958881Y-105310940D01*
X15145514Y-105340500D01*
X15145519Y-105340500D01*
X15334486Y-105340500D01*
X15521118Y-105310940D01*
X15546496Y-105302694D01*
X15700832Y-105252547D01*
X15869199Y-105166760D01*
X16022073Y-105055690D01*
X16155690Y-104922073D01*
X16266760Y-104769199D01*
X16352547Y-104600832D01*
X16392332Y-104478385D01*
X16431768Y-104420713D01*
X16496127Y-104393514D01*
X16564973Y-104405429D01*
X16616449Y-104452673D01*
X16628193Y-104478388D01*
X16667914Y-104600637D01*
X16753666Y-104768933D01*
X16801872Y-104835284D01*
X17311980Y-104325176D01*
X17314075Y-104332993D01*
X17379901Y-104447007D01*
X17472993Y-104540099D01*
X17587007Y-104605925D01*
X17594822Y-104608019D01*
X17084713Y-105118126D01*
X17084714Y-105118127D01*
X17151059Y-105166329D01*
X17319362Y-105252085D01*
X17498997Y-105310451D01*
X17685553Y-105340000D01*
X17874447Y-105340000D01*
X18061002Y-105310451D01*
X18240637Y-105252085D01*
X18408937Y-105166331D01*
X18475284Y-105118126D01*
X18475285Y-105118126D01*
X17965178Y-104608019D01*
X17972993Y-104605925D01*
X18087007Y-104540099D01*
X18180099Y-104447007D01*
X18245925Y-104332993D01*
X18248019Y-104325177D01*
X18758126Y-104835285D01*
X18758126Y-104835284D01*
X18806331Y-104768937D01*
X18892085Y-104600637D01*
X18950451Y-104421002D01*
X18980000Y-104234447D01*
X18980000Y-104045552D01*
X18950451Y-103858997D01*
X18892085Y-103679362D01*
X18806329Y-103511059D01*
X18758127Y-103444714D01*
X18758126Y-103444713D01*
X18248018Y-103954821D01*
X18245925Y-103947007D01*
X18180099Y-103832993D01*
X18087007Y-103739901D01*
X17972993Y-103674075D01*
X17965177Y-103671980D01*
X18475284Y-103161872D01*
X18408933Y-103113666D01*
X18240637Y-103027914D01*
X18061002Y-102969548D01*
X17874447Y-102940000D01*
X17685553Y-102940000D01*
X17498997Y-102969548D01*
X17319362Y-103027914D01*
X17151064Y-103113667D01*
X17151062Y-103113668D01*
X17084714Y-103161871D01*
X17084714Y-103161872D01*
X17594822Y-103671980D01*
X17587007Y-103674075D01*
X17472993Y-103739901D01*
X17379901Y-103832993D01*
X17314075Y-103947007D01*
X17311980Y-103954822D01*
X16801872Y-103444714D01*
X16801871Y-103444714D01*
X16753668Y-103511062D01*
X16753667Y-103511064D01*
X16667915Y-103679361D01*
X16628193Y-103801612D01*
X16588755Y-103859287D01*
X16524396Y-103886485D01*
X16455550Y-103874570D01*
X16404074Y-103827326D01*
X16392332Y-103801614D01*
X16352547Y-103679168D01*
X16266760Y-103510801D01*
X16155690Y-103357927D01*
X16022073Y-103224310D01*
X15869199Y-103113240D01*
X15700836Y-103027454D01*
X15521118Y-102969059D01*
X15334486Y-102939500D01*
X15334481Y-102939500D01*
X15145519Y-102939500D01*
X15145514Y-102939500D01*
X14958880Y-102969060D01*
X14958877Y-102969060D01*
X14840406Y-103007554D01*
X14770564Y-103009549D01*
X14714407Y-102977304D01*
X14710819Y-102973716D01*
X14677334Y-102912393D01*
X14674500Y-102886035D01*
X14674500Y-102556693D01*
X14674500Y-102556691D01*
X14643799Y-102442114D01*
X14602012Y-102369737D01*
X14584489Y-102339386D01*
X13186819Y-100941716D01*
X13153334Y-100880393D01*
X13150500Y-100854035D01*
X13150500Y-92764499D01*
X13170185Y-92697460D01*
X13222989Y-92651705D01*
X13274500Y-92640499D01*
X13644856Y-92640499D01*
X13644864Y-92640499D01*
X13644879Y-92640497D01*
X13644882Y-92640497D01*
X13669987Y-92637586D01*
X13669988Y-92637585D01*
X13669991Y-92637585D01*
X13772765Y-92592206D01*
X13852206Y-92512765D01*
X13897585Y-92409991D01*
X13900500Y-92384865D01*
X13900499Y-91345552D01*
X19120000Y-91345552D01*
X19120000Y-91534447D01*
X19149548Y-91721002D01*
X19207914Y-91900637D01*
X19293666Y-92068933D01*
X19341872Y-92135284D01*
X19851980Y-91625176D01*
X19854075Y-91632993D01*
X19919901Y-91747007D01*
X20012993Y-91840099D01*
X20127007Y-91905925D01*
X20134822Y-91908019D01*
X19624713Y-92418126D01*
X19624714Y-92418127D01*
X19691059Y-92466329D01*
X19859362Y-92552085D01*
X20038997Y-92610451D01*
X20225553Y-92640000D01*
X20414447Y-92640000D01*
X20601002Y-92610451D01*
X20780637Y-92552085D01*
X20948937Y-92466331D01*
X21015284Y-92418126D01*
X21015285Y-92418126D01*
X20505178Y-91908019D01*
X20512993Y-91905925D01*
X20627007Y-91840099D01*
X20720099Y-91747007D01*
X20785925Y-91632993D01*
X20788019Y-91625178D01*
X21298126Y-92135285D01*
X21298126Y-92135284D01*
X21346331Y-92068937D01*
X21432085Y-91900637D01*
X21490451Y-91721002D01*
X21520000Y-91534447D01*
X21520000Y-91345552D01*
X21490451Y-91158997D01*
X21432085Y-90979362D01*
X21346329Y-90811059D01*
X21298127Y-90744714D01*
X21298126Y-90744713D01*
X20788018Y-91254821D01*
X20785925Y-91247007D01*
X20720099Y-91132993D01*
X20627007Y-91039901D01*
X20512993Y-90974075D01*
X20505177Y-90971980D01*
X21015284Y-90461872D01*
X20948933Y-90413666D01*
X20780637Y-90327914D01*
X20601002Y-90269548D01*
X20414447Y-90240000D01*
X20225553Y-90240000D01*
X20038997Y-90269548D01*
X19859362Y-90327914D01*
X19691064Y-90413667D01*
X19691062Y-90413668D01*
X19624714Y-90461871D01*
X19624714Y-90461872D01*
X20134822Y-90971980D01*
X20127007Y-90974075D01*
X20012993Y-91039901D01*
X19919901Y-91132993D01*
X19854075Y-91247007D01*
X19851980Y-91254822D01*
X19341872Y-90744714D01*
X19341871Y-90744714D01*
X19293668Y-90811062D01*
X19293667Y-90811064D01*
X19207914Y-90979362D01*
X19149548Y-91158997D01*
X19120000Y-91345552D01*
X13900499Y-91345552D01*
X13900499Y-90495136D01*
X13900497Y-90495117D01*
X13897586Y-90470012D01*
X13897585Y-90470010D01*
X13897585Y-90470009D01*
X13852206Y-90367235D01*
X13772765Y-90287794D01*
X13731442Y-90269548D01*
X13669992Y-90242415D01*
X13644865Y-90239500D01*
X11755143Y-90239500D01*
X11755117Y-90239502D01*
X11730012Y-90242413D01*
X11730008Y-90242415D01*
X11627235Y-90287793D01*
X11547794Y-90367234D01*
X11502415Y-90470006D01*
X11502415Y-90470008D01*
X11499500Y-90495131D01*
X1000000Y-90495131D01*
X1000000Y-4958711D01*
X3229500Y-4958711D01*
X3229500Y-5201288D01*
X3261161Y-5441785D01*
X3323947Y-5676104D01*
X3416773Y-5900205D01*
X3416776Y-5900212D01*
X3538064Y-6110289D01*
X3538066Y-6110292D01*
X3538067Y-6110293D01*
X3685733Y-6302736D01*
X3685739Y-6302743D01*
X3857256Y-6474260D01*
X3857262Y-6474265D01*
X4049711Y-6621936D01*
X4259788Y-6743224D01*
X4483900Y-6836054D01*
X4718211Y-6898838D01*
X4898586Y-6922584D01*
X4958711Y-6930500D01*
X4958712Y-6930500D01*
X5201289Y-6930500D01*
X5249388Y-6924167D01*
X5441789Y-6898838D01*
X5676100Y-6836054D01*
X5900212Y-6743224D01*
X6110289Y-6621936D01*
X6302738Y-6474265D01*
X6474265Y-6302738D01*
X6621936Y-6110289D01*
X6743224Y-5900212D01*
X6836054Y-5676100D01*
X6898838Y-5441789D01*
X6930500Y-5201288D01*
X6930500Y-4958712D01*
X6898838Y-4718211D01*
X6836054Y-4483900D01*
X6743224Y-4259788D01*
X6621936Y-4049711D01*
X6474265Y-3857262D01*
X6474260Y-3857256D01*
X6302743Y-3685739D01*
X6302736Y-3685733D01*
X6110293Y-3538067D01*
X6110292Y-3538066D01*
X6110289Y-3538064D01*
X5900212Y-3416776D01*
X5900205Y-3416773D01*
X5676104Y-3323947D01*
X5441785Y-3261161D01*
X5201289Y-3229500D01*
X5201288Y-3229500D01*
X4958712Y-3229500D01*
X4958711Y-3229500D01*
X4718214Y-3261161D01*
X4483895Y-3323947D01*
X4259794Y-3416773D01*
X4259785Y-3416777D01*
X4049706Y-3538067D01*
X3857263Y-3685733D01*
X3857256Y-3685739D01*
X3685739Y-3857256D01*
X3685733Y-3857263D01*
X3538067Y-4049706D01*
X3416777Y-4259785D01*
X3416773Y-4259794D01*
X3323947Y-4483895D01*
X3261161Y-4718214D01*
X3229500Y-4958711D01*
X1000000Y-4958711D01*
X1000000Y-1124000D01*
X1019685Y-1056961D01*
X1072489Y-1011206D01*
X1124000Y-1000000D01*
X13876000Y-1000000D01*
X13943039Y-1019685D01*
G37*
%TD.AperFunction*%
%TA.AperFunction,Conductor*%
G36*
X80520620Y-83386549D02*
G01*
X80576553Y-83428421D01*
X80598903Y-83478540D01*
X80606418Y-83516320D01*
X80606421Y-83516332D01*
X80659221Y-83643804D01*
X80659228Y-83643817D01*
X80735884Y-83758540D01*
X80735885Y-83758541D01*
X80735886Y-83758542D01*
X80793182Y-83815838D01*
X80826666Y-83877159D01*
X80829500Y-83903518D01*
X80829500Y-86436200D01*
X80809815Y-86503239D01*
X80761795Y-86546684D01*
X80650805Y-86603236D01*
X80551402Y-86675458D01*
X80497927Y-86714310D01*
X80497925Y-86714312D01*
X80497924Y-86714312D01*
X80364312Y-86847924D01*
X80364312Y-86847925D01*
X80364310Y-86847927D01*
X80331431Y-86893181D01*
X80253240Y-87000800D01*
X80174484Y-87155368D01*
X80126509Y-87206164D01*
X80058688Y-87222959D01*
X79992553Y-87200422D01*
X79949102Y-87145706D01*
X79939999Y-87099073D01*
X79939999Y-86712843D01*
X79939998Y-86712842D01*
X79208019Y-87444822D01*
X79205925Y-87437007D01*
X79140099Y-87322993D01*
X79047007Y-87229901D01*
X78932993Y-87164075D01*
X78925175Y-87161980D01*
X79657155Y-86430000D01*
X77795205Y-86430000D01*
X77793646Y-86430091D01*
X77793258Y-86430000D01*
X77791628Y-86430001D01*
X77791628Y-86429622D01*
X77725583Y-86414302D01*
X77676861Y-86364223D01*
X77662500Y-86306297D01*
X77662500Y-86193518D01*
X77682185Y-86126479D01*
X77698814Y-86105842D01*
X80389607Y-83415048D01*
X80450928Y-83381565D01*
X80520620Y-83386549D01*
G37*
%TD.AperFunction*%
%TA.AperFunction,Conductor*%
G36*
X37634075Y-12892993D02*
G01*
X37699901Y-13007007D01*
X37792993Y-13100099D01*
X37907007Y-13165925D01*
X37914822Y-13168019D01*
X37404713Y-13678126D01*
X37404714Y-13678127D01*
X37471059Y-13726329D01*
X37639362Y-13812085D01*
X37761611Y-13851806D01*
X37819286Y-13891243D01*
X37846485Y-13955602D01*
X37834571Y-14024448D01*
X37787327Y-14075924D01*
X37761612Y-14087668D01*
X37639163Y-14127454D01*
X37470800Y-14213240D01*
X37383579Y-14276610D01*
X37317927Y-14324310D01*
X37317925Y-14324312D01*
X37317924Y-14324312D01*
X37184312Y-14457924D01*
X37184312Y-14457925D01*
X37184310Y-14457927D01*
X37136610Y-14523579D01*
X37073240Y-14610800D01*
X36987454Y-14779163D01*
X36929059Y-14958881D01*
X36899500Y-15145513D01*
X36899500Y-15334486D01*
X36929059Y-15521118D01*
X36987454Y-15700836D01*
X37073240Y-15869199D01*
X37184310Y-16022073D01*
X37317927Y-16155690D01*
X37470801Y-16266760D01*
X37550347Y-16307290D01*
X37639163Y-16352545D01*
X37639165Y-16352545D01*
X37639168Y-16352547D01*
X37728734Y-16381649D01*
X37760803Y-16392069D01*
X37818478Y-16431507D01*
X37845676Y-16495866D01*
X37833761Y-16564712D01*
X37786516Y-16616188D01*
X37760803Y-16627931D01*
X37639163Y-16667454D01*
X37470800Y-16753240D01*
X37383579Y-16816610D01*
X37317927Y-16864310D01*
X37317925Y-16864312D01*
X37317924Y-16864312D01*
X37184312Y-16997924D01*
X37184312Y-16997925D01*
X37184310Y-16997927D01*
X37136610Y-17063579D01*
X37073240Y-17150800D01*
X36987454Y-17319163D01*
X36929059Y-17498881D01*
X36899500Y-17685513D01*
X36899500Y-17874486D01*
X36929059Y-18061118D01*
X36987454Y-18240836D01*
X37073240Y-18409199D01*
X37184310Y-18562073D01*
X37317927Y-18695690D01*
X37470801Y-18806760D01*
X37550347Y-18847290D01*
X37639163Y-18892545D01*
X37639165Y-18892545D01*
X37639168Y-18892547D01*
X37728734Y-18921649D01*
X37760803Y-18932069D01*
X37818478Y-18971507D01*
X37845676Y-19035866D01*
X37833761Y-19104712D01*
X37786516Y-19156188D01*
X37760803Y-19167931D01*
X37639163Y-19207454D01*
X37470800Y-19293240D01*
X37383579Y-19356610D01*
X37317927Y-19404310D01*
X37317925Y-19404312D01*
X37317924Y-19404312D01*
X37184312Y-19537924D01*
X37184312Y-19537925D01*
X37184310Y-19537927D01*
X37136610Y-19603579D01*
X37073240Y-19690800D01*
X36987454Y-19859163D01*
X36929059Y-20038881D01*
X36899500Y-20225513D01*
X36899500Y-20414486D01*
X36929059Y-20601118D01*
X36987454Y-20780836D01*
X37062294Y-20927716D01*
X37073240Y-20949199D01*
X37184310Y-21102073D01*
X37317927Y-21235690D01*
X37470801Y-21346760D01*
X37550347Y-21387290D01*
X37639163Y-21432545D01*
X37639165Y-21432545D01*
X37639168Y-21432547D01*
X37689122Y-21448778D01*
X37760803Y-21472069D01*
X37818478Y-21511507D01*
X37845676Y-21575866D01*
X37833761Y-21644712D01*
X37786516Y-21696188D01*
X37760803Y-21707931D01*
X37639163Y-21747454D01*
X37470800Y-21833240D01*
X37383579Y-21896610D01*
X37317927Y-21944310D01*
X37317925Y-21944312D01*
X37317924Y-21944312D01*
X37184312Y-22077924D01*
X37184312Y-22077925D01*
X37184310Y-22077927D01*
X37136610Y-22143579D01*
X37073240Y-22230800D01*
X36987454Y-22399163D01*
X36929059Y-22578881D01*
X36899500Y-22765513D01*
X36899500Y-22954486D01*
X36929059Y-23141118D01*
X36987454Y-23320836D01*
X37073240Y-23489199D01*
X37184310Y-23642073D01*
X37317927Y-23775690D01*
X37470801Y-23886760D01*
X37550347Y-23927290D01*
X37639163Y-23972545D01*
X37639165Y-23972545D01*
X37639168Y-23972547D01*
X37728734Y-24001649D01*
X37760803Y-24012069D01*
X37818478Y-24051507D01*
X37845676Y-24115866D01*
X37833761Y-24184712D01*
X37786516Y-24236188D01*
X37760803Y-24247931D01*
X37639163Y-24287454D01*
X37470800Y-24373240D01*
X37383579Y-24436610D01*
X37317927Y-24484310D01*
X37317925Y-24484312D01*
X37317924Y-24484312D01*
X37184312Y-24617924D01*
X37184312Y-24617925D01*
X37184310Y-24617927D01*
X37136610Y-24683579D01*
X37073240Y-24770800D01*
X36987454Y-24939163D01*
X36929059Y-25118881D01*
X36899500Y-25305513D01*
X36899500Y-25494486D01*
X36929060Y-25681119D01*
X36929060Y-25681122D01*
X36967554Y-25799592D01*
X36969549Y-25869433D01*
X36937304Y-25925591D01*
X36215513Y-26647383D01*
X36215509Y-26647389D01*
X36156201Y-26750112D01*
X36156200Y-26750117D01*
X36125500Y-26864691D01*
X36125500Y-52969035D01*
X36105815Y-53036074D01*
X36053011Y-53081829D01*
X35983853Y-53091773D01*
X35920297Y-53062748D01*
X35913819Y-53056716D01*
X13862694Y-31005591D01*
X13829209Y-30944268D01*
X13832444Y-30879593D01*
X13870940Y-30761118D01*
X13886169Y-30664963D01*
X13900500Y-30574486D01*
X13900500Y-30385513D01*
X13870940Y-30198881D01*
X13812545Y-30019163D01*
X13726759Y-29850800D01*
X13615690Y-29697927D01*
X13482073Y-29564310D01*
X13329199Y-29453240D01*
X13160836Y-29367454D01*
X13086472Y-29343291D01*
X13039195Y-29327930D01*
X12981521Y-29288493D01*
X12954323Y-29224134D01*
X12966238Y-29155288D01*
X13013482Y-29103812D01*
X13039194Y-29092069D01*
X13160832Y-29052547D01*
X13329199Y-28966760D01*
X13482073Y-28855690D01*
X13615690Y-28722073D01*
X13726760Y-28569199D01*
X13812547Y-28400832D01*
X13870940Y-28221118D01*
X13870958Y-28221002D01*
X13900500Y-28034486D01*
X13900500Y-27845513D01*
X13870940Y-27658881D01*
X13812545Y-27479163D01*
X13726759Y-27310800D01*
X13615690Y-27157927D01*
X13482073Y-27024310D01*
X13329199Y-26913240D01*
X13160836Y-26827454D01*
X13086472Y-26803291D01*
X13039195Y-26787930D01*
X12981521Y-26748493D01*
X12954323Y-26684134D01*
X12966238Y-26615288D01*
X13013482Y-26563812D01*
X13039194Y-26552069D01*
X13160832Y-26512547D01*
X13329199Y-26426760D01*
X13482073Y-26315690D01*
X13615690Y-26182073D01*
X13726760Y-26029199D01*
X13812547Y-25860832D01*
X13870940Y-25681118D01*
X13900500Y-25494486D01*
X13900500Y-25305513D01*
X13870940Y-25118881D01*
X13812545Y-24939163D01*
X13726759Y-24770800D01*
X13615690Y-24617927D01*
X13482073Y-24484310D01*
X13329199Y-24373240D01*
X13160836Y-24287454D01*
X13086472Y-24263291D01*
X13039195Y-24247930D01*
X12981521Y-24208493D01*
X12954323Y-24144134D01*
X12966238Y-24075288D01*
X13013482Y-24023812D01*
X13039194Y-24012069D01*
X13160832Y-23972547D01*
X13329199Y-23886760D01*
X13482073Y-23775690D01*
X13615690Y-23642073D01*
X13726760Y-23489199D01*
X13812547Y-23320832D01*
X13870940Y-23141118D01*
X13900500Y-22954486D01*
X13900500Y-22765513D01*
X13870940Y-22578881D01*
X13812545Y-22399163D01*
X13726759Y-22230800D01*
X13615690Y-22077927D01*
X13482073Y-21944310D01*
X13329199Y-21833240D01*
X13160836Y-21747454D01*
X13086472Y-21723291D01*
X13039195Y-21707930D01*
X12981521Y-21668493D01*
X12954323Y-21604134D01*
X12966238Y-21535288D01*
X13013482Y-21483812D01*
X13039194Y-21472069D01*
X13160832Y-21432547D01*
X13329199Y-21346760D01*
X13482073Y-21235690D01*
X13615690Y-21102073D01*
X13726760Y-20949199D01*
X13812547Y-20780832D01*
X13870940Y-20601118D01*
X13887560Y-20496182D01*
X13900500Y-20414486D01*
X13900500Y-20225513D01*
X13870940Y-20038881D01*
X13812545Y-19859163D01*
X13726759Y-19690800D01*
X13615690Y-19537927D01*
X13482073Y-19404310D01*
X13329199Y-19293240D01*
X13160836Y-19207454D01*
X13086472Y-19183291D01*
X13039195Y-19167930D01*
X12981521Y-19128493D01*
X12954323Y-19064134D01*
X12966238Y-18995288D01*
X13013482Y-18943812D01*
X13039194Y-18932069D01*
X13160832Y-18892547D01*
X13329199Y-18806760D01*
X13482073Y-18695690D01*
X13615690Y-18562073D01*
X13726760Y-18409199D01*
X13812547Y-18240832D01*
X13870940Y-18061118D01*
X13900500Y-17874486D01*
X13900500Y-17685513D01*
X13870940Y-17498881D01*
X13812545Y-17319163D01*
X13726759Y-17150800D01*
X13615690Y-16997927D01*
X13482073Y-16864310D01*
X13329199Y-16753240D01*
X13160836Y-16667454D01*
X13086472Y-16643291D01*
X13039195Y-16627930D01*
X12981521Y-16588493D01*
X12954323Y-16524134D01*
X12966238Y-16455288D01*
X13013482Y-16403812D01*
X13039194Y-16392069D01*
X13160832Y-16352547D01*
X13329199Y-16266760D01*
X13482073Y-16155690D01*
X13615690Y-16022073D01*
X13726760Y-15869199D01*
X13812547Y-15700832D01*
X13870940Y-15521118D01*
X13900500Y-15334486D01*
X13900500Y-15145513D01*
X13870940Y-14958881D01*
X13812545Y-14779163D01*
X13726759Y-14610800D01*
X13615690Y-14457927D01*
X13482073Y-14324310D01*
X13329199Y-14213240D01*
X13175613Y-14134984D01*
X13124817Y-14087009D01*
X13108022Y-14019188D01*
X13130559Y-13953053D01*
X13185275Y-13909602D01*
X13231908Y-13900499D01*
X13644856Y-13900499D01*
X13644864Y-13900499D01*
X13644879Y-13900497D01*
X13644882Y-13900497D01*
X13669987Y-13897586D01*
X13669988Y-13897585D01*
X13669991Y-13897585D01*
X13772765Y-13852206D01*
X13852206Y-13772765D01*
X13897585Y-13669991D01*
X13900500Y-13644865D01*
X13900500Y-13124000D01*
X13920185Y-13056961D01*
X13972989Y-13011206D01*
X14024500Y-13000000D01*
X36845629Y-13000000D01*
X36912668Y-13019685D01*
X36958423Y-13072489D01*
X36963560Y-13085682D01*
X36987914Y-13160637D01*
X37073666Y-13328933D01*
X37121872Y-13395284D01*
X37631980Y-12885176D01*
X37634075Y-12892993D01*
G37*
%TD.AperFunction*%
%TA.AperFunction,Conductor*%
G36*
X37634075Y-28132993D02*
G01*
X37699901Y-28247007D01*
X37792993Y-28340099D01*
X37907007Y-28405925D01*
X37914822Y-28408019D01*
X37404713Y-28918126D01*
X37404714Y-28918127D01*
X37471059Y-28966329D01*
X37639362Y-29052085D01*
X37761611Y-29091806D01*
X37819286Y-29131243D01*
X37846485Y-29195602D01*
X37834571Y-29264448D01*
X37787327Y-29315924D01*
X37761612Y-29327668D01*
X37639163Y-29367454D01*
X37470800Y-29453240D01*
X37383579Y-29516610D01*
X37317927Y-29564310D01*
X37317925Y-29564312D01*
X37317924Y-29564312D01*
X37238181Y-29644056D01*
X37176858Y-29677541D01*
X37107166Y-29672557D01*
X37051233Y-29630685D01*
X37026816Y-29565221D01*
X37026500Y-29556375D01*
X37026500Y-28761921D01*
X37046185Y-28694882D01*
X37098989Y-28649127D01*
X37109970Y-28647186D01*
X37631980Y-28125176D01*
X37634075Y-28132993D01*
G37*
%TD.AperFunction*%
%TD*%
M02*
