%TF.GenerationSoftware,KiCad,Pcbnew,10.0.6*%
%TF.CreationDate,2026-09-08T11:52:52+03:00*%
%TF.ProjectId,yoklama-dip-v1,796f6b6c-616d-4612-9d64-69702d76312e,rev?*%
%TF.SameCoordinates,Original*%
%TF.FileFunction,Copper,L1,Top*%
%TF.FilePolarity,Positive*%
%FSLAX46Y46*%
G04 Gerber Fmt 4.6, Leading zero omitted, Abs format (unit mm)*
G04 Created by KiCad (PCBNEW 10.0.6) date 2026-09-08 11:52:52*
%MOMM*%
%LPD*%
G01*
G04 APERTURE LIST*
%TA.AperFunction,ComponentPad*%
%ADD10R,1.800000X1.800000*%
%TD*%
%TA.AperFunction,ComponentPad*%
%ADD11C,1.800000*%
%TD*%
%TA.AperFunction,ViaPad*%
%ADD12C,0.800000*%
%TD*%
%TA.AperFunction,ViaPad*%
%ADD13C,1.000000*%
%TD*%
%TA.AperFunction,Conductor*%
%ADD14C,0.300000*%
%TD*%
%TA.AperFunction,Conductor*%
%ADD15C,0.800000*%
%TD*%
G04 APERTURE END LIST*
D10*
%TO.P,R4,1*%
%TO.N,/LED_NET_GPIO13*%
X88900000Y-76200000D03*
D11*
%TO.P,R4,2*%
%TO.N,/LED_NET_A*%
X96520000Y-76200000D03*
%TD*%
D10*
%TO.P,R10,1*%
%TO.N,/BUZZER_BASE*%
X12700000Y-91440000D03*
D11*
%TO.P,R10,2*%
%TO.N,/GND*%
X20320000Y-91440000D03*
%TD*%
D10*
%TO.P,C2,1*%
%TO.N,/+5V_USB*%
X96520000Y-102870000D03*
D11*
%TO.P,C2,2*%
%TO.N,/GND*%
X99060000Y-102870000D03*
%TD*%
D10*
%TO.P,J1,1*%
%TO.N,/RFID_CS_GPIO5*%
X102870000Y-59690000D03*
D11*
%TO.P,J1,2*%
%TO.N,/RFID_SCK_GPIO18*%
X105410000Y-59690000D03*
%TO.P,J1,3*%
%TO.N,/RFID_MOSI_GPIO23*%
X107950000Y-59690000D03*
%TO.P,J1,4*%
%TO.N,/RFID_MISO_GPIO19*%
X110490000Y-59690000D03*
%TO.P,J1,5*%
%TO.N,unconnected-(J1-IRQ-Pad5)*%
X113030000Y-59690000D03*
%TO.P,J1,6*%
%TO.N,/GND*%
X115570000Y-59690000D03*
%TO.P,J1,7*%
%TO.N,/RFID_RST_GPIO27*%
X118110000Y-59690000D03*
%TO.P,J1,8*%
%TO.N,/+3V3*%
X120650000Y-59690000D03*
%TD*%
D10*
%TO.P,D2,1*%
%TO.N,/GND*%
X66040000Y-87630000D03*
D11*
%TO.P,D2,2*%
%TO.N,/LED_OK_A*%
X68580000Y-87630000D03*
%TD*%
D10*
%TO.P,R2,1*%
%TO.N,/LED_OK_GPIO16*%
X63500000Y-76200000D03*
D11*
%TO.P,R2,2*%
%TO.N,/LED_OK_A*%
X71120000Y-76200000D03*
%TD*%
D10*
%TO.P,D5,1*%
%TO.N,/+5V_USB*%
X25400000Y-106680000D03*
D11*
%TO.P,D5,2*%
%TO.N,/BUZZER_LOW*%
X33020000Y-106680000D03*
%TD*%
D10*
%TO.P,D1,1*%
%TO.N,/GND*%
X53340000Y-87630000D03*
D11*
%TO.P,D1,2*%
%TO.N,/LED_READY_A*%
X55880000Y-87630000D03*
%TD*%
D10*
%TO.P,D4,1*%
%TO.N,/GND*%
X91440000Y-87630000D03*
D11*
%TO.P,D4,2*%
%TO.N,/LED_NET_A*%
X93980000Y-87630000D03*
%TD*%
D10*
%TO.P,C3,1*%
%TO.N,/+3V3*%
X123190000Y-71120000D03*
D11*
%TO.P,C3,2*%
%TO.N,/GND*%
X125730000Y-71120000D03*
%TD*%
D10*
%TO.P,R8,1*%
%TO.N,/+5V_USB*%
X73660000Y-111760000D03*
D11*
%TO.P,R8,2*%
%TO.N,/SCL_5V*%
X81280000Y-111760000D03*
%TD*%
D10*
%TO.P,C1,1*%
%TO.N,/+5V_USB*%
X97790000Y-81280000D03*
D11*
%TO.P,C1,2*%
%TO.N,/GND*%
X100330000Y-81280000D03*
%TD*%
D10*
%TO.P,Q2,1*%
%TO.N,/SCL_3V3_GPIO22*%
X73660000Y-104140000D03*
D11*
%TO.P,Q2,2*%
%TO.N,/+3V3*%
X76200000Y-104140000D03*
%TO.P,Q2,3*%
%TO.N,/SCL_5V*%
X78740000Y-104140000D03*
%TD*%
D10*
%TO.P,D3,1*%
%TO.N,/GND*%
X78740000Y-87630000D03*
D11*
%TO.P,D3,2*%
%TO.N,/LED_ERROR_A*%
X81280000Y-87630000D03*
%TD*%
D10*
%TO.P,R13,1*%
%TO.N,/+3V3*%
X87630000Y-69850000D03*
D11*
%TO.P,R13,2*%
%TO.N,/SD_CS_GPIO33*%
X95250000Y-69850000D03*
%TD*%
D10*
%TO.P,R6,1*%
%TO.N,/+5V_USB*%
X50800000Y-111760000D03*
D11*
%TO.P,R6,2*%
%TO.N,/SDA_5V*%
X58420000Y-111760000D03*
%TD*%
D10*
%TO.P,R3,1*%
%TO.N,/LED_ERROR_GPIO17*%
X76200000Y-76200000D03*
D11*
%TO.P,R3,2*%
%TO.N,/LED_ERROR_A*%
X83820000Y-76200000D03*
%TD*%
D10*
%TO.P,R1,1*%
%TO.N,/LED_READY_GPIO4*%
X50800000Y-76200000D03*
D11*
%TO.P,R1,2*%
%TO.N,/LED_READY_A*%
X58420000Y-76200000D03*
%TD*%
D10*
%TO.P,C5,1*%
%TO.N,/+5V_USB*%
X88900000Y-116840000D03*
D11*
%TO.P,C5,2*%
%TO.N,/GND*%
X91440000Y-116840000D03*
%TD*%
D10*
%TO.P,R9,1*%
%TO.N,/BUZZER_GPIO32*%
X12700000Y-81280000D03*
D11*
%TO.P,R9,2*%
%TO.N,/BUZZER_BASE*%
X20320000Y-81280000D03*
%TD*%
D10*
%TO.P,R5,1*%
%TO.N,/+3V3*%
X50800000Y-97790000D03*
D11*
%TO.P,R5,2*%
%TO.N,/SDA_3V3_GPIO21*%
X58420000Y-97790000D03*
%TD*%
D10*
%TO.P,U1,1*%
%TO.N,/+3V3*%
X12700000Y-12700000D03*
D11*
%TO.P,U1,2*%
%TO.N,unconnected-(U1-EN-Pad2)*%
X12700000Y-15240000D03*
%TO.P,U1,3*%
%TO.N,unconnected-(U1-VP-Pad3)*%
X12700000Y-17780000D03*
%TO.P,U1,4*%
%TO.N,unconnected-(U1-VN-Pad4)*%
X12700000Y-20320000D03*
%TO.P,U1,5*%
%TO.N,unconnected-(U1-IO34-Pad5)*%
X12700000Y-22860000D03*
%TO.P,U1,6*%
%TO.N,unconnected-(U1-IO35-Pad6)*%
X12700000Y-25400000D03*
%TO.P,U1,7*%
%TO.N,/BUZZER_GPIO32*%
X12700000Y-27940000D03*
%TO.P,U1,8*%
%TO.N,/SD_CS_GPIO33*%
X12700000Y-30480000D03*
%TO.P,U1,9*%
%TO.N,/SD_MISO_GPIO25*%
X12700000Y-33020000D03*
%TO.P,U1,10*%
%TO.N,/SD_MOSI_GPIO26*%
X12700000Y-35560000D03*
%TO.P,U1,11*%
%TO.N,/RFID_RST_GPIO27*%
X12700000Y-38100000D03*
%TO.P,U1,12*%
%TO.N,/SD_SCK_GPIO14*%
X12700000Y-40640000D03*
%TO.P,U1,13*%
%TO.N,unconnected-(U1-IO12-Pad13)*%
X12700000Y-43180000D03*
%TO.P,U1,14*%
%TO.N,/GND*%
X12700000Y-45720000D03*
%TO.P,U1,15*%
%TO.N,/LED_NET_GPIO13*%
X12700000Y-48260000D03*
%TO.P,U1,16*%
%TO.N,unconnected-(U1-SD2-Pad16)*%
X12700000Y-50800000D03*
%TO.P,U1,17*%
%TO.N,unconnected-(U1-SD3-Pad17)*%
X12700000Y-53340000D03*
%TO.P,U1,18*%
%TO.N,unconnected-(U1-CMD-Pad18)*%
X12700000Y-55880000D03*
%TO.P,U1,19*%
%TO.N,/+5V_USB*%
X12700000Y-58420000D03*
%TO.P,U1,20*%
%TO.N,/GND*%
X38100000Y-12700000D03*
%TO.P,U1,21*%
%TO.N,/RFID_MOSI_GPIO23*%
X38100000Y-15240000D03*
%TO.P,U1,22*%
%TO.N,/SCL_3V3_GPIO22*%
X38100000Y-17780000D03*
%TO.P,U1,23*%
%TO.N,unconnected-(U1-TX0-Pad23)*%
X38100000Y-20320000D03*
%TO.P,U1,24*%
%TO.N,unconnected-(U1-RX0-Pad24)*%
X38100000Y-22860000D03*
%TO.P,U1,25*%
%TO.N,/SDA_3V3_GPIO21*%
X38100000Y-25400000D03*
%TO.P,U1,26*%
%TO.N,/GND*%
X38100000Y-27940000D03*
%TO.P,U1,27*%
%TO.N,/RFID_MISO_GPIO19*%
X38100000Y-30480000D03*
%TO.P,U1,28*%
%TO.N,/RFID_SCK_GPIO18*%
X38100000Y-33020000D03*
%TO.P,U1,29*%
%TO.N,/RFID_CS_GPIO5*%
X38100000Y-35560000D03*
%TO.P,U1,30*%
%TO.N,/LED_ERROR_GPIO17*%
X38100000Y-38100000D03*
%TO.P,U1,31*%
%TO.N,/LED_OK_GPIO16*%
X38100000Y-40640000D03*
%TO.P,U1,32*%
%TO.N,/LED_READY_GPIO4*%
X38100000Y-43180000D03*
%TO.P,U1,33*%
%TO.N,unconnected-(U1-IO0-Pad33)*%
X38100000Y-45720000D03*
%TO.P,U1,34*%
%TO.N,unconnected-(U1-IO2-Pad34)*%
X38100000Y-48260000D03*
%TO.P,U1,35*%
%TO.N,unconnected-(U1-IO15-Pad35)*%
X38100000Y-50800000D03*
%TO.P,U1,36*%
%TO.N,unconnected-(U1-SD1-Pad36)*%
X38100000Y-53340000D03*
%TO.P,U1,37*%
%TO.N,unconnected-(U1-SD0-Pad37)*%
X38100000Y-55880000D03*
%TO.P,U1,38*%
%TO.N,unconnected-(U1-CLK-Pad38)*%
X38100000Y-58420000D03*
%TD*%
D10*
%TO.P,BZ1,1*%
%TO.N,/+5V_USB*%
X26670000Y-116840000D03*
D11*
%TO.P,BZ1,2*%
%TO.N,/BUZZER_LOW*%
X34290000Y-116840000D03*
%TD*%
D10*
%TO.P,C4,1*%
%TO.N,/+3V3*%
X132080000Y-71120000D03*
D11*
%TO.P,C4,2*%
%TO.N,/GND*%
X134620000Y-71120000D03*
%TD*%
D10*
%TO.P,J3,1*%
%TO.N,/GND*%
X55880000Y-119380000D03*
D11*
%TO.P,J3,2*%
%TO.N,/+5V_USB*%
X58420000Y-119380000D03*
%TO.P,J3,3*%
%TO.N,/SDA_5V*%
X60960000Y-119380000D03*
%TO.P,J3,4*%
%TO.N,/SCL_5V*%
X63500000Y-119380000D03*
%TD*%
D10*
%TO.P,Q3,1*%
%TO.N,/BUZZER_LOW*%
X12700000Y-104140000D03*
D11*
%TO.P,Q3,2*%
%TO.N,/BUZZER_BASE*%
X15240000Y-104140000D03*
%TO.P,Q3,3*%
%TO.N,/GND*%
X17780000Y-104140000D03*
%TD*%
D10*
%TO.P,J2,1*%
%TO.N,/GND*%
X107950000Y-85090000D03*
D11*
%TO.P,J2,2*%
%TO.N,/+5V_USB*%
X107950000Y-87630000D03*
%TO.P,J2,3*%
%TO.N,/SD_MISO_GPIO25*%
X107950000Y-90170000D03*
%TO.P,J2,4*%
%TO.N,/SD_MOSI_GPIO26*%
X107950000Y-92710000D03*
%TO.P,J2,5*%
%TO.N,/SD_SCK_GPIO14*%
X107950000Y-95250000D03*
%TO.P,J2,6*%
%TO.N,/SD_CS_GPIO33*%
X107950000Y-97790000D03*
%TD*%
D10*
%TO.P,R12,1*%
%TO.N,/+3V3*%
X81280000Y-58420000D03*
D11*
%TO.P,R12,2*%
%TO.N,/RFID_CS_GPIO5*%
X88900000Y-58420000D03*
%TD*%
D10*
%TO.P,Q1,1*%
%TO.N,/SDA_3V3_GPIO21*%
X50800000Y-104140000D03*
D11*
%TO.P,Q1,2*%
%TO.N,/+3V3*%
X53340000Y-104140000D03*
%TO.P,Q1,3*%
%TO.N,/SDA_5V*%
X55880000Y-104140000D03*
%TD*%
D10*
%TO.P,R7,1*%
%TO.N,/+3V3*%
X73660000Y-97790000D03*
D11*
%TO.P,R7,2*%
%TO.N,/SCL_3V3_GPIO22*%
X81280000Y-97790000D03*
%TD*%
D10*
%TO.P,R11,1*%
%TO.N,/+5V_USB*%
X25400000Y-101600000D03*
D11*
%TO.P,R11,2*%
%TO.N,/BUZZER_LOW*%
X33020000Y-101600000D03*
%TD*%
D12*
%TO.N,/LED_NET_GPIO13*%
X25908000Y-61468000D03*
%TO.N,/RFID_MOSI_GPIO23*%
X104648000Y-56388000D03*
%TO.N,/RFID_RST_GPIO27*%
X115316000Y-61468000D03*
X36068000Y-61468000D03*
D13*
%TO.N,/+3V3*%
X117094000Y-63500000D03*
X9652000Y-58166000D03*
D12*
%TO.N,/SCL_3V3_GPIO22*%
X41148000Y-20828000D03*
X75692000Y-92202000D03*
%TO.N,/LED_ERROR_A*%
X81280000Y-83312000D03*
%TO.N,/SD_CS_GPIO33*%
X47244000Y-71374000D03*
%TO.N,/BUZZER_GPIO32*%
X8382000Y-32258000D03*
%TO.N,/SDA_3V3_GPIO21*%
X52070000Y-91440000D03*
%TO.N,/SD_MISO_GPIO25*%
X74676000Y-87122000D03*
X14986000Y-44450000D03*
X72136000Y-84582000D03*
X46990000Y-76962000D03*
X101346000Y-90170000D03*
%TO.N,/SD_MOSI_GPIO26*%
X73406000Y-87376000D03*
X104140000Y-93218000D03*
X102362000Y-91440000D03*
X70612000Y-84582000D03*
X45720000Y-77216000D03*
X27940000Y-51816000D03*
X27940000Y-58928000D03*
%TO.N,/SD_SCK_GPIO14*%
X89662000Y-88900000D03*
X85344000Y-84582000D03*
X48260000Y-76708000D03*
X103124000Y-90424000D03*
%TD*%
%TO.N,/LED_NET_GPIO13*%
D14*
X84582000Y-74676000D02*
X39116000Y-74676000D01*
X88900000Y-76200000D02*
X86106000Y-76200000D01*
X86106000Y-76200000D02*
X84582000Y-74676000D01*
X39116000Y-74676000D02*
X25908000Y-61468000D01*
%TO.N,/BUZZER_BASE*%
X12700000Y-88900000D02*
X20320000Y-81280000D01*
X12700000Y-91440000D02*
X12700000Y-88900000D01*
%TO.N,/GND*%
D15*
X92456000Y-86360000D02*
X92710000Y-86106000D01*
X54356000Y-86614000D02*
X54356000Y-86360000D01*
X130301999Y-69342000D02*
X133858000Y-69342000D01*
X133858000Y-69342000D02*
X133858000Y-70358000D01*
X92964000Y-86106000D02*
X93218000Y-85852000D01*
X99568000Y-82042000D02*
X100330000Y-81280000D01*
X133858000Y-70358000D02*
X134620000Y-71120000D01*
X116586000Y-60960000D02*
X116586000Y-60706000D01*
X76962000Y-85852000D02*
X78740000Y-87630000D01*
X67564000Y-86106000D02*
X67818000Y-85852000D01*
X125730000Y-71120000D02*
X128524000Y-71120000D01*
X64262000Y-85852000D02*
X66040000Y-87630000D01*
X89662000Y-85852000D02*
X91440000Y-87630000D01*
X53340000Y-87630000D02*
X54356000Y-86614000D01*
X20320000Y-91440000D02*
X49530000Y-91440000D01*
X67818000Y-85852000D02*
X76962000Y-85852000D01*
X12700000Y-45720000D02*
X20066000Y-45720000D01*
X128524000Y-71120000D02*
X130301999Y-69342000D01*
X49530000Y-91440000D02*
X53340000Y-87630000D01*
X66040000Y-87630000D02*
X67056000Y-86614000D01*
X92710000Y-86106000D02*
X92964000Y-86106000D01*
X79756000Y-86360000D02*
X80010000Y-86106000D01*
X95758000Y-85852000D02*
X98552000Y-83058000D01*
X37084000Y-28956000D02*
X38100000Y-27940000D01*
X80518000Y-85852000D02*
X89662000Y-85852000D01*
X36830000Y-28956000D02*
X37084000Y-28956000D01*
X92456000Y-86614000D02*
X92456000Y-86360000D01*
X67056000Y-86614000D02*
X67056000Y-86360000D01*
X125730000Y-71120000D02*
X125730000Y-70104000D01*
X80264000Y-86106000D02*
X80518000Y-85852000D01*
X55118000Y-85852000D02*
X64262000Y-85852000D01*
X78740000Y-87630000D02*
X79756000Y-86614000D01*
X67310000Y-86106000D02*
X67564000Y-86106000D01*
X67056000Y-86360000D02*
X67310000Y-86106000D01*
X54864000Y-86106000D02*
X55118000Y-85852000D01*
X100330000Y-81280000D02*
X104140000Y-81280000D01*
X104140000Y-81280000D02*
X107950000Y-85090000D01*
X80010000Y-86106000D02*
X80264000Y-86106000D01*
X93218000Y-85852000D02*
X95758000Y-85852000D01*
X54610000Y-86106000D02*
X54864000Y-86106000D01*
X99568000Y-83058000D02*
X99568000Y-82042000D01*
X20066000Y-45720000D02*
X36830000Y-28956000D01*
X125730000Y-70104000D02*
X116586000Y-60960000D01*
X79756000Y-86614000D02*
X79756000Y-86360000D01*
X98552000Y-83058000D02*
X99568000Y-83058000D01*
X91440000Y-87630000D02*
X92456000Y-86614000D01*
X116586000Y-60706000D02*
X115570000Y-59690000D01*
X54356000Y-86360000D02*
X54610000Y-86106000D01*
%TO.N,/+5V_USB*%
X96520000Y-102870000D02*
X96520000Y-99060000D01*
X59436000Y-118364000D02*
X58420000Y-119380000D01*
X31750000Y-111760000D02*
X26670000Y-116840000D01*
X106934000Y-88646000D02*
X107950000Y-87630000D01*
X57658000Y-117602000D02*
X56642000Y-117602000D01*
X66040000Y-111760000D02*
X59944000Y-117856000D01*
X106426000Y-88900000D02*
X106680000Y-88646000D01*
X73660000Y-111760000D02*
X66040000Y-111760000D01*
X88900000Y-116840000D02*
X78740000Y-116840000D01*
X59944000Y-117856000D02*
X59690000Y-117856000D01*
X78740000Y-116840000D02*
X73660000Y-111760000D01*
X50800000Y-111760000D02*
X31750000Y-111760000D01*
X106426000Y-89154000D02*
X106426000Y-88900000D01*
X56642000Y-117602000D02*
X50800000Y-111760000D01*
X58420000Y-119380000D02*
X57658000Y-118618000D01*
X59436000Y-118110000D02*
X59436000Y-118364000D01*
X57658000Y-118618000D02*
X57658000Y-117602000D01*
X106680000Y-88646000D02*
X106934000Y-88646000D01*
X96520000Y-99060000D02*
X106426000Y-89154000D01*
X59690000Y-117856000D02*
X59436000Y-118110000D01*
%TO.N,/RFID_CS_GPIO5*%
D14*
X90170000Y-59690000D02*
X88900000Y-58420000D01*
X82804000Y-56896000D02*
X59436000Y-56896000D01*
X59436000Y-56896000D02*
X38100000Y-35560000D01*
X84328000Y-58420000D02*
X82804000Y-56896000D01*
X102870000Y-59690000D02*
X90170000Y-59690000D01*
X88900000Y-58420000D02*
X84328000Y-58420000D01*
%TO.N,/RFID_SCK_GPIO18*%
X90932000Y-58166000D02*
X89662000Y-56896000D01*
X104394000Y-58166000D02*
X90932000Y-58166000D01*
X89662000Y-56896000D02*
X84074000Y-56896000D01*
X61214000Y-56134000D02*
X38100000Y-33020000D01*
X83312000Y-56134000D02*
X61214000Y-56134000D01*
X104394000Y-58674000D02*
X104394000Y-58166000D01*
X84074000Y-56896000D02*
X83312000Y-56134000D01*
X105410000Y-59690000D02*
X104394000Y-58674000D01*
%TO.N,/RFID_MOSI_GPIO23*%
X104648000Y-56388000D02*
X91694000Y-56388000D01*
X85090000Y-55372000D02*
X84328000Y-54610000D01*
X91694000Y-56388000D02*
X90678000Y-55372000D01*
X84328000Y-54610000D02*
X77470000Y-54610000D01*
X90678000Y-55372000D02*
X85090000Y-55372000D01*
X77470000Y-54610000D02*
X38100000Y-15240000D01*
%TO.N,/RFID_MISO_GPIO19*%
X104902000Y-57404000D02*
X91440000Y-57404000D01*
X84582000Y-56134000D02*
X83820000Y-55372000D01*
X91440000Y-57404000D02*
X90170000Y-56134000D01*
X108712000Y-58166000D02*
X105664000Y-58166000D01*
X83820000Y-55372000D02*
X62992000Y-55372000D01*
X105664000Y-58166000D02*
X104902000Y-57404000D01*
X110236000Y-59690000D02*
X108712000Y-58166000D01*
X90170000Y-56134000D02*
X84582000Y-56134000D01*
X110490000Y-59690000D02*
X110236000Y-59690000D01*
X62992000Y-55372000D02*
X38100000Y-30480000D01*
%TO.N,/RFID_RST_GPIO27*%
X115316000Y-61468000D02*
X36068000Y-61468000D01*
%TO.N,/+3V3*%
D15*
X11430000Y-59944000D02*
X9652000Y-58166000D01*
X124206000Y-72390000D02*
X124460000Y-72644000D01*
X124460000Y-72644000D02*
X124714000Y-72644000D01*
X73660000Y-97790000D02*
X61214000Y-97790000D01*
X11684000Y-59944000D02*
X11430000Y-59944000D01*
X54356000Y-103124000D02*
X53340000Y-104140000D01*
X40894000Y-58420000D02*
X39370000Y-59944000D01*
X117094000Y-63500000D02*
X93980000Y-63500000D01*
X59436000Y-99314000D02*
X59182000Y-99568000D01*
X81280000Y-58420000D02*
X40894000Y-58420000D01*
X39370000Y-59944000D02*
X39116000Y-59944000D01*
X124968000Y-72898000D02*
X130301999Y-72898000D01*
X123190000Y-71120000D02*
X124206000Y-72136000D01*
X54864000Y-102616000D02*
X54610000Y-102616000D01*
X59690000Y-99314000D02*
X59436000Y-99314000D01*
X57912000Y-99568000D02*
X54864000Y-102616000D01*
X61214000Y-97790000D02*
X59690000Y-99314000D01*
X39116000Y-59944000D02*
X38862000Y-60198000D01*
X54356000Y-102870000D02*
X54356000Y-103124000D01*
X59182000Y-99568000D02*
X57912000Y-99568000D01*
X54610000Y-102616000D02*
X54356000Y-102870000D01*
X124714000Y-72644000D02*
X124968000Y-72898000D01*
X130301999Y-72898000D02*
X132080000Y-71120000D01*
X38862000Y-60198000D02*
X11938000Y-60198000D01*
X93980000Y-63500000D02*
X87630000Y-69850000D01*
X124206000Y-72136000D02*
X124206000Y-72390000D01*
X11938000Y-60198000D02*
X11684000Y-59944000D01*
%TO.N,/BUZZER_LOW*%
D14*
X28448000Y-101600000D02*
X26924000Y-103124000D01*
X33020000Y-101600000D02*
X28448000Y-101600000D01*
X18542000Y-102616000D02*
X14224000Y-102616000D01*
X19050000Y-103124000D02*
X18542000Y-102616000D01*
X14224000Y-102616000D02*
X12700000Y-104140000D01*
X26924000Y-103124000D02*
X19050000Y-103124000D01*
%TO.N,/SCL_3V3_GPIO22*%
X73914000Y-104140000D02*
X75438000Y-102616000D01*
X81280000Y-97790000D02*
X75692000Y-92202000D01*
X73660000Y-104140000D02*
X73914000Y-104140000D01*
X75438000Y-102616000D02*
X76454000Y-102616000D01*
X76454000Y-102616000D02*
X81280000Y-97790000D01*
X41148000Y-20828000D02*
X38100000Y-17780000D01*
%TO.N,/LED_ERROR_A*%
X81280000Y-78740000D02*
X83820000Y-76200000D01*
X81280000Y-83312000D02*
X81280000Y-78740000D01*
%TO.N,/SD_CS_GPIO33*%
X109474000Y-96266000D02*
X107950000Y-97790000D01*
X90678000Y-69850000D02*
X89154000Y-71374000D01*
X89154000Y-71374000D02*
X47244000Y-71374000D01*
X95250000Y-69850000D02*
X108966000Y-83566000D01*
X95250000Y-69850000D02*
X90678000Y-69850000D01*
X109474000Y-83566000D02*
X109474000Y-96266000D01*
X108966000Y-83566000D02*
X109474000Y-83566000D01*
%TO.N,/SDA_5V*%
X58420000Y-111760000D02*
X58420000Y-106680000D01*
X58420000Y-106680000D02*
X55880000Y-104140000D01*
%TO.N,/BUZZER_GPIO32*%
X8382000Y-32258000D02*
X12700000Y-27940000D01*
%TO.N,/SDA_3V3_GPIO21*%
X57150000Y-97790000D02*
X50800000Y-104140000D01*
X58420000Y-97790000D02*
X57150000Y-97790000D01*
X58420000Y-97790000D02*
X52070000Y-91440000D01*
%TO.N,/SD_MISO_GPIO25*%
X46990000Y-76962000D02*
X47752000Y-77724000D01*
X48768000Y-78486000D02*
X66040000Y-78486000D01*
X75184000Y-87122000D02*
X77216000Y-89154000D01*
X88392000Y-89154000D02*
X89154000Y-89916000D01*
X14986000Y-35306000D02*
X14986000Y-44450000D01*
X77216000Y-89154000D02*
X88392000Y-89154000D01*
X48006000Y-77724000D02*
X48768000Y-78486000D01*
X101092000Y-89916000D02*
X101346000Y-90170000D01*
X66040000Y-78486000D02*
X72136000Y-84582000D01*
X12700000Y-33020000D02*
X14986000Y-35306000D01*
X47752000Y-77724000D02*
X48006000Y-77724000D01*
X89154000Y-89916000D02*
X101092000Y-89916000D01*
X74676000Y-87122000D02*
X75184000Y-87122000D01*
%TO.N,/SD_MOSI_GPIO26*%
X88646000Y-90678000D02*
X100330000Y-90678000D01*
X45720000Y-77216000D02*
X46482000Y-77978000D01*
X47244000Y-78486000D02*
X47498000Y-78486000D01*
X27940000Y-51816000D02*
X27940000Y-58928000D01*
X107442000Y-93218000D02*
X107950000Y-92710000D01*
X46736000Y-77978000D02*
X47244000Y-78486000D01*
X74930000Y-88138000D02*
X76708000Y-89916000D01*
X104140000Y-93218000D02*
X107442000Y-93218000D01*
X46482000Y-77978000D02*
X46736000Y-77978000D01*
X100838000Y-91186000D02*
X102108000Y-91186000D01*
X100330000Y-90678000D02*
X100838000Y-91186000D01*
X65278000Y-79248000D02*
X70612000Y-84582000D01*
X47498000Y-78486000D02*
X48260000Y-79248000D01*
X48260000Y-79248000D02*
X65278000Y-79248000D01*
X74168000Y-88138000D02*
X74930000Y-88138000D01*
X87884000Y-89916000D02*
X88646000Y-90678000D01*
X73406000Y-87376000D02*
X74168000Y-88138000D01*
X102108000Y-91186000D02*
X102362000Y-91440000D01*
X76708000Y-89916000D02*
X87884000Y-89916000D01*
%TO.N,/SD_SCK_GPIO14*%
X101854000Y-89154000D02*
X103124000Y-90424000D01*
X48260000Y-76708000D02*
X49276000Y-77724000D01*
X49276000Y-77724000D02*
X74168000Y-77724000D01*
X89662000Y-88900000D02*
X89916000Y-89154000D01*
X74168000Y-77724000D02*
X80772000Y-84328000D01*
X89916000Y-89154000D02*
X101854000Y-89154000D01*
X80772000Y-84328000D02*
X85090000Y-84328000D01*
X85090000Y-84328000D02*
X85344000Y-84582000D01*
%TD*%
%TA.AperFunction,Conductor*%
%TO.N,/GND*%
G36*
X17025116Y-103086185D02*
G01*
X17070871Y-103138989D01*
X17072811Y-103149969D01*
X17594822Y-103671980D01*
X17587007Y-103674075D01*
X17472993Y-103739901D01*
X17379901Y-103832993D01*
X17314075Y-103947007D01*
X17311980Y-103954822D01*
X16801872Y-103444714D01*
X16801871Y-103444714D01*
X16753668Y-103511062D01*
X16753667Y-103511064D01*
X16667915Y-103679361D01*
X16628193Y-103801612D01*
X16588755Y-103859287D01*
X16524396Y-103886485D01*
X16455550Y-103874570D01*
X16404074Y-103827326D01*
X16392332Y-103801614D01*
X16352547Y-103679168D01*
X16266760Y-103510801D01*
X16155690Y-103357927D01*
X16075944Y-103278181D01*
X16042459Y-103216858D01*
X16047443Y-103147166D01*
X16089315Y-103091233D01*
X16154779Y-103066816D01*
X16163625Y-103066500D01*
X16958077Y-103066500D01*
X17025116Y-103086185D01*
G37*
%TD.AperFunction*%
%TA.AperFunction,Conductor*%
G36*
X13943039Y-1019685D02*
G01*
X13988794Y-1072489D01*
X14000000Y-1124000D01*
X14000000Y-11475667D01*
X13980315Y-11542706D01*
X13927511Y-11588461D01*
X13858353Y-11598405D01*
X13794797Y-11569380D01*
X13788319Y-11563348D01*
X13772765Y-11547794D01*
X13669992Y-11502415D01*
X13644865Y-11499500D01*
X11755143Y-11499500D01*
X11755117Y-11499502D01*
X11730012Y-11502413D01*
X11730008Y-11502415D01*
X11627235Y-11547793D01*
X11547794Y-11627234D01*
X11502415Y-11730006D01*
X11502415Y-11730008D01*
X11499500Y-11755131D01*
X11499500Y-13644856D01*
X11499502Y-13644882D01*
X11502413Y-13669987D01*
X11502415Y-13669991D01*
X11547793Y-13772764D01*
X11547794Y-13772765D01*
X11627235Y-13852206D01*
X11730009Y-13897585D01*
X11755135Y-13900500D01*
X12168092Y-13900499D01*
X12235129Y-13920183D01*
X12280884Y-13972987D01*
X12290828Y-14042146D01*
X12261803Y-14105702D01*
X12224385Y-14134983D01*
X12070805Y-14213236D01*
X11968885Y-14287286D01*
X11917927Y-14324310D01*
X11917925Y-14324312D01*
X11917924Y-14324312D01*
X11784312Y-14457924D01*
X11784312Y-14457925D01*
X11784310Y-14457927D01*
X11736610Y-14523579D01*
X11673240Y-14610800D01*
X11587454Y-14779163D01*
X11529059Y-14958881D01*
X11499500Y-15145513D01*
X11499500Y-15334486D01*
X11529059Y-15521118D01*
X11587454Y-15700836D01*
X11620449Y-15765591D01*
X11673240Y-15869199D01*
X11784310Y-16022073D01*
X11917927Y-16155690D01*
X12070801Y-16266760D01*
X12150347Y-16307290D01*
X12239163Y-16352545D01*
X12239165Y-16352545D01*
X12239168Y-16352547D01*
X12328734Y-16381649D01*
X12360803Y-16392069D01*
X12418478Y-16431507D01*
X12445676Y-16495866D01*
X12433761Y-16564712D01*
X12386516Y-16616188D01*
X12360803Y-16627931D01*
X12239163Y-16667454D01*
X12070800Y-16753240D01*
X11983579Y-16816610D01*
X11917927Y-16864310D01*
X11917925Y-16864312D01*
X11917924Y-16864312D01*
X11784312Y-16997924D01*
X11784312Y-16997925D01*
X11784310Y-16997927D01*
X11736610Y-17063579D01*
X11673240Y-17150800D01*
X11587454Y-17319163D01*
X11529059Y-17498881D01*
X11499500Y-17685513D01*
X11499500Y-17874486D01*
X11529059Y-18061118D01*
X11587454Y-18240836D01*
X11620449Y-18305591D01*
X11673240Y-18409199D01*
X11784310Y-18562073D01*
X11917927Y-18695690D01*
X12070801Y-18806760D01*
X12150347Y-18847290D01*
X12239163Y-18892545D01*
X12239165Y-18892545D01*
X12239168Y-18892547D01*
X12328734Y-18921649D01*
X12360803Y-18932069D01*
X12418478Y-18971507D01*
X12445676Y-19035866D01*
X12433761Y-19104712D01*
X12386516Y-19156188D01*
X12360803Y-19167931D01*
X12239163Y-19207454D01*
X12070800Y-19293240D01*
X11983579Y-19356610D01*
X11917927Y-19404310D01*
X11917925Y-19404312D01*
X11917924Y-19404312D01*
X11784312Y-19537924D01*
X11784312Y-19537925D01*
X11784310Y-19537927D01*
X11736610Y-19603579D01*
X11673240Y-19690800D01*
X11587454Y-19859163D01*
X11529059Y-20038881D01*
X11499500Y-20225513D01*
X11499500Y-20414486D01*
X11529059Y-20601118D01*
X11587454Y-20780836D01*
X11673240Y-20949199D01*
X11784310Y-21102073D01*
X11917927Y-21235690D01*
X12070801Y-21346760D01*
X12150347Y-21387290D01*
X12239163Y-21432545D01*
X12239165Y-21432545D01*
X12239168Y-21432547D01*
X12289122Y-21448778D01*
X12360803Y-21472069D01*
X12418478Y-21511507D01*
X12445676Y-21575866D01*
X12433761Y-21644712D01*
X12386516Y-21696188D01*
X12360803Y-21707931D01*
X12239163Y-21747454D01*
X12070800Y-21833240D01*
X11983579Y-21896610D01*
X11917927Y-21944310D01*
X11917925Y-21944312D01*
X11917924Y-21944312D01*
X11784312Y-22077924D01*
X11784312Y-22077925D01*
X11784310Y-22077927D01*
X11736610Y-22143579D01*
X11673240Y-22230800D01*
X11587454Y-22399163D01*
X11529059Y-22578881D01*
X11499500Y-22765513D01*
X11499500Y-22954486D01*
X11529059Y-23141118D01*
X11587454Y-23320836D01*
X11673240Y-23489199D01*
X11784310Y-23642073D01*
X11917927Y-23775690D01*
X12070801Y-23886760D01*
X12150347Y-23927290D01*
X12239163Y-23972545D01*
X12239165Y-23972545D01*
X12239168Y-23972547D01*
X12328734Y-24001649D01*
X12360803Y-24012069D01*
X12418478Y-24051507D01*
X12445676Y-24115866D01*
X12433761Y-24184712D01*
X12386516Y-24236188D01*
X12360803Y-24247931D01*
X12239163Y-24287454D01*
X12070800Y-24373240D01*
X11983579Y-24436610D01*
X11917927Y-24484310D01*
X11917925Y-24484312D01*
X11917924Y-24484312D01*
X11784312Y-24617924D01*
X11784312Y-24617925D01*
X11784310Y-24617927D01*
X11736610Y-24683579D01*
X11673240Y-24770800D01*
X11587454Y-24939163D01*
X11529059Y-25118881D01*
X11499500Y-25305513D01*
X11499500Y-25494486D01*
X11529059Y-25681118D01*
X11587454Y-25860836D01*
X11673240Y-26029199D01*
X11784310Y-26182073D01*
X11917927Y-26315690D01*
X12070801Y-26426760D01*
X12150347Y-26467290D01*
X12239163Y-26512545D01*
X12239165Y-26512545D01*
X12239168Y-26512547D01*
X12328734Y-26541649D01*
X12360803Y-26552069D01*
X12418478Y-26591507D01*
X12445676Y-26655866D01*
X12433761Y-26724712D01*
X12386516Y-26776188D01*
X12360803Y-26787931D01*
X12239163Y-26827454D01*
X12070800Y-26913240D01*
X12003866Y-26961871D01*
X11917927Y-27024310D01*
X11917925Y-27024312D01*
X11917924Y-27024312D01*
X11784312Y-27157924D01*
X11784312Y-27157925D01*
X11784310Y-27157927D01*
X11736610Y-27223579D01*
X11673240Y-27310800D01*
X11587454Y-27479163D01*
X11529059Y-27658881D01*
X11499500Y-27845513D01*
X11499500Y-28034486D01*
X11529060Y-28221119D01*
X11529060Y-28221122D01*
X11567554Y-28339592D01*
X11569549Y-28409433D01*
X11537304Y-28465591D01*
X8481716Y-31521181D01*
X8420393Y-31554666D01*
X8394035Y-31557500D01*
X8313005Y-31557500D01*
X8177677Y-31584418D01*
X8177667Y-31584421D01*
X8050195Y-31637221D01*
X8050182Y-31637228D01*
X7935458Y-31713885D01*
X7935454Y-31713888D01*
X7837888Y-31811454D01*
X7837885Y-31811458D01*
X7761228Y-31926182D01*
X7761221Y-31926195D01*
X7708421Y-32053667D01*
X7708418Y-32053677D01*
X7681500Y-32189004D01*
X7681500Y-32189007D01*
X7681500Y-32326993D01*
X7681500Y-32326995D01*
X7681499Y-32326995D01*
X7708418Y-32462322D01*
X7708421Y-32462332D01*
X7761221Y-32589804D01*
X7761228Y-32589817D01*
X7837885Y-32704541D01*
X7837888Y-32704545D01*
X7935454Y-32802111D01*
X7935458Y-32802114D01*
X8050182Y-32878771D01*
X8050195Y-32878778D01*
X8163025Y-32925513D01*
X8177672Y-32931580D01*
X8177676Y-32931580D01*
X8177677Y-32931581D01*
X8313004Y-32958500D01*
X8313007Y-32958500D01*
X8450995Y-32958500D01*
X8542041Y-32940389D01*
X8586328Y-32931580D01*
X8713811Y-32878775D01*
X8828542Y-32802114D01*
X8926114Y-32704542D01*
X9002775Y-32589811D01*
X9055580Y-32462328D01*
X9082500Y-32326993D01*
X9082500Y-32245964D01*
X9102185Y-32178925D01*
X9118814Y-32158288D01*
X11380836Y-29896265D01*
X11442157Y-29862782D01*
X11511849Y-29867766D01*
X11567782Y-29909638D01*
X11592199Y-29975102D01*
X11586446Y-30022266D01*
X11529060Y-30198877D01*
X11529060Y-30198880D01*
X11499500Y-30385513D01*
X11499500Y-30574486D01*
X11529059Y-30761118D01*
X11587454Y-30940836D01*
X11620449Y-31005591D01*
X11673240Y-31109199D01*
X11784310Y-31262073D01*
X11917927Y-31395690D01*
X12070801Y-31506760D01*
X12150347Y-31547290D01*
X12239163Y-31592545D01*
X12239165Y-31592545D01*
X12239168Y-31592547D01*
X12328734Y-31621649D01*
X12360803Y-31632069D01*
X12418478Y-31671507D01*
X12445676Y-31735866D01*
X12433761Y-31804712D01*
X12386516Y-31856188D01*
X12360803Y-31867931D01*
X12239163Y-31907454D01*
X12070800Y-31993240D01*
X11987631Y-32053667D01*
X11917927Y-32104310D01*
X11917925Y-32104312D01*
X11917924Y-32104312D01*
X11784312Y-32237924D01*
X11784312Y-32237925D01*
X11784310Y-32237927D01*
X11778471Y-32245964D01*
X11673240Y-32390800D01*
X11587454Y-32559163D01*
X11529059Y-32738881D01*
X11499500Y-32925513D01*
X11499500Y-33114486D01*
X11529059Y-33301118D01*
X11587454Y-33480836D01*
X11620449Y-33545591D01*
X11673240Y-33649199D01*
X11784310Y-33802073D01*
X11917927Y-33935690D01*
X12070801Y-34046760D01*
X12150347Y-34087290D01*
X12239163Y-34132545D01*
X12239165Y-34132545D01*
X12239168Y-34132547D01*
X12328734Y-34161649D01*
X12360803Y-34172069D01*
X12418478Y-34211507D01*
X12445676Y-34275866D01*
X12433761Y-34344712D01*
X12386516Y-34396188D01*
X12360803Y-34407931D01*
X12239163Y-34447454D01*
X12070800Y-34533240D01*
X11983579Y-34596610D01*
X11917927Y-34644310D01*
X11917925Y-34644312D01*
X11917924Y-34644312D01*
X11784312Y-34777924D01*
X11784312Y-34777925D01*
X11784310Y-34777927D01*
X11736610Y-34843579D01*
X11673240Y-34930800D01*
X11587454Y-35099163D01*
X11529059Y-35278881D01*
X11499500Y-35465513D01*
X11499500Y-35654486D01*
X11529059Y-35841118D01*
X11587454Y-36020836D01*
X11620449Y-36085591D01*
X11673240Y-36189199D01*
X11784310Y-36342073D01*
X11917927Y-36475690D01*
X12070801Y-36586760D01*
X12150347Y-36627290D01*
X12239163Y-36672545D01*
X12239165Y-36672545D01*
X12239168Y-36672547D01*
X12328734Y-36701649D01*
X12360803Y-36712069D01*
X12418478Y-36751507D01*
X12445676Y-36815866D01*
X12433761Y-36884712D01*
X12386516Y-36936188D01*
X12360803Y-36947931D01*
X12239163Y-36987454D01*
X12070800Y-37073240D01*
X11983579Y-37136610D01*
X11917927Y-37184310D01*
X11917925Y-37184312D01*
X11917924Y-37184312D01*
X11784312Y-37317924D01*
X11784312Y-37317925D01*
X11784310Y-37317927D01*
X11736610Y-37383579D01*
X11673240Y-37470800D01*
X11587454Y-37639163D01*
X11529059Y-37818881D01*
X11499500Y-38005513D01*
X11499500Y-38194486D01*
X11529059Y-38381118D01*
X11587454Y-38560836D01*
X11673240Y-38729199D01*
X11784310Y-38882073D01*
X11917927Y-39015690D01*
X12070801Y-39126760D01*
X12150347Y-39167290D01*
X12239163Y-39212545D01*
X12239165Y-39212545D01*
X12239168Y-39212547D01*
X12328734Y-39241649D01*
X12360803Y-39252069D01*
X12418478Y-39291507D01*
X12445676Y-39355866D01*
X12433761Y-39424712D01*
X12386516Y-39476188D01*
X12360803Y-39487931D01*
X12239163Y-39527454D01*
X12070800Y-39613240D01*
X11983579Y-39676610D01*
X11917927Y-39724310D01*
X11917925Y-39724312D01*
X11917924Y-39724312D01*
X11784312Y-39857924D01*
X11784312Y-39857925D01*
X11784310Y-39857927D01*
X11736610Y-39923579D01*
X11673240Y-40010800D01*
X11587454Y-40179163D01*
X11529059Y-40358881D01*
X11499500Y-40545513D01*
X11499500Y-40734486D01*
X11529059Y-40921118D01*
X11587454Y-41100836D01*
X11673240Y-41269199D01*
X11784310Y-41422073D01*
X11917927Y-41555690D01*
X12070801Y-41666760D01*
X12150347Y-41707290D01*
X12239163Y-41752545D01*
X12239165Y-41752545D01*
X12239168Y-41752547D01*
X12328734Y-41781649D01*
X12360803Y-41792069D01*
X12418478Y-41831507D01*
X12445676Y-41895866D01*
X12433761Y-41964712D01*
X12386516Y-42016188D01*
X12360803Y-42027931D01*
X12239163Y-42067454D01*
X12070800Y-42153240D01*
X11983579Y-42216610D01*
X11917927Y-42264310D01*
X11917925Y-42264312D01*
X11917924Y-42264312D01*
X11784312Y-42397924D01*
X11784312Y-42397925D01*
X11784310Y-42397927D01*
X11736610Y-42463579D01*
X11673240Y-42550800D01*
X11587454Y-42719163D01*
X11529059Y-42898881D01*
X11499500Y-43085513D01*
X11499500Y-43274486D01*
X11529059Y-43461118D01*
X11587454Y-43640836D01*
X11673240Y-43809199D01*
X11784310Y-43962073D01*
X11917927Y-44095690D01*
X12070801Y-44206760D01*
X12239168Y-44292547D01*
X12361612Y-44332331D01*
X12419287Y-44371769D01*
X12446485Y-44436127D01*
X12434570Y-44504974D01*
X12387326Y-44556449D01*
X12361612Y-44568193D01*
X12239361Y-44607915D01*
X12071064Y-44693667D01*
X12071062Y-44693668D01*
X12004714Y-44741871D01*
X12004714Y-44741872D01*
X12514822Y-45251980D01*
X12507007Y-45254075D01*
X12392993Y-45319901D01*
X12299901Y-45412993D01*
X12234075Y-45527007D01*
X12231980Y-45534822D01*
X11721872Y-45024714D01*
X11721871Y-45024714D01*
X11673668Y-45091062D01*
X11673667Y-45091064D01*
X11587914Y-45259362D01*
X11529548Y-45438997D01*
X11500000Y-45625552D01*
X11500000Y-45814447D01*
X11529548Y-46001002D01*
X11587914Y-46180637D01*
X11673666Y-46348933D01*
X11721872Y-46415284D01*
X12231980Y-45905176D01*
X12234075Y-45912993D01*
X12299901Y-46027007D01*
X12392993Y-46120099D01*
X12507007Y-46185925D01*
X12514822Y-46188019D01*
X12004713Y-46698126D01*
X12004714Y-46698127D01*
X12071059Y-46746329D01*
X12239362Y-46832085D01*
X12361611Y-46871806D01*
X12419286Y-46911243D01*
X12446485Y-46975602D01*
X12434571Y-47044448D01*
X12387327Y-47095924D01*
X12361612Y-47107668D01*
X12239163Y-47147454D01*
X12070800Y-47233240D01*
X11983579Y-47296610D01*
X11917927Y-47344310D01*
X11917925Y-47344312D01*
X11917924Y-47344312D01*
X11784312Y-47477924D01*
X11784312Y-47477925D01*
X11784310Y-47477927D01*
X11736610Y-47543579D01*
X11673240Y-47630800D01*
X11587454Y-47799163D01*
X11529059Y-47978881D01*
X11499500Y-48165513D01*
X11499500Y-48354486D01*
X11529059Y-48541118D01*
X11587454Y-48720836D01*
X11673240Y-48889199D01*
X11784310Y-49042073D01*
X11917927Y-49175690D01*
X12070801Y-49286760D01*
X12150347Y-49327290D01*
X12239163Y-49372545D01*
X12239165Y-49372545D01*
X12239168Y-49372547D01*
X12328734Y-49401649D01*
X12360803Y-49412069D01*
X12418478Y-49451507D01*
X12445676Y-49515866D01*
X12433761Y-49584712D01*
X12386516Y-49636188D01*
X12360803Y-49647931D01*
X12239163Y-49687454D01*
X12070800Y-49773240D01*
X11983579Y-49836610D01*
X11917927Y-49884310D01*
X11917925Y-49884312D01*
X11917924Y-49884312D01*
X11784312Y-50017924D01*
X11784312Y-50017925D01*
X11784310Y-50017927D01*
X11736610Y-50083579D01*
X11673240Y-50170800D01*
X11587454Y-50339163D01*
X11529059Y-50518881D01*
X11499500Y-50705513D01*
X11499500Y-50894486D01*
X11529059Y-51081118D01*
X11587454Y-51260836D01*
X11673240Y-51429199D01*
X11784310Y-51582073D01*
X11917927Y-51715690D01*
X12070801Y-51826760D01*
X12150347Y-51867290D01*
X12239163Y-51912545D01*
X12239165Y-51912545D01*
X12239168Y-51912547D01*
X12328734Y-51941649D01*
X12360803Y-51952069D01*
X12418478Y-51991507D01*
X12445676Y-52055866D01*
X12433761Y-52124712D01*
X12386516Y-52176188D01*
X12360803Y-52187931D01*
X12239163Y-52227454D01*
X12070800Y-52313240D01*
X12011732Y-52356156D01*
X11917927Y-52424310D01*
X11917925Y-52424312D01*
X11917924Y-52424312D01*
X11784312Y-52557924D01*
X11784312Y-52557925D01*
X11784310Y-52557927D01*
X11736610Y-52623579D01*
X11673240Y-52710800D01*
X11587454Y-52879163D01*
X11529059Y-53058881D01*
X11499500Y-53245513D01*
X11499500Y-53434486D01*
X11529059Y-53621118D01*
X11587454Y-53800836D01*
X11673240Y-53969199D01*
X11784310Y-54122073D01*
X11917927Y-54255690D01*
X12070801Y-54366760D01*
X12150347Y-54407290D01*
X12239163Y-54452545D01*
X12239165Y-54452545D01*
X12239168Y-54452547D01*
X12328734Y-54481649D01*
X12360803Y-54492069D01*
X12418478Y-54531507D01*
X12445676Y-54595866D01*
X12433761Y-54664712D01*
X12386516Y-54716188D01*
X12360803Y-54727931D01*
X12239163Y-54767454D01*
X12070800Y-54853240D01*
X11983579Y-54916610D01*
X11917927Y-54964310D01*
X11917925Y-54964312D01*
X11917924Y-54964312D01*
X11784312Y-55097924D01*
X11784312Y-55097925D01*
X11784310Y-55097927D01*
X11736610Y-55163579D01*
X11673240Y-55250800D01*
X11587454Y-55419163D01*
X11529059Y-55598881D01*
X11499500Y-55785513D01*
X11499500Y-55974486D01*
X11529059Y-56161118D01*
X11587454Y-56340836D01*
X11673240Y-56509199D01*
X11784310Y-56662073D01*
X11917927Y-56795690D01*
X12070801Y-56906760D01*
X12150347Y-56947290D01*
X12239163Y-56992545D01*
X12239165Y-56992545D01*
X12239168Y-56992547D01*
X12328734Y-57021649D01*
X12360803Y-57032069D01*
X12418478Y-57071507D01*
X12445676Y-57135866D01*
X12433761Y-57204712D01*
X12386516Y-57256188D01*
X12360803Y-57267931D01*
X12239163Y-57307454D01*
X12070800Y-57393240D01*
X11983591Y-57456602D01*
X11917927Y-57504310D01*
X11917925Y-57504312D01*
X11917924Y-57504312D01*
X11784312Y-57637924D01*
X11784312Y-57637925D01*
X11784310Y-57637927D01*
X11754337Y-57679181D01*
X11673240Y-57790800D01*
X11587454Y-57959163D01*
X11529059Y-58138881D01*
X11499500Y-58325513D01*
X11499500Y-58514486D01*
X11529060Y-58701119D01*
X11529060Y-58701122D01*
X11538528Y-58730260D01*
X11540523Y-58800102D01*
X11504442Y-58859934D01*
X11441741Y-58890762D01*
X11372327Y-58882797D01*
X11332916Y-58856259D01*
X10448071Y-57971414D01*
X10421191Y-57931185D01*
X10361397Y-57786827D01*
X10361390Y-57786814D01*
X10273789Y-57655711D01*
X10273786Y-57655707D01*
X10162292Y-57544213D01*
X10162288Y-57544210D01*
X10031185Y-57456609D01*
X10031172Y-57456602D01*
X9885501Y-57396264D01*
X9885489Y-57396261D01*
X9730845Y-57365500D01*
X9730842Y-57365500D01*
X9573158Y-57365500D01*
X9573155Y-57365500D01*
X9418510Y-57396261D01*
X9418498Y-57396264D01*
X9272827Y-57456602D01*
X9272814Y-57456609D01*
X9141711Y-57544210D01*
X9141707Y-57544213D01*
X9030213Y-57655707D01*
X9030210Y-57655711D01*
X8942609Y-57786814D01*
X8942602Y-57786827D01*
X8882264Y-57932498D01*
X8882261Y-57932510D01*
X8851500Y-58087153D01*
X8851500Y-58244846D01*
X8882261Y-58399489D01*
X8882264Y-58399501D01*
X8942602Y-58545172D01*
X8942609Y-58545185D01*
X9030210Y-58676288D01*
X9030213Y-58676292D01*
X9141707Y-58787786D01*
X9141711Y-58787789D01*
X9272814Y-58875390D01*
X9272827Y-58875397D01*
X9417185Y-58935191D01*
X9457414Y-58962071D01*
X10983453Y-60488111D01*
X10983454Y-60488112D01*
X11098192Y-60564777D01*
X11225667Y-60617578D01*
X11225672Y-60617580D01*
X11361006Y-60644500D01*
X11361007Y-60644500D01*
X11365104Y-60645315D01*
X11427015Y-60677700D01*
X11428540Y-60679197D01*
X11465674Y-60716331D01*
X11491457Y-60742114D01*
X11606190Y-60818776D01*
X11662756Y-60842206D01*
X11733671Y-60871580D01*
X11733672Y-60871580D01*
X11733677Y-60871582D01*
X11760545Y-60876925D01*
X11760551Y-60876926D01*
X11760591Y-60876934D01*
X11850937Y-60894905D01*
X11869006Y-60898500D01*
X11869007Y-60898500D01*
X25214056Y-60898500D01*
X25281095Y-60918185D01*
X25326850Y-60970989D01*
X25336794Y-61040147D01*
X25317158Y-61091390D01*
X25303990Y-61111097D01*
X25287225Y-61136188D01*
X25287221Y-61136195D01*
X25234421Y-61263667D01*
X25234418Y-61263677D01*
X25207500Y-61399004D01*
X25207500Y-61399007D01*
X25207500Y-61536993D01*
X25207500Y-61536995D01*
X25207499Y-61536995D01*
X25234418Y-61672322D01*
X25234421Y-61672332D01*
X25287221Y-61799804D01*
X25287228Y-61799817D01*
X25363885Y-61914541D01*
X25363888Y-61914545D01*
X25461454Y-62012111D01*
X25461458Y-62012114D01*
X25576182Y-62088771D01*
X25576195Y-62088778D01*
X25703667Y-62141578D01*
X25703672Y-62141580D01*
X25703676Y-62141580D01*
X25703677Y-62141581D01*
X25839004Y-62168500D01*
X25839007Y-62168500D01*
X25920035Y-62168500D01*
X25987074Y-62188185D01*
X26007715Y-62204818D01*
X38839386Y-75036490D01*
X38942113Y-75095799D01*
X38966321Y-75102284D01*
X38966324Y-75102286D01*
X38966325Y-75102286D01*
X38996447Y-75110357D01*
X39056691Y-75126500D01*
X49475561Y-75126500D01*
X49542600Y-75146185D01*
X49588355Y-75198989D01*
X49598209Y-75251554D01*
X49599500Y-75251554D01*
X49599500Y-77111035D01*
X49579815Y-77178074D01*
X49527011Y-77223829D01*
X49457853Y-77233773D01*
X49394297Y-77204748D01*
X49387819Y-77198716D01*
X48996819Y-76807716D01*
X48963334Y-76746393D01*
X48960500Y-76720035D01*
X48960500Y-76639004D01*
X48933581Y-76503677D01*
X48933580Y-76503676D01*
X48933580Y-76503672D01*
X48913008Y-76454007D01*
X48880778Y-76376195D01*
X48880771Y-76376182D01*
X48804114Y-76261458D01*
X48804111Y-76261454D01*
X48706545Y-76163888D01*
X48706541Y-76163885D01*
X48591817Y-76087228D01*
X48591804Y-76087221D01*
X48464332Y-76034421D01*
X48464322Y-76034418D01*
X48328995Y-76007500D01*
X48328993Y-76007500D01*
X48191007Y-76007500D01*
X48191005Y-76007500D01*
X48055677Y-76034418D01*
X48055667Y-76034421D01*
X47928195Y-76087221D01*
X47928182Y-76087228D01*
X47813458Y-76163885D01*
X47813454Y-76163888D01*
X47715888Y-76261454D01*
X47715885Y-76261458D01*
X47639228Y-76376182D01*
X47639218Y-76376200D01*
X47638659Y-76377552D01*
X47638177Y-76378149D01*
X47636355Y-76381559D01*
X47635707Y-76381213D01*
X47594811Y-76431950D01*
X47528514Y-76454007D01*
X47460817Y-76436719D01*
X47441368Y-76421608D01*
X47441252Y-76421751D01*
X47436541Y-76417885D01*
X47321817Y-76341228D01*
X47321804Y-76341221D01*
X47194332Y-76288421D01*
X47194322Y-76288418D01*
X47058995Y-76261500D01*
X47058993Y-76261500D01*
X46921007Y-76261500D01*
X46921005Y-76261500D01*
X46785677Y-76288418D01*
X46785667Y-76288421D01*
X46658195Y-76341221D01*
X46658182Y-76341228D01*
X46543458Y-76417885D01*
X46543454Y-76417888D01*
X46445888Y-76515454D01*
X46445885Y-76515458D01*
X46369228Y-76630182D01*
X46369218Y-76630200D01*
X46368659Y-76631552D01*
X46368177Y-76632149D01*
X46366355Y-76635559D01*
X46365707Y-76635213D01*
X46324811Y-76685950D01*
X46258514Y-76708007D01*
X46190817Y-76690719D01*
X46171368Y-76675608D01*
X46171252Y-76675751D01*
X46166541Y-76671885D01*
X46051817Y-76595228D01*
X46051804Y-76595221D01*
X45924332Y-76542421D01*
X45924322Y-76542418D01*
X45788995Y-76515500D01*
X45788993Y-76515500D01*
X45651007Y-76515500D01*
X45651005Y-76515500D01*
X45515677Y-76542418D01*
X45515667Y-76542421D01*
X45388195Y-76595221D01*
X45388182Y-76595228D01*
X45273458Y-76671885D01*
X45273454Y-76671888D01*
X45175888Y-76769454D01*
X45175885Y-76769458D01*
X45099228Y-76884182D01*
X45099221Y-76884195D01*
X45046421Y-77011667D01*
X45046418Y-77011677D01*
X45019500Y-77147004D01*
X45019500Y-77147007D01*
X45019500Y-77284993D01*
X45019500Y-77284995D01*
X45019499Y-77284995D01*
X45046418Y-77420322D01*
X45046421Y-77420332D01*
X45099221Y-77547804D01*
X45099228Y-77547817D01*
X45175885Y-77662541D01*
X45175888Y-77662545D01*
X45273454Y-77760111D01*
X45273458Y-77760114D01*
X45388182Y-77836771D01*
X45388195Y-77836778D01*
X45515667Y-77889578D01*
X45515672Y-77889580D01*
X45515676Y-77889580D01*
X45515677Y-77889581D01*
X45651004Y-77916500D01*
X45651007Y-77916500D01*
X45732034Y-77916500D01*
X45799073Y-77936185D01*
X45819715Y-77952819D01*
X46205386Y-78338490D01*
X46308113Y-78397799D01*
X46332321Y-78404284D01*
X46332324Y-78404286D01*
X46332325Y-78404286D01*
X46362447Y-78412357D01*
X46422691Y-78428500D01*
X46498035Y-78428500D01*
X46565074Y-78448185D01*
X46585716Y-78464819D01*
X46967386Y-78846489D01*
X46967387Y-78846490D01*
X46967389Y-78846491D01*
X47026693Y-78880729D01*
X47026696Y-78880732D01*
X47060937Y-78900500D01*
X47070114Y-78905799D01*
X47184691Y-78936500D01*
X47260035Y-78936500D01*
X47327074Y-78956185D01*
X47347715Y-78972818D01*
X47983386Y-79608490D01*
X48086113Y-79667799D01*
X48110321Y-79674284D01*
X48110324Y-79674286D01*
X48110325Y-79674286D01*
X48140447Y-79682357D01*
X48200691Y-79698500D01*
X65040035Y-79698500D01*
X65107074Y-79718185D01*
X65127716Y-79734819D01*
X69875181Y-84482284D01*
X69908666Y-84543607D01*
X69911500Y-84569965D01*
X69911500Y-84650993D01*
X69911500Y-84650995D01*
X69911499Y-84650995D01*
X69938418Y-84786322D01*
X69938421Y-84786332D01*
X69991221Y-84913804D01*
X69991228Y-84913817D01*
X70067885Y-85028541D01*
X70067888Y-85028545D01*
X70165454Y-85126111D01*
X70165458Y-85126114D01*
X70280182Y-85202771D01*
X70280195Y-85202778D01*
X70407667Y-85255578D01*
X70407672Y-85255580D01*
X70407676Y-85255580D01*
X70407677Y-85255581D01*
X70543004Y-85282500D01*
X70543007Y-85282500D01*
X70680995Y-85282500D01*
X70772041Y-85264389D01*
X70816328Y-85255580D01*
X70943811Y-85202775D01*
X71058542Y-85126114D01*
X71156114Y-85028542D01*
X71232775Y-84913811D01*
X71232778Y-84913804D01*
X71259439Y-84849439D01*
X71303280Y-84795035D01*
X71369574Y-84772970D01*
X71437273Y-84790249D01*
X71484884Y-84841386D01*
X71488561Y-84849439D01*
X71515221Y-84913804D01*
X71515228Y-84913817D01*
X71591885Y-85028541D01*
X71591888Y-85028545D01*
X71689454Y-85126111D01*
X71689458Y-85126114D01*
X71804182Y-85202771D01*
X71804195Y-85202778D01*
X71931667Y-85255578D01*
X71931672Y-85255580D01*
X71931676Y-85255580D01*
X71931677Y-85255581D01*
X72067004Y-85282500D01*
X72067007Y-85282500D01*
X72204995Y-85282500D01*
X72296041Y-85264389D01*
X72340328Y-85255580D01*
X72467811Y-85202775D01*
X72582542Y-85126114D01*
X72680114Y-85028542D01*
X72756775Y-84913811D01*
X72809580Y-84786328D01*
X72836500Y-84650993D01*
X72836500Y-84513007D01*
X72836500Y-84513004D01*
X72809581Y-84377677D01*
X72809580Y-84377676D01*
X72809580Y-84377672D01*
X72803224Y-84362326D01*
X72756778Y-84250195D01*
X72756771Y-84250182D01*
X72680114Y-84135458D01*
X72680111Y-84135454D01*
X72582545Y-84037888D01*
X72582541Y-84037885D01*
X72467817Y-83961228D01*
X72467804Y-83961221D01*
X72340332Y-83908421D01*
X72340322Y-83908418D01*
X72204995Y-83881500D01*
X72204993Y-83881500D01*
X72123965Y-83881500D01*
X72056926Y-83861815D01*
X72036284Y-83845181D01*
X66577284Y-78386181D01*
X66543799Y-78324858D01*
X66548783Y-78255166D01*
X66590655Y-78199233D01*
X66656119Y-78174816D01*
X66664965Y-78174500D01*
X73930035Y-78174500D01*
X73997074Y-78194185D01*
X74017716Y-78210819D01*
X80495386Y-84688489D01*
X80495387Y-84688490D01*
X80495389Y-84688491D01*
X80554693Y-84722729D01*
X80554696Y-84722732D01*
X80588937Y-84742500D01*
X80598114Y-84747799D01*
X80712691Y-84778500D01*
X84584323Y-84778500D01*
X84651362Y-84798185D01*
X84697117Y-84850989D01*
X84698884Y-84855047D01*
X84723223Y-84913808D01*
X84723228Y-84913817D01*
X84799885Y-85028541D01*
X84799888Y-85028545D01*
X84897454Y-85126111D01*
X84897458Y-85126114D01*
X85012182Y-85202771D01*
X85012195Y-85202778D01*
X85139667Y-85255578D01*
X85139672Y-85255580D01*
X85139676Y-85255580D01*
X85139677Y-85255581D01*
X85275004Y-85282500D01*
X85275007Y-85282500D01*
X85412995Y-85282500D01*
X85504041Y-85264389D01*
X85548328Y-85255580D01*
X85675811Y-85202775D01*
X85790542Y-85126114D01*
X85888114Y-85028542D01*
X85964775Y-84913811D01*
X86017580Y-84786328D01*
X86044500Y-84650993D01*
X86044500Y-84513007D01*
X86044500Y-84513004D01*
X86017581Y-84377677D01*
X86017580Y-84377676D01*
X86017580Y-84377672D01*
X86011224Y-84362326D01*
X85964778Y-84250195D01*
X85964771Y-84250182D01*
X85903765Y-84158880D01*
X85903764Y-84158879D01*
X85888116Y-84135460D01*
X85888111Y-84135454D01*
X85790545Y-84037888D01*
X85790541Y-84037885D01*
X85675817Y-83961228D01*
X85675804Y-83961221D01*
X85548332Y-83908421D01*
X85548322Y-83908418D01*
X85412995Y-83881500D01*
X85412993Y-83881500D01*
X85275007Y-83881500D01*
X85239785Y-83888505D01*
X85183504Y-83886662D01*
X85149311Y-83877500D01*
X85149309Y-83877500D01*
X81976617Y-83877500D01*
X81909578Y-83857815D01*
X81863823Y-83805011D01*
X81853879Y-83735853D01*
X81873515Y-83684609D01*
X81900771Y-83643817D01*
X81900771Y-83643816D01*
X81900775Y-83643811D01*
X81953580Y-83516328D01*
X81978288Y-83392114D01*
X81980500Y-83380995D01*
X81980500Y-83243004D01*
X81953581Y-83107677D01*
X81953580Y-83107676D01*
X81953580Y-83107672D01*
X81941779Y-83079181D01*
X81900778Y-82980195D01*
X81900771Y-82980182D01*
X81824114Y-82865458D01*
X81824111Y-82865454D01*
X81766819Y-82808162D01*
X81733334Y-82746839D01*
X81730500Y-82720481D01*
X81730500Y-80335131D01*
X96589500Y-80335131D01*
X96589500Y-82224856D01*
X96589502Y-82224882D01*
X96592413Y-82249987D01*
X96592415Y-82249991D01*
X96637793Y-82352764D01*
X96637794Y-82352765D01*
X96717235Y-82432206D01*
X96820009Y-82477585D01*
X96845135Y-82480500D01*
X98734864Y-82480499D01*
X98734879Y-82480497D01*
X98734882Y-82480497D01*
X98759987Y-82477586D01*
X98759988Y-82477585D01*
X98759991Y-82477585D01*
X98862765Y-82432206D01*
X98942206Y-82352765D01*
X98987585Y-82249991D01*
X98990500Y-82224865D01*
X98990499Y-81810805D01*
X99010183Y-81743769D01*
X99062987Y-81698014D01*
X99132146Y-81688070D01*
X99195701Y-81717095D01*
X99224983Y-81754513D01*
X99303661Y-81908925D01*
X99303664Y-81908930D01*
X99351872Y-81975284D01*
X99861980Y-81465176D01*
X99864075Y-81472993D01*
X99929901Y-81587007D01*
X100022993Y-81680099D01*
X100137007Y-81745925D01*
X100144822Y-81748019D01*
X99634713Y-82258126D01*
X99634714Y-82258127D01*
X99701059Y-82306329D01*
X99869362Y-82392085D01*
X100048997Y-82450451D01*
X100235553Y-82480000D01*
X100424447Y-82480000D01*
X100611002Y-82450451D01*
X100790637Y-82392085D01*
X100958937Y-82306331D01*
X101025284Y-82258126D01*
X101025285Y-82258126D01*
X100515178Y-81748019D01*
X100522993Y-81745925D01*
X100637007Y-81680099D01*
X100730099Y-81587007D01*
X100795925Y-81472993D01*
X100798019Y-81465178D01*
X101308126Y-81975285D01*
X101308126Y-81975284D01*
X101356331Y-81908937D01*
X101442085Y-81740637D01*
X101500451Y-81561002D01*
X101530000Y-81374447D01*
X101530000Y-81185552D01*
X101500451Y-80998997D01*
X101442085Y-80819362D01*
X101356329Y-80651059D01*
X101308127Y-80584714D01*
X101308126Y-80584713D01*
X100798018Y-81094821D01*
X100795925Y-81087007D01*
X100730099Y-80972993D01*
X100637007Y-80879901D01*
X100522993Y-80814075D01*
X100515177Y-80811980D01*
X101025284Y-80301872D01*
X100958933Y-80253666D01*
X100790637Y-80167914D01*
X100611002Y-80109548D01*
X100424447Y-80080000D01*
X100235553Y-80080000D01*
X100048997Y-80109548D01*
X99869362Y-80167914D01*
X99701064Y-80253667D01*
X99701062Y-80253668D01*
X99634714Y-80301871D01*
X99634714Y-80301872D01*
X100144822Y-80811980D01*
X100137007Y-80814075D01*
X100022993Y-80879901D01*
X99929901Y-80972993D01*
X99864075Y-81087007D01*
X99861980Y-81094822D01*
X99351872Y-80584714D01*
X99351871Y-80584714D01*
X99303668Y-80651062D01*
X99303661Y-80651074D01*
X99224983Y-80805487D01*
X99177009Y-80856283D01*
X99109188Y-80873078D01*
X99043053Y-80850540D01*
X98999602Y-80795825D01*
X98990499Y-80749192D01*
X98990499Y-80335143D01*
X98990499Y-80335136D01*
X98990497Y-80335117D01*
X98987586Y-80310012D01*
X98987585Y-80310010D01*
X98987585Y-80310009D01*
X98942206Y-80207235D01*
X98862765Y-80127794D01*
X98821442Y-80109548D01*
X98759992Y-80082415D01*
X98734865Y-80079500D01*
X96845143Y-80079500D01*
X96845117Y-80079502D01*
X96820012Y-80082413D01*
X96820008Y-80082415D01*
X96717235Y-80127793D01*
X96637794Y-80207234D01*
X96592415Y-80310006D01*
X96592415Y-80310008D01*
X96589500Y-80335131D01*
X81730500Y-80335131D01*
X81730500Y-78977964D01*
X81750185Y-78910925D01*
X81766814Y-78890288D01*
X83294407Y-77362694D01*
X83355730Y-77329210D01*
X83420407Y-77332445D01*
X83538881Y-77370940D01*
X83725514Y-77400500D01*
X83725519Y-77400500D01*
X83914486Y-77400500D01*
X84101118Y-77370940D01*
X84126493Y-77362695D01*
X84280832Y-77312547D01*
X84449199Y-77226760D01*
X84602073Y-77115690D01*
X84735690Y-76982073D01*
X84846760Y-76829199D01*
X84932547Y-76660832D01*
X84990940Y-76481118D01*
X84997972Y-76436719D01*
X85020500Y-76294486D01*
X85020500Y-76105514D01*
X85013597Y-76061934D01*
X85022551Y-75992641D01*
X85067547Y-75939188D01*
X85134298Y-75918548D01*
X85201612Y-75937272D01*
X85223751Y-75954854D01*
X85829386Y-76560489D01*
X85829387Y-76560490D01*
X85829389Y-76560491D01*
X85888693Y-76594729D01*
X85888696Y-76594732D01*
X85922937Y-76614500D01*
X85932114Y-76619799D01*
X86046691Y-76650500D01*
X87575501Y-76650500D01*
X87642540Y-76670185D01*
X87688295Y-76722989D01*
X87699501Y-76774500D01*
X87699501Y-77144856D01*
X87699502Y-77144882D01*
X87702413Y-77169987D01*
X87702415Y-77169991D01*
X87747793Y-77272764D01*
X87747794Y-77272765D01*
X87827235Y-77352206D01*
X87930009Y-77397585D01*
X87955135Y-77400500D01*
X89844864Y-77400499D01*
X89844879Y-77400497D01*
X89844882Y-77400497D01*
X89869987Y-77397586D01*
X89869988Y-77397585D01*
X89869991Y-77397585D01*
X89972765Y-77352206D01*
X90052206Y-77272765D01*
X90097585Y-77169991D01*
X90100500Y-77144865D01*
X90100499Y-76105513D01*
X95319500Y-76105513D01*
X95319500Y-76294486D01*
X95349059Y-76481118D01*
X95407454Y-76660836D01*
X95482294Y-76807716D01*
X95493240Y-76829199D01*
X95604310Y-76982073D01*
X95737927Y-77115690D01*
X95890801Y-77226760D01*
X95943900Y-77253815D01*
X96059163Y-77312545D01*
X96059165Y-77312545D01*
X96059168Y-77312547D01*
X96155497Y-77343846D01*
X96238881Y-77370940D01*
X96425514Y-77400500D01*
X96425519Y-77400500D01*
X96614486Y-77400500D01*
X96801118Y-77370940D01*
X96826493Y-77362695D01*
X96980832Y-77312547D01*
X97149199Y-77226760D01*
X97302073Y-77115690D01*
X97435690Y-76982073D01*
X97546760Y-76829199D01*
X97632547Y-76660832D01*
X97690940Y-76481118D01*
X97697972Y-76436719D01*
X97720500Y-76294486D01*
X97720500Y-76105513D01*
X97690940Y-75918881D01*
X97632545Y-75739163D01*
X97546759Y-75570800D01*
X97435690Y-75417927D01*
X97302073Y-75284310D01*
X97149199Y-75173240D01*
X97106008Y-75151233D01*
X96980836Y-75087454D01*
X96801118Y-75029059D01*
X96614486Y-74999500D01*
X96614481Y-74999500D01*
X96425519Y-74999500D01*
X96425514Y-74999500D01*
X96238881Y-75029059D01*
X96059163Y-75087454D01*
X95890800Y-75173240D01*
X95812661Y-75230012D01*
X95737927Y-75284310D01*
X95737925Y-75284312D01*
X95737924Y-75284312D01*
X95604312Y-75417924D01*
X95604312Y-75417925D01*
X95604310Y-75417927D01*
X95556610Y-75483579D01*
X95493240Y-75570800D01*
X95407454Y-75739163D01*
X95349059Y-75918881D01*
X95319500Y-76105513D01*
X90100499Y-76105513D01*
X90100499Y-75255136D01*
X90100084Y-75251554D01*
X90097586Y-75230012D01*
X90097585Y-75230010D01*
X90097585Y-75230009D01*
X90052206Y-75127235D01*
X89972765Y-75047794D01*
X89947164Y-75036490D01*
X89869992Y-75002415D01*
X89844865Y-74999500D01*
X87955143Y-74999500D01*
X87955117Y-74999502D01*
X87930012Y-75002413D01*
X87930008Y-75002415D01*
X87827235Y-75047793D01*
X87747794Y-75127234D01*
X87702415Y-75230006D01*
X87702415Y-75230008D01*
X87699500Y-75255131D01*
X87699500Y-75625500D01*
X87679815Y-75692539D01*
X87627011Y-75738294D01*
X87575500Y-75749500D01*
X86343965Y-75749500D01*
X86276926Y-75729815D01*
X86256284Y-75713181D01*
X84858616Y-74315513D01*
X84858614Y-74315511D01*
X84807250Y-74285856D01*
X84755888Y-74256201D01*
X84743780Y-74252957D01*
X84731673Y-74249713D01*
X84731670Y-74249712D01*
X84693478Y-74239478D01*
X84641309Y-74225500D01*
X84641308Y-74225500D01*
X39353966Y-74225500D01*
X39286927Y-74205815D01*
X39266285Y-74189181D01*
X36520099Y-71442995D01*
X46543499Y-71442995D01*
X46570418Y-71578322D01*
X46570421Y-71578332D01*
X46623221Y-71705804D01*
X46623228Y-71705817D01*
X46699885Y-71820541D01*
X46699888Y-71820545D01*
X46797454Y-71918111D01*
X46797458Y-71918114D01*
X46912182Y-71994771D01*
X46912195Y-71994778D01*
X47039667Y-72047578D01*
X47039672Y-72047580D01*
X47039676Y-72047580D01*
X47039677Y-72047581D01*
X47175004Y-72074500D01*
X47175007Y-72074500D01*
X47312995Y-72074500D01*
X47431803Y-72050867D01*
X47448328Y-72047580D01*
X47575811Y-71994775D01*
X47690542Y-71918114D01*
X47747838Y-71860817D01*
X47809159Y-71827334D01*
X47835518Y-71824500D01*
X89213308Y-71824500D01*
X89213309Y-71824500D01*
X89284580Y-71805401D01*
X89303666Y-71800288D01*
X89303667Y-71800287D01*
X89303673Y-71800286D01*
X89327887Y-71793799D01*
X89430614Y-71734489D01*
X90828284Y-70336819D01*
X90889607Y-70303334D01*
X90915965Y-70300500D01*
X94056201Y-70300500D01*
X94123240Y-70320185D01*
X94166685Y-70368204D01*
X94223240Y-70479199D01*
X94334310Y-70632073D01*
X94467927Y-70765690D01*
X94620801Y-70876760D01*
X94673900Y-70903815D01*
X94789163Y-70962545D01*
X94789165Y-70962545D01*
X94789168Y-70962547D01*
X94885497Y-70993846D01*
X94968881Y-71020940D01*
X95155514Y-71050500D01*
X95155519Y-71050500D01*
X95344486Y-71050500D01*
X95434963Y-71036169D01*
X95531118Y-71020940D01*
X95531123Y-71020938D01*
X95531125Y-71020938D01*
X95559731Y-71011642D01*
X95649592Y-70982444D01*
X95719431Y-70980448D01*
X95775591Y-71012694D01*
X108441216Y-83678319D01*
X108474701Y-83739642D01*
X108469717Y-83809334D01*
X108427845Y-83865267D01*
X108362381Y-83889684D01*
X108353535Y-83890000D01*
X107032842Y-83890000D01*
X107764823Y-84621980D01*
X107757007Y-84624075D01*
X107642993Y-84689901D01*
X107549901Y-84782993D01*
X107484075Y-84897007D01*
X107481980Y-84904822D01*
X106750000Y-84172842D01*
X106750000Y-86007156D01*
X107481980Y-85275176D01*
X107484075Y-85282993D01*
X107549901Y-85397007D01*
X107642993Y-85490099D01*
X107757007Y-85555925D01*
X107764821Y-85558018D01*
X107032842Y-86289998D01*
X107032843Y-86289999D01*
X107419074Y-86289999D01*
X107486113Y-86309684D01*
X107531868Y-86362488D01*
X107541812Y-86431646D01*
X107512787Y-86495202D01*
X107475369Y-86524484D01*
X107320800Y-86603240D01*
X107237240Y-86663951D01*
X107167927Y-86714310D01*
X107167925Y-86714312D01*
X107167924Y-86714312D01*
X107034312Y-86847924D01*
X107034312Y-86847925D01*
X107034310Y-86847927D01*
X107019721Y-86868007D01*
X106923240Y-87000800D01*
X106837454Y-87169163D01*
X106779059Y-87348881D01*
X106749500Y-87535513D01*
X106749500Y-87724482D01*
X106755389Y-87761667D01*
X106746433Y-87830960D01*
X106720597Y-87868743D01*
X106678594Y-87910747D01*
X106617272Y-87944233D01*
X106615105Y-87944684D01*
X106548585Y-87957916D01*
X106517434Y-87964113D01*
X106483977Y-87970767D01*
X106475670Y-87972420D01*
X106348190Y-88025224D01*
X106233454Y-88101887D01*
X105881887Y-88453454D01*
X105873542Y-88465944D01*
X105828587Y-88533225D01*
X105807833Y-88564286D01*
X105805222Y-88568194D01*
X105752421Y-88695667D01*
X105752418Y-88695677D01*
X105724684Y-88835105D01*
X105692299Y-88897016D01*
X105690748Y-88898594D01*
X104036181Y-90553161D01*
X103974858Y-90586646D01*
X103905166Y-90581662D01*
X103849233Y-90539790D01*
X103824816Y-90474326D01*
X103824500Y-90465480D01*
X103824500Y-90355004D01*
X103797581Y-90219677D01*
X103797580Y-90219676D01*
X103797580Y-90219672D01*
X103773178Y-90160759D01*
X103744778Y-90092195D01*
X103744771Y-90092182D01*
X103668114Y-89977458D01*
X103668111Y-89977454D01*
X103570545Y-89879888D01*
X103570541Y-89879885D01*
X103455817Y-89803228D01*
X103455804Y-89803221D01*
X103328332Y-89750421D01*
X103328322Y-89750418D01*
X103192995Y-89723500D01*
X103192993Y-89723500D01*
X103111965Y-89723500D01*
X103044926Y-89703815D01*
X103024284Y-89687181D01*
X102130616Y-88793513D01*
X102130614Y-88793511D01*
X102027887Y-88734201D01*
X102027884Y-88734199D01*
X101997703Y-88726113D01*
X101997702Y-88726112D01*
X101997702Y-88726113D01*
X101955505Y-88714806D01*
X101913309Y-88703500D01*
X101913308Y-88703500D01*
X94903625Y-88703500D01*
X94836586Y-88683815D01*
X94790831Y-88631011D01*
X94780887Y-88561853D01*
X94809912Y-88498297D01*
X94815944Y-88491819D01*
X94854309Y-88453454D01*
X94895690Y-88412073D01*
X95006760Y-88259199D01*
X95092547Y-88090832D01*
X95150940Y-87911118D01*
X95150999Y-87910747D01*
X95180500Y-87724486D01*
X95180500Y-87535513D01*
X95150940Y-87348881D01*
X95093362Y-87171677D01*
X95092547Y-87169168D01*
X95092545Y-87169165D01*
X95092545Y-87169163D01*
X95028867Y-87044189D01*
X95006760Y-87000801D01*
X94895690Y-86847927D01*
X94762073Y-86714310D01*
X94609199Y-86603240D01*
X94559437Y-86577885D01*
X94440836Y-86517454D01*
X94261118Y-86459059D01*
X94074486Y-86429500D01*
X94074481Y-86429500D01*
X93885519Y-86429500D01*
X93885514Y-86429500D01*
X93698881Y-86459059D01*
X93519163Y-86517454D01*
X93350800Y-86603240D01*
X93267240Y-86663951D01*
X93197927Y-86714310D01*
X93197925Y-86714312D01*
X93197924Y-86714312D01*
X93064312Y-86847924D01*
X93064312Y-86847925D01*
X93064310Y-86847927D01*
X93049721Y-86868007D01*
X92953240Y-87000800D01*
X92874484Y-87155368D01*
X92826509Y-87206164D01*
X92758688Y-87222959D01*
X92692553Y-87200422D01*
X92649102Y-87145706D01*
X92639999Y-87099073D01*
X92639999Y-86712843D01*
X92639998Y-86712842D01*
X91908019Y-87444823D01*
X91905925Y-87437007D01*
X91840099Y-87322993D01*
X91747007Y-87229901D01*
X91632993Y-87164075D01*
X91625176Y-87161980D01*
X92357156Y-86430000D01*
X90522842Y-86430000D01*
X91254823Y-87161980D01*
X91247007Y-87164075D01*
X91132993Y-87229901D01*
X91039901Y-87322993D01*
X90974075Y-87437007D01*
X90971980Y-87444823D01*
X90240000Y-86712842D01*
X90240000Y-88211735D01*
X90220315Y-88278774D01*
X90167511Y-88324529D01*
X90098353Y-88334473D01*
X90047109Y-88314837D01*
X89993817Y-88279228D01*
X89993804Y-88279221D01*
X89866332Y-88226421D01*
X89866322Y-88226418D01*
X89730995Y-88199500D01*
X89730993Y-88199500D01*
X89593007Y-88199500D01*
X89593005Y-88199500D01*
X89457677Y-88226418D01*
X89457667Y-88226421D01*
X89330195Y-88279221D01*
X89330182Y-88279228D01*
X89215458Y-88355885D01*
X89215454Y-88355888D01*
X89117888Y-88453454D01*
X89117885Y-88453458D01*
X89041228Y-88568182D01*
X89041221Y-88568195D01*
X88988421Y-88695667D01*
X88988419Y-88695676D01*
X88964385Y-88816496D01*
X88931999Y-88878406D01*
X88871283Y-88912980D01*
X88801514Y-88909239D01*
X88755087Y-88879984D01*
X88668616Y-88793513D01*
X88668614Y-88793511D01*
X88565887Y-88734201D01*
X88565884Y-88734199D01*
X88535703Y-88726113D01*
X88535702Y-88726112D01*
X88535702Y-88726113D01*
X88493505Y-88714806D01*
X88451309Y-88703500D01*
X88451308Y-88703500D01*
X82203625Y-88703500D01*
X82136586Y-88683815D01*
X82090831Y-88631011D01*
X82080887Y-88561853D01*
X82109912Y-88498297D01*
X82115944Y-88491819D01*
X82154309Y-88453454D01*
X82195690Y-88412073D01*
X82306760Y-88259199D01*
X82392547Y-88090832D01*
X82450940Y-87911118D01*
X82450999Y-87910747D01*
X82480500Y-87724486D01*
X82480500Y-87535513D01*
X82450940Y-87348881D01*
X82393362Y-87171677D01*
X82392547Y-87169168D01*
X82392545Y-87169165D01*
X82392545Y-87169163D01*
X82328867Y-87044189D01*
X82306760Y-87000801D01*
X82195690Y-86847927D01*
X82062073Y-86714310D01*
X81909199Y-86603240D01*
X81829196Y-86562477D01*
X81740836Y-86517454D01*
X81561118Y-86459059D01*
X81374486Y-86429500D01*
X81374481Y-86429500D01*
X81185519Y-86429500D01*
X81185514Y-86429500D01*
X80998881Y-86459059D01*
X80819163Y-86517454D01*
X80650800Y-86603240D01*
X80567240Y-86663951D01*
X80497927Y-86714310D01*
X80497925Y-86714312D01*
X80497924Y-86714312D01*
X80364312Y-86847924D01*
X80364312Y-86847925D01*
X80364310Y-86847927D01*
X80349721Y-86868007D01*
X80253240Y-87000800D01*
X80174484Y-87155368D01*
X80126509Y-87206164D01*
X80058688Y-87222959D01*
X79992553Y-87200422D01*
X79949102Y-87145706D01*
X79939999Y-87099073D01*
X79939999Y-86712843D01*
X79939998Y-86712842D01*
X79208019Y-87444823D01*
X79205925Y-87437007D01*
X79140099Y-87322993D01*
X79047007Y-87229901D01*
X78932993Y-87164075D01*
X78925176Y-87161980D01*
X79657156Y-86430000D01*
X77822842Y-86430000D01*
X78554823Y-87161980D01*
X78547007Y-87164075D01*
X78432993Y-87229901D01*
X78339901Y-87322993D01*
X78274075Y-87437007D01*
X78271980Y-87444823D01*
X77540000Y-86712843D01*
X77540000Y-88541535D01*
X77520315Y-88608574D01*
X77467511Y-88654329D01*
X77398353Y-88664273D01*
X77334797Y-88635248D01*
X77328319Y-88629216D01*
X75460616Y-86761513D01*
X75460614Y-86761511D01*
X75378864Y-86714312D01*
X75357888Y-86702201D01*
X75345780Y-86698957D01*
X75333673Y-86695713D01*
X75333670Y-86695712D01*
X75258080Y-86675458D01*
X75243309Y-86671500D01*
X75243308Y-86671500D01*
X75238311Y-86670161D01*
X75226804Y-86663951D01*
X75217334Y-86662456D01*
X75195431Y-86647022D01*
X75187910Y-86642964D01*
X75185247Y-86640591D01*
X75122542Y-86577886D01*
X75091895Y-86557408D01*
X75007816Y-86501228D01*
X75007804Y-86501221D01*
X74880332Y-86448421D01*
X74880322Y-86448418D01*
X74744995Y-86421500D01*
X74744993Y-86421500D01*
X74607007Y-86421500D01*
X74607005Y-86421500D01*
X74471677Y-86448418D01*
X74471667Y-86448421D01*
X74344195Y-86501221D01*
X74344182Y-86501228D01*
X74229458Y-86577885D01*
X74229454Y-86577888D01*
X74131888Y-86675454D01*
X74131885Y-86675458D01*
X74055228Y-86790182D01*
X74055218Y-86790200D01*
X74054659Y-86791552D01*
X74054177Y-86792149D01*
X74052355Y-86795559D01*
X74051707Y-86795213D01*
X74010811Y-86845950D01*
X73944514Y-86868007D01*
X73876817Y-86850719D01*
X73857368Y-86835608D01*
X73857252Y-86835751D01*
X73852541Y-86831885D01*
X73737817Y-86755228D01*
X73737804Y-86755221D01*
X73610332Y-86702421D01*
X73610322Y-86702418D01*
X73474995Y-86675500D01*
X73474993Y-86675500D01*
X73337007Y-86675500D01*
X73337005Y-86675500D01*
X73201677Y-86702418D01*
X73201667Y-86702421D01*
X73074195Y-86755221D01*
X73074182Y-86755228D01*
X72959458Y-86831885D01*
X72959454Y-86831888D01*
X72861888Y-86929454D01*
X72861885Y-86929458D01*
X72785228Y-87044182D01*
X72785221Y-87044195D01*
X72732421Y-87171667D01*
X72732418Y-87171677D01*
X72705500Y-87307004D01*
X72705500Y-87307007D01*
X72705500Y-87444993D01*
X72705500Y-87444995D01*
X72705499Y-87444995D01*
X72732418Y-87580322D01*
X72732421Y-87580332D01*
X72785221Y-87707804D01*
X72785228Y-87707817D01*
X72861885Y-87822541D01*
X72861888Y-87822545D01*
X72959454Y-87920111D01*
X72959458Y-87920114D01*
X73074182Y-87996771D01*
X73074195Y-87996778D01*
X73201667Y-88049578D01*
X73201672Y-88049580D01*
X73201676Y-88049580D01*
X73201677Y-88049581D01*
X73337004Y-88076500D01*
X73337007Y-88076500D01*
X73418034Y-88076500D01*
X73485073Y-88096185D01*
X73505715Y-88112819D01*
X73891386Y-88498490D01*
X73994113Y-88557799D01*
X74018321Y-88564284D01*
X74018324Y-88564286D01*
X74018325Y-88564286D01*
X74032910Y-88568194D01*
X74108691Y-88588500D01*
X74692035Y-88588500D01*
X74759074Y-88608185D01*
X74779715Y-88624818D01*
X76431386Y-90276490D01*
X76534113Y-90335799D01*
X76558321Y-90342284D01*
X76558324Y-90342286D01*
X76558325Y-90342286D01*
X76573873Y-90346452D01*
X76648691Y-90366500D01*
X87646035Y-90366500D01*
X87713074Y-90386185D01*
X87733715Y-90402818D01*
X88369386Y-91038490D01*
X88472113Y-91097799D01*
X88496321Y-91104284D01*
X88496324Y-91104286D01*
X88496325Y-91104286D01*
X88510914Y-91108195D01*
X88586691Y-91128500D01*
X100092035Y-91128500D01*
X100159074Y-91148185D01*
X100179716Y-91164819D01*
X100561386Y-91546489D01*
X100561387Y-91546490D01*
X100561389Y-91546491D01*
X100620693Y-91580729D01*
X100620696Y-91580732D01*
X100649660Y-91597454D01*
X100664114Y-91605799D01*
X100778691Y-91636500D01*
X101602323Y-91636500D01*
X101669362Y-91656185D01*
X101715117Y-91708989D01*
X101716884Y-91713047D01*
X101741223Y-91771808D01*
X101741228Y-91771817D01*
X101817885Y-91886541D01*
X101817888Y-91886545D01*
X101915454Y-91984111D01*
X101915458Y-91984114D01*
X102030182Y-92060771D01*
X102030195Y-92060778D01*
X102157667Y-92113578D01*
X102157672Y-92113580D01*
X102195458Y-92121096D01*
X102257367Y-92153480D01*
X102291942Y-92214195D01*
X102288203Y-92283965D01*
X102258947Y-92330394D01*
X95975887Y-98613454D01*
X95899222Y-98728192D01*
X95846421Y-98855667D01*
X95846418Y-98855679D01*
X95820183Y-98987574D01*
X95820180Y-98987592D01*
X95819500Y-98991006D01*
X95819500Y-101545500D01*
X95799815Y-101612539D01*
X95747011Y-101658294D01*
X95695501Y-101669500D01*
X95575142Y-101669500D01*
X95575119Y-101669502D01*
X95550011Y-101672414D01*
X95550008Y-101672415D01*
X95447235Y-101717793D01*
X95367794Y-101797234D01*
X95322415Y-101900006D01*
X95322415Y-101900008D01*
X95319500Y-101925131D01*
X95319500Y-103814856D01*
X95319502Y-103814882D01*
X95322413Y-103839987D01*
X95322415Y-103839991D01*
X95367793Y-103942764D01*
X95367794Y-103942765D01*
X95447235Y-104022206D01*
X95550009Y-104067585D01*
X95575135Y-104070500D01*
X97464864Y-104070499D01*
X97464879Y-104070497D01*
X97464882Y-104070497D01*
X97489987Y-104067586D01*
X97489988Y-104067585D01*
X97489991Y-104067585D01*
X97592765Y-104022206D01*
X97672206Y-103942765D01*
X97717585Y-103839991D01*
X97720500Y-103814865D01*
X97720499Y-103400805D01*
X97740183Y-103333769D01*
X97792987Y-103288014D01*
X97862146Y-103278070D01*
X97925701Y-103307095D01*
X97954983Y-103344513D01*
X98033661Y-103498925D01*
X98033664Y-103498930D01*
X98081872Y-103565284D01*
X98591980Y-103055176D01*
X98594075Y-103062993D01*
X98659901Y-103177007D01*
X98752993Y-103270099D01*
X98867007Y-103335925D01*
X98874822Y-103338019D01*
X98364713Y-103848126D01*
X98364714Y-103848127D01*
X98431059Y-103896329D01*
X98599362Y-103982085D01*
X98778997Y-104040451D01*
X98965553Y-104070000D01*
X99154447Y-104070000D01*
X99341002Y-104040451D01*
X99520637Y-103982085D01*
X99688937Y-103896331D01*
X99755284Y-103848126D01*
X99755285Y-103848126D01*
X99245178Y-103338019D01*
X99252993Y-103335925D01*
X99367007Y-103270099D01*
X99460099Y-103177007D01*
X99525925Y-103062993D01*
X99528019Y-103055177D01*
X100038126Y-103565285D01*
X100038126Y-103565284D01*
X100086331Y-103498937D01*
X100172085Y-103330637D01*
X100230451Y-103151002D01*
X100260000Y-102964447D01*
X100260000Y-102775552D01*
X100230451Y-102588997D01*
X100172085Y-102409362D01*
X100086329Y-102241059D01*
X100038127Y-102174714D01*
X100038126Y-102174713D01*
X99528018Y-102684821D01*
X99525925Y-102677007D01*
X99460099Y-102562993D01*
X99367007Y-102469901D01*
X99252993Y-102404075D01*
X99245177Y-102401980D01*
X99755284Y-101891872D01*
X99688933Y-101843666D01*
X99520637Y-101757914D01*
X99341002Y-101699548D01*
X99154447Y-101670000D01*
X98965553Y-101670000D01*
X98778997Y-101699548D01*
X98599362Y-101757914D01*
X98431064Y-101843667D01*
X98431062Y-101843668D01*
X98364714Y-101891871D01*
X98364714Y-101891872D01*
X98874822Y-102401980D01*
X98867007Y-102404075D01*
X98752993Y-102469901D01*
X98659901Y-102562993D01*
X98594075Y-102677007D01*
X98591980Y-102684822D01*
X98081872Y-102174714D01*
X98081871Y-102174714D01*
X98033668Y-102241062D01*
X98033661Y-102241074D01*
X97954983Y-102395487D01*
X97907009Y-102446283D01*
X97839188Y-102463078D01*
X97773053Y-102440540D01*
X97729602Y-102385825D01*
X97720499Y-102339192D01*
X97720499Y-101925143D01*
X97720499Y-101925136D01*
X97719235Y-101914233D01*
X97717586Y-101900012D01*
X97717585Y-101900010D01*
X97717585Y-101900009D01*
X97672206Y-101797235D01*
X97592765Y-101717794D01*
X97551442Y-101699548D01*
X97489992Y-101672415D01*
X97464868Y-101669500D01*
X97464865Y-101669500D01*
X97344500Y-101669500D01*
X97277461Y-101649815D01*
X97231706Y-101597011D01*
X97220500Y-101545500D01*
X97220500Y-99401518D01*
X97240185Y-99334479D01*
X97256814Y-99313842D01*
X103249607Y-93321048D01*
X103310928Y-93287565D01*
X103380620Y-93292549D01*
X103436553Y-93334421D01*
X103458903Y-93384540D01*
X103466418Y-93422320D01*
X103466421Y-93422332D01*
X103519221Y-93549804D01*
X103519228Y-93549817D01*
X103595885Y-93664541D01*
X103595888Y-93664545D01*
X103693454Y-93762111D01*
X103693458Y-93762114D01*
X103808182Y-93838771D01*
X103808195Y-93838778D01*
X103935667Y-93891578D01*
X103935672Y-93891580D01*
X103935676Y-93891580D01*
X103935677Y-93891581D01*
X104071004Y-93918500D01*
X104071007Y-93918500D01*
X104208995Y-93918500D01*
X104300041Y-93900389D01*
X104344328Y-93891580D01*
X104471811Y-93838775D01*
X104586542Y-93762114D01*
X104643838Y-93704817D01*
X104705159Y-93671334D01*
X104731518Y-93668500D01*
X107186559Y-93668500D01*
X107253598Y-93688185D01*
X107259445Y-93692182D01*
X107320801Y-93736760D01*
X107400347Y-93777290D01*
X107489163Y-93822545D01*
X107489165Y-93822545D01*
X107489168Y-93822547D01*
X107539122Y-93838778D01*
X107610803Y-93862069D01*
X107668478Y-93901507D01*
X107695676Y-93965866D01*
X107683761Y-94034712D01*
X107636516Y-94086188D01*
X107610803Y-94097931D01*
X107489163Y-94137454D01*
X107320800Y-94223240D01*
X107233579Y-94286610D01*
X107167927Y-94334310D01*
X107167925Y-94334312D01*
X107167924Y-94334312D01*
X107034312Y-94467924D01*
X107034312Y-94467925D01*
X107034310Y-94467927D01*
X106986610Y-94533579D01*
X106923240Y-94620800D01*
X106837454Y-94789163D01*
X106779059Y-94968881D01*
X106749500Y-95155513D01*
X106749500Y-95344486D01*
X106779059Y-95531118D01*
X106837454Y-95710836D01*
X106923240Y-95879199D01*
X107034310Y-96032073D01*
X107167927Y-96165690D01*
X107320801Y-96276760D01*
X107400347Y-96317290D01*
X107489163Y-96362545D01*
X107489165Y-96362545D01*
X107489168Y-96362547D01*
X107578734Y-96391649D01*
X107610803Y-96402069D01*
X107668478Y-96441507D01*
X107695676Y-96505866D01*
X107683761Y-96574712D01*
X107636516Y-96626188D01*
X107610803Y-96637931D01*
X107489163Y-96677454D01*
X107320800Y-96763240D01*
X107242661Y-96820012D01*
X107167927Y-96874310D01*
X107167925Y-96874312D01*
X107167924Y-96874312D01*
X107034312Y-97007924D01*
X107034312Y-97007925D01*
X107034310Y-97007927D01*
X106986610Y-97073579D01*
X106923240Y-97160800D01*
X106837454Y-97329163D01*
X106779059Y-97508881D01*
X106749500Y-97695513D01*
X106749500Y-97884486D01*
X106779059Y-98071118D01*
X106837454Y-98250836D01*
X106890773Y-98355479D01*
X106923240Y-98419199D01*
X107034310Y-98572073D01*
X107167927Y-98705690D01*
X107320801Y-98816760D01*
X107397161Y-98855667D01*
X107489163Y-98902545D01*
X107489165Y-98902545D01*
X107489168Y-98902547D01*
X107570652Y-98929023D01*
X107668881Y-98960940D01*
X107855514Y-98990500D01*
X107855519Y-98990500D01*
X108044486Y-98990500D01*
X108231118Y-98960940D01*
X108273331Y-98947224D01*
X108410832Y-98902547D01*
X108579199Y-98816760D01*
X108732073Y-98705690D01*
X108865690Y-98572073D01*
X108976760Y-98419199D01*
X109062547Y-98250832D01*
X109120940Y-98071118D01*
X109150500Y-97884486D01*
X109150500Y-97695513D01*
X109120940Y-97508881D01*
X109082445Y-97390407D01*
X109080450Y-97320565D01*
X109112695Y-97264407D01*
X109411602Y-96965500D01*
X109834489Y-96542614D01*
X109893798Y-96439887D01*
X109893799Y-96439886D01*
X109924500Y-96325309D01*
X109924500Y-83506691D01*
X109893799Y-83392114D01*
X109834489Y-83289387D01*
X109750613Y-83205511D01*
X109647886Y-83146201D01*
X109533309Y-83115500D01*
X109533306Y-83115500D01*
X109203965Y-83115500D01*
X109136926Y-83095815D01*
X109116284Y-83079181D01*
X96412694Y-70375591D01*
X96405400Y-70362234D01*
X96394187Y-70351942D01*
X96388995Y-70332191D01*
X96379209Y-70314268D01*
X96380020Y-70298043D01*
X96376426Y-70284367D01*
X96382441Y-70249602D01*
X96406639Y-70175131D01*
X121989500Y-70175131D01*
X121989500Y-72064856D01*
X121989502Y-72064882D01*
X121992413Y-72089987D01*
X121992415Y-72089991D01*
X122037793Y-72192764D01*
X122037794Y-72192765D01*
X122117235Y-72272206D01*
X122220009Y-72317585D01*
X122245135Y-72320500D01*
X123348480Y-72320499D01*
X123415519Y-72340184D01*
X123436161Y-72356818D01*
X123470747Y-72391404D01*
X123504232Y-72452727D01*
X123504683Y-72454893D01*
X123532418Y-72594322D01*
X123532421Y-72594332D01*
X123585222Y-72721807D01*
X123661887Y-72836545D01*
X124013454Y-73188112D01*
X124128190Y-73264776D01*
X124226790Y-73305617D01*
X124255671Y-73317580D01*
X124255672Y-73317580D01*
X124255677Y-73317582D01*
X124282545Y-73322925D01*
X124282551Y-73322926D01*
X124282591Y-73322934D01*
X124391007Y-73344500D01*
X124391009Y-73344500D01*
X124395106Y-73345315D01*
X124457016Y-73377701D01*
X124458540Y-73379197D01*
X124521454Y-73442111D01*
X124521457Y-73442114D01*
X124636190Y-73518776D01*
X124734790Y-73559617D01*
X124763671Y-73571580D01*
X124763672Y-73571580D01*
X124763677Y-73571582D01*
X124790545Y-73576925D01*
X124790551Y-73576926D01*
X124790591Y-73576934D01*
X124880937Y-73594905D01*
X124899006Y-73598500D01*
X124899007Y-73598500D01*
X130370995Y-73598500D01*
X130479456Y-73576925D01*
X130506327Y-73571580D01*
X130570068Y-73545177D01*
X130633806Y-73518777D01*
X130633807Y-73518776D01*
X130633810Y-73518775D01*
X130748542Y-73442114D01*
X131833837Y-72356817D01*
X131895160Y-72323333D01*
X131921518Y-72320499D01*
X133024856Y-72320499D01*
X133024864Y-72320499D01*
X133024879Y-72320497D01*
X133024882Y-72320497D01*
X133049987Y-72317586D01*
X133049988Y-72317585D01*
X133049991Y-72317585D01*
X133152765Y-72272206D01*
X133232206Y-72192765D01*
X133277585Y-72089991D01*
X133280500Y-72064865D01*
X133280499Y-71650805D01*
X133300183Y-71583769D01*
X133352987Y-71538014D01*
X133422146Y-71528070D01*
X133485701Y-71557095D01*
X133514983Y-71594513D01*
X133593661Y-71748925D01*
X133593664Y-71748930D01*
X133641872Y-71815284D01*
X134151980Y-71305176D01*
X134154075Y-71312993D01*
X134219901Y-71427007D01*
X134312993Y-71520099D01*
X134427007Y-71585925D01*
X134434822Y-71588019D01*
X133924713Y-72098126D01*
X133924714Y-72098127D01*
X133991059Y-72146329D01*
X134159362Y-72232085D01*
X134338997Y-72290451D01*
X134525553Y-72320000D01*
X134714447Y-72320000D01*
X134901002Y-72290451D01*
X135080637Y-72232085D01*
X135248937Y-72146331D01*
X135315284Y-72098126D01*
X135315285Y-72098126D01*
X134805178Y-71588019D01*
X134812993Y-71585925D01*
X134927007Y-71520099D01*
X135020099Y-71427007D01*
X135085925Y-71312993D01*
X135088019Y-71305177D01*
X135598126Y-71815285D01*
X135598126Y-71815284D01*
X135646331Y-71748937D01*
X135732085Y-71580637D01*
X135790451Y-71401002D01*
X135820000Y-71214447D01*
X135820000Y-71025552D01*
X135790451Y-70838997D01*
X135732085Y-70659362D01*
X135646329Y-70491059D01*
X135598127Y-70424714D01*
X135598126Y-70424713D01*
X135088018Y-70934821D01*
X135085925Y-70927007D01*
X135020099Y-70812993D01*
X134927007Y-70719901D01*
X134812993Y-70654075D01*
X134805177Y-70651980D01*
X135315284Y-70141872D01*
X135248933Y-70093666D01*
X135080637Y-70007914D01*
X134901002Y-69949548D01*
X134714447Y-69920000D01*
X134525553Y-69920000D01*
X134338997Y-69949548D01*
X134159362Y-70007914D01*
X133991064Y-70093667D01*
X133991062Y-70093668D01*
X133924714Y-70141871D01*
X133924714Y-70141872D01*
X134434822Y-70651980D01*
X134427007Y-70654075D01*
X134312993Y-70719901D01*
X134219901Y-70812993D01*
X134154075Y-70927007D01*
X134151980Y-70934822D01*
X133641872Y-70424714D01*
X133641871Y-70424714D01*
X133593668Y-70491062D01*
X133593661Y-70491074D01*
X133514983Y-70645487D01*
X133467009Y-70696283D01*
X133399188Y-70713078D01*
X133333053Y-70690540D01*
X133289602Y-70635825D01*
X133280499Y-70589192D01*
X133280499Y-70175143D01*
X133280499Y-70175136D01*
X133280497Y-70175117D01*
X133277586Y-70150012D01*
X133277585Y-70150010D01*
X133277585Y-70150009D01*
X133232206Y-70047235D01*
X133152765Y-69967794D01*
X133111442Y-69949548D01*
X133049992Y-69922415D01*
X133024865Y-69919500D01*
X131135143Y-69919500D01*
X131135117Y-69919502D01*
X131110012Y-69922413D01*
X131110008Y-69922415D01*
X131007235Y-69967793D01*
X130927794Y-70047234D01*
X130882415Y-70150006D01*
X130882415Y-70150008D01*
X130879500Y-70175131D01*
X130879500Y-71278479D01*
X130859815Y-71345518D01*
X130843181Y-71366160D01*
X130048161Y-72161181D01*
X129986838Y-72194666D01*
X129960480Y-72197500D01*
X126551607Y-72197500D01*
X126484568Y-72177815D01*
X126438813Y-72125011D01*
X126435945Y-72108786D01*
X125915177Y-71588019D01*
X125922993Y-71585925D01*
X126037007Y-71520099D01*
X126130099Y-71427007D01*
X126195925Y-71312993D01*
X126198019Y-71305178D01*
X126708126Y-71815285D01*
X126708126Y-71815284D01*
X126756331Y-71748937D01*
X126842085Y-71580637D01*
X126900451Y-71401002D01*
X126930000Y-71214447D01*
X126930000Y-71025552D01*
X126900451Y-70838997D01*
X126842085Y-70659362D01*
X126756329Y-70491059D01*
X126708127Y-70424714D01*
X126708126Y-70424713D01*
X126198018Y-70934821D01*
X126195925Y-70927007D01*
X126130099Y-70812993D01*
X126037007Y-70719901D01*
X125922993Y-70654075D01*
X125915177Y-70651980D01*
X126425284Y-70141872D01*
X126358933Y-70093666D01*
X126190637Y-70007914D01*
X126011002Y-69949548D01*
X125824447Y-69920000D01*
X125635553Y-69920000D01*
X125448997Y-69949548D01*
X125269362Y-70007914D01*
X125101064Y-70093667D01*
X125101062Y-70093668D01*
X125034714Y-70141871D01*
X125034714Y-70141872D01*
X125544822Y-70651980D01*
X125537007Y-70654075D01*
X125422993Y-70719901D01*
X125329901Y-70812993D01*
X125264075Y-70927007D01*
X125261980Y-70934822D01*
X124751872Y-70424714D01*
X124751871Y-70424714D01*
X124703668Y-70491062D01*
X124703667Y-70491064D01*
X124624984Y-70645488D01*
X124577009Y-70696284D01*
X124509188Y-70713079D01*
X124443053Y-70690541D01*
X124399602Y-70635826D01*
X124390499Y-70589193D01*
X124390499Y-70175143D01*
X124390499Y-70175136D01*
X124390497Y-70175117D01*
X124387586Y-70150012D01*
X124387585Y-70150010D01*
X124387585Y-70150009D01*
X124342206Y-70047235D01*
X124262765Y-69967794D01*
X124221442Y-69949548D01*
X124159992Y-69922415D01*
X124134865Y-69919500D01*
X122245143Y-69919500D01*
X122245117Y-69919502D01*
X122220012Y-69922413D01*
X122220008Y-69922415D01*
X122117235Y-69967793D01*
X122037794Y-70047234D01*
X121992415Y-70150006D01*
X121992415Y-70150008D01*
X121989500Y-70175131D01*
X96406639Y-70175131D01*
X96420940Y-70131118D01*
X96434226Y-70047234D01*
X96450500Y-69944486D01*
X96450500Y-69755513D01*
X96420940Y-69568881D01*
X96375880Y-69430204D01*
X96362547Y-69389168D01*
X96362545Y-69389165D01*
X96362545Y-69389163D01*
X96276759Y-69220800D01*
X96165690Y-69067927D01*
X96032073Y-68934310D01*
X95879199Y-68823240D01*
X95710836Y-68737454D01*
X95531118Y-68679059D01*
X95344486Y-68649500D01*
X95344481Y-68649500D01*
X95155519Y-68649500D01*
X95155514Y-68649500D01*
X94968881Y-68679059D01*
X94789163Y-68737454D01*
X94620800Y-68823240D01*
X94533579Y-68886610D01*
X94467927Y-68934310D01*
X94467925Y-68934312D01*
X94467924Y-68934312D01*
X94334312Y-69067924D01*
X94334312Y-69067925D01*
X94334310Y-69067927D01*
X94286610Y-69133579D01*
X94223240Y-69220800D01*
X94166686Y-69331795D01*
X94118712Y-69382591D01*
X94056201Y-69399500D01*
X90618691Y-69399500D01*
X90549944Y-69417920D01*
X90504112Y-69430201D01*
X90504107Y-69430204D01*
X90460695Y-69455267D01*
X90460696Y-69455268D01*
X90401389Y-69489508D01*
X90401383Y-69489513D01*
X89042180Y-70848716D01*
X88980857Y-70882201D01*
X88911165Y-70877217D01*
X88855232Y-70835345D01*
X88830815Y-70769881D01*
X88830499Y-70761062D01*
X88830499Y-69691517D01*
X88850184Y-69624479D01*
X88866813Y-69603842D01*
X94233838Y-64236819D01*
X94295161Y-64203334D01*
X94321519Y-64200500D01*
X116668684Y-64200500D01*
X116716136Y-64209939D01*
X116781031Y-64236819D01*
X116860503Y-64269737D01*
X117015153Y-64300499D01*
X117015156Y-64300500D01*
X117015158Y-64300500D01*
X117172844Y-64300500D01*
X117172845Y-64300499D01*
X117327497Y-64269737D01*
X117473179Y-64209394D01*
X117604289Y-64121789D01*
X117715789Y-64010289D01*
X117803394Y-63879179D01*
X117863737Y-63733497D01*
X117894500Y-63578842D01*
X117894500Y-63421158D01*
X117894500Y-63421155D01*
X117894499Y-63421153D01*
X117863738Y-63266510D01*
X117863737Y-63266503D01*
X117863735Y-63266498D01*
X117803397Y-63120827D01*
X117803390Y-63120814D01*
X117715789Y-62989711D01*
X117715786Y-62989707D01*
X117604292Y-62878213D01*
X117604288Y-62878210D01*
X117473185Y-62790609D01*
X117473172Y-62790602D01*
X117327501Y-62730264D01*
X117327489Y-62730261D01*
X117172845Y-62699500D01*
X117172842Y-62699500D01*
X117015158Y-62699500D01*
X117015155Y-62699500D01*
X116860510Y-62730261D01*
X116860498Y-62730264D01*
X116716136Y-62790061D01*
X116668684Y-62799500D01*
X93911005Y-62799500D01*
X93775677Y-62826418D01*
X93775667Y-62826421D01*
X93648192Y-62879222D01*
X93533454Y-62955887D01*
X87876160Y-68613181D01*
X87814837Y-68646666D01*
X87788479Y-68649500D01*
X86685143Y-68649500D01*
X86685117Y-68649502D01*
X86660012Y-68652413D01*
X86660008Y-68652415D01*
X86557235Y-68697793D01*
X86477794Y-68777234D01*
X86432415Y-68880006D01*
X86432415Y-68880008D01*
X86429500Y-68905131D01*
X86429500Y-68905137D01*
X86429501Y-70798444D01*
X86427942Y-70798444D01*
X86413570Y-70860412D01*
X86363492Y-70909136D01*
X86305562Y-70923500D01*
X47835518Y-70923500D01*
X47768479Y-70903815D01*
X47747841Y-70887185D01*
X47690542Y-70829886D01*
X47690541Y-70829885D01*
X47690540Y-70829884D01*
X47575817Y-70753228D01*
X47575804Y-70753221D01*
X47448332Y-70700421D01*
X47448322Y-70700418D01*
X47312995Y-70673500D01*
X47312993Y-70673500D01*
X47175007Y-70673500D01*
X47175005Y-70673500D01*
X47039677Y-70700418D01*
X47039667Y-70700421D01*
X46912195Y-70753221D01*
X46912182Y-70753228D01*
X46797458Y-70829885D01*
X46797454Y-70829888D01*
X46699888Y-70927454D01*
X46699885Y-70927458D01*
X46623228Y-71042182D01*
X46623221Y-71042195D01*
X46570421Y-71169667D01*
X46570418Y-71169677D01*
X46543500Y-71305004D01*
X46543500Y-71305007D01*
X46543500Y-71442993D01*
X46543500Y-71442995D01*
X46543499Y-71442995D01*
X36520099Y-71442995D01*
X26644819Y-61567715D01*
X26611334Y-61506392D01*
X26608500Y-61480034D01*
X26608500Y-61399004D01*
X26581581Y-61263677D01*
X26581580Y-61263676D01*
X26581580Y-61263672D01*
X26581578Y-61263667D01*
X26528778Y-61136195D01*
X26528774Y-61136188D01*
X26528770Y-61136182D01*
X26498841Y-61091390D01*
X26477964Y-61024714D01*
X26496448Y-60957334D01*
X26548427Y-60910643D01*
X26601944Y-60898500D01*
X35374056Y-60898500D01*
X35441095Y-60918185D01*
X35486850Y-60970989D01*
X35496794Y-61040147D01*
X35477158Y-61091390D01*
X35463990Y-61111097D01*
X35447225Y-61136188D01*
X35447221Y-61136195D01*
X35394421Y-61263667D01*
X35394418Y-61263677D01*
X35367500Y-61399004D01*
X35367500Y-61399007D01*
X35367500Y-61536993D01*
X35367500Y-61536995D01*
X35367499Y-61536995D01*
X35394418Y-61672322D01*
X35394421Y-61672332D01*
X35447221Y-61799804D01*
X35447228Y-61799817D01*
X35523885Y-61914541D01*
X35523888Y-61914545D01*
X35621454Y-62012111D01*
X35621458Y-62012114D01*
X35736182Y-62088771D01*
X35736195Y-62088778D01*
X35863667Y-62141578D01*
X35863672Y-62141580D01*
X35863676Y-62141580D01*
X35863677Y-62141581D01*
X35999004Y-62168500D01*
X35999007Y-62168500D01*
X36136995Y-62168500D01*
X36228041Y-62150389D01*
X36272328Y-62141580D01*
X36399811Y-62088775D01*
X36514542Y-62012114D01*
X36571838Y-61954817D01*
X36633159Y-61921334D01*
X36659518Y-61918500D01*
X114724482Y-61918500D01*
X114791521Y-61938185D01*
X114812158Y-61954814D01*
X114869455Y-62012111D01*
X114869459Y-62012115D01*
X114984182Y-62088771D01*
X114984195Y-62088778D01*
X115111667Y-62141578D01*
X115111672Y-62141580D01*
X115111676Y-62141580D01*
X115111677Y-62141581D01*
X115247004Y-62168500D01*
X115247007Y-62168500D01*
X115384995Y-62168500D01*
X115476041Y-62150389D01*
X115520328Y-62141580D01*
X115647811Y-62088775D01*
X115762542Y-62012114D01*
X115860114Y-61914542D01*
X115936775Y-61799811D01*
X115989580Y-61672328D01*
X116016500Y-61536993D01*
X116016500Y-61399007D01*
X116016500Y-61399004D01*
X115989581Y-61263677D01*
X115989580Y-61263676D01*
X115989580Y-61263672D01*
X115989578Y-61263667D01*
X115936778Y-61136195D01*
X115936771Y-61136182D01*
X115861105Y-61022941D01*
X115840227Y-60956264D01*
X115858711Y-60888884D01*
X115910690Y-60842193D01*
X115925890Y-60836119D01*
X116030635Y-60802086D01*
X116198937Y-60716331D01*
X116265284Y-60668126D01*
X116265285Y-60668126D01*
X115755178Y-60158019D01*
X115762993Y-60155925D01*
X115877007Y-60090099D01*
X115970099Y-59997007D01*
X116035925Y-59882993D01*
X116038019Y-59875178D01*
X116548126Y-60385285D01*
X116548126Y-60385284D01*
X116596331Y-60318937D01*
X116682086Y-60150635D01*
X116721806Y-60028389D01*
X116761243Y-59970713D01*
X116825601Y-59943514D01*
X116894448Y-59955428D01*
X116945924Y-60002672D01*
X116957668Y-60028387D01*
X116997454Y-60150836D01*
X117083104Y-60318933D01*
X117083240Y-60319199D01*
X117194310Y-60472073D01*
X117327927Y-60605690D01*
X117480801Y-60716760D01*
X117530565Y-60742116D01*
X117649163Y-60802545D01*
X117649165Y-60802545D01*
X117649168Y-60802547D01*
X117736706Y-60830990D01*
X117828881Y-60860940D01*
X118015514Y-60890500D01*
X118015519Y-60890500D01*
X118204486Y-60890500D01*
X118391118Y-60860940D01*
X118433328Y-60847225D01*
X118570832Y-60802547D01*
X118739199Y-60716760D01*
X118892073Y-60605690D01*
X119025690Y-60472073D01*
X119136760Y-60319199D01*
X119222547Y-60150832D01*
X119262069Y-60029195D01*
X119301507Y-59971521D01*
X119365866Y-59944323D01*
X119434712Y-59956238D01*
X119486188Y-60003482D01*
X119497931Y-60029196D01*
X119537454Y-60150836D01*
X119623104Y-60318933D01*
X119623240Y-60319199D01*
X119734310Y-60472073D01*
X119867927Y-60605690D01*
X120020801Y-60716760D01*
X120070565Y-60742116D01*
X120189163Y-60802545D01*
X120189165Y-60802545D01*
X120189168Y-60802547D01*
X120276706Y-60830990D01*
X120368881Y-60860940D01*
X120555514Y-60890500D01*
X120555519Y-60890500D01*
X120744486Y-60890500D01*
X120931118Y-60860940D01*
X120973328Y-60847225D01*
X121110832Y-60802547D01*
X121279199Y-60716760D01*
X121432073Y-60605690D01*
X121565690Y-60472073D01*
X121676760Y-60319199D01*
X121762547Y-60150832D01*
X121820940Y-59971118D01*
X121825312Y-59943514D01*
X121850500Y-59784486D01*
X121850500Y-59595513D01*
X121820940Y-59408881D01*
X121780954Y-59285819D01*
X121762547Y-59229168D01*
X121762545Y-59229165D01*
X121762545Y-59229163D01*
X121676894Y-59061064D01*
X121676760Y-59060801D01*
X121565690Y-58907927D01*
X121432073Y-58774310D01*
X121279199Y-58663240D01*
X121236008Y-58641233D01*
X121110836Y-58577454D01*
X120931118Y-58519059D01*
X120744486Y-58489500D01*
X120744481Y-58489500D01*
X120555519Y-58489500D01*
X120555514Y-58489500D01*
X120368881Y-58519059D01*
X120189163Y-58577454D01*
X120020800Y-58663240D01*
X119937631Y-58723667D01*
X119867927Y-58774310D01*
X119867925Y-58774312D01*
X119867924Y-58774312D01*
X119734312Y-58907924D01*
X119734312Y-58907925D01*
X119734310Y-58907927D01*
X119694972Y-58962071D01*
X119623240Y-59060800D01*
X119537454Y-59229163D01*
X119497931Y-59350803D01*
X119458493Y-59408478D01*
X119394134Y-59435676D01*
X119325288Y-59423761D01*
X119273812Y-59376516D01*
X119262069Y-59350803D01*
X119240954Y-59285819D01*
X119222547Y-59229168D01*
X119222545Y-59229165D01*
X119222545Y-59229163D01*
X119136894Y-59061064D01*
X119136760Y-59060801D01*
X119025690Y-58907927D01*
X118892073Y-58774310D01*
X118739199Y-58663240D01*
X118696008Y-58641233D01*
X118570836Y-58577454D01*
X118391118Y-58519059D01*
X118204486Y-58489500D01*
X118204481Y-58489500D01*
X118015519Y-58489500D01*
X118015514Y-58489500D01*
X117828881Y-58519059D01*
X117649163Y-58577454D01*
X117480800Y-58663240D01*
X117397631Y-58723667D01*
X117327927Y-58774310D01*
X117327925Y-58774312D01*
X117327924Y-58774312D01*
X117194312Y-58907924D01*
X117194312Y-58907925D01*
X117194310Y-58907927D01*
X117154972Y-58962071D01*
X117083240Y-59060800D01*
X116997454Y-59229163D01*
X116957668Y-59351612D01*
X116918230Y-59409287D01*
X116853871Y-59436485D01*
X116785025Y-59424570D01*
X116733549Y-59377325D01*
X116721806Y-59351611D01*
X116682085Y-59229362D01*
X116596329Y-59061059D01*
X116548127Y-58994714D01*
X116548126Y-58994713D01*
X116038018Y-59504821D01*
X116035925Y-59497007D01*
X115970099Y-59382993D01*
X115877007Y-59289901D01*
X115762993Y-59224075D01*
X115755177Y-59221980D01*
X116265284Y-58711872D01*
X116198933Y-58663666D01*
X116030637Y-58577914D01*
X115851002Y-58519548D01*
X115664447Y-58490000D01*
X115475553Y-58490000D01*
X115288997Y-58519548D01*
X115109362Y-58577914D01*
X114941064Y-58663667D01*
X114941062Y-58663668D01*
X114874714Y-58711871D01*
X114874714Y-58711872D01*
X115384822Y-59221980D01*
X115377007Y-59224075D01*
X115262993Y-59289901D01*
X115169901Y-59382993D01*
X115104075Y-59497007D01*
X115101980Y-59504822D01*
X114591872Y-58994714D01*
X114591871Y-58994714D01*
X114543668Y-59061062D01*
X114543667Y-59061064D01*
X114457915Y-59229361D01*
X114418193Y-59351612D01*
X114378755Y-59409287D01*
X114314396Y-59436485D01*
X114245550Y-59424570D01*
X114194074Y-59377326D01*
X114182332Y-59351614D01*
X114142547Y-59229168D01*
X114056760Y-59060801D01*
X113945690Y-58907927D01*
X113812073Y-58774310D01*
X113659199Y-58663240D01*
X113616008Y-58641233D01*
X113490836Y-58577454D01*
X113311118Y-58519059D01*
X113124486Y-58489500D01*
X113124481Y-58489500D01*
X112935519Y-58489500D01*
X112935514Y-58489500D01*
X112748881Y-58519059D01*
X112569163Y-58577454D01*
X112400800Y-58663240D01*
X112317631Y-58723667D01*
X112247927Y-58774310D01*
X112247925Y-58774312D01*
X112247924Y-58774312D01*
X112114312Y-58907924D01*
X112114312Y-58907925D01*
X112114310Y-58907927D01*
X112074972Y-58962071D01*
X112003240Y-59060800D01*
X111917454Y-59229163D01*
X111877931Y-59350803D01*
X111838493Y-59408478D01*
X111774134Y-59435676D01*
X111705288Y-59423761D01*
X111653812Y-59376516D01*
X111642069Y-59350803D01*
X111620954Y-59285819D01*
X111602547Y-59229168D01*
X111602545Y-59229165D01*
X111602545Y-59229163D01*
X111516894Y-59061064D01*
X111516760Y-59060801D01*
X111405690Y-58907927D01*
X111272073Y-58774310D01*
X111119199Y-58663240D01*
X111076008Y-58641233D01*
X110950836Y-58577454D01*
X110771118Y-58519059D01*
X110584486Y-58489500D01*
X110584481Y-58489500D01*
X110395519Y-58489500D01*
X110395514Y-58489500D01*
X110208881Y-58519059D01*
X110029160Y-58577455D01*
X109931493Y-58627219D01*
X109862823Y-58640115D01*
X109798083Y-58613838D01*
X109787518Y-58604415D01*
X108988616Y-57805513D01*
X108988614Y-57805511D01*
X108937250Y-57775856D01*
X108885888Y-57746201D01*
X108873780Y-57742957D01*
X108861673Y-57739713D01*
X108861670Y-57739712D01*
X108823478Y-57729478D01*
X108771309Y-57715500D01*
X108771308Y-57715500D01*
X105901966Y-57715500D01*
X105834927Y-57695815D01*
X105814285Y-57679181D01*
X105172867Y-57037764D01*
X105174161Y-57036469D01*
X105138981Y-56988279D01*
X105134834Y-56918532D01*
X105167993Y-56858662D01*
X105192114Y-56834542D01*
X105268775Y-56719811D01*
X105321580Y-56592328D01*
X105348500Y-56456993D01*
X105348500Y-56319007D01*
X105348500Y-56319004D01*
X105321581Y-56183677D01*
X105321580Y-56183676D01*
X105321580Y-56183672D01*
X105312238Y-56161118D01*
X105268778Y-56056195D01*
X105268771Y-56056182D01*
X105192114Y-55941458D01*
X105192111Y-55941454D01*
X105094545Y-55843888D01*
X105094541Y-55843885D01*
X104979817Y-55767228D01*
X104979804Y-55767221D01*
X104852332Y-55714421D01*
X104852322Y-55714418D01*
X104716995Y-55687500D01*
X104716993Y-55687500D01*
X104579007Y-55687500D01*
X104579005Y-55687500D01*
X104443677Y-55714418D01*
X104443667Y-55714421D01*
X104316195Y-55767221D01*
X104316182Y-55767228D01*
X104201459Y-55843884D01*
X104172811Y-55872532D01*
X104144161Y-55901182D01*
X104082841Y-55934666D01*
X104056482Y-55937500D01*
X91931965Y-55937500D01*
X91864926Y-55917815D01*
X91844284Y-55901181D01*
X90954616Y-55011513D01*
X90954614Y-55011511D01*
X90872864Y-54964312D01*
X90851888Y-54952201D01*
X90839780Y-54948957D01*
X90827673Y-54945713D01*
X90827670Y-54945712D01*
X90789478Y-54935478D01*
X90737309Y-54921500D01*
X90737308Y-54921500D01*
X85327966Y-54921500D01*
X85260927Y-54901815D01*
X85240285Y-54885181D01*
X84604616Y-54249513D01*
X84604614Y-54249511D01*
X84553250Y-54219856D01*
X84501888Y-54190201D01*
X84489780Y-54186957D01*
X84477673Y-54183713D01*
X84477670Y-54183712D01*
X84439478Y-54173478D01*
X84387309Y-54159500D01*
X84387308Y-54159500D01*
X77707965Y-54159500D01*
X77640926Y-54139815D01*
X77620284Y-54123181D01*
X39262694Y-15765591D01*
X39229209Y-15704268D01*
X39232444Y-15639593D01*
X39270940Y-15521118D01*
X39286169Y-15424963D01*
X39300500Y-15334486D01*
X39300500Y-15145513D01*
X39270940Y-14958881D01*
X39212545Y-14779163D01*
X39126759Y-14610800D01*
X39015690Y-14457927D01*
X38882073Y-14324310D01*
X38729199Y-14213240D01*
X38729191Y-14213236D01*
X38560836Y-14127454D01*
X38438387Y-14087668D01*
X38380712Y-14048230D01*
X38353514Y-13983871D01*
X38365429Y-13915025D01*
X38412673Y-13863549D01*
X38438389Y-13851806D01*
X38560635Y-13812086D01*
X38728937Y-13726331D01*
X38795284Y-13678126D01*
X38795285Y-13678126D01*
X38285178Y-13168019D01*
X38292993Y-13165925D01*
X38407007Y-13100099D01*
X38500099Y-13007007D01*
X38565925Y-12892993D01*
X38568019Y-12885178D01*
X39078126Y-13395285D01*
X39078126Y-13395284D01*
X39126331Y-13328937D01*
X39212085Y-13160637D01*
X39270451Y-12981002D01*
X39300000Y-12794447D01*
X39300000Y-12605552D01*
X39270451Y-12418997D01*
X39212085Y-12239362D01*
X39126329Y-12071059D01*
X39078127Y-12004714D01*
X39078126Y-12004713D01*
X38568018Y-12514821D01*
X38565925Y-12507007D01*
X38500099Y-12392993D01*
X38407007Y-12299901D01*
X38292993Y-12234075D01*
X38285177Y-12231980D01*
X38795284Y-11721872D01*
X38728933Y-11673666D01*
X38560637Y-11587914D01*
X38381002Y-11529548D01*
X38194447Y-11500000D01*
X38005553Y-11500000D01*
X37818997Y-11529548D01*
X37639362Y-11587914D01*
X37471064Y-11673667D01*
X37471062Y-11673668D01*
X37404714Y-11721871D01*
X37404714Y-11721872D01*
X37914822Y-12231980D01*
X37907007Y-12234075D01*
X37792993Y-12299901D01*
X37699901Y-12392993D01*
X37634075Y-12507007D01*
X37631980Y-12514822D01*
X37121872Y-12004714D01*
X37121871Y-12004714D01*
X37073668Y-12071062D01*
X37073664Y-12071069D01*
X37034484Y-12147964D01*
X36986510Y-12198759D01*
X36918689Y-12215554D01*
X36852554Y-12193016D01*
X36809103Y-12138301D01*
X36800000Y-12091668D01*
X36800000Y-1124000D01*
X36819685Y-1056961D01*
X36872489Y-1011206D01*
X36924000Y-1000000D01*
X89876000Y-1000000D01*
X89943039Y-1019685D01*
X89988794Y-1072489D01*
X90000000Y-1124000D01*
X90000000Y-51000000D01*
X135000000Y-51000000D01*
X135000000Y-4958711D01*
X145469500Y-4958711D01*
X145469500Y-5201288D01*
X145501161Y-5441785D01*
X145563947Y-5676104D01*
X145656773Y-5900205D01*
X145656776Y-5900212D01*
X145778064Y-6110289D01*
X145778066Y-6110292D01*
X145778067Y-6110293D01*
X145925733Y-6302736D01*
X145925739Y-6302743D01*
X146097256Y-6474260D01*
X146097262Y-6474265D01*
X146289711Y-6621936D01*
X146499788Y-6743224D01*
X146723900Y-6836054D01*
X146958211Y-6898838D01*
X147138586Y-6922584D01*
X147198711Y-6930500D01*
X147198712Y-6930500D01*
X147441289Y-6930500D01*
X147489388Y-6924167D01*
X147681789Y-6898838D01*
X147916100Y-6836054D01*
X148140212Y-6743224D01*
X148350289Y-6621936D01*
X148542738Y-6474265D01*
X148714265Y-6302738D01*
X148861936Y-6110289D01*
X148983224Y-5900212D01*
X149076054Y-5676100D01*
X149138838Y-5441789D01*
X149170500Y-5201288D01*
X149170500Y-4958712D01*
X149138838Y-4718211D01*
X149076054Y-4483900D01*
X148983224Y-4259788D01*
X148861936Y-4049711D01*
X148714265Y-3857262D01*
X148714260Y-3857256D01*
X148542743Y-3685739D01*
X148542736Y-3685733D01*
X148350293Y-3538067D01*
X148350292Y-3538066D01*
X148350289Y-3538064D01*
X148140212Y-3416776D01*
X148140205Y-3416773D01*
X147916104Y-3323947D01*
X147681785Y-3261161D01*
X147441289Y-3229500D01*
X147441288Y-3229500D01*
X147198712Y-3229500D01*
X147198711Y-3229500D01*
X146958214Y-3261161D01*
X146723895Y-3323947D01*
X146499794Y-3416773D01*
X146499785Y-3416777D01*
X146289706Y-3538067D01*
X146097263Y-3685733D01*
X146097256Y-3685739D01*
X145925739Y-3857256D01*
X145925733Y-3857263D01*
X145778067Y-4049706D01*
X145656777Y-4259785D01*
X145656773Y-4259794D01*
X145563947Y-4483895D01*
X145501161Y-4718214D01*
X145469500Y-4958711D01*
X135000000Y-4958711D01*
X135000000Y-1124000D01*
X135019685Y-1056961D01*
X135072489Y-1011206D01*
X135124000Y-1000000D01*
X151276000Y-1000000D01*
X151343039Y-1019685D01*
X151388794Y-1072489D01*
X151400000Y-1124000D01*
X151400000Y-125876000D01*
X151380315Y-125943039D01*
X151327511Y-125988794D01*
X151276000Y-126000000D01*
X1124000Y-126000000D01*
X1056961Y-125980315D01*
X1011206Y-125927511D01*
X1000000Y-125876000D01*
X1000000Y-121798711D01*
X3229500Y-121798711D01*
X3229500Y-122041288D01*
X3261161Y-122281785D01*
X3323947Y-122516104D01*
X3416773Y-122740205D01*
X3416776Y-122740212D01*
X3538064Y-122950289D01*
X3538066Y-122950292D01*
X3538067Y-122950293D01*
X3685733Y-123142736D01*
X3685739Y-123142743D01*
X3857256Y-123314260D01*
X3857262Y-123314265D01*
X4049711Y-123461936D01*
X4259788Y-123583224D01*
X4483900Y-123676054D01*
X4718211Y-123738838D01*
X4898586Y-123762584D01*
X4958711Y-123770500D01*
X4958712Y-123770500D01*
X5201289Y-123770500D01*
X5249388Y-123764167D01*
X5441789Y-123738838D01*
X5676100Y-123676054D01*
X5900212Y-123583224D01*
X6110289Y-123461936D01*
X6302738Y-123314265D01*
X6474265Y-123142738D01*
X6621936Y-122950289D01*
X6743224Y-122740212D01*
X6836054Y-122516100D01*
X6898838Y-122281789D01*
X6930500Y-122041288D01*
X6930500Y-121798712D01*
X6930500Y-121798711D01*
X145469500Y-121798711D01*
X145469500Y-122041288D01*
X145501161Y-122281785D01*
X145563947Y-122516104D01*
X145656773Y-122740205D01*
X145656776Y-122740212D01*
X145778064Y-122950289D01*
X145778066Y-122950292D01*
X145778067Y-122950293D01*
X145925733Y-123142736D01*
X145925739Y-123142743D01*
X146097256Y-123314260D01*
X146097262Y-123314265D01*
X146289711Y-123461936D01*
X146499788Y-123583224D01*
X146723900Y-123676054D01*
X146958211Y-123738838D01*
X147138586Y-123762584D01*
X147198711Y-123770500D01*
X147198712Y-123770500D01*
X147441289Y-123770500D01*
X147489388Y-123764167D01*
X147681789Y-123738838D01*
X147916100Y-123676054D01*
X148140212Y-123583224D01*
X148350289Y-123461936D01*
X148542738Y-123314265D01*
X148714265Y-123142738D01*
X148861936Y-122950289D01*
X148983224Y-122740212D01*
X149076054Y-122516100D01*
X149138838Y-122281789D01*
X149170500Y-122041288D01*
X149170500Y-121798712D01*
X149138838Y-121558211D01*
X149076054Y-121323900D01*
X148983224Y-121099788D01*
X148861936Y-120889711D01*
X148714265Y-120697262D01*
X148714260Y-120697256D01*
X148542743Y-120525739D01*
X148542736Y-120525733D01*
X148350293Y-120378067D01*
X148350292Y-120378066D01*
X148350289Y-120378064D01*
X148140212Y-120256776D01*
X148140205Y-120256773D01*
X147916104Y-120163947D01*
X147681785Y-120101161D01*
X147441289Y-120069500D01*
X147441288Y-120069500D01*
X147198712Y-120069500D01*
X147198711Y-120069500D01*
X146958214Y-120101161D01*
X146723895Y-120163947D01*
X146499794Y-120256773D01*
X146499785Y-120256777D01*
X146289706Y-120378067D01*
X146097263Y-120525733D01*
X146097256Y-120525739D01*
X145925739Y-120697256D01*
X145925733Y-120697263D01*
X145778067Y-120889706D01*
X145656777Y-121099785D01*
X145656773Y-121099794D01*
X145563947Y-121323895D01*
X145501161Y-121558214D01*
X145469500Y-121798711D01*
X6930500Y-121798711D01*
X6898838Y-121558211D01*
X6836054Y-121323900D01*
X6743224Y-121099788D01*
X6621936Y-120889711D01*
X6474265Y-120697262D01*
X6474260Y-120697256D01*
X6302743Y-120525739D01*
X6302736Y-120525733D01*
X6110293Y-120378067D01*
X6110292Y-120378066D01*
X6110289Y-120378064D01*
X5900212Y-120256776D01*
X5900205Y-120256773D01*
X5676104Y-120163947D01*
X5441785Y-120101161D01*
X5201289Y-120069500D01*
X5201288Y-120069500D01*
X4958712Y-120069500D01*
X4958711Y-120069500D01*
X4718214Y-120101161D01*
X4483895Y-120163947D01*
X4259794Y-120256773D01*
X4259785Y-120256777D01*
X4049706Y-120378067D01*
X3857263Y-120525733D01*
X3857256Y-120525739D01*
X3685739Y-120697256D01*
X3685733Y-120697263D01*
X3538067Y-120889706D01*
X3416777Y-121099785D01*
X3416773Y-121099794D01*
X3323947Y-121323895D01*
X3261161Y-121558214D01*
X3229500Y-121798711D01*
X1000000Y-121798711D01*
X1000000Y-115895131D01*
X25469500Y-115895131D01*
X25469500Y-117784856D01*
X25469502Y-117784882D01*
X25472413Y-117809987D01*
X25472415Y-117809991D01*
X25517793Y-117912764D01*
X25517794Y-117912765D01*
X25597235Y-117992206D01*
X25700009Y-118037585D01*
X25725135Y-118040500D01*
X27614864Y-118040499D01*
X27614879Y-118040497D01*
X27614882Y-118040497D01*
X27639987Y-118037586D01*
X27639988Y-118037585D01*
X27639991Y-118037585D01*
X27742765Y-117992206D01*
X27822206Y-117912765D01*
X27867585Y-117809991D01*
X27870500Y-117784865D01*
X27870499Y-116745513D01*
X33089500Y-116745513D01*
X33089500Y-116934486D01*
X33119059Y-117121118D01*
X33177454Y-117300836D01*
X33258948Y-117460775D01*
X33263240Y-117469199D01*
X33374310Y-117622073D01*
X33507927Y-117755690D01*
X33660801Y-117866760D01*
X33737161Y-117905667D01*
X33829163Y-117952545D01*
X33829165Y-117952545D01*
X33829168Y-117952547D01*
X33925497Y-117983846D01*
X34008881Y-118010940D01*
X34195514Y-118040500D01*
X34195519Y-118040500D01*
X34384486Y-118040500D01*
X34571118Y-118010940D01*
X34572623Y-118010451D01*
X34750832Y-117952547D01*
X34919199Y-117866760D01*
X35072073Y-117755690D01*
X35205690Y-117622073D01*
X35316760Y-117469199D01*
X35402547Y-117300832D01*
X35460940Y-117121118D01*
X35470955Y-117057885D01*
X35490500Y-116934486D01*
X35490500Y-116745513D01*
X35460940Y-116558881D01*
X35422280Y-116439901D01*
X35402547Y-116379168D01*
X35402545Y-116379165D01*
X35402545Y-116379163D01*
X35316899Y-116211074D01*
X35316760Y-116210801D01*
X35205690Y-116057927D01*
X35072073Y-115924310D01*
X34919199Y-115813240D01*
X34750836Y-115727454D01*
X34571118Y-115669059D01*
X34384486Y-115639500D01*
X34384481Y-115639500D01*
X34195519Y-115639500D01*
X34195514Y-115639500D01*
X34008881Y-115669059D01*
X33829163Y-115727454D01*
X33660800Y-115813240D01*
X33582661Y-115870012D01*
X33507927Y-115924310D01*
X33507925Y-115924312D01*
X33507924Y-115924312D01*
X33374312Y-116057924D01*
X33374312Y-116057925D01*
X33374310Y-116057927D01*
X33341431Y-116103181D01*
X33263240Y-116210800D01*
X33177454Y-116379163D01*
X33119059Y-116558881D01*
X33089500Y-116745513D01*
X27870499Y-116745513D01*
X27870499Y-116681517D01*
X27890184Y-116614479D01*
X27906813Y-116593842D01*
X32003838Y-112496819D01*
X32065161Y-112463334D01*
X32091519Y-112460500D01*
X49475501Y-112460500D01*
X49542540Y-112480185D01*
X49588295Y-112532989D01*
X49599501Y-112584500D01*
X49599501Y-112704856D01*
X49599502Y-112704882D01*
X49602413Y-112729987D01*
X49602415Y-112729991D01*
X49647793Y-112832764D01*
X49647794Y-112832765D01*
X49727235Y-112912206D01*
X49830009Y-112957585D01*
X49855135Y-112960500D01*
X50958480Y-112960499D01*
X51025519Y-112980184D01*
X51046161Y-112996818D01*
X56017661Y-117968319D01*
X56051146Y-118029642D01*
X56046162Y-118099334D01*
X56004290Y-118155267D01*
X55938826Y-118179684D01*
X55929980Y-118180000D01*
X54962842Y-118180000D01*
X55694823Y-118911980D01*
X55687007Y-118914075D01*
X55572993Y-118979901D01*
X55479901Y-119072993D01*
X55414075Y-119187007D01*
X55411980Y-119194822D01*
X54680000Y-118462842D01*
X54680000Y-120297156D01*
X55411980Y-119565176D01*
X55414075Y-119572993D01*
X55479901Y-119687007D01*
X55572993Y-119780099D01*
X55687007Y-119845925D01*
X55694823Y-119848019D01*
X54962842Y-120579998D01*
X54962843Y-120579999D01*
X56797156Y-120579999D01*
X56797156Y-120579998D01*
X56065176Y-119848019D01*
X56072993Y-119845925D01*
X56187007Y-119780099D01*
X56280099Y-119687007D01*
X56345925Y-119572993D01*
X56348019Y-119565176D01*
X57079998Y-120297156D01*
X57079999Y-120297155D01*
X57079999Y-119910926D01*
X57099684Y-119843887D01*
X57152488Y-119798132D01*
X57221646Y-119788188D01*
X57285202Y-119817213D01*
X57314483Y-119854630D01*
X57393240Y-120009199D01*
X57504310Y-120162073D01*
X57637927Y-120295690D01*
X57790801Y-120406760D01*
X57870347Y-120447290D01*
X57959163Y-120492545D01*
X57959165Y-120492545D01*
X57959168Y-120492547D01*
X58055497Y-120523846D01*
X58138881Y-120550940D01*
X58325514Y-120580500D01*
X58325519Y-120580500D01*
X58514486Y-120580500D01*
X58701118Y-120550940D01*
X58880832Y-120492547D01*
X59049199Y-120406760D01*
X59202073Y-120295690D01*
X59335690Y-120162073D01*
X59446760Y-120009199D01*
X59532547Y-119840832D01*
X59572069Y-119719195D01*
X59611507Y-119661521D01*
X59675866Y-119634323D01*
X59744712Y-119646238D01*
X59796188Y-119693482D01*
X59807931Y-119719196D01*
X59847454Y-119840836D01*
X59933240Y-120009199D01*
X60044310Y-120162073D01*
X60177927Y-120295690D01*
X60330801Y-120406760D01*
X60410347Y-120447290D01*
X60499163Y-120492545D01*
X60499165Y-120492545D01*
X60499168Y-120492547D01*
X60595497Y-120523846D01*
X60678881Y-120550940D01*
X60865514Y-120580500D01*
X60865519Y-120580500D01*
X61054486Y-120580500D01*
X61241118Y-120550940D01*
X61420832Y-120492547D01*
X61589199Y-120406760D01*
X61742073Y-120295690D01*
X61875690Y-120162073D01*
X61986760Y-120009199D01*
X62072547Y-119840832D01*
X62112069Y-119719195D01*
X62151507Y-119661521D01*
X62215866Y-119634323D01*
X62284712Y-119646238D01*
X62336188Y-119693482D01*
X62347931Y-119719196D01*
X62387454Y-119840836D01*
X62473240Y-120009199D01*
X62584310Y-120162073D01*
X62717927Y-120295690D01*
X62870801Y-120406760D01*
X62950347Y-120447290D01*
X63039163Y-120492545D01*
X63039165Y-120492545D01*
X63039168Y-120492547D01*
X63135497Y-120523846D01*
X63218881Y-120550940D01*
X63405514Y-120580500D01*
X63405519Y-120580500D01*
X63594486Y-120580500D01*
X63781118Y-120550940D01*
X63960832Y-120492547D01*
X64129199Y-120406760D01*
X64282073Y-120295690D01*
X64415690Y-120162073D01*
X64526760Y-120009199D01*
X64612547Y-119840832D01*
X64670940Y-119661118D01*
X64675184Y-119634323D01*
X64700500Y-119474486D01*
X64700500Y-119285513D01*
X64670940Y-119098881D01*
X64632280Y-118979901D01*
X64612547Y-118919168D01*
X64612545Y-118919165D01*
X64612545Y-118919163D01*
X64526759Y-118750800D01*
X64415690Y-118597927D01*
X64282073Y-118464310D01*
X64129199Y-118353240D01*
X63960836Y-118267454D01*
X63781118Y-118209059D01*
X63594486Y-118179500D01*
X63594481Y-118179500D01*
X63405519Y-118179500D01*
X63405514Y-118179500D01*
X63218881Y-118209059D01*
X63039163Y-118267454D01*
X62870800Y-118353240D01*
X62783579Y-118416610D01*
X62717927Y-118464310D01*
X62717925Y-118464312D01*
X62717924Y-118464312D01*
X62584312Y-118597924D01*
X62584312Y-118597925D01*
X62584310Y-118597927D01*
X62536610Y-118663579D01*
X62473240Y-118750800D01*
X62387454Y-118919163D01*
X62347931Y-119040803D01*
X62308493Y-119098478D01*
X62244134Y-119125676D01*
X62175288Y-119113761D01*
X62123812Y-119066516D01*
X62112069Y-119040803D01*
X62092280Y-118979901D01*
X62072547Y-118919168D01*
X62072545Y-118919165D01*
X62072545Y-118919163D01*
X61986759Y-118750800D01*
X61875690Y-118597927D01*
X61742073Y-118464310D01*
X61589199Y-118353240D01*
X61420836Y-118267454D01*
X61241118Y-118209059D01*
X61054486Y-118179500D01*
X61054481Y-118179500D01*
X60910518Y-118179500D01*
X60843479Y-118159815D01*
X60797724Y-118107011D01*
X60787780Y-118037853D01*
X60816805Y-117974297D01*
X60822837Y-117967819D01*
X66293838Y-112496819D01*
X66355161Y-112463334D01*
X66381519Y-112460500D01*
X72335501Y-112460500D01*
X72402540Y-112480185D01*
X72448295Y-112532989D01*
X72459501Y-112584500D01*
X72459501Y-112704856D01*
X72459502Y-112704882D01*
X72462413Y-112729987D01*
X72462415Y-112729991D01*
X72507793Y-112832764D01*
X72507794Y-112832765D01*
X72587235Y-112912206D01*
X72690009Y-112957585D01*
X72715135Y-112960500D01*
X73818480Y-112960499D01*
X73885519Y-112980184D01*
X73906161Y-112996818D01*
X78293453Y-117384111D01*
X78293454Y-117384112D01*
X78408192Y-117460777D01*
X78535667Y-117513578D01*
X78535672Y-117513580D01*
X78535676Y-117513580D01*
X78535677Y-117513581D01*
X78671003Y-117540500D01*
X78671006Y-117540500D01*
X78671007Y-117540500D01*
X87575501Y-117540500D01*
X87642540Y-117560185D01*
X87688295Y-117612989D01*
X87699501Y-117664500D01*
X87699501Y-117784856D01*
X87699502Y-117784882D01*
X87702413Y-117809987D01*
X87702415Y-117809991D01*
X87747793Y-117912764D01*
X87747794Y-117912765D01*
X87827235Y-117992206D01*
X87930009Y-118037585D01*
X87955135Y-118040500D01*
X89844864Y-118040499D01*
X89844879Y-118040497D01*
X89844882Y-118040497D01*
X89869987Y-118037586D01*
X89869988Y-118037585D01*
X89869991Y-118037585D01*
X89972765Y-117992206D01*
X90052206Y-117912765D01*
X90097585Y-117809991D01*
X90100500Y-117784865D01*
X90100499Y-117370805D01*
X90120183Y-117303769D01*
X90172987Y-117258014D01*
X90242146Y-117248070D01*
X90305701Y-117277095D01*
X90334983Y-117314513D01*
X90413661Y-117468925D01*
X90413664Y-117468930D01*
X90461872Y-117535284D01*
X90971980Y-117025176D01*
X90974075Y-117032993D01*
X91039901Y-117147007D01*
X91132993Y-117240099D01*
X91247007Y-117305925D01*
X91254822Y-117308019D01*
X90744713Y-117818126D01*
X90744714Y-117818127D01*
X90811059Y-117866329D01*
X90979362Y-117952085D01*
X91158997Y-118010451D01*
X91345553Y-118040000D01*
X91534447Y-118040000D01*
X91721002Y-118010451D01*
X91900637Y-117952085D01*
X92068937Y-117866331D01*
X92135284Y-117818126D01*
X92135285Y-117818126D01*
X91625178Y-117308019D01*
X91632993Y-117305925D01*
X91747007Y-117240099D01*
X91840099Y-117147007D01*
X91905925Y-117032993D01*
X91908019Y-117025177D01*
X92418126Y-117535285D01*
X92418126Y-117535284D01*
X92466331Y-117468937D01*
X92552085Y-117300637D01*
X92610451Y-117121002D01*
X92640000Y-116934447D01*
X92640000Y-116745552D01*
X92610451Y-116558997D01*
X92552085Y-116379362D01*
X92466329Y-116211059D01*
X92418127Y-116144714D01*
X92418126Y-116144713D01*
X91908018Y-116654821D01*
X91905925Y-116647007D01*
X91840099Y-116532993D01*
X91747007Y-116439901D01*
X91632993Y-116374075D01*
X91625177Y-116371980D01*
X92135284Y-115861872D01*
X92068933Y-115813666D01*
X91900637Y-115727914D01*
X91721002Y-115669548D01*
X91534447Y-115640000D01*
X91345553Y-115640000D01*
X91158997Y-115669548D01*
X90979362Y-115727914D01*
X90811064Y-115813667D01*
X90811062Y-115813668D01*
X90744714Y-115861871D01*
X90744714Y-115861872D01*
X91254822Y-116371980D01*
X91247007Y-116374075D01*
X91132993Y-116439901D01*
X91039901Y-116532993D01*
X90974075Y-116647007D01*
X90971980Y-116654822D01*
X90461872Y-116144714D01*
X90461871Y-116144714D01*
X90413668Y-116211062D01*
X90413661Y-116211074D01*
X90334983Y-116365487D01*
X90287009Y-116416283D01*
X90219188Y-116433078D01*
X90153053Y-116410540D01*
X90109602Y-116355825D01*
X90100499Y-116309192D01*
X90100499Y-115895143D01*
X90100499Y-115895136D01*
X90100497Y-115895117D01*
X90097586Y-115870012D01*
X90097585Y-115870010D01*
X90097585Y-115870009D01*
X90052206Y-115767235D01*
X89972765Y-115687794D01*
X89931442Y-115669548D01*
X89869992Y-115642415D01*
X89844865Y-115639500D01*
X87955143Y-115639500D01*
X87955117Y-115639502D01*
X87930012Y-115642413D01*
X87930008Y-115642415D01*
X87827235Y-115687793D01*
X87747794Y-115767234D01*
X87702415Y-115870006D01*
X87702415Y-115870008D01*
X87699500Y-115895131D01*
X87699500Y-116015500D01*
X87679815Y-116082539D01*
X87627011Y-116128294D01*
X87575500Y-116139500D01*
X79081519Y-116139500D01*
X79014480Y-116119815D01*
X78993838Y-116103181D01*
X74896818Y-112006161D01*
X74863333Y-111944838D01*
X74860499Y-111918480D01*
X74860499Y-111665513D01*
X80079500Y-111665513D01*
X80079500Y-111854486D01*
X80109059Y-112041118D01*
X80167454Y-112220836D01*
X80253240Y-112389199D01*
X80364310Y-112542073D01*
X80497927Y-112675690D01*
X80650801Y-112786760D01*
X80730347Y-112827290D01*
X80819163Y-112872545D01*
X80819165Y-112872545D01*
X80819168Y-112872547D01*
X80915497Y-112903846D01*
X80998881Y-112930940D01*
X81185514Y-112960500D01*
X81185519Y-112960500D01*
X81374486Y-112960500D01*
X81561118Y-112930940D01*
X81740832Y-112872547D01*
X81909199Y-112786760D01*
X82062073Y-112675690D01*
X82195690Y-112542073D01*
X82306760Y-112389199D01*
X82392547Y-112220832D01*
X82450940Y-112041118D01*
X82470364Y-111918480D01*
X82480500Y-111854486D01*
X82480500Y-111665513D01*
X82450940Y-111478881D01*
X82392545Y-111299163D01*
X82311052Y-111139225D01*
X82306760Y-111130801D01*
X82195690Y-110977927D01*
X82062073Y-110844310D01*
X81909199Y-110733240D01*
X81909191Y-110733236D01*
X81740836Y-110647454D01*
X81561118Y-110589059D01*
X81374486Y-110559500D01*
X81374481Y-110559500D01*
X81185519Y-110559500D01*
X81185514Y-110559500D01*
X80998881Y-110589059D01*
X80819163Y-110647454D01*
X80650800Y-110733240D01*
X80572661Y-110790012D01*
X80497927Y-110844310D01*
X80497925Y-110844312D01*
X80497924Y-110844312D01*
X80364312Y-110977924D01*
X80364312Y-110977925D01*
X80364310Y-110977927D01*
X80316610Y-111043579D01*
X80253240Y-111130800D01*
X80167454Y-111299163D01*
X80109059Y-111478881D01*
X80079500Y-111665513D01*
X74860499Y-111665513D01*
X74860499Y-110815143D01*
X74860499Y-110815136D01*
X74860497Y-110815117D01*
X74857586Y-110790012D01*
X74857585Y-110790010D01*
X74857585Y-110790009D01*
X74812206Y-110687235D01*
X74732765Y-110607794D01*
X74732763Y-110607793D01*
X74629992Y-110562415D01*
X74604865Y-110559500D01*
X72715143Y-110559500D01*
X72715117Y-110559502D01*
X72690012Y-110562413D01*
X72690008Y-110562415D01*
X72587235Y-110607793D01*
X72507794Y-110687234D01*
X72462415Y-110790006D01*
X72462415Y-110790008D01*
X72459500Y-110815131D01*
X72459500Y-110935500D01*
X72439815Y-111002539D01*
X72387011Y-111048294D01*
X72335500Y-111059500D01*
X65971004Y-111059500D01*
X65835677Y-111086418D01*
X65835667Y-111086421D01*
X65708192Y-111139222D01*
X65593454Y-111215887D01*
X65593453Y-111215888D01*
X59688594Y-117120748D01*
X59627271Y-117154233D01*
X59625105Y-117154684D01*
X59512591Y-117177065D01*
X59485671Y-117182420D01*
X59358190Y-117235224D01*
X59243454Y-117311887D01*
X58891887Y-117663454D01*
X58815222Y-117778192D01*
X58762421Y-117905667D01*
X58762418Y-117905679D01*
X58736183Y-118037574D01*
X58736179Y-118037596D01*
X58734680Y-118045125D01*
X58702284Y-118107030D01*
X58700747Y-118108594D01*
X58658743Y-118150597D01*
X58597420Y-118184082D01*
X58551667Y-118185389D01*
X58514482Y-118179500D01*
X58514481Y-118179500D01*
X58482500Y-118179500D01*
X58415461Y-118159815D01*
X58369706Y-118107011D01*
X58358500Y-118055500D01*
X58358500Y-117533004D01*
X58331581Y-117397677D01*
X58331580Y-117397676D01*
X58331580Y-117397672D01*
X58296047Y-117311887D01*
X58278778Y-117270195D01*
X58278771Y-117270182D01*
X58202114Y-117155458D01*
X58202111Y-117155454D01*
X58104545Y-117057888D01*
X58104541Y-117057885D01*
X57989817Y-116981228D01*
X57989804Y-116981221D01*
X57862332Y-116928421D01*
X57862322Y-116928418D01*
X57726995Y-116901500D01*
X57726993Y-116901500D01*
X56983519Y-116901500D01*
X56916480Y-116881815D01*
X56895838Y-116865181D01*
X52036818Y-112006161D01*
X52003333Y-111944838D01*
X52000499Y-111918480D01*
X52000499Y-110815143D01*
X52000499Y-110815136D01*
X52000497Y-110815117D01*
X51997586Y-110790012D01*
X51997585Y-110790010D01*
X51997585Y-110790009D01*
X51952206Y-110687235D01*
X51872765Y-110607794D01*
X51872763Y-110607793D01*
X51769992Y-110562415D01*
X51744865Y-110559500D01*
X49855143Y-110559500D01*
X49855117Y-110559502D01*
X49830012Y-110562413D01*
X49830008Y-110562415D01*
X49727235Y-110607793D01*
X49647794Y-110687234D01*
X49602415Y-110790006D01*
X49602415Y-110790008D01*
X49599500Y-110815131D01*
X49599500Y-110935500D01*
X49579815Y-111002539D01*
X49527011Y-111048294D01*
X49475500Y-111059500D01*
X31681004Y-111059500D01*
X31545677Y-111086418D01*
X31545667Y-111086421D01*
X31418192Y-111139222D01*
X31303454Y-111215887D01*
X26916160Y-115603181D01*
X26854837Y-115636666D01*
X26828479Y-115639500D01*
X25725143Y-115639500D01*
X25725117Y-115639502D01*
X25700012Y-115642413D01*
X25700008Y-115642415D01*
X25597235Y-115687793D01*
X25517794Y-115767234D01*
X25472415Y-115870006D01*
X25472415Y-115870008D01*
X25469500Y-115895131D01*
X1000000Y-115895131D01*
X1000000Y-105735131D01*
X24199500Y-105735131D01*
X24199500Y-107624856D01*
X24199502Y-107624882D01*
X24202413Y-107649987D01*
X24202415Y-107649991D01*
X24247793Y-107752764D01*
X24247794Y-107752765D01*
X24327235Y-107832206D01*
X24430009Y-107877585D01*
X24455135Y-107880500D01*
X26344864Y-107880499D01*
X26344879Y-107880497D01*
X26344882Y-107880497D01*
X26369987Y-107877586D01*
X26369988Y-107877585D01*
X26369991Y-107877585D01*
X26472765Y-107832206D01*
X26552206Y-107752765D01*
X26597585Y-107649991D01*
X26600500Y-107624865D01*
X26600499Y-106585513D01*
X31819500Y-106585513D01*
X31819500Y-106774486D01*
X31849059Y-106961118D01*
X31907454Y-107140836D01*
X31993240Y-107309199D01*
X32104310Y-107462073D01*
X32237927Y-107595690D01*
X32390801Y-107706760D01*
X32470347Y-107747290D01*
X32559163Y-107792545D01*
X32559165Y-107792545D01*
X32559168Y-107792547D01*
X32655497Y-107823846D01*
X32738881Y-107850940D01*
X32925514Y-107880500D01*
X32925519Y-107880500D01*
X33114486Y-107880500D01*
X33301118Y-107850940D01*
X33480832Y-107792547D01*
X33649199Y-107706760D01*
X33802073Y-107595690D01*
X33935690Y-107462073D01*
X34046760Y-107309199D01*
X34132547Y-107140832D01*
X34190940Y-106961118D01*
X34197775Y-106917965D01*
X34220500Y-106774486D01*
X34220500Y-106585513D01*
X34190940Y-106398881D01*
X34132545Y-106219163D01*
X34046759Y-106050800D01*
X33935690Y-105897927D01*
X33802073Y-105764310D01*
X33649199Y-105653240D01*
X33480836Y-105567454D01*
X33301118Y-105509059D01*
X33114486Y-105479500D01*
X33114481Y-105479500D01*
X32925519Y-105479500D01*
X32925514Y-105479500D01*
X32738881Y-105509059D01*
X32559163Y-105567454D01*
X32390800Y-105653240D01*
X32312661Y-105710012D01*
X32237927Y-105764310D01*
X32237925Y-105764312D01*
X32237924Y-105764312D01*
X32104312Y-105897924D01*
X32104312Y-105897925D01*
X32104310Y-105897927D01*
X32056610Y-105963579D01*
X31993240Y-106050800D01*
X31907454Y-106219163D01*
X31849059Y-106398881D01*
X31819500Y-106585513D01*
X26600499Y-106585513D01*
X26600499Y-105735136D01*
X26600497Y-105735117D01*
X26597586Y-105710012D01*
X26597585Y-105710010D01*
X26597585Y-105710009D01*
X26552206Y-105607235D01*
X26472765Y-105527794D01*
X26472763Y-105527793D01*
X26369992Y-105482415D01*
X26344865Y-105479500D01*
X24455143Y-105479500D01*
X24455117Y-105479502D01*
X24430012Y-105482413D01*
X24430008Y-105482415D01*
X24327235Y-105527793D01*
X24247794Y-105607234D01*
X24202415Y-105710006D01*
X24202415Y-105710008D01*
X24199500Y-105735131D01*
X1000000Y-105735131D01*
X1000000Y-103195131D01*
X11499500Y-103195131D01*
X11499500Y-105084856D01*
X11499502Y-105084882D01*
X11502413Y-105109987D01*
X11502415Y-105109991D01*
X11547793Y-105212764D01*
X11547794Y-105212765D01*
X11627235Y-105292206D01*
X11730009Y-105337585D01*
X11755135Y-105340500D01*
X13644864Y-105340499D01*
X13644879Y-105340497D01*
X13644882Y-105340497D01*
X13669987Y-105337586D01*
X13669988Y-105337585D01*
X13669991Y-105337585D01*
X13772765Y-105292206D01*
X13852206Y-105212765D01*
X13897585Y-105109991D01*
X13900500Y-105084865D01*
X13900499Y-104671906D01*
X13920183Y-104604870D01*
X13972987Y-104559115D01*
X14042146Y-104549171D01*
X14105702Y-104578196D01*
X14134984Y-104615614D01*
X14160449Y-104665591D01*
X14213240Y-104769199D01*
X14324310Y-104922073D01*
X14457927Y-105055690D01*
X14610801Y-105166760D01*
X14690347Y-105207290D01*
X14779163Y-105252545D01*
X14779165Y-105252545D01*
X14779168Y-105252547D01*
X14875497Y-105283846D01*
X14958881Y-105310940D01*
X15145514Y-105340500D01*
X15145519Y-105340500D01*
X15334486Y-105340500D01*
X15521118Y-105310940D01*
X15546496Y-105302694D01*
X15700832Y-105252547D01*
X15869199Y-105166760D01*
X16022073Y-105055690D01*
X16155690Y-104922073D01*
X16266760Y-104769199D01*
X16352547Y-104600832D01*
X16392332Y-104478385D01*
X16431768Y-104420713D01*
X16496127Y-104393514D01*
X16564973Y-104405429D01*
X16616449Y-104452673D01*
X16628193Y-104478388D01*
X16667914Y-104600637D01*
X16753666Y-104768933D01*
X16801872Y-104835284D01*
X17311980Y-104325176D01*
X17314075Y-104332993D01*
X17379901Y-104447007D01*
X17472993Y-104540099D01*
X17587007Y-104605925D01*
X17594822Y-104608019D01*
X17084713Y-105118126D01*
X17084714Y-105118127D01*
X17151059Y-105166329D01*
X17319362Y-105252085D01*
X17498997Y-105310451D01*
X17685553Y-105340000D01*
X17874447Y-105340000D01*
X18061002Y-105310451D01*
X18240637Y-105252085D01*
X18408937Y-105166331D01*
X18475284Y-105118126D01*
X18475285Y-105118126D01*
X17965178Y-104608019D01*
X17972993Y-104605925D01*
X18087007Y-104540099D01*
X18180099Y-104447007D01*
X18245925Y-104332993D01*
X18248019Y-104325177D01*
X18758126Y-104835285D01*
X18758126Y-104835284D01*
X18806331Y-104768937D01*
X18892085Y-104600637D01*
X18950451Y-104421002D01*
X18980000Y-104234447D01*
X18980000Y-104045552D01*
X18950451Y-103858997D01*
X18910754Y-103736818D01*
X18908759Y-103666976D01*
X18944840Y-103607144D01*
X19007541Y-103576316D01*
X19028685Y-103574500D01*
X26983308Y-103574500D01*
X26983309Y-103574500D01*
X27073673Y-103550286D01*
X27097887Y-103543799D01*
X27200614Y-103484489D01*
X27489972Y-103195131D01*
X49599500Y-103195131D01*
X49599500Y-105084856D01*
X49599502Y-105084882D01*
X49602413Y-105109987D01*
X49602415Y-105109991D01*
X49647793Y-105212764D01*
X49647794Y-105212765D01*
X49727235Y-105292206D01*
X49830009Y-105337585D01*
X49855135Y-105340500D01*
X51744864Y-105340499D01*
X51744879Y-105340497D01*
X51744882Y-105340497D01*
X51769987Y-105337586D01*
X51769988Y-105337585D01*
X51769991Y-105337585D01*
X51872765Y-105292206D01*
X51952206Y-105212765D01*
X51997585Y-105109991D01*
X52000500Y-105084865D01*
X52000499Y-104671906D01*
X52020183Y-104604870D01*
X52072987Y-104559115D01*
X52142146Y-104549171D01*
X52205702Y-104578196D01*
X52234984Y-104615614D01*
X52260449Y-104665591D01*
X52313240Y-104769199D01*
X52424310Y-104922073D01*
X52557927Y-105055690D01*
X52710801Y-105166760D01*
X52790347Y-105207290D01*
X52879163Y-105252545D01*
X52879165Y-105252545D01*
X52879168Y-105252547D01*
X52975497Y-105283846D01*
X53058881Y-105310940D01*
X53245514Y-105340500D01*
X53245519Y-105340500D01*
X53434486Y-105340500D01*
X53621118Y-105310940D01*
X53646496Y-105302694D01*
X53800832Y-105252547D01*
X53969199Y-105166760D01*
X54122073Y-105055690D01*
X54255690Y-104922073D01*
X54366760Y-104769199D01*
X54452547Y-104600832D01*
X54492069Y-104479195D01*
X54531507Y-104421521D01*
X54595866Y-104394323D01*
X54664712Y-104406238D01*
X54716188Y-104453482D01*
X54727931Y-104479196D01*
X54767454Y-104600836D01*
X54800449Y-104665591D01*
X54853240Y-104769199D01*
X54964310Y-104922073D01*
X55097927Y-105055690D01*
X55250801Y-105166760D01*
X55330347Y-105207290D01*
X55419163Y-105252545D01*
X55419165Y-105252545D01*
X55419168Y-105252547D01*
X55515497Y-105283846D01*
X55598881Y-105310940D01*
X55785514Y-105340500D01*
X55785519Y-105340500D01*
X55974486Y-105340500D01*
X56064963Y-105326169D01*
X56161118Y-105310940D01*
X56161123Y-105310938D01*
X56161125Y-105310938D01*
X56189731Y-105301642D01*
X56279592Y-105272444D01*
X56349431Y-105270448D01*
X56405591Y-105302694D01*
X57933181Y-106830284D01*
X57966666Y-106891607D01*
X57969500Y-106917965D01*
X57969500Y-110566200D01*
X57949815Y-110633239D01*
X57901795Y-110676684D01*
X57790805Y-110733236D01*
X57712661Y-110790012D01*
X57637927Y-110844310D01*
X57637925Y-110844312D01*
X57637924Y-110844312D01*
X57504312Y-110977924D01*
X57504312Y-110977925D01*
X57504310Y-110977927D01*
X57456610Y-111043579D01*
X57393240Y-111130800D01*
X57307454Y-111299163D01*
X57249059Y-111478881D01*
X57219500Y-111665513D01*
X57219500Y-111854486D01*
X57249059Y-112041118D01*
X57307454Y-112220836D01*
X57393240Y-112389199D01*
X57504310Y-112542073D01*
X57637927Y-112675690D01*
X57790801Y-112786760D01*
X57870347Y-112827290D01*
X57959163Y-112872545D01*
X57959165Y-112872545D01*
X57959168Y-112872547D01*
X58055497Y-112903846D01*
X58138881Y-112930940D01*
X58325514Y-112960500D01*
X58325519Y-112960500D01*
X58514486Y-112960500D01*
X58701118Y-112930940D01*
X58880832Y-112872547D01*
X59049199Y-112786760D01*
X59202073Y-112675690D01*
X59335690Y-112542073D01*
X59446760Y-112389199D01*
X59532547Y-112220832D01*
X59590940Y-112041118D01*
X59610364Y-111918480D01*
X59620500Y-111854486D01*
X59620500Y-111665513D01*
X59590940Y-111478881D01*
X59532545Y-111299163D01*
X59451052Y-111139225D01*
X59446760Y-111130801D01*
X59335690Y-110977927D01*
X59202073Y-110844310D01*
X59110613Y-110777860D01*
X59049194Y-110733236D01*
X58938205Y-110676684D01*
X58887409Y-110628710D01*
X58870500Y-110566200D01*
X58870500Y-106620693D01*
X58870500Y-106620691D01*
X58839799Y-106506114D01*
X58805382Y-106446503D01*
X58780489Y-106403386D01*
X57042694Y-104665591D01*
X57009209Y-104604268D01*
X57012444Y-104539593D01*
X57050940Y-104421118D01*
X57066169Y-104324963D01*
X57080500Y-104234486D01*
X57080500Y-104045513D01*
X57050940Y-103858881D01*
X57011279Y-103736818D01*
X56992547Y-103679168D01*
X56992545Y-103679165D01*
X56992545Y-103679163D01*
X56934520Y-103565284D01*
X56906760Y-103510801D01*
X56795690Y-103357927D01*
X56662073Y-103224310D01*
X56621912Y-103195131D01*
X72459500Y-103195131D01*
X72459500Y-105084856D01*
X72459502Y-105084882D01*
X72462413Y-105109987D01*
X72462415Y-105109991D01*
X72507793Y-105212764D01*
X72507794Y-105212765D01*
X72587235Y-105292206D01*
X72690009Y-105337585D01*
X72715135Y-105340500D01*
X74604864Y-105340499D01*
X74604879Y-105340497D01*
X74604882Y-105340497D01*
X74629987Y-105337586D01*
X74629988Y-105337585D01*
X74629991Y-105337585D01*
X74732765Y-105292206D01*
X74812206Y-105212765D01*
X74857585Y-105109991D01*
X74860500Y-105084865D01*
X74860499Y-104671906D01*
X74880183Y-104604870D01*
X74932987Y-104559115D01*
X75002146Y-104549171D01*
X75065702Y-104578196D01*
X75094984Y-104615614D01*
X75120449Y-104665591D01*
X75173240Y-104769199D01*
X75284310Y-104922073D01*
X75417927Y-105055690D01*
X75570801Y-105166760D01*
X75650347Y-105207290D01*
X75739163Y-105252545D01*
X75739165Y-105252545D01*
X75739168Y-105252547D01*
X75835497Y-105283846D01*
X75918881Y-105310940D01*
X76105514Y-105340500D01*
X76105519Y-105340500D01*
X76294486Y-105340500D01*
X76481118Y-105310940D01*
X76506496Y-105302694D01*
X76660832Y-105252547D01*
X76829199Y-105166760D01*
X76982073Y-105055690D01*
X77115690Y-104922073D01*
X77226760Y-104769199D01*
X77312547Y-104600832D01*
X77352069Y-104479195D01*
X77391507Y-104421521D01*
X77455866Y-104394323D01*
X77524712Y-104406238D01*
X77576188Y-104453482D01*
X77587931Y-104479196D01*
X77627454Y-104600836D01*
X77660449Y-104665591D01*
X77713240Y-104769199D01*
X77824310Y-104922073D01*
X77957927Y-105055690D01*
X78110801Y-105166760D01*
X78190347Y-105207290D01*
X78279163Y-105252545D01*
X78279165Y-105252545D01*
X78279168Y-105252547D01*
X78375497Y-105283846D01*
X78458881Y-105310940D01*
X78645514Y-105340500D01*
X78645519Y-105340500D01*
X78834486Y-105340500D01*
X79021118Y-105310940D01*
X79046496Y-105302694D01*
X79200832Y-105252547D01*
X79369199Y-105166760D01*
X79522073Y-105055690D01*
X79655690Y-104922073D01*
X79766760Y-104769199D01*
X79852547Y-104600832D01*
X79910940Y-104421118D01*
X79915312Y-104393514D01*
X79940500Y-104234486D01*
X79940500Y-104045513D01*
X79910940Y-103858881D01*
X79871279Y-103736818D01*
X79852547Y-103679168D01*
X79852545Y-103679165D01*
X79852545Y-103679163D01*
X79794520Y-103565284D01*
X79766760Y-103510801D01*
X79655690Y-103357927D01*
X79522073Y-103224310D01*
X79369199Y-103113240D01*
X79326008Y-103091233D01*
X79200836Y-103027454D01*
X79021118Y-102969059D01*
X78834486Y-102939500D01*
X78834481Y-102939500D01*
X78645519Y-102939500D01*
X78645514Y-102939500D01*
X78458881Y-102969059D01*
X78279163Y-103027454D01*
X78110800Y-103113240D01*
X78023579Y-103176610D01*
X77957927Y-103224310D01*
X77957925Y-103224312D01*
X77957924Y-103224312D01*
X77824312Y-103357924D01*
X77824312Y-103357925D01*
X77824310Y-103357927D01*
X77793155Y-103400808D01*
X77713240Y-103510800D01*
X77627454Y-103679163D01*
X77587931Y-103800803D01*
X77548493Y-103858478D01*
X77484134Y-103885676D01*
X77415288Y-103873761D01*
X77363812Y-103826516D01*
X77352069Y-103800803D01*
X77331279Y-103736818D01*
X77312547Y-103679168D01*
X77312545Y-103679165D01*
X77312545Y-103679163D01*
X77254520Y-103565284D01*
X77226760Y-103510801D01*
X77115690Y-103357927D01*
X76982073Y-103224310D01*
X76829199Y-103113240D01*
X76829195Y-103113237D01*
X76825360Y-103111283D01*
X76774567Y-103063306D01*
X76757776Y-102995484D01*
X76780318Y-102929350D01*
X76793975Y-102913127D01*
X80754409Y-98952693D01*
X80815730Y-98919210D01*
X80880407Y-98922445D01*
X80998881Y-98960940D01*
X81185514Y-98990500D01*
X81185519Y-98990500D01*
X81374486Y-98990500D01*
X81561118Y-98960940D01*
X81603331Y-98947224D01*
X81740832Y-98902547D01*
X81909199Y-98816760D01*
X82062073Y-98705690D01*
X82195690Y-98572073D01*
X82306760Y-98419199D01*
X82392547Y-98250832D01*
X82450940Y-98071118D01*
X82480500Y-97884486D01*
X82480500Y-97695513D01*
X82450940Y-97508881D01*
X82412445Y-97390407D01*
X82392547Y-97329168D01*
X82392545Y-97329165D01*
X82392545Y-97329163D01*
X82347290Y-97240347D01*
X82306760Y-97160801D01*
X82195690Y-97007927D01*
X82062073Y-96874310D01*
X81909199Y-96763240D01*
X81740836Y-96677454D01*
X81561118Y-96619059D01*
X81374486Y-96589500D01*
X81374481Y-96589500D01*
X81185519Y-96589500D01*
X81185514Y-96589500D01*
X80998880Y-96619060D01*
X80998877Y-96619060D01*
X80880406Y-96657554D01*
X80810564Y-96659549D01*
X80754407Y-96627304D01*
X76428819Y-92301716D01*
X76395334Y-92240393D01*
X76392500Y-92214035D01*
X76392500Y-92133004D01*
X76365581Y-91997677D01*
X76365580Y-91997676D01*
X76365580Y-91997672D01*
X76328898Y-91909113D01*
X76312778Y-91870195D01*
X76312771Y-91870182D01*
X76236114Y-91755458D01*
X76236111Y-91755454D01*
X76138545Y-91657888D01*
X76138541Y-91657885D01*
X76023817Y-91581228D01*
X76023804Y-91581221D01*
X75896332Y-91528421D01*
X75896322Y-91528418D01*
X75760995Y-91501500D01*
X75760993Y-91501500D01*
X75623007Y-91501500D01*
X75623005Y-91501500D01*
X75487677Y-91528418D01*
X75487667Y-91528421D01*
X75360195Y-91581221D01*
X75360182Y-91581228D01*
X75245458Y-91657885D01*
X75245454Y-91657888D01*
X75147888Y-91755454D01*
X75147885Y-91755458D01*
X75071228Y-91870182D01*
X75071221Y-91870195D01*
X75018421Y-91997667D01*
X75018418Y-91997677D01*
X74991500Y-92133004D01*
X74991500Y-92133007D01*
X74991500Y-92270993D01*
X74991500Y-92270995D01*
X74991499Y-92270995D01*
X75018418Y-92406322D01*
X75018421Y-92406332D01*
X75071221Y-92533804D01*
X75071228Y-92533817D01*
X75147885Y-92648541D01*
X75147888Y-92648545D01*
X75245454Y-92746111D01*
X75245458Y-92746114D01*
X75360182Y-92822771D01*
X75360195Y-92822778D01*
X75487667Y-92875578D01*
X75487672Y-92875580D01*
X75487676Y-92875580D01*
X75487677Y-92875581D01*
X75623004Y-92902500D01*
X75623007Y-92902500D01*
X75704035Y-92902500D01*
X75771074Y-92922185D01*
X75791716Y-92938819D01*
X80117304Y-97264407D01*
X80150789Y-97325730D01*
X80147554Y-97390406D01*
X80109060Y-97508877D01*
X80109060Y-97508880D01*
X80079500Y-97695513D01*
X80079500Y-97884486D01*
X80109060Y-98071119D01*
X80109060Y-98071122D01*
X80147554Y-98189591D01*
X80149549Y-98259432D01*
X80117304Y-98315590D01*
X76303716Y-102129181D01*
X76242393Y-102162666D01*
X76216035Y-102165500D01*
X75378691Y-102165500D01*
X75292758Y-102188525D01*
X75264113Y-102196201D01*
X75264108Y-102196203D01*
X75263724Y-102196426D01*
X75263696Y-102196442D01*
X75161389Y-102255508D01*
X75161384Y-102255512D01*
X74513715Y-102903181D01*
X74452392Y-102936666D01*
X74426034Y-102939500D01*
X72715143Y-102939500D01*
X72715117Y-102939502D01*
X72690012Y-102942413D01*
X72690008Y-102942415D01*
X72587235Y-102987793D01*
X72507794Y-103067234D01*
X72462415Y-103170006D01*
X72462415Y-103170008D01*
X72459500Y-103195131D01*
X56621912Y-103195131D01*
X56509199Y-103113240D01*
X56466008Y-103091233D01*
X56340836Y-103027454D01*
X56161118Y-102969059D01*
X55974486Y-102939500D01*
X55974481Y-102939500D01*
X55830518Y-102939500D01*
X55763479Y-102919815D01*
X55717724Y-102867011D01*
X55707780Y-102797853D01*
X55736805Y-102734297D01*
X55742837Y-102727819D01*
X56858118Y-101612539D01*
X58165838Y-100304819D01*
X58227161Y-100271334D01*
X58253519Y-100268500D01*
X59250996Y-100268500D01*
X59342040Y-100250389D01*
X59386328Y-100241580D01*
X59450069Y-100215177D01*
X59513807Y-100188777D01*
X59513808Y-100188776D01*
X59513811Y-100188775D01*
X59628543Y-100112114D01*
X59691407Y-100049249D01*
X59752726Y-100015766D01*
X59754895Y-100015315D01*
X59758992Y-100014500D01*
X59758994Y-100014500D01*
X59894328Y-99987580D01*
X59958069Y-99961177D01*
X60021807Y-99934777D01*
X60021808Y-99934776D01*
X60021811Y-99934775D01*
X60136543Y-99858114D01*
X61467837Y-98526818D01*
X61529160Y-98493334D01*
X61555518Y-98490500D01*
X72335501Y-98490500D01*
X72402540Y-98510185D01*
X72448295Y-98562989D01*
X72459501Y-98614500D01*
X72459501Y-98734856D01*
X72459502Y-98734882D01*
X72462413Y-98759987D01*
X72462415Y-98759991D01*
X72507793Y-98862764D01*
X72507794Y-98862765D01*
X72587235Y-98942206D01*
X72690009Y-98987585D01*
X72715135Y-98990500D01*
X74604864Y-98990499D01*
X74604879Y-98990497D01*
X74604882Y-98990497D01*
X74629987Y-98987586D01*
X74629988Y-98987585D01*
X74629991Y-98987585D01*
X74732765Y-98942206D01*
X74812206Y-98862765D01*
X74857585Y-98759991D01*
X74860500Y-98734865D01*
X74860499Y-96845136D01*
X74860497Y-96845117D01*
X74857586Y-96820012D01*
X74857585Y-96820010D01*
X74857585Y-96820009D01*
X74812206Y-96717235D01*
X74732765Y-96637794D01*
X74732763Y-96637793D01*
X74629992Y-96592415D01*
X74604865Y-96589500D01*
X72715143Y-96589500D01*
X72715117Y-96589502D01*
X72690012Y-96592413D01*
X72690008Y-96592415D01*
X72587235Y-96637793D01*
X72507794Y-96717234D01*
X72462415Y-96820006D01*
X72462415Y-96820008D01*
X72459500Y-96845131D01*
X72459500Y-96965500D01*
X72439815Y-97032539D01*
X72387011Y-97078294D01*
X72335500Y-97089500D01*
X61145003Y-97089500D01*
X61036590Y-97111065D01*
X61036589Y-97111065D01*
X61023131Y-97113742D01*
X61009673Y-97116419D01*
X60956866Y-97138291D01*
X60956866Y-97138292D01*
X60909774Y-97157798D01*
X60882186Y-97169226D01*
X60872034Y-97176010D01*
X60871923Y-97176084D01*
X60767457Y-97245886D01*
X60767453Y-97245889D01*
X59787083Y-98226259D01*
X59725760Y-98259744D01*
X59656068Y-98254760D01*
X59600135Y-98212888D01*
X59575718Y-98147424D01*
X59581472Y-98100257D01*
X59590939Y-98071121D01*
X59590940Y-98071118D01*
X59606169Y-97974963D01*
X59620500Y-97884486D01*
X59620500Y-97695513D01*
X59590940Y-97508881D01*
X59552445Y-97390407D01*
X59532547Y-97329168D01*
X59532545Y-97329165D01*
X59532545Y-97329163D01*
X59487290Y-97240347D01*
X59446760Y-97160801D01*
X59335690Y-97007927D01*
X59202073Y-96874310D01*
X59049199Y-96763240D01*
X58880836Y-96677454D01*
X58701118Y-96619059D01*
X58514486Y-96589500D01*
X58514481Y-96589500D01*
X58325519Y-96589500D01*
X58325514Y-96589500D01*
X58138880Y-96619060D01*
X58138877Y-96619060D01*
X58020406Y-96657554D01*
X57950564Y-96659549D01*
X57894407Y-96627304D01*
X52806819Y-91539716D01*
X52773334Y-91478393D01*
X52770500Y-91452035D01*
X52770500Y-91371004D01*
X52743581Y-91235677D01*
X52743580Y-91235676D01*
X52743580Y-91235672D01*
X52714232Y-91164819D01*
X52690778Y-91108195D01*
X52690771Y-91108182D01*
X52614114Y-90993458D01*
X52614111Y-90993454D01*
X52516545Y-90895888D01*
X52516541Y-90895885D01*
X52401817Y-90819228D01*
X52401804Y-90819221D01*
X52274332Y-90766421D01*
X52274322Y-90766418D01*
X52138995Y-90739500D01*
X52138993Y-90739500D01*
X52001007Y-90739500D01*
X52001005Y-90739500D01*
X51865677Y-90766418D01*
X51865667Y-90766421D01*
X51738195Y-90819221D01*
X51738182Y-90819228D01*
X51623458Y-90895885D01*
X51623454Y-90895888D01*
X51525888Y-90993454D01*
X51525885Y-90993458D01*
X51449228Y-91108182D01*
X51449221Y-91108195D01*
X51396421Y-91235667D01*
X51396418Y-91235677D01*
X51369500Y-91371004D01*
X51369500Y-91371007D01*
X51369500Y-91508993D01*
X51369500Y-91508995D01*
X51369499Y-91508995D01*
X51396418Y-91644322D01*
X51396421Y-91644332D01*
X51449221Y-91771804D01*
X51449228Y-91771817D01*
X51525885Y-91886541D01*
X51525888Y-91886545D01*
X51623454Y-91984111D01*
X51623458Y-91984114D01*
X51738182Y-92060771D01*
X51738195Y-92060778D01*
X51865667Y-92113578D01*
X51865672Y-92113580D01*
X51865676Y-92113580D01*
X51865677Y-92113581D01*
X52001004Y-92140500D01*
X52001007Y-92140500D01*
X52082035Y-92140500D01*
X52149074Y-92160185D01*
X52169716Y-92176819D01*
X57129450Y-97136553D01*
X57162935Y-97197876D01*
X57157951Y-97267568D01*
X57116079Y-97323501D01*
X57073862Y-97344009D01*
X57000325Y-97363713D01*
X57000324Y-97363712D01*
X56976116Y-97370199D01*
X56976113Y-97370200D01*
X56873386Y-97429511D01*
X56873383Y-97429513D01*
X51399714Y-102903181D01*
X51338391Y-102936666D01*
X51312033Y-102939500D01*
X49855143Y-102939500D01*
X49855117Y-102939502D01*
X49830012Y-102942413D01*
X49830008Y-102942415D01*
X49727235Y-102987793D01*
X49647794Y-103067234D01*
X49602415Y-103170006D01*
X49602415Y-103170008D01*
X49599500Y-103195131D01*
X27489972Y-103195131D01*
X28598284Y-102086819D01*
X28659607Y-102053334D01*
X28685965Y-102050500D01*
X31826201Y-102050500D01*
X31893240Y-102070185D01*
X31936685Y-102118204D01*
X31993240Y-102229199D01*
X32104310Y-102382073D01*
X32237927Y-102515690D01*
X32390801Y-102626760D01*
X32443900Y-102653815D01*
X32559163Y-102712545D01*
X32559165Y-102712545D01*
X32559168Y-102712547D01*
X32655497Y-102743846D01*
X32738881Y-102770940D01*
X32925514Y-102800500D01*
X32925519Y-102800500D01*
X33114486Y-102800500D01*
X33301118Y-102770940D01*
X33480832Y-102712547D01*
X33649199Y-102626760D01*
X33802073Y-102515690D01*
X33935690Y-102382073D01*
X34046760Y-102229199D01*
X34132547Y-102060832D01*
X34190940Y-101881118D01*
X34190999Y-101880748D01*
X34220500Y-101694486D01*
X34220500Y-101505513D01*
X34190940Y-101318881D01*
X34145880Y-101180204D01*
X34132547Y-101139168D01*
X34132545Y-101139165D01*
X34132545Y-101139163D01*
X34046759Y-100970800D01*
X33935690Y-100817927D01*
X33802073Y-100684310D01*
X33649199Y-100573240D01*
X33480836Y-100487454D01*
X33301118Y-100429059D01*
X33114486Y-100399500D01*
X33114481Y-100399500D01*
X32925519Y-100399500D01*
X32925514Y-100399500D01*
X32738881Y-100429059D01*
X32559163Y-100487454D01*
X32390800Y-100573240D01*
X32312661Y-100630012D01*
X32237927Y-100684310D01*
X32237925Y-100684312D01*
X32237924Y-100684312D01*
X32104312Y-100817924D01*
X32104312Y-100817925D01*
X32104310Y-100817927D01*
X32056610Y-100883579D01*
X31993240Y-100970800D01*
X31936686Y-101081795D01*
X31888712Y-101132591D01*
X31826201Y-101149500D01*
X28388691Y-101149500D01*
X28319944Y-101167920D01*
X28274112Y-101180201D01*
X28274107Y-101180204D01*
X28230695Y-101205267D01*
X28230696Y-101205268D01*
X28171389Y-101239508D01*
X28171383Y-101239513D01*
X26812180Y-102598716D01*
X26750857Y-102632201D01*
X26681165Y-102627217D01*
X26625232Y-102585345D01*
X26600815Y-102519881D01*
X26600499Y-102511062D01*
X26600499Y-100655136D01*
X26600497Y-100655117D01*
X26597586Y-100630012D01*
X26597585Y-100630010D01*
X26597585Y-100630009D01*
X26552206Y-100527235D01*
X26472765Y-100447794D01*
X26472763Y-100447793D01*
X26369992Y-100402415D01*
X26344865Y-100399500D01*
X24455143Y-100399500D01*
X24455117Y-100399502D01*
X24430012Y-100402413D01*
X24430008Y-100402415D01*
X24327235Y-100447793D01*
X24247794Y-100527234D01*
X24202415Y-100630006D01*
X24202415Y-100630008D01*
X24199500Y-100655131D01*
X24199500Y-100655137D01*
X24199501Y-102548444D01*
X24197942Y-102548444D01*
X24183570Y-102610412D01*
X24133492Y-102659136D01*
X24075562Y-102673500D01*
X19287965Y-102673500D01*
X19220926Y-102653815D01*
X19200284Y-102637181D01*
X18818616Y-102255513D01*
X18818614Y-102255511D01*
X18767250Y-102225856D01*
X18715888Y-102196201D01*
X18703780Y-102192957D01*
X18691673Y-102189713D01*
X18691670Y-102189712D01*
X18635692Y-102174713D01*
X18601309Y-102165500D01*
X14164691Y-102165500D01*
X14078758Y-102188525D01*
X14050113Y-102196201D01*
X14050108Y-102196203D01*
X14049724Y-102196426D01*
X14049696Y-102196442D01*
X13947389Y-102255508D01*
X13947384Y-102255512D01*
X13299715Y-102903181D01*
X13238392Y-102936666D01*
X13212034Y-102939500D01*
X11755143Y-102939500D01*
X11755117Y-102939502D01*
X11730012Y-102942413D01*
X11730008Y-102942415D01*
X11627235Y-102987793D01*
X11547794Y-103067234D01*
X11502415Y-103170006D01*
X11502415Y-103170008D01*
X11499500Y-103195131D01*
X1000000Y-103195131D01*
X1000000Y-96845131D01*
X49599500Y-96845131D01*
X49599500Y-98734856D01*
X49599502Y-98734882D01*
X49602413Y-98759987D01*
X49602415Y-98759991D01*
X49647793Y-98862764D01*
X49647794Y-98862765D01*
X49727235Y-98942206D01*
X49830009Y-98987585D01*
X49855135Y-98990500D01*
X51744864Y-98990499D01*
X51744879Y-98990497D01*
X51744882Y-98990497D01*
X51769987Y-98987586D01*
X51769988Y-98987585D01*
X51769991Y-98987585D01*
X51872765Y-98942206D01*
X51952206Y-98862765D01*
X51997585Y-98759991D01*
X52000500Y-98734865D01*
X52000499Y-96845136D01*
X52000497Y-96845117D01*
X51997586Y-96820012D01*
X51997585Y-96820010D01*
X51997585Y-96820009D01*
X51952206Y-96717235D01*
X51872765Y-96637794D01*
X51872763Y-96637793D01*
X51769992Y-96592415D01*
X51744865Y-96589500D01*
X49855143Y-96589500D01*
X49855117Y-96589502D01*
X49830012Y-96592413D01*
X49830008Y-96592415D01*
X49727235Y-96637793D01*
X49647794Y-96717234D01*
X49602415Y-96820006D01*
X49602415Y-96820008D01*
X49599500Y-96845131D01*
X1000000Y-96845131D01*
X1000000Y-90495131D01*
X11499500Y-90495131D01*
X11499500Y-92384856D01*
X11499502Y-92384882D01*
X11502413Y-92409987D01*
X11502415Y-92409991D01*
X11547793Y-92512764D01*
X11547794Y-92512765D01*
X11627235Y-92592206D01*
X11730009Y-92637585D01*
X11755135Y-92640500D01*
X13644864Y-92640499D01*
X13644879Y-92640497D01*
X13644882Y-92640497D01*
X13669987Y-92637586D01*
X13669988Y-92637585D01*
X13669991Y-92637585D01*
X13772765Y-92592206D01*
X13852206Y-92512765D01*
X13897585Y-92409991D01*
X13900500Y-92384865D01*
X13900499Y-91345552D01*
X19120000Y-91345552D01*
X19120000Y-91534447D01*
X19149548Y-91721002D01*
X19207914Y-91900637D01*
X19293666Y-92068933D01*
X19341872Y-92135284D01*
X19851980Y-91625176D01*
X19854075Y-91632993D01*
X19919901Y-91747007D01*
X20012993Y-91840099D01*
X20127007Y-91905925D01*
X20134822Y-91908019D01*
X19624713Y-92418126D01*
X19624714Y-92418127D01*
X19691059Y-92466329D01*
X19859362Y-92552085D01*
X20038997Y-92610451D01*
X20225553Y-92640000D01*
X20414447Y-92640000D01*
X20601002Y-92610451D01*
X20780637Y-92552085D01*
X20948937Y-92466331D01*
X21015284Y-92418126D01*
X21015285Y-92418126D01*
X20505178Y-91908019D01*
X20512993Y-91905925D01*
X20627007Y-91840099D01*
X20720099Y-91747007D01*
X20785925Y-91632993D01*
X20788019Y-91625178D01*
X21298126Y-92135285D01*
X21298126Y-92135284D01*
X21346331Y-92068937D01*
X21432085Y-91900637D01*
X21490451Y-91721002D01*
X21520000Y-91534447D01*
X21520000Y-91345552D01*
X21490451Y-91158997D01*
X21432085Y-90979362D01*
X21346329Y-90811059D01*
X21298127Y-90744714D01*
X21298126Y-90744713D01*
X20788018Y-91254821D01*
X20785925Y-91247007D01*
X20720099Y-91132993D01*
X20627007Y-91039901D01*
X20512993Y-90974075D01*
X20505177Y-90971980D01*
X21015284Y-90461872D01*
X20948933Y-90413666D01*
X20780637Y-90327914D01*
X20601002Y-90269548D01*
X20414447Y-90240000D01*
X20225553Y-90240000D01*
X20038997Y-90269548D01*
X19859362Y-90327914D01*
X19691064Y-90413667D01*
X19691062Y-90413668D01*
X19624714Y-90461871D01*
X19624714Y-90461872D01*
X20134822Y-90971980D01*
X20127007Y-90974075D01*
X20012993Y-91039901D01*
X19919901Y-91132993D01*
X19854075Y-91247007D01*
X19851980Y-91254822D01*
X19341872Y-90744714D01*
X19341871Y-90744714D01*
X19293668Y-90811062D01*
X19293667Y-90811064D01*
X19207914Y-90979362D01*
X19149548Y-91158997D01*
X19120000Y-91345552D01*
X13900499Y-91345552D01*
X13900499Y-90495136D01*
X13900251Y-90492995D01*
X13897586Y-90470012D01*
X13897585Y-90470010D01*
X13897585Y-90470009D01*
X13852206Y-90367235D01*
X13772765Y-90287794D01*
X13747164Y-90276490D01*
X13669992Y-90242415D01*
X13644868Y-90239500D01*
X13644865Y-90239500D01*
X13274500Y-90239500D01*
X13207461Y-90219815D01*
X13161706Y-90167011D01*
X13150500Y-90115500D01*
X13150500Y-89137964D01*
X13170185Y-89070925D01*
X13186814Y-89050288D01*
X15524260Y-86712842D01*
X52140000Y-86712842D01*
X52140000Y-88547156D01*
X52871980Y-87815176D01*
X52874075Y-87822993D01*
X52939901Y-87937007D01*
X53032993Y-88030099D01*
X53147007Y-88095925D01*
X53154823Y-88098019D01*
X52422842Y-88829998D01*
X52422843Y-88829999D01*
X54257156Y-88829999D01*
X54257156Y-88829998D01*
X53525176Y-88098019D01*
X53532993Y-88095925D01*
X53647007Y-88030099D01*
X53740099Y-87937007D01*
X53805925Y-87822993D01*
X53808019Y-87815177D01*
X54539998Y-88547156D01*
X54539999Y-88547155D01*
X54539999Y-88160926D01*
X54559684Y-88093887D01*
X54612488Y-88048132D01*
X54681646Y-88038188D01*
X54745202Y-88067213D01*
X54774483Y-88104630D01*
X54853240Y-88259199D01*
X54964310Y-88412073D01*
X55097927Y-88545690D01*
X55250801Y-88656760D01*
X55303900Y-88683815D01*
X55419163Y-88742545D01*
X55419165Y-88742545D01*
X55419168Y-88742547D01*
X55515497Y-88773846D01*
X55598881Y-88800940D01*
X55785514Y-88830500D01*
X55785519Y-88830500D01*
X55974486Y-88830500D01*
X56161118Y-88800940D01*
X56340832Y-88742547D01*
X56509199Y-88656760D01*
X56662073Y-88545690D01*
X56795690Y-88412073D01*
X56906760Y-88259199D01*
X56992547Y-88090832D01*
X57050940Y-87911118D01*
X57050999Y-87910747D01*
X57080500Y-87724486D01*
X57080500Y-87535513D01*
X57050940Y-87348881D01*
X56993362Y-87171677D01*
X56992547Y-87169168D01*
X56992545Y-87169165D01*
X56992545Y-87169163D01*
X56928867Y-87044189D01*
X56906760Y-87000801D01*
X56795690Y-86847927D01*
X56662073Y-86714310D01*
X56660052Y-86712842D01*
X64840000Y-86712842D01*
X64840000Y-88547156D01*
X65571980Y-87815176D01*
X65574075Y-87822993D01*
X65639901Y-87937007D01*
X65732993Y-88030099D01*
X65847007Y-88095925D01*
X65854823Y-88098019D01*
X65122842Y-88829998D01*
X65122843Y-88829999D01*
X66957156Y-88829999D01*
X66957156Y-88829998D01*
X66225176Y-88098019D01*
X66232993Y-88095925D01*
X66347007Y-88030099D01*
X66440099Y-87937007D01*
X66505925Y-87822993D01*
X66508019Y-87815176D01*
X67239998Y-88547156D01*
X67239999Y-88547155D01*
X67239999Y-88160926D01*
X67259684Y-88093887D01*
X67312488Y-88048132D01*
X67381646Y-88038188D01*
X67445202Y-88067213D01*
X67474483Y-88104630D01*
X67553240Y-88259199D01*
X67664310Y-88412073D01*
X67797927Y-88545690D01*
X67950801Y-88656760D01*
X68003900Y-88683815D01*
X68119163Y-88742545D01*
X68119165Y-88742545D01*
X68119168Y-88742547D01*
X68215497Y-88773846D01*
X68298881Y-88800940D01*
X68485514Y-88830500D01*
X68485519Y-88830500D01*
X68674486Y-88830500D01*
X68861118Y-88800940D01*
X69040832Y-88742547D01*
X69209199Y-88656760D01*
X69362073Y-88545690D01*
X69495690Y-88412073D01*
X69606760Y-88259199D01*
X69692547Y-88090832D01*
X69750940Y-87911118D01*
X69750999Y-87910747D01*
X69780500Y-87724486D01*
X69780500Y-87535513D01*
X69750940Y-87348881D01*
X69693362Y-87171677D01*
X69692547Y-87169168D01*
X69692545Y-87169165D01*
X69692545Y-87169163D01*
X69628867Y-87044189D01*
X69606760Y-87000801D01*
X69495690Y-86847927D01*
X69362073Y-86714310D01*
X69209199Y-86603240D01*
X69159437Y-86577885D01*
X69040836Y-86517454D01*
X68861118Y-86459059D01*
X68674486Y-86429500D01*
X68674481Y-86429500D01*
X68485519Y-86429500D01*
X68485514Y-86429500D01*
X68298881Y-86459059D01*
X68119163Y-86517454D01*
X67950800Y-86603240D01*
X67867240Y-86663951D01*
X67797927Y-86714310D01*
X67797925Y-86714312D01*
X67797924Y-86714312D01*
X67664312Y-86847924D01*
X67664312Y-86847925D01*
X67664310Y-86847927D01*
X67649721Y-86868007D01*
X67553240Y-87000800D01*
X67474484Y-87155368D01*
X67426509Y-87206164D01*
X67358688Y-87222959D01*
X67292553Y-87200422D01*
X67249102Y-87145706D01*
X67239999Y-87099073D01*
X67239999Y-86712843D01*
X67239998Y-86712842D01*
X66508019Y-87444822D01*
X66505925Y-87437007D01*
X66440099Y-87322993D01*
X66347007Y-87229901D01*
X66232993Y-87164075D01*
X66225176Y-87161980D01*
X66957156Y-86430000D01*
X65122842Y-86430000D01*
X65854823Y-87161980D01*
X65847007Y-87164075D01*
X65732993Y-87229901D01*
X65639901Y-87322993D01*
X65574075Y-87437007D01*
X65571980Y-87444822D01*
X64840000Y-86712842D01*
X56660052Y-86712842D01*
X56509199Y-86603240D01*
X56429196Y-86562477D01*
X56340836Y-86517454D01*
X56161118Y-86459059D01*
X55974486Y-86429500D01*
X55974481Y-86429500D01*
X55785519Y-86429500D01*
X55785514Y-86429500D01*
X55598881Y-86459059D01*
X55419163Y-86517454D01*
X55250800Y-86603240D01*
X55167240Y-86663951D01*
X55097927Y-86714310D01*
X55097925Y-86714312D01*
X55097924Y-86714312D01*
X54964312Y-86847924D01*
X54964312Y-86847925D01*
X54964310Y-86847927D01*
X54949721Y-86868007D01*
X54853240Y-87000800D01*
X54774484Y-87155368D01*
X54726509Y-87206164D01*
X54658688Y-87222959D01*
X54592553Y-87200422D01*
X54549102Y-87145706D01*
X54539999Y-87099073D01*
X54539999Y-86712843D01*
X54539998Y-86712842D01*
X53808019Y-87444822D01*
X53805925Y-87437007D01*
X53740099Y-87322993D01*
X53647007Y-87229901D01*
X53532993Y-87164075D01*
X53525176Y-87161980D01*
X54257156Y-86430000D01*
X52422842Y-86430000D01*
X53154823Y-87161980D01*
X53147007Y-87164075D01*
X53032993Y-87229901D01*
X52939901Y-87322993D01*
X52874075Y-87437007D01*
X52871980Y-87444822D01*
X52140000Y-86712842D01*
X15524260Y-86712842D01*
X19794407Y-82442694D01*
X19855730Y-82409210D01*
X19920407Y-82412445D01*
X20038881Y-82450940D01*
X20225514Y-82480500D01*
X20225519Y-82480500D01*
X20414486Y-82480500D01*
X20601118Y-82450940D01*
X20626493Y-82442695D01*
X20780832Y-82392547D01*
X20949199Y-82306760D01*
X21102073Y-82195690D01*
X21235690Y-82062073D01*
X21346760Y-81909199D01*
X21432547Y-81740832D01*
X21490940Y-81561118D01*
X21490958Y-81561002D01*
X21520500Y-81374486D01*
X21520500Y-81185513D01*
X21490940Y-80998881D01*
X21452280Y-80879901D01*
X21432547Y-80819168D01*
X21432545Y-80819165D01*
X21432545Y-80819163D01*
X21346899Y-80651074D01*
X21346760Y-80650801D01*
X21235690Y-80497927D01*
X21102073Y-80364310D01*
X20949199Y-80253240D01*
X20780836Y-80167454D01*
X20601118Y-80109059D01*
X20414486Y-80079500D01*
X20414481Y-80079500D01*
X20225519Y-80079500D01*
X20225514Y-80079500D01*
X20038881Y-80109059D01*
X19859163Y-80167454D01*
X19690800Y-80253240D01*
X19612661Y-80310012D01*
X19537927Y-80364310D01*
X19537925Y-80364312D01*
X19537924Y-80364312D01*
X19404312Y-80497924D01*
X19404312Y-80497925D01*
X19404310Y-80497927D01*
X19356610Y-80563579D01*
X19293240Y-80650800D01*
X19207454Y-80819163D01*
X19149059Y-80998881D01*
X19119500Y-81185513D01*
X19119500Y-81374486D01*
X19149060Y-81561119D01*
X19149060Y-81561122D01*
X19187554Y-81679592D01*
X19189549Y-81749433D01*
X19157304Y-81805591D01*
X12339513Y-88623383D01*
X12339509Y-88623389D01*
X12280201Y-88726112D01*
X12280200Y-88726117D01*
X12249500Y-88840691D01*
X12249500Y-90115500D01*
X12229815Y-90182539D01*
X12177011Y-90228294D01*
X12125500Y-90239500D01*
X11755143Y-90239500D01*
X11755117Y-90239502D01*
X11730012Y-90242413D01*
X11730008Y-90242415D01*
X11627235Y-90287793D01*
X11547794Y-90367234D01*
X11502415Y-90470006D01*
X11502415Y-90470008D01*
X11499500Y-90495131D01*
X1000000Y-90495131D01*
X1000000Y-80335131D01*
X11499500Y-80335131D01*
X11499500Y-82224856D01*
X11499502Y-82224882D01*
X11502413Y-82249987D01*
X11502415Y-82249991D01*
X11547793Y-82352764D01*
X11547794Y-82352765D01*
X11627235Y-82432206D01*
X11730009Y-82477585D01*
X11755135Y-82480500D01*
X13644864Y-82480499D01*
X13644879Y-82480497D01*
X13644882Y-82480497D01*
X13669987Y-82477586D01*
X13669988Y-82477585D01*
X13669991Y-82477585D01*
X13772765Y-82432206D01*
X13852206Y-82352765D01*
X13897585Y-82249991D01*
X13900500Y-82224865D01*
X13900499Y-80335136D01*
X13900497Y-80335117D01*
X13897586Y-80310012D01*
X13897585Y-80310010D01*
X13897585Y-80310009D01*
X13852206Y-80207235D01*
X13772765Y-80127794D01*
X13731442Y-80109548D01*
X13669992Y-80082415D01*
X13644865Y-80079500D01*
X11755143Y-80079500D01*
X11755117Y-80079502D01*
X11730012Y-80082413D01*
X11730008Y-80082415D01*
X11627235Y-80127793D01*
X11547794Y-80207234D01*
X11502415Y-80310006D01*
X11502415Y-80310008D01*
X11499500Y-80335131D01*
X1000000Y-80335131D01*
X1000000Y-4958711D01*
X3229500Y-4958711D01*
X3229500Y-5201288D01*
X3261161Y-5441785D01*
X3323947Y-5676104D01*
X3416773Y-5900205D01*
X3416776Y-5900212D01*
X3538064Y-6110289D01*
X3538066Y-6110292D01*
X3538067Y-6110293D01*
X3685733Y-6302736D01*
X3685739Y-6302743D01*
X3857256Y-6474260D01*
X3857262Y-6474265D01*
X4049711Y-6621936D01*
X4259788Y-6743224D01*
X4483900Y-6836054D01*
X4718211Y-6898838D01*
X4898586Y-6922584D01*
X4958711Y-6930500D01*
X4958712Y-6930500D01*
X5201289Y-6930500D01*
X5249388Y-6924167D01*
X5441789Y-6898838D01*
X5676100Y-6836054D01*
X5900212Y-6743224D01*
X6110289Y-6621936D01*
X6302738Y-6474265D01*
X6474265Y-6302738D01*
X6621936Y-6110289D01*
X6743224Y-5900212D01*
X6836054Y-5676100D01*
X6898838Y-5441789D01*
X6930500Y-5201288D01*
X6930500Y-4958712D01*
X6898838Y-4718211D01*
X6836054Y-4483900D01*
X6743224Y-4259788D01*
X6621936Y-4049711D01*
X6474265Y-3857262D01*
X6474260Y-3857256D01*
X6302743Y-3685739D01*
X6302736Y-3685733D01*
X6110293Y-3538067D01*
X6110292Y-3538066D01*
X6110289Y-3538064D01*
X5900212Y-3416776D01*
X5900205Y-3416773D01*
X5676104Y-3323947D01*
X5441785Y-3261161D01*
X5201289Y-3229500D01*
X5201288Y-3229500D01*
X4958712Y-3229500D01*
X4958711Y-3229500D01*
X4718214Y-3261161D01*
X4483895Y-3323947D01*
X4259794Y-3416773D01*
X4259785Y-3416777D01*
X4049706Y-3538067D01*
X3857263Y-3685733D01*
X3857256Y-3685739D01*
X3685739Y-3857256D01*
X3685733Y-3857263D01*
X3538067Y-4049706D01*
X3416777Y-4259785D01*
X3416773Y-4259794D01*
X3323947Y-4483895D01*
X3261161Y-4718214D01*
X3229500Y-4958711D01*
X1000000Y-4958711D01*
X1000000Y-1124000D01*
X1019685Y-1056961D01*
X1072489Y-1011206D01*
X1124000Y-1000000D01*
X13876000Y-1000000D01*
X13943039Y-1019685D01*
G37*
%TD.AperFunction*%
%TA.AperFunction,Conductor*%
G36*
X115104075Y-59882993D02*
G01*
X115169901Y-59997007D01*
X115262993Y-60090099D01*
X115377007Y-60155925D01*
X115384822Y-60158019D01*
X114874713Y-60668126D01*
X114911635Y-60694951D01*
X114954301Y-60750281D01*
X114960280Y-60819894D01*
X114927675Y-60881690D01*
X114907642Y-60898372D01*
X114869457Y-60923886D01*
X114848333Y-60945011D01*
X114812161Y-60981182D01*
X114750841Y-61014666D01*
X114724482Y-61017500D01*
X113585461Y-61017500D01*
X113518422Y-60997815D01*
X113472667Y-60945011D01*
X113462723Y-60875853D01*
X113491748Y-60812297D01*
X113529166Y-60783015D01*
X113539551Y-60777723D01*
X113659199Y-60716760D01*
X113812073Y-60605690D01*
X113945690Y-60472073D01*
X114056760Y-60319199D01*
X114142547Y-60150832D01*
X114182332Y-60028385D01*
X114221768Y-59970713D01*
X114286127Y-59943514D01*
X114354973Y-59955429D01*
X114406449Y-60002673D01*
X114418193Y-60028388D01*
X114457914Y-60150637D01*
X114543666Y-60318933D01*
X114591872Y-60385284D01*
X115101980Y-59875176D01*
X115104075Y-59882993D01*
G37*
%TD.AperFunction*%
%TA.AperFunction,Conductor*%
G36*
X37634075Y-12892993D02*
G01*
X37699901Y-13007007D01*
X37792993Y-13100099D01*
X37907007Y-13165925D01*
X37914822Y-13168019D01*
X37404713Y-13678126D01*
X37404714Y-13678127D01*
X37471059Y-13726329D01*
X37639362Y-13812085D01*
X37761611Y-13851806D01*
X37819286Y-13891243D01*
X37846485Y-13955602D01*
X37834571Y-14024448D01*
X37787327Y-14075924D01*
X37761612Y-14087668D01*
X37639163Y-14127454D01*
X37470800Y-14213240D01*
X37383579Y-14276610D01*
X37317927Y-14324310D01*
X37317925Y-14324312D01*
X37317924Y-14324312D01*
X37184312Y-14457924D01*
X37184312Y-14457925D01*
X37184310Y-14457927D01*
X37136610Y-14523579D01*
X37073240Y-14610800D01*
X36987454Y-14779163D01*
X36929059Y-14958881D01*
X36899500Y-15145513D01*
X36899500Y-15334486D01*
X36929059Y-15521118D01*
X36987454Y-15700836D01*
X37020449Y-15765591D01*
X37073240Y-15869199D01*
X37184310Y-16022073D01*
X37317927Y-16155690D01*
X37470801Y-16266760D01*
X37550347Y-16307290D01*
X37639163Y-16352545D01*
X37639165Y-16352545D01*
X37639168Y-16352547D01*
X37728734Y-16381649D01*
X37760803Y-16392069D01*
X37818478Y-16431507D01*
X37845676Y-16495866D01*
X37833761Y-16564712D01*
X37786516Y-16616188D01*
X37760803Y-16627931D01*
X37639163Y-16667454D01*
X37470800Y-16753240D01*
X37383579Y-16816610D01*
X37317927Y-16864310D01*
X37317925Y-16864312D01*
X37317924Y-16864312D01*
X37184312Y-16997924D01*
X37184312Y-16997925D01*
X37184310Y-16997927D01*
X37136610Y-17063579D01*
X37073240Y-17150800D01*
X36987454Y-17319163D01*
X36929059Y-17498881D01*
X36899500Y-17685513D01*
X36899500Y-17874486D01*
X36929059Y-18061118D01*
X36987454Y-18240836D01*
X37020449Y-18305591D01*
X37073240Y-18409199D01*
X37184310Y-18562073D01*
X37317927Y-18695690D01*
X37470801Y-18806760D01*
X37550347Y-18847290D01*
X37639163Y-18892545D01*
X37639165Y-18892545D01*
X37639168Y-18892547D01*
X37728734Y-18921649D01*
X37760803Y-18932069D01*
X37818478Y-18971507D01*
X37845676Y-19035866D01*
X37833761Y-19104712D01*
X37786516Y-19156188D01*
X37760803Y-19167931D01*
X37639163Y-19207454D01*
X37470800Y-19293240D01*
X37383579Y-19356610D01*
X37317927Y-19404310D01*
X37317925Y-19404312D01*
X37317924Y-19404312D01*
X37184312Y-19537924D01*
X37184312Y-19537925D01*
X37184310Y-19537927D01*
X37136610Y-19603579D01*
X37073240Y-19690800D01*
X36987454Y-19859163D01*
X36929059Y-20038881D01*
X36899500Y-20225513D01*
X36899500Y-20414486D01*
X36929059Y-20601118D01*
X36987454Y-20780836D01*
X37073240Y-20949199D01*
X37184310Y-21102073D01*
X37317927Y-21235690D01*
X37470801Y-21346760D01*
X37550347Y-21387290D01*
X37639163Y-21432545D01*
X37639165Y-21432545D01*
X37639168Y-21432547D01*
X37689122Y-21448778D01*
X37760803Y-21472069D01*
X37818478Y-21511507D01*
X37845676Y-21575866D01*
X37833761Y-21644712D01*
X37786516Y-21696188D01*
X37760803Y-21707931D01*
X37639163Y-21747454D01*
X37470800Y-21833240D01*
X37383579Y-21896610D01*
X37317927Y-21944310D01*
X37317925Y-21944312D01*
X37317924Y-21944312D01*
X37184312Y-22077924D01*
X37184312Y-22077925D01*
X37184310Y-22077927D01*
X37136610Y-22143579D01*
X37073240Y-22230800D01*
X36987454Y-22399163D01*
X36929059Y-22578881D01*
X36899500Y-22765513D01*
X36899500Y-22954486D01*
X36929059Y-23141118D01*
X36987454Y-23320836D01*
X37073240Y-23489199D01*
X37184310Y-23642073D01*
X37317927Y-23775690D01*
X37470801Y-23886760D01*
X37550347Y-23927290D01*
X37639163Y-23972545D01*
X37639165Y-23972545D01*
X37639168Y-23972547D01*
X37728734Y-24001649D01*
X37760803Y-24012069D01*
X37818478Y-24051507D01*
X37845676Y-24115866D01*
X37833761Y-24184712D01*
X37786516Y-24236188D01*
X37760803Y-24247931D01*
X37639163Y-24287454D01*
X37470800Y-24373240D01*
X37383579Y-24436610D01*
X37317927Y-24484310D01*
X37317925Y-24484312D01*
X37317924Y-24484312D01*
X37184312Y-24617924D01*
X37184312Y-24617925D01*
X37184310Y-24617927D01*
X37136610Y-24683579D01*
X37073240Y-24770800D01*
X36987454Y-24939163D01*
X36929059Y-25118881D01*
X36899500Y-25305513D01*
X36899500Y-25494486D01*
X36929059Y-25681118D01*
X36987454Y-25860836D01*
X37073240Y-26029199D01*
X37184310Y-26182073D01*
X37317927Y-26315690D01*
X37470801Y-26426760D01*
X37639168Y-26512547D01*
X37761612Y-26552331D01*
X37819287Y-26591769D01*
X37846485Y-26656127D01*
X37834570Y-26724974D01*
X37787326Y-26776449D01*
X37761612Y-26788193D01*
X37639361Y-26827915D01*
X37471064Y-26913667D01*
X37471062Y-26913668D01*
X37404714Y-26961871D01*
X37404714Y-26961872D01*
X37914822Y-27471980D01*
X37907007Y-27474075D01*
X37792993Y-27539901D01*
X37699901Y-27632993D01*
X37634075Y-27747007D01*
X37631980Y-27754822D01*
X37121872Y-27244714D01*
X37121871Y-27244714D01*
X37073668Y-27311062D01*
X37073667Y-27311064D01*
X36987914Y-27479362D01*
X36929548Y-27658997D01*
X36900000Y-27845552D01*
X36900000Y-28034447D01*
X36929548Y-28221002D01*
X36987914Y-28400637D01*
X37073666Y-28568933D01*
X37121872Y-28635284D01*
X37631980Y-28125176D01*
X37634075Y-28132993D01*
X37699901Y-28247007D01*
X37792993Y-28340099D01*
X37907007Y-28405925D01*
X37914822Y-28408019D01*
X37404713Y-28918126D01*
X37404714Y-28918127D01*
X37471059Y-28966329D01*
X37639362Y-29052085D01*
X37761611Y-29091806D01*
X37819286Y-29131243D01*
X37846485Y-29195602D01*
X37834571Y-29264448D01*
X37787327Y-29315924D01*
X37761612Y-29327668D01*
X37639163Y-29367454D01*
X37470800Y-29453240D01*
X37383579Y-29516610D01*
X37317927Y-29564310D01*
X37317925Y-29564312D01*
X37317924Y-29564312D01*
X37184312Y-29697924D01*
X37184312Y-29697925D01*
X37184310Y-29697927D01*
X37136610Y-29763579D01*
X37073240Y-29850800D01*
X36987454Y-30019163D01*
X36929059Y-30198881D01*
X36899500Y-30385513D01*
X36899500Y-30574486D01*
X36929059Y-30761118D01*
X36987454Y-30940836D01*
X37020449Y-31005591D01*
X37073240Y-31109199D01*
X37184310Y-31262073D01*
X37317927Y-31395690D01*
X37470801Y-31506760D01*
X37550347Y-31547290D01*
X37639163Y-31592545D01*
X37639165Y-31592545D01*
X37639168Y-31592547D01*
X37728734Y-31621649D01*
X37760803Y-31632069D01*
X37818478Y-31671507D01*
X37845676Y-31735866D01*
X37833761Y-31804712D01*
X37786516Y-31856188D01*
X37760803Y-31867931D01*
X37639163Y-31907454D01*
X37470800Y-31993240D01*
X37387631Y-32053667D01*
X37317927Y-32104310D01*
X37317925Y-32104312D01*
X37317924Y-32104312D01*
X37184312Y-32237924D01*
X37184312Y-32237925D01*
X37184310Y-32237927D01*
X37178471Y-32245964D01*
X37073240Y-32390800D01*
X36987454Y-32559163D01*
X36929059Y-32738881D01*
X36899500Y-32925513D01*
X36899500Y-33114486D01*
X36929059Y-33301118D01*
X36987454Y-33480836D01*
X37020449Y-33545591D01*
X37073240Y-33649199D01*
X37184310Y-33802073D01*
X37317927Y-33935690D01*
X37470801Y-34046760D01*
X37550347Y-34087290D01*
X37639163Y-34132545D01*
X37639165Y-34132545D01*
X37639168Y-34132547D01*
X37728734Y-34161649D01*
X37760803Y-34172069D01*
X37818478Y-34211507D01*
X37845676Y-34275866D01*
X37833761Y-34344712D01*
X37786516Y-34396188D01*
X37760803Y-34407931D01*
X37639163Y-34447454D01*
X37470800Y-34533240D01*
X37383579Y-34596610D01*
X37317927Y-34644310D01*
X37317925Y-34644312D01*
X37317924Y-34644312D01*
X37184312Y-34777924D01*
X37184312Y-34777925D01*
X37184310Y-34777927D01*
X37136610Y-34843579D01*
X37073240Y-34930800D01*
X36987454Y-35099163D01*
X36929059Y-35278881D01*
X36899500Y-35465513D01*
X36899500Y-35654486D01*
X36929059Y-35841118D01*
X36987454Y-36020836D01*
X37020449Y-36085591D01*
X37073240Y-36189199D01*
X37184310Y-36342073D01*
X37317927Y-36475690D01*
X37470801Y-36586760D01*
X37550347Y-36627290D01*
X37639163Y-36672545D01*
X37639165Y-36672545D01*
X37639168Y-36672547D01*
X37728734Y-36701649D01*
X37760803Y-36712069D01*
X37818478Y-36751507D01*
X37845676Y-36815866D01*
X37833761Y-36884712D01*
X37786516Y-36936188D01*
X37760803Y-36947931D01*
X37639163Y-36987454D01*
X37470800Y-37073240D01*
X37383579Y-37136610D01*
X37317927Y-37184310D01*
X37317925Y-37184312D01*
X37317924Y-37184312D01*
X37184312Y-37317924D01*
X37184312Y-37317925D01*
X37184310Y-37317927D01*
X37136610Y-37383579D01*
X37073240Y-37470800D01*
X36987454Y-37639163D01*
X36929059Y-37818881D01*
X36899500Y-38005513D01*
X36899500Y-38194486D01*
X36929059Y-38381118D01*
X36987454Y-38560836D01*
X37073240Y-38729199D01*
X37184310Y-38882073D01*
X37317927Y-39015690D01*
X37470801Y-39126760D01*
X37550347Y-39167290D01*
X37639163Y-39212545D01*
X37639165Y-39212545D01*
X37639168Y-39212547D01*
X37728734Y-39241649D01*
X37760803Y-39252069D01*
X37818478Y-39291507D01*
X37845676Y-39355866D01*
X37833761Y-39424712D01*
X37786516Y-39476188D01*
X37760803Y-39487931D01*
X37639163Y-39527454D01*
X37470800Y-39613240D01*
X37383579Y-39676610D01*
X37317927Y-39724310D01*
X37317925Y-39724312D01*
X37317924Y-39724312D01*
X37184312Y-39857924D01*
X37184312Y-39857925D01*
X37184310Y-39857927D01*
X37136610Y-39923579D01*
X37073240Y-40010800D01*
X36987454Y-40179163D01*
X36929059Y-40358881D01*
X36899500Y-40545513D01*
X36899500Y-40734486D01*
X36929059Y-40921118D01*
X36987454Y-41100836D01*
X37073240Y-41269199D01*
X37184310Y-41422073D01*
X37317927Y-41555690D01*
X37470801Y-41666760D01*
X37550347Y-41707290D01*
X37639163Y-41752545D01*
X37639165Y-41752545D01*
X37639168Y-41752547D01*
X37728734Y-41781649D01*
X37760803Y-41792069D01*
X37818478Y-41831507D01*
X37845676Y-41895866D01*
X37833761Y-41964712D01*
X37786516Y-42016188D01*
X37760803Y-42027931D01*
X37639163Y-42067454D01*
X37470800Y-42153240D01*
X37383579Y-42216610D01*
X37317927Y-42264310D01*
X37317925Y-42264312D01*
X37317924Y-42264312D01*
X37184312Y-42397924D01*
X37184312Y-42397925D01*
X37184310Y-42397927D01*
X37136610Y-42463579D01*
X37073240Y-42550800D01*
X36987454Y-42719163D01*
X36929059Y-42898881D01*
X36899500Y-43085513D01*
X36899500Y-43274486D01*
X36929059Y-43461118D01*
X36987454Y-43640836D01*
X37073240Y-43809199D01*
X37184310Y-43962073D01*
X37317927Y-44095690D01*
X37470801Y-44206760D01*
X37547161Y-44245667D01*
X37639163Y-44292545D01*
X37639165Y-44292545D01*
X37639168Y-44292547D01*
X37728734Y-44321649D01*
X37760803Y-44332069D01*
X37818478Y-44371507D01*
X37845676Y-44435866D01*
X37833761Y-44504712D01*
X37786516Y-44556188D01*
X37760803Y-44567931D01*
X37639163Y-44607454D01*
X37470800Y-44693240D01*
X37403866Y-44741871D01*
X37317927Y-44804310D01*
X37317925Y-44804312D01*
X37317924Y-44804312D01*
X37184312Y-44937924D01*
X37184312Y-44937925D01*
X37184310Y-44937927D01*
X37143490Y-44994111D01*
X37073240Y-45090800D01*
X36987454Y-45259163D01*
X36929059Y-45438881D01*
X36899500Y-45625513D01*
X36899500Y-45814486D01*
X36929059Y-46001118D01*
X36987454Y-46180836D01*
X37073104Y-46348933D01*
X37073240Y-46349199D01*
X37184310Y-46502073D01*
X37317927Y-46635690D01*
X37470801Y-46746760D01*
X37550347Y-46787290D01*
X37639163Y-46832545D01*
X37639165Y-46832545D01*
X37639168Y-46832547D01*
X37728734Y-46861649D01*
X37760803Y-46872069D01*
X37818478Y-46911507D01*
X37845676Y-46975866D01*
X37833761Y-47044712D01*
X37786516Y-47096188D01*
X37760803Y-47107931D01*
X37639163Y-47147454D01*
X37470800Y-47233240D01*
X37383579Y-47296610D01*
X37317927Y-47344310D01*
X37317925Y-47344312D01*
X37317924Y-47344312D01*
X37184312Y-47477924D01*
X37184312Y-47477925D01*
X37184310Y-47477927D01*
X37136610Y-47543579D01*
X37073240Y-47630800D01*
X36987454Y-47799163D01*
X36929059Y-47978881D01*
X36899500Y-48165513D01*
X36899500Y-48354486D01*
X36929059Y-48541118D01*
X36987454Y-48720836D01*
X37073240Y-48889199D01*
X37184310Y-49042073D01*
X37317927Y-49175690D01*
X37470801Y-49286760D01*
X37550347Y-49327290D01*
X37639163Y-49372545D01*
X37639165Y-49372545D01*
X37639168Y-49372547D01*
X37728734Y-49401649D01*
X37760803Y-49412069D01*
X37818478Y-49451507D01*
X37845676Y-49515866D01*
X37833761Y-49584712D01*
X37786516Y-49636188D01*
X37760803Y-49647931D01*
X37639163Y-49687454D01*
X37470800Y-49773240D01*
X37383579Y-49836610D01*
X37317927Y-49884310D01*
X37317925Y-49884312D01*
X37317924Y-49884312D01*
X37184312Y-50017924D01*
X37184312Y-50017925D01*
X37184310Y-50017927D01*
X37136610Y-50083579D01*
X37073240Y-50170800D01*
X36987454Y-50339163D01*
X36929059Y-50518881D01*
X36899500Y-50705513D01*
X36899500Y-50894486D01*
X36929059Y-51081118D01*
X36987454Y-51260836D01*
X37073240Y-51429199D01*
X37184310Y-51582073D01*
X37317927Y-51715690D01*
X37470801Y-51826760D01*
X37550347Y-51867290D01*
X37639163Y-51912545D01*
X37639165Y-51912545D01*
X37639168Y-51912547D01*
X37728734Y-51941649D01*
X37760803Y-51952069D01*
X37818478Y-51991507D01*
X37845676Y-52055866D01*
X37833761Y-52124712D01*
X37786516Y-52176188D01*
X37760803Y-52187931D01*
X37639163Y-52227454D01*
X37470800Y-52313240D01*
X37411732Y-52356156D01*
X37317927Y-52424310D01*
X37317925Y-52424312D01*
X37317924Y-52424312D01*
X37184312Y-52557924D01*
X37184312Y-52557925D01*
X37184310Y-52557927D01*
X37136610Y-52623579D01*
X37073240Y-52710800D01*
X36987454Y-52879163D01*
X36929059Y-53058881D01*
X36899500Y-53245513D01*
X36899500Y-53434486D01*
X36929059Y-53621118D01*
X36987454Y-53800836D01*
X37073240Y-53969199D01*
X37184310Y-54122073D01*
X37317927Y-54255690D01*
X37470801Y-54366760D01*
X37550347Y-54407290D01*
X37639163Y-54452545D01*
X37639165Y-54452545D01*
X37639168Y-54452547D01*
X37728734Y-54481649D01*
X37760803Y-54492069D01*
X37818478Y-54531507D01*
X37845676Y-54595866D01*
X37833761Y-54664712D01*
X37786516Y-54716188D01*
X37760803Y-54727931D01*
X37639163Y-54767454D01*
X37470800Y-54853240D01*
X37383579Y-54916610D01*
X37317927Y-54964310D01*
X37317925Y-54964312D01*
X37317924Y-54964312D01*
X37184312Y-55097924D01*
X37184312Y-55097925D01*
X37184310Y-55097927D01*
X37136610Y-55163579D01*
X37073240Y-55250800D01*
X36987454Y-55419163D01*
X36929059Y-55598881D01*
X36899500Y-55785513D01*
X36899500Y-55974486D01*
X36929059Y-56161118D01*
X36987454Y-56340836D01*
X37073240Y-56509199D01*
X37184310Y-56662073D01*
X37317927Y-56795690D01*
X37470801Y-56906760D01*
X37550347Y-56947290D01*
X37639163Y-56992545D01*
X37639165Y-56992545D01*
X37639168Y-56992547D01*
X37728734Y-57021649D01*
X37760803Y-57032069D01*
X37818478Y-57071507D01*
X37845676Y-57135866D01*
X37833761Y-57204712D01*
X37786516Y-57256188D01*
X37760803Y-57267931D01*
X37639163Y-57307454D01*
X37470800Y-57393240D01*
X37383591Y-57456602D01*
X37317927Y-57504310D01*
X37317925Y-57504312D01*
X37317924Y-57504312D01*
X37184312Y-57637924D01*
X37184312Y-57637925D01*
X37184310Y-57637927D01*
X37154337Y-57679181D01*
X37073240Y-57790800D01*
X36987454Y-57959163D01*
X36929059Y-58138881D01*
X36899500Y-58325513D01*
X36899500Y-58514486D01*
X36929059Y-58701118D01*
X36987454Y-58880836D01*
X37073240Y-59049199D01*
X37184310Y-59202073D01*
X37184312Y-59202075D01*
X37268056Y-59285819D01*
X37301541Y-59347142D01*
X37296557Y-59416834D01*
X37254685Y-59472767D01*
X37189221Y-59497184D01*
X37180375Y-59497500D01*
X28633944Y-59497500D01*
X28566905Y-59477815D01*
X28521150Y-59425011D01*
X28511206Y-59355853D01*
X28530841Y-59304609D01*
X28560775Y-59259811D01*
X28613580Y-59132328D01*
X28624944Y-59075199D01*
X28640500Y-58996995D01*
X28640500Y-58859004D01*
X28613581Y-58723677D01*
X28613580Y-58723676D01*
X28613580Y-58723672D01*
X28593955Y-58676292D01*
X28560778Y-58596195D01*
X28560771Y-58596182D01*
X28484114Y-58481458D01*
X28484111Y-58481454D01*
X28426819Y-58424162D01*
X28393334Y-58362839D01*
X28390500Y-58336481D01*
X28390500Y-52407518D01*
X28410185Y-52340479D01*
X28426814Y-52319841D01*
X28484114Y-52262542D01*
X28560775Y-52147811D01*
X28613580Y-52020328D01*
X28640500Y-51884993D01*
X28640500Y-51747007D01*
X28640500Y-51747004D01*
X28613581Y-51611677D01*
X28613580Y-51611676D01*
X28613580Y-51611672D01*
X28601320Y-51582073D01*
X28560778Y-51484195D01*
X28560771Y-51484182D01*
X28484114Y-51369458D01*
X28484111Y-51369454D01*
X28386545Y-51271888D01*
X28386541Y-51271885D01*
X28271817Y-51195228D01*
X28271804Y-51195221D01*
X28144332Y-51142421D01*
X28144322Y-51142418D01*
X28008995Y-51115500D01*
X28008993Y-51115500D01*
X27871007Y-51115500D01*
X27871005Y-51115500D01*
X27735677Y-51142418D01*
X27735667Y-51142421D01*
X27608195Y-51195221D01*
X27608182Y-51195228D01*
X27493458Y-51271885D01*
X27493454Y-51271888D01*
X27395888Y-51369454D01*
X27395885Y-51369458D01*
X27319228Y-51484182D01*
X27319221Y-51484195D01*
X27266421Y-51611667D01*
X27266418Y-51611677D01*
X27239500Y-51747004D01*
X27239500Y-51747007D01*
X27239500Y-51884993D01*
X27239500Y-51884995D01*
X27239499Y-51884995D01*
X27266418Y-52020322D01*
X27266421Y-52020332D01*
X27319221Y-52147804D01*
X27319228Y-52147817D01*
X27395884Y-52262540D01*
X27395885Y-52262541D01*
X27395886Y-52262542D01*
X27453182Y-52319838D01*
X27486666Y-52381159D01*
X27489500Y-52407518D01*
X27489500Y-58336481D01*
X27469815Y-58403520D01*
X27453181Y-58424162D01*
X27395888Y-58481454D01*
X27395885Y-58481458D01*
X27319228Y-58596182D01*
X27319221Y-58596195D01*
X27266421Y-58723667D01*
X27266418Y-58723677D01*
X27239500Y-58859004D01*
X27239500Y-58859007D01*
X27239500Y-58996993D01*
X27239500Y-58996995D01*
X27239499Y-58996995D01*
X27266418Y-59132322D01*
X27266421Y-59132332D01*
X27319221Y-59259804D01*
X27319225Y-59259811D01*
X27349158Y-59304609D01*
X27370036Y-59371286D01*
X27351552Y-59438666D01*
X27299573Y-59485357D01*
X27246056Y-59497500D01*
X13619625Y-59497500D01*
X13552586Y-59477815D01*
X13506831Y-59425011D01*
X13496887Y-59355853D01*
X13525912Y-59292297D01*
X13531944Y-59285819D01*
X13573263Y-59244500D01*
X13615690Y-59202073D01*
X13726760Y-59049199D01*
X13812547Y-58880832D01*
X13870940Y-58701118D01*
X13874872Y-58676292D01*
X13900500Y-58514486D01*
X13900500Y-58325513D01*
X13870940Y-58138881D01*
X13812545Y-57959163D01*
X13726759Y-57790800D01*
X13615690Y-57637927D01*
X13482073Y-57504310D01*
X13329199Y-57393240D01*
X13286008Y-57371233D01*
X13160836Y-57307454D01*
X13086472Y-57283291D01*
X13039195Y-57267930D01*
X12981521Y-57228493D01*
X12954323Y-57164134D01*
X12966238Y-57095288D01*
X13013482Y-57043812D01*
X13039194Y-57032069D01*
X13160832Y-56992547D01*
X13329199Y-56906760D01*
X13482073Y-56795690D01*
X13615690Y-56662073D01*
X13726760Y-56509199D01*
X13812547Y-56340832D01*
X13870940Y-56161118D01*
X13887560Y-56056182D01*
X13900500Y-55974486D01*
X13900500Y-55785513D01*
X13870940Y-55598881D01*
X13812545Y-55419163D01*
X13726759Y-55250800D01*
X13615690Y-55097927D01*
X13482073Y-54964310D01*
X13329199Y-54853240D01*
X13304851Y-54840834D01*
X13160836Y-54767454D01*
X13086472Y-54743291D01*
X13039195Y-54727930D01*
X12981521Y-54688493D01*
X12954323Y-54624134D01*
X12966238Y-54555288D01*
X13013482Y-54503812D01*
X13039194Y-54492069D01*
X13160832Y-54452547D01*
X13329199Y-54366760D01*
X13482073Y-54255690D01*
X13615690Y-54122073D01*
X13726760Y-53969199D01*
X13812547Y-53800832D01*
X13870940Y-53621118D01*
X13900500Y-53434486D01*
X13900500Y-53245513D01*
X13870940Y-53058881D01*
X13812545Y-52879163D01*
X13726759Y-52710800D01*
X13615690Y-52557927D01*
X13482073Y-52424310D01*
X13329199Y-52313240D01*
X13160836Y-52227454D01*
X13086472Y-52203291D01*
X13039195Y-52187930D01*
X12981521Y-52148493D01*
X12954323Y-52084134D01*
X12966238Y-52015288D01*
X13013482Y-51963812D01*
X13039194Y-51952069D01*
X13160832Y-51912547D01*
X13329199Y-51826760D01*
X13482073Y-51715690D01*
X13615690Y-51582073D01*
X13726760Y-51429199D01*
X13812547Y-51260832D01*
X13870940Y-51081118D01*
X13883788Y-51000000D01*
X13900500Y-50894486D01*
X13900500Y-50705513D01*
X13870940Y-50518881D01*
X13812545Y-50339163D01*
X13726759Y-50170800D01*
X13615690Y-50017927D01*
X13482073Y-49884310D01*
X13329199Y-49773240D01*
X13160836Y-49687454D01*
X13086472Y-49663291D01*
X13039195Y-49647930D01*
X12981521Y-49608493D01*
X12954323Y-49544134D01*
X12966238Y-49475288D01*
X13013482Y-49423812D01*
X13039194Y-49412069D01*
X13160832Y-49372547D01*
X13329199Y-49286760D01*
X13482073Y-49175690D01*
X13615690Y-49042073D01*
X13726760Y-48889199D01*
X13812547Y-48720832D01*
X13870940Y-48541118D01*
X13900500Y-48354486D01*
X13900500Y-48165513D01*
X13870940Y-47978881D01*
X13812545Y-47799163D01*
X13726759Y-47630800D01*
X13615690Y-47477927D01*
X13482073Y-47344310D01*
X13329199Y-47233240D01*
X13160836Y-47147454D01*
X13056574Y-47113577D01*
X13038386Y-47107667D01*
X12980712Y-47068230D01*
X12953514Y-47003871D01*
X12965429Y-46935025D01*
X13012673Y-46883549D01*
X13038389Y-46871806D01*
X13160635Y-46832086D01*
X13328937Y-46746331D01*
X13395284Y-46698126D01*
X13395285Y-46698126D01*
X12885178Y-46188019D01*
X12892993Y-46185925D01*
X13007007Y-46120099D01*
X13100099Y-46027007D01*
X13165925Y-45912993D01*
X13168019Y-45905178D01*
X13678126Y-46415285D01*
X13678126Y-46415284D01*
X13726331Y-46348937D01*
X13812085Y-46180637D01*
X13870451Y-46001002D01*
X13900000Y-45814447D01*
X13900000Y-45625552D01*
X13870451Y-45438997D01*
X13812085Y-45259362D01*
X13726329Y-45091059D01*
X13678127Y-45024714D01*
X13678126Y-45024713D01*
X13168018Y-45534821D01*
X13165925Y-45527007D01*
X13100099Y-45412993D01*
X13007007Y-45319901D01*
X12892993Y-45254075D01*
X12885177Y-45251980D01*
X13395284Y-44741872D01*
X13328933Y-44693666D01*
X13160637Y-44607914D01*
X13038388Y-44568193D01*
X12980712Y-44528755D01*
X12953514Y-44464397D01*
X12965429Y-44395550D01*
X13012673Y-44344075D01*
X13038382Y-44332333D01*
X13160832Y-44292547D01*
X13329199Y-44206760D01*
X13482073Y-44095690D01*
X13615690Y-43962073D01*
X13726760Y-43809199D01*
X13812547Y-43640832D01*
X13870940Y-43461118D01*
X13900500Y-43274486D01*
X13900500Y-43085513D01*
X13870940Y-42898881D01*
X13812545Y-42719163D01*
X13726759Y-42550800D01*
X13615690Y-42397927D01*
X13482073Y-42264310D01*
X13329199Y-42153240D01*
X13160836Y-42067454D01*
X13086472Y-42043291D01*
X13039195Y-42027930D01*
X12981521Y-41988493D01*
X12954323Y-41924134D01*
X12966238Y-41855288D01*
X13013482Y-41803812D01*
X13039194Y-41792069D01*
X13160832Y-41752547D01*
X13329199Y-41666760D01*
X13482073Y-41555690D01*
X13615690Y-41422073D01*
X13726760Y-41269199D01*
X13812547Y-41100832D01*
X13870940Y-40921118D01*
X13900500Y-40734486D01*
X13900500Y-40545513D01*
X13870940Y-40358881D01*
X13812545Y-40179163D01*
X13726759Y-40010800D01*
X13615690Y-39857927D01*
X13482073Y-39724310D01*
X13329199Y-39613240D01*
X13160836Y-39527454D01*
X13086472Y-39503291D01*
X13039195Y-39487930D01*
X12981521Y-39448493D01*
X12954323Y-39384134D01*
X12966238Y-39315288D01*
X13013482Y-39263812D01*
X13039194Y-39252069D01*
X13160832Y-39212547D01*
X13329199Y-39126760D01*
X13482073Y-39015690D01*
X13615690Y-38882073D01*
X13726760Y-38729199D01*
X13812547Y-38560832D01*
X13870940Y-38381118D01*
X13900500Y-38194486D01*
X13900500Y-38005513D01*
X13870940Y-37818881D01*
X13843846Y-37735497D01*
X13812547Y-37639168D01*
X13812545Y-37639165D01*
X13812545Y-37639163D01*
X13748055Y-37512595D01*
X13726760Y-37470801D01*
X13615690Y-37317927D01*
X13482073Y-37184310D01*
X13329199Y-37073240D01*
X13160836Y-36987454D01*
X13086472Y-36963291D01*
X13039195Y-36947930D01*
X12981521Y-36908493D01*
X12954323Y-36844134D01*
X12966238Y-36775288D01*
X13013482Y-36723812D01*
X13039194Y-36712069D01*
X13160832Y-36672547D01*
X13329199Y-36586760D01*
X13482073Y-36475690D01*
X13615690Y-36342073D01*
X13726760Y-36189199D01*
X13812547Y-36020832D01*
X13870940Y-35841118D01*
X13900500Y-35654486D01*
X13900500Y-35465513D01*
X13870940Y-35278881D01*
X13859157Y-35242619D01*
X13813552Y-35102263D01*
X13811557Y-35032427D01*
X13847637Y-34972594D01*
X13910338Y-34941765D01*
X13979752Y-34949729D01*
X14019165Y-34976268D01*
X14499181Y-35456284D01*
X14532666Y-35517607D01*
X14535500Y-35543965D01*
X14535500Y-43858481D01*
X14515815Y-43925520D01*
X14499181Y-43946162D01*
X14441888Y-44003454D01*
X14441885Y-44003458D01*
X14365228Y-44118182D01*
X14365221Y-44118195D01*
X14312421Y-44245667D01*
X14312418Y-44245677D01*
X14285500Y-44381004D01*
X14285500Y-44381007D01*
X14285500Y-44518993D01*
X14285500Y-44518995D01*
X14285499Y-44518995D01*
X14312418Y-44654322D01*
X14312421Y-44654332D01*
X14365221Y-44781804D01*
X14365228Y-44781817D01*
X14441885Y-44896541D01*
X14441888Y-44896545D01*
X14539454Y-44994111D01*
X14539458Y-44994114D01*
X14654182Y-45070771D01*
X14654195Y-45070778D01*
X14781667Y-45123578D01*
X14781672Y-45123580D01*
X14781676Y-45123580D01*
X14781677Y-45123581D01*
X14917004Y-45150500D01*
X14917007Y-45150500D01*
X15054995Y-45150500D01*
X15146041Y-45132389D01*
X15190328Y-45123580D01*
X15317811Y-45070775D01*
X15432542Y-44994114D01*
X15530114Y-44896542D01*
X15606775Y-44781811D01*
X15659580Y-44654328D01*
X15668904Y-44607453D01*
X15686500Y-44518995D01*
X15686500Y-44381004D01*
X15659581Y-44245677D01*
X15659580Y-44245676D01*
X15659580Y-44245672D01*
X15643462Y-44206759D01*
X15606778Y-44118195D01*
X15606771Y-44118182D01*
X15530114Y-44003458D01*
X15530111Y-44003454D01*
X15472819Y-43946162D01*
X15439334Y-43884839D01*
X15436500Y-43858481D01*
X15436500Y-35246693D01*
X15436500Y-35246691D01*
X15405799Y-35132114D01*
X15405799Y-35132113D01*
X15346489Y-35029386D01*
X13862694Y-33545591D01*
X13829209Y-33484268D01*
X13832444Y-33419593D01*
X13870940Y-33301118D01*
X13886169Y-33204963D01*
X13900500Y-33114486D01*
X13900500Y-32925513D01*
X13870940Y-32738881D01*
X13843846Y-32655497D01*
X13812547Y-32559168D01*
X13812545Y-32559165D01*
X13812545Y-32559163D01*
X13763202Y-32462322D01*
X13726760Y-32390801D01*
X13615690Y-32237927D01*
X13482073Y-32104310D01*
X13329199Y-31993240D01*
X13160836Y-31907454D01*
X13086472Y-31883291D01*
X13039195Y-31867930D01*
X12981521Y-31828493D01*
X12954323Y-31764134D01*
X12966238Y-31695288D01*
X13013482Y-31643812D01*
X13039194Y-31632069D01*
X13160832Y-31592547D01*
X13329199Y-31506760D01*
X13482073Y-31395690D01*
X13615690Y-31262073D01*
X13726760Y-31109199D01*
X13812547Y-30940832D01*
X13870940Y-30761118D01*
X13900500Y-30574486D01*
X13900500Y-30385513D01*
X13870940Y-30198881D01*
X13843846Y-30115497D01*
X13812547Y-30019168D01*
X13812545Y-30019165D01*
X13812545Y-30019163D01*
X13735404Y-29867766D01*
X13726760Y-29850801D01*
X13615690Y-29697927D01*
X13482073Y-29564310D01*
X13329199Y-29453240D01*
X13160836Y-29367454D01*
X13086472Y-29343291D01*
X13039195Y-29327930D01*
X12981521Y-29288493D01*
X12954323Y-29224134D01*
X12966238Y-29155288D01*
X13013482Y-29103812D01*
X13039194Y-29092069D01*
X13160832Y-29052547D01*
X13329199Y-28966760D01*
X13482073Y-28855690D01*
X13615690Y-28722073D01*
X13726760Y-28569199D01*
X13812547Y-28400832D01*
X13870940Y-28221118D01*
X13870958Y-28221002D01*
X13900500Y-28034486D01*
X13900500Y-27845513D01*
X13870940Y-27658881D01*
X13812545Y-27479163D01*
X13726894Y-27311064D01*
X13726760Y-27310801D01*
X13615690Y-27157927D01*
X13482073Y-27024310D01*
X13329199Y-26913240D01*
X13160836Y-26827454D01*
X13086472Y-26803291D01*
X13039195Y-26787930D01*
X12981521Y-26748493D01*
X12954323Y-26684134D01*
X12966238Y-26615288D01*
X13013482Y-26563812D01*
X13039194Y-26552069D01*
X13160832Y-26512547D01*
X13329199Y-26426760D01*
X13482073Y-26315690D01*
X13615690Y-26182073D01*
X13726760Y-26029199D01*
X13812547Y-25860832D01*
X13870940Y-25681118D01*
X13900500Y-25494486D01*
X13900500Y-25305513D01*
X13870940Y-25118881D01*
X13812545Y-24939163D01*
X13726759Y-24770800D01*
X13615690Y-24617927D01*
X13482073Y-24484310D01*
X13329199Y-24373240D01*
X13160836Y-24287454D01*
X13086472Y-24263291D01*
X13039195Y-24247930D01*
X12981521Y-24208493D01*
X12954323Y-24144134D01*
X12966238Y-24075288D01*
X13013482Y-24023812D01*
X13039194Y-24012069D01*
X13160832Y-23972547D01*
X13329199Y-23886760D01*
X13482073Y-23775690D01*
X13615690Y-23642073D01*
X13726760Y-23489199D01*
X13812547Y-23320832D01*
X13870940Y-23141118D01*
X13900500Y-22954486D01*
X13900500Y-22765513D01*
X13870940Y-22578881D01*
X13812545Y-22399163D01*
X13726759Y-22230800D01*
X13615690Y-22077927D01*
X13482073Y-21944310D01*
X13329199Y-21833240D01*
X13160836Y-21747454D01*
X13086472Y-21723291D01*
X13039195Y-21707930D01*
X12981521Y-21668493D01*
X12954323Y-21604134D01*
X12966238Y-21535288D01*
X13013482Y-21483812D01*
X13039194Y-21472069D01*
X13160832Y-21432547D01*
X13329199Y-21346760D01*
X13482073Y-21235690D01*
X13615690Y-21102073D01*
X13726760Y-20949199D01*
X13812547Y-20780832D01*
X13870940Y-20601118D01*
X13887560Y-20496182D01*
X13900500Y-20414486D01*
X13900500Y-20225513D01*
X13870940Y-20038881D01*
X13812545Y-19859163D01*
X13767290Y-19770347D01*
X13726760Y-19690801D01*
X13615690Y-19537927D01*
X13482073Y-19404310D01*
X13329199Y-19293240D01*
X13160836Y-19207454D01*
X13086472Y-19183291D01*
X13039195Y-19167930D01*
X12981521Y-19128493D01*
X12954323Y-19064134D01*
X12966238Y-18995288D01*
X13013482Y-18943812D01*
X13039194Y-18932069D01*
X13160832Y-18892547D01*
X13329199Y-18806760D01*
X13482073Y-18695690D01*
X13615690Y-18562073D01*
X13726760Y-18409199D01*
X13812547Y-18240832D01*
X13870940Y-18061118D01*
X13900500Y-17874486D01*
X13900500Y-17685513D01*
X13870940Y-17498881D01*
X13812545Y-17319163D01*
X13767290Y-17230347D01*
X13726760Y-17150801D01*
X13615690Y-16997927D01*
X13482073Y-16864310D01*
X13329199Y-16753240D01*
X13160836Y-16667454D01*
X13086472Y-16643291D01*
X13039195Y-16627930D01*
X12981521Y-16588493D01*
X12954323Y-16524134D01*
X12966238Y-16455288D01*
X13013482Y-16403812D01*
X13039194Y-16392069D01*
X13160832Y-16352547D01*
X13329199Y-16266760D01*
X13482073Y-16155690D01*
X13615690Y-16022073D01*
X13726760Y-15869199D01*
X13812547Y-15700832D01*
X13870940Y-15521118D01*
X13900500Y-15334486D01*
X13900500Y-15145513D01*
X13870940Y-14958881D01*
X13812545Y-14779163D01*
X13726759Y-14610800D01*
X13615690Y-14457927D01*
X13482073Y-14324310D01*
X13329199Y-14213240D01*
X13329191Y-14213236D01*
X13175613Y-14134984D01*
X13124817Y-14087009D01*
X13108022Y-14019188D01*
X13130559Y-13953053D01*
X13185275Y-13909602D01*
X13231906Y-13900499D01*
X13644864Y-13900499D01*
X13644879Y-13900497D01*
X13644882Y-13900497D01*
X13669987Y-13897586D01*
X13669988Y-13897585D01*
X13669991Y-13897585D01*
X13772765Y-13852206D01*
X13852206Y-13772765D01*
X13897585Y-13669991D01*
X13900500Y-13644865D01*
X13900500Y-13124000D01*
X13920185Y-13056961D01*
X13972989Y-13011206D01*
X14024500Y-13000000D01*
X36845629Y-13000000D01*
X36912668Y-13019685D01*
X36958423Y-13072489D01*
X36963560Y-13085682D01*
X36987914Y-13160637D01*
X37073666Y-13328933D01*
X37121872Y-13395284D01*
X37631980Y-12885176D01*
X37634075Y-12892993D01*
G37*
%TD.AperFunction*%
%TA.AperFunction,Conductor*%
G36*
X39379752Y-17169729D02*
G01*
X39419165Y-17196268D01*
X76932716Y-54709819D01*
X76966201Y-54771142D01*
X76961217Y-54840834D01*
X76919345Y-54896767D01*
X76853881Y-54921184D01*
X76845035Y-54921500D01*
X63229965Y-54921500D01*
X63162926Y-54901815D01*
X63142284Y-54885181D01*
X39262694Y-31005591D01*
X39229209Y-30944268D01*
X39232444Y-30879593D01*
X39270940Y-30761118D01*
X39286169Y-30664963D01*
X39300500Y-30574486D01*
X39300500Y-30385513D01*
X39270940Y-30198881D01*
X39243846Y-30115497D01*
X39212547Y-30019168D01*
X39212545Y-30019165D01*
X39212545Y-30019163D01*
X39135404Y-29867766D01*
X39126760Y-29850801D01*
X39015690Y-29697927D01*
X38882073Y-29564310D01*
X38729199Y-29453240D01*
X38560836Y-29367454D01*
X38456574Y-29333577D01*
X38438386Y-29327667D01*
X38380712Y-29288230D01*
X38353514Y-29223871D01*
X38365429Y-29155025D01*
X38412673Y-29103549D01*
X38438389Y-29091806D01*
X38560635Y-29052086D01*
X38728937Y-28966331D01*
X38795284Y-28918126D01*
X38795285Y-28918126D01*
X38285178Y-28408019D01*
X38292993Y-28405925D01*
X38407007Y-28340099D01*
X38500099Y-28247007D01*
X38565925Y-28132993D01*
X38568019Y-28125178D01*
X39078126Y-28635285D01*
X39078126Y-28635284D01*
X39126331Y-28568937D01*
X39212085Y-28400637D01*
X39270451Y-28221002D01*
X39300000Y-28034447D01*
X39300000Y-27845552D01*
X39270451Y-27658997D01*
X39212085Y-27479362D01*
X39126329Y-27311059D01*
X39078127Y-27244714D01*
X39078126Y-27244713D01*
X38568018Y-27754821D01*
X38565925Y-27747007D01*
X38500099Y-27632993D01*
X38407007Y-27539901D01*
X38292993Y-27474075D01*
X38285177Y-27471980D01*
X38795284Y-26961872D01*
X38728933Y-26913666D01*
X38560637Y-26827914D01*
X38438388Y-26788193D01*
X38380712Y-26748755D01*
X38353514Y-26684397D01*
X38365429Y-26615550D01*
X38412673Y-26564075D01*
X38438382Y-26552333D01*
X38560832Y-26512547D01*
X38729199Y-26426760D01*
X38882073Y-26315690D01*
X39015690Y-26182073D01*
X39126760Y-26029199D01*
X39212547Y-25860832D01*
X39270940Y-25681118D01*
X39300500Y-25494486D01*
X39300500Y-25305513D01*
X39270940Y-25118881D01*
X39212545Y-24939163D01*
X39126759Y-24770800D01*
X39015690Y-24617927D01*
X38882073Y-24484310D01*
X38729199Y-24373240D01*
X38560836Y-24287454D01*
X38486472Y-24263291D01*
X38439195Y-24247930D01*
X38381521Y-24208493D01*
X38354323Y-24144134D01*
X38366238Y-24075288D01*
X38413482Y-24023812D01*
X38439194Y-24012069D01*
X38560832Y-23972547D01*
X38729199Y-23886760D01*
X38882073Y-23775690D01*
X39015690Y-23642073D01*
X39126760Y-23489199D01*
X39212547Y-23320832D01*
X39270940Y-23141118D01*
X39300500Y-22954486D01*
X39300500Y-22765513D01*
X39270940Y-22578881D01*
X39212545Y-22399163D01*
X39126759Y-22230800D01*
X39015690Y-22077927D01*
X38882073Y-21944310D01*
X38729199Y-21833240D01*
X38560836Y-21747454D01*
X38486472Y-21723291D01*
X38439195Y-21707930D01*
X38381521Y-21668493D01*
X38354323Y-21604134D01*
X38366238Y-21535288D01*
X38413482Y-21483812D01*
X38439194Y-21472069D01*
X38560832Y-21432547D01*
X38729199Y-21346760D01*
X38882073Y-21235690D01*
X39015690Y-21102073D01*
X39126760Y-20949199D01*
X39212547Y-20780832D01*
X39270940Y-20601118D01*
X39287560Y-20496182D01*
X39300500Y-20414486D01*
X39300500Y-20225513D01*
X39270940Y-20038881D01*
X39259157Y-20002619D01*
X39213552Y-19862263D01*
X39211557Y-19792427D01*
X39247637Y-19732594D01*
X39310338Y-19701765D01*
X39379752Y-19709729D01*
X39419165Y-19736268D01*
X40411181Y-20728284D01*
X40444666Y-20789607D01*
X40447500Y-20815965D01*
X40447500Y-20896993D01*
X40447500Y-20896995D01*
X40447499Y-20896995D01*
X40474418Y-21032322D01*
X40474421Y-21032332D01*
X40527221Y-21159804D01*
X40527228Y-21159817D01*
X40603885Y-21274541D01*
X40603888Y-21274545D01*
X40701454Y-21372111D01*
X40701458Y-21372114D01*
X40816182Y-21448771D01*
X40816195Y-21448778D01*
X40943667Y-21501578D01*
X40943672Y-21501580D01*
X40943676Y-21501580D01*
X40943677Y-21501581D01*
X41079004Y-21528500D01*
X41079007Y-21528500D01*
X41216995Y-21528500D01*
X41308041Y-21510389D01*
X41352328Y-21501580D01*
X41479811Y-21448775D01*
X41594542Y-21372114D01*
X41692114Y-21274542D01*
X41768775Y-21159811D01*
X41821580Y-21032328D01*
X41848500Y-20896993D01*
X41848500Y-20759007D01*
X41848500Y-20759004D01*
X41821581Y-20623677D01*
X41821580Y-20623676D01*
X41821580Y-20623672D01*
X41812238Y-20601118D01*
X41768778Y-20496195D01*
X41768771Y-20496182D01*
X41692114Y-20381458D01*
X41692111Y-20381454D01*
X41594545Y-20283888D01*
X41594541Y-20283885D01*
X41479817Y-20207228D01*
X41479804Y-20207221D01*
X41352332Y-20154421D01*
X41352322Y-20154418D01*
X41216995Y-20127500D01*
X41216993Y-20127500D01*
X41135965Y-20127500D01*
X41068926Y-20107815D01*
X41048284Y-20091181D01*
X39262694Y-18305591D01*
X39229209Y-18244268D01*
X39232444Y-18179593D01*
X39270940Y-18061118D01*
X39286169Y-17964963D01*
X39300500Y-17874486D01*
X39300500Y-17685513D01*
X39270940Y-17498881D01*
X39259157Y-17462619D01*
X39213552Y-17322263D01*
X39211557Y-17252427D01*
X39247637Y-17192594D01*
X39310338Y-17161765D01*
X39379752Y-17169729D01*
G37*
%TD.AperFunction*%
%TD*%
M02*
