M48
; DRILL file KiCad 10.0.6 date 2026-09-08T11:52:53
; FORMAT={-:-/ absolute / metric / decimal}
; #@! TF.CreationDate,2026-09-08T11:52:53+03:00
; #@! TF.GenerationSoftware,Kicad,Pcbnew,10.0.6
; #@! TF.FileFunction,Plated,1,2,PTH
FMAT,2
METRIC
; #@! TA.AperFunction,Plated,PTH,ViaDrill
T1C0.400
; #@! TA.AperFunction,Plated,PTH,ViaDrill
T2C0.500
; #@! TA.AperFunction,Plated,PTH,ComponentDrill
T3C1.000
%
G90
G05
T1
X8.382Y-32.258
X14.986Y-44.45
X25.908Y-61.468
X27.94Y-51.816
X27.94Y-58.928
X36.068Y-61.468
X41.148Y-20.828
X45.72Y-77.216
X46.99Y-76.962
X47.244Y-71.374
X48.26Y-76.708
X52.07Y-91.44
X70.612Y-84.582
X72.136Y-84.582
X73.406Y-87.376
X74.676Y-87.122
X75.692Y-92.202
X81.28Y-83.312
X85.344Y-84.582
X89.662Y-88.9
X101.346Y-90.17
X102.362Y-91.44
X103.124Y-90.424
X104.14Y-93.218
X104.648Y-56.388
X115.316Y-61.468
T2
X9.652Y-58.166
X117.094Y-63.5
T3
X12.7Y-12.7
X12.7Y-15.24
X12.7Y-17.78
X12.7Y-20.32
X12.7Y-22.86
X12.7Y-25.4
X12.7Y-27.94
X12.7Y-30.48
X12.7Y-33.02
X12.7Y-35.56
X12.7Y-38.1
X12.7Y-40.64
X12.7Y-43.18
X12.7Y-45.72
X12.7Y-48.26
X12.7Y-50.8
X12.7Y-53.34
X12.7Y-55.88
X12.7Y-58.42
X12.7Y-81.28
X12.7Y-91.44
X12.7Y-104.14
X15.24Y-104.14
X17.78Y-104.14
X20.32Y-81.28
X20.32Y-91.44
X25.4Y-101.6
X25.4Y-106.68
X26.67Y-116.84
X33.02Y-101.6
X33.02Y-106.68
X34.29Y-116.84
X38.1Y-12.7
X38.1Y-15.24
X38.1Y-17.78
X38.1Y-20.32
X38.1Y-22.86
X38.1Y-25.4
X38.1Y-27.94
X38.1Y-30.48
X38.1Y-33.02
X38.1Y-35.56
X38.1Y-38.1
X38.1Y-40.64
X38.1Y-43.18
X38.1Y-45.72
X38.1Y-48.26
X38.1Y-50.8
X38.1Y-53.34
X38.1Y-55.88
X38.1Y-58.42
X50.8Y-76.2
X50.8Y-97.79
X50.8Y-104.14
X50.8Y-111.76
X53.34Y-87.63
X53.34Y-104.14
X55.88Y-87.63
X55.88Y-104.14
X55.88Y-119.38
X58.42Y-76.2
X58.42Y-97.79
X58.42Y-111.76
X58.42Y-119.38
X60.96Y-119.38
X63.5Y-76.2
X63.5Y-119.38
X66.04Y-87.63
X68.58Y-87.63
X71.12Y-76.2
X73.66Y-97.79
X73.66Y-104.14
X73.66Y-111.76
X76.2Y-76.2
X76.2Y-104.14
X78.74Y-87.63
X78.74Y-104.14
X81.28Y-58.42
X81.28Y-87.63
X81.28Y-97.79
X81.28Y-111.76
X83.82Y-76.2
X87.63Y-69.85
X88.9Y-58.42
X88.9Y-76.2
X88.9Y-116.84
X91.44Y-87.63
X91.44Y-116.84
X93.98Y-87.63
X95.25Y-69.85
X96.52Y-76.2
X96.52Y-102.87
X97.79Y-81.28
X99.06Y-102.87
X100.33Y-81.28
X102.87Y-59.69
X105.41Y-59.69
X107.95Y-59.69
X107.95Y-85.09
X107.95Y-87.63
X107.95Y-90.17
X107.95Y-92.71
X107.95Y-95.25
X107.95Y-97.79
X110.49Y-59.69
X113.03Y-59.69
X115.57Y-59.69
X118.11Y-59.69
X120.65Y-59.69
X123.19Y-71.12
X125.73Y-71.12
X132.08Y-71.12
X134.62Y-71.12
M30
